<svg width="231" height="123" viewBox="0 0 231 123" fill="none" xmlns="http://www.w3.org/2000/svg">
<mask id="path-1-outside-1_113_4744" maskUnits="userSpaceOnUse" x="0.640625" y="0" width="231" height="123" fill="black">
<rect fill="white" x="0.640625" width="231" height="123"/>
<path fill-rule="evenodd" clip-rule="evenodd" d="M137.904 2.91994C136.42 3.5588 135.634 3.75653 134.998 3.65113C132.444 3.22796 131.234 3.10434 130.746 3.21667C130.448 3.28566 129.473 4.26254 128.58 5.38791C127.202 7.12367 126.861 7.40937 126.328 7.27268C125.071 6.95004 121.322 6.28477 120.614 6.25861C119.637 6.22245 113.663 6.60997 112.834 6.76333C112.158 6.88849 107.516 12.1347 107.129 13.2104C107.023 13.5071 107.09 14.2914 107.279 14.9538C107.681 16.3641 107.256 16.8804 106.233 16.2241C105.912 16.0187 105.162 15.6181 104.565 15.3342C103.3 14.7315 101.811 14.7946 97.4224 15.636L97.0906 15.6996C95.5888 15.9876 94.0374 15.5803 92.8708 14.5917V14.5917C90.7563 12.7995 90.5305 12.758 87.0692 13.5212C85.5802 13.8497 84.5725 13.9444 84.0541 13.8043C79.9899 12.7069 80.1718 12.7238 75.8611 13.0372C70.6133 13.4189 68.9038 13.2468 67.5535 12.2004C66.6696 11.5154 66.2096 11.3813 64.0099 11.1674C62.6198 11.0322 60.1406 10.587 58.5012 10.1782C53.8325 9.01433 52.0737 8.88302 41.5226 8.91149C33.8325 8.93226 31.527 9.01485 30.7713 9.29721C30.2264 9.50059 29.011 10.4985 27.9678 11.5987L27.1988 12.4097C26.514 13.1319 25.5624 13.5409 24.5672 13.5409V13.5409C21.6021 13.5409 20.6563 14.4335 20.6563 17.2312C20.6563 18.8816 20.6743 18.9185 22.883 21.7961C25.2265 24.8493 25.8733 26.3458 25.882 28.7365C25.8876 30.1976 25.1745 30.9806 23.8381 30.9806C23.3508 30.9806 22.5991 31.144 22.1673 31.3435C20.4134 32.1544 11.1597 41.1454 9.48223 43.6682C8.94961 44.4692 8.9374 44.6687 9.28696 46.8479C9.49182 48.1266 9.5848 49.3807 9.49356 49.6349C9.40203 49.8893 8.85052 50.324 8.26791 50.6007C7.47028 50.98 7.0103 51.4858 6.40678 52.6476C3.28338 58.6596 2.64062 60.0333 2.64062 60.6957C2.64062 61.6739 4.58952 63.5992 7.37962 65.3773C8.52885 66.1095 9.95994 67.0948 10.5597 67.5667C11.874 68.6005 13.5837 68.7336 14.9901 67.9116C16.1785 67.2169 16.454 67.2546 18.2721 68.3605V68.3605C19.3073 68.99 20.4927 69.3294 21.7042 69.3432L26.7116 69.3999L31.2105 69.4509C32.7352 69.4682 34.2061 70.017 35.3693 71.0028V71.0028L35.474 71.0915C36.5683 72.019 37.9562 72.528 39.3906 72.528V72.528H39.5489C40.8823 72.528 42.1733 72.0599 43.1969 71.2054V71.2054V71.2054C44.2302 70.3429 45.4943 69.8034 46.8319 69.6539L50.0806 69.2909C52.9954 68.9655 55.4821 68.6949 55.6068 68.69C55.7317 68.6851 57.2581 67.4692 58.999 65.9881C61.4325 63.9174 62.3461 63.2953 62.9519 63.2953C63.7609 63.2953 65.6825 63.0475 70.1164 62.3712C72.1344 62.0632 72.783 62.0481 73.3127 62.2966C74.8472 63.0167 78.7212 65.4729 79.9338 66.4944C81.8272 68.0894 82.2 68.2107 83.8565 67.7706C85.7232 67.2746 85.6509 67.2556 86.3241 68.4205C86.898 69.4132 87.2554 69.5966 88.9416 69.7633V69.7633C89.3512 69.8038 89.6601 70.1535 89.6498 70.5649L89.5879 73.0417L89.5706 73.729C89.5305 75.3249 90.2024 76.856 91.404 77.9071V77.9071C92.4468 78.8194 93.3003 79.6673 93.3003 79.7911C93.3003 80.0386 93.9334 81.3935 94.6976 82.7815C95.0245 83.3755 95.7722 83.9846 96.9325 84.6019C98.5887 85.4834 98.6806 85.5852 98.7677 86.6382C98.9203 88.4807 98.6899 88.8731 97.3375 89.0747C96.3202 89.2262 95.7978 89.1101 93.8265 88.2937L92.8688 87.8971C91.9994 87.537 91.0223 87.538 90.1536 87.9V87.9C89.4071 88.2109 88.4041 88.7451 87.9246 89.0867C87.0581 89.704 87.0535 89.7217 87.1345 92.0409L87.1538 92.5913C87.1933 93.7215 86.7314 94.8114 85.8917 95.5689V95.5689C85.1636 96.2262 83.8937 97.6296 83.0705 98.6875C82.247 99.7454 81.1716 100.964 80.6808 101.395C79.0525 102.825 78.1903 103.85 78.1903 104.355C78.1903 104.63 78.7142 105.356 79.3549 105.969C80.2662 106.842 81.0664 107.267 83.0365 107.923C85.9252 108.885 85.6979 108.914 90.2309 106.992C91.6794 106.378 93.0736 105.874 93.3296 105.872C94.4524 105.864 95.5763 106.432 95.7661 107.104C96.0569 108.132 96.7683 108.691 97.7766 108.681C99.6566 108.665 100.112 107.757 99.5996 105.051V105.051C99.4585 104.305 99.72 103.54 100.288 103.036L102.366 101.195C105.425 98.4839 110.926 93.1176 111.455 92.3292C111.617 92.0884 111.881 91.3146 112.041 90.6099C112.385 89.1011 112.608 89.0206 116.562 88.9721C119.043 88.9418 119.049 88.9436 120.042 89.8471C120.588 90.3449 121.431 90.8427 121.915 90.9533C122.69 91.1302 122.797 91.2687 122.825 92.1261C122.859 93.1694 123.184 93.4802 124.506 93.7328C124.969 93.8213 126.216 94.6164 127.277 95.4999V95.4999C128.525 96.5393 130.092 97.1185 131.717 97.1407L134.782 97.1826L139.302 97.2441C139.982 97.2534 140.644 97.0172 141.164 96.5788V96.5788C141.915 95.9469 142.048 95.9205 143.061 96.2021C144.802 96.6858 144.431 97.2003 141.539 98.3136C140.821 98.5898 139.348 99.58 138.265 100.514C136.797 101.78 135.865 102.351 134.6 102.758C133.667 103.058 132.774 103.304 132.616 103.304C132.145 103.304 131.366 104.203 131.366 104.747C131.366 105.024 131.872 105.688 132.492 106.222C133.455 107.052 133.948 107.249 135.906 107.587C137.937 107.938 138.341 108.107 139.504 109.098C140.62 110.05 141.027 110.231 142.264 110.324C143.062 110.384 143.812 110.445 143.929 110.459C144.381 110.514 143.762 114.485 143.091 115.838C142.715 116.596 142.408 117.408 142.408 117.642C142.408 117.875 143.163 118.727 144.087 119.533V119.533C145.169 120.479 146.558 121 147.996 121H148.619C151.372 121 151.555 120.964 153.841 119.958C155.956 119.028 156.335 118.747 157.372 117.341V117.341C158.122 116.326 159.213 115.616 160.446 115.344L161.004 115.22C162.363 114.92 163.736 114.58 164.055 114.465C164.375 114.35 165.42 113.981 166.377 113.646C167.374 113.296 168.634 112.588 169.326 111.989V111.989C170.076 111.339 171.112 111.132 172.053 111.443L172.173 111.483C174.481 112.245 178.204 112.238 180.113 111.468C182.31 110.583 182.507 110.35 182.507 108.638C182.507 107.234 182.568 107.096 183.364 106.693C184.434 106.151 184.842 105.409 184.47 104.68C184.205 104.159 180.685 102.534 179.821 102.534C179.605 102.534 177.866 102.999 175.955 103.566C174.045 104.134 172.221 104.613 171.901 104.631C171.025 104.68 167.148 102.637 165.558 101.288C163.85 99.8393 163.422 99.1576 163.287 97.6699V97.6699C163.225 96.9804 163.596 96.3244 164.22 96.023L165.112 95.5915C166.499 94.9203 168.074 93.7372 170.729 91.3721C174.251 88.234 174.472 88.0844 175.629 88.0647C176.794 88.0449 176.837 88.0721 176.744 88.7741C176.607 89.8002 177.677 90.7825 178.702 90.5719C179.771 90.3521 180.204 89.9169 180.753 88.5086C181.204 87.3494 181.329 87.2468 182.815 86.8134C183.961 86.4787 184.825 86.3966 185.957 86.5151C187.486 86.6752 187.543 86.6572 188.717 85.6437C189.92 84.6058 191.459 84.0892 193.39 84.0751C193.956 84.071 194.575 83.7884 195.211 83.2449C196.049 82.5284 196.448 82.3968 198.276 82.235C199.432 82.1327 201.118 82.0419 202.023 82.0331V82.0331C203.051 82.0232 204.004 81.4972 204.56 80.6334L204.784 80.2861C205.769 78.7565 205.915 78.3039 206.044 76.3963V76.3963C206.131 75.1018 207.022 74.0018 208.27 73.6481L208.55 73.5688C211.356 72.774 211.793 72.4942 211.911 71.4191C212 70.6107 212.012 70.6045 213.599 70.6166C214.478 70.6232 216.308 70.6715 217.667 70.7235C219.974 70.8123 221.684 70.583 223.513 69.9398C224.115 69.7282 224.496 69.1794 225.333 67.3172V67.3172C226.02 65.7898 226.185 64.079 225.802 62.4487L225.71 62.0573L225.537 61.3198C225.213 59.9386 225.484 58.4849 226.283 57.3127V57.3127C226.972 56.3009 227.539 55.2912 227.541 55.0689C227.547 54.6244 226.604 53.7801 225.585 53.3162C225.225 53.1526 224.931 52.9166 224.931 52.7917C224.931 52.6671 225.853 51.9731 226.979 51.2498C228.106 50.5266 229.107 49.7529 229.204 49.5305C229.3 49.3079 229.083 48.419 228.721 47.5549C228.359 46.6909 228.068 45.8684 228.074 45.7274C228.08 45.5863 228.116 45.0218 228.155 44.473C228.256 43.026 227.66 42.7257 225.085 42.9252L224.387 42.9793C223.53 43.0457 222.683 42.7524 222.05 42.1697V42.1697C221.316 41.4936 220.522 41.1169 218.999 40.7217C217.867 40.4278 216.025 39.9502 214.906 39.6602C213.252 39.2311 212.589 38.8897 211.357 37.8311C209.974 36.6439 209.655 36.499 207.724 36.184C206.56 35.9942 204.802 35.7693 203.816 35.6844C202.142 35.5403 201.973 35.576 201.236 36.2263V36.2263C200.785 36.6248 200.108 36.6268 199.654 36.2311L199.105 35.7521C198.2 34.963 197.492 33.9982 196.933 32.7902C196.476 31.8049 195.925 30.868 195.706 30.708C194.951 30.1545 189.696 31.0604 187.156 32.1821C184.384 33.4068 181.407 33.0336 179.124 31.1758C177.765 30.0702 177.223 30.016 174.516 30.7157C172.164 31.324 172.223 31.3327 170.928 30.1899C170.112 29.469 169.757 28.9648 169.877 28.695C170.74 26.7633 170.911 26.0124 170.635 25.3748C170.473 25.0021 170.127 24.0047 169.865 23.1584C169.468 21.8786 169.087 21.3498 167.602 20.0167C165.589 18.2107 165.567 18.2061 162.06 18.8431C159.957 19.225 159.505 19.2319 157.953 18.9072V18.9072C156.867 18.6798 155.973 17.9132 155.581 16.875V16.875C154.7 14.5376 154.721 14.3634 155.909 14.167C157.368 13.9251 157.619 13.5312 157.382 11.8547C157.163 10.3046 156.937 10.0422 154.874 8.93355C153.588 8.24288 153.53 8.15902 153.338 6.71076C153.151 5.29917 153.027 5.10631 151.341 3.60291V3.60291C150.184 2.57098 148.686 2.00394 147.135 2.01106L144.741 2.02206L142.152 2.03394C140.691 2.04065 139.246 2.34199 137.904 2.91994V2.91994ZM150.326 4.53055C151.748 5.72773 151.814 5.84467 151.94 7.38167V7.38167C152.022 8.38296 152.599 9.27685 153.478 9.76327L153.923 10.0092C154.941 10.5726 155.776 11.1651 155.778 11.3256C155.78 11.4861 155.856 11.8611 155.947 12.1589C156.089 12.6261 155.929 12.7408 154.785 12.9949C152.964 13.3996 152.867 13.921 154.036 17.0173C154.871 19.2296 155.067 19.5266 155.893 19.831C157.931 20.5827 160.317 20.574 164.233 19.8C164.857 19.6766 165.255 19.8705 166.476 20.8913C167.77 21.9728 168.044 22.3875 168.606 24.1127C169.233 26.0334 169.237 26.1342 168.76 27.4693C168.49 28.2264 168.269 29.0628 168.269 29.3279C168.269 29.5934 168.951 30.42 169.784 31.165C171.545 32.7387 171.903 32.7925 175.123 31.9667L175.694 31.8204C176.685 31.5662 177.738 31.8167 178.509 32.4902V32.4902C179.186 33.0821 180.068 33.6294 180.47 33.7068C180.871 33.784 181.975 34.0133 182.924 34.2159C184.428 34.5378 184.762 34.537 185.539 34.2113C188.425 33.0031 190.283 32.4745 193.758 31.8744C194.686 31.7138 194.7 31.7267 195.737 33.7189C197.716 37.5194 200.314 39.0867 201.998 37.4961C202.764 36.7721 202.872 36.7698 206.907 37.3894C208.584 37.6469 208.96 37.8234 210.394 39.0257C211.582 40.0225 212.378 40.4588 213.453 40.7024C214.252 40.8835 215.233 41.1297 215.633 41.2497C216.032 41.3695 217.206 41.6693 218.24 41.9163C219.42 42.1976 220.405 42.6211 220.883 43.0522C222.299 44.3314 222.891 44.5279 224.743 44.3337C226.593 44.1401 226.884 44.3142 226.568 45.4247C226.475 45.752 226.657 46.6163 226.973 47.3503C227.288 48.083 227.546 48.7919 227.546 48.9258C227.546 49.0599 226.566 49.8095 225.367 50.592C223.393 51.8805 223.188 52.0972 223.188 52.893C223.188 53.5034 223.343 53.8158 223.696 53.9166C223.976 53.9963 224.582 54.3287 225.043 54.6552V54.6552C225.505 54.9825 225.613 55.6232 225.283 56.0837L224.648 56.9716C223.728 58.2578 223.452 58.8715 223.563 59.3921C223.733 60.1938 224.234 62.4187 224.597 63.9834C224.81 64.9007 224.72 65.3093 223.98 66.8045C223.504 67.766 223.073 68.5946 223.022 68.6459C222.97 68.6972 222.067 68.9431 221.015 69.1924C219.492 69.5533 218.673 69.602 217.004 69.4312C214.238 69.1481 211.518 69.1465 211.015 69.4276C210.793 69.5517 210.53 70.0952 210.43 70.6353C210.251 71.6088 210.229 71.6235 207.698 72.3931C206.295 72.8199 205.024 73.3423 204.874 73.5539C204.723 73.7655 204.598 74.7895 204.595 75.8295C204.591 77.4683 204.468 77.9184 203.666 79.2046V79.2046C203.087 80.1344 202.09 80.7219 200.996 80.7776L199.187 80.8696C195.657 81.0493 195.625 81.0565 194.704 81.8954C193.889 82.6374 193.53 82.762 191.747 82.92C189.894 83.0844 189.596 83.196 188.302 84.2103C187 85.2308 186.81 85.3013 185.945 85.0825C185.267 84.9107 184.557 84.9584 183.393 85.2536C180.233 86.055 179.979 86.2166 179.42 87.7808C178.884 89.2811 178.23 89.5771 178.384 88.2491C178.535 86.9545 177.797 86.5472 175.584 86.7039V86.7039C174.37 86.7899 173.217 87.2697 172.3 88.0705L169.756 90.2918C166.585 93.0604 165.418 93.9075 163.881 94.5533C161.78 95.4355 161.255 96.0639 161.602 97.2767C161.724 97.7001 161.91 98.4982 162.017 99.0507C162.164 99.8095 162.65 100.46 164.005 101.711C164.992 102.623 166.257 103.624 166.816 103.937C168.763 105.025 171.146 106.125 171.558 106.125C171.786 106.125 173.395 105.709 175.133 105.201C176.871 104.693 178.641 104.185 179.067 104.071C179.634 103.921 180.233 104.027 181.319 104.471C182.738 105.051 183.259 105.612 182.378 105.612C181.609 105.612 181.054 106.691 181.054 108.188V108.188C181.054 109.055 180.526 109.835 179.72 110.156L179.654 110.183C177.829 110.91 175.079 110.929 172.773 110.228C170.301 109.478 169.792 109.548 168.279 110.846C166.791 112.121 164.091 113.224 160.714 113.933C157.493 114.61 157.336 114.693 156.152 116.365C155.224 117.676 154.77 118.036 153.064 118.81C151.277 119.621 150.824 119.718 148.794 119.718C146.547 119.718 146.51 119.707 145.337 118.712C143.999 117.577 143.927 117.268 144.693 115.925C145.042 115.312 145.305 114.104 145.432 112.536C145.677 109.5 145.483 109.187 143.255 109.012C141.911 108.906 141.508 108.741 140.492 107.878C139.449 106.991 138.994 106.812 136.777 106.416C135.037 106.105 134.051 105.787 133.607 105.395C132.831 104.709 133.032 104.546 135.417 103.927C136.67 103.602 137.425 103.154 139.049 101.773C140.357 100.66 141.861 99.6918 143.2 99.1007C144.355 98.5911 145.524 97.8722 145.798 97.5034C146.24 96.9089 146.248 96.7607 145.877 96.1913C145.436 95.5148 143.101 94.5846 141.842 94.5843C141.452 94.5841 140.779 94.8828 140.347 95.248C139.562 95.9115 139.559 95.9118 134.665 95.8797L131.885 95.8615C130.519 95.8526 129.201 95.3546 128.169 94.4579V94.4579C127.29 93.6933 126.084 92.8893 125.489 92.6711C124.515 92.3141 124.424 92.2002 124.575 91.5324C124.774 90.6527 123.897 89.7112 122.877 89.7112C122.514 89.7112 121.696 89.2447 120.994 88.6366V88.6366C120.195 87.9448 119.169 87.5741 118.112 87.5964L117.351 87.6125C111.764 87.7305 110.955 88.036 110.593 90.1636C110.353 91.5785 108.472 93.6323 102.008 99.5403L99.1815 102.124C98.3488 102.885 97.953 104.013 98.1276 105.127V105.127C98.4385 107.111 98.2668 107.703 97.5357 107.167C97.2838 106.983 97.0777 106.623 97.0777 106.369C97.0777 105.448 94.5823 104.371 92.903 104.566C92.6046 104.6 90.8801 105.245 89.0709 105.998L87.9535 106.463C86.5523 107.046 84.9881 107.106 83.5465 106.632V106.632C81.2228 105.866 79.9338 105.049 79.9338 104.339C79.9338 104.112 80.5913 103.354 81.3948 102.656C82.1982 101.957 83.4672 100.577 84.2145 99.5877C84.9616 98.599 86.2773 97.1338 87.138 96.3321L87.2355 96.2413C88.1683 95.3723 88.6824 94.1442 88.647 92.8698V92.8698C88.6162 91.7673 88.6046 90.7363 88.6211 90.5788C88.658 90.2267 90.8115 88.9418 91.3644 88.9418C91.585 88.9418 92.7662 89.3499 93.9889 89.8484L94.7786 90.1705C95.7093 90.5501 96.738 90.6175 97.7103 90.3626V90.3626C100.061 89.7466 100.274 89.4681 100.274 87.0183C100.274 84.6458 100.25 84.6119 97.7304 83.4237C96.2862 82.743 96.1604 82.6004 95.4058 80.7954C94.7697 79.2741 94.2353 78.5411 92.7708 77.1821L91.8894 76.3642C91.2942 75.8118 91.0225 74.9937 91.1689 74.195V74.195C91.2982 73.4898 91.4057 72.1456 91.4077 71.208C91.4124 69.0988 90.876 68.4246 89.193 68.4246C88.1899 68.4246 88.0243 68.3253 87.4911 67.4028C86.7815 66.1749 86.0129 65.9471 84.012 66.3708V66.3708C83.0913 66.5657 82.1316 66.342 81.3919 65.7601L80.8831 65.3598C79.1544 63.9995 75.1381 61.5187 73.7983 60.9835C73.2183 60.7516 72.5639 60.7493 71.0378 60.9737C69.9374 61.1353 67.5186 61.432 65.6627 61.6334C63.8065 61.8344 61.9105 62.1235 61.4494 62.2756C60.9879 62.4276 59.3535 63.6535 57.8172 64.9997L57.6355 65.159C55.9365 66.6478 53.8169 67.5719 51.5698 67.8037V67.8037C43.6005 68.6256 44.1337 68.4864 42.0752 70.2839C41.0876 71.1464 40.8188 71.2457 39.4682 71.2457C38.0406 71.2457 37.879 71.1744 36.3558 69.868C35.4722 69.1104 34.3047 68.3602 33.7616 68.2009C33.1505 68.0219 30.3804 67.9116 26.4963 67.9116H21.9075C20.804 67.9116 19.7229 67.6005 18.7882 67.014V67.014C17.12 65.9671 15.7479 65.8466 14.4089 66.6293C13.4646 67.1815 12.3735 67.2989 12.0803 66.8801C11.8969 66.6183 9.50257 65.0005 7.58041 63.84C6.40213 63.1283 4.0935 61.0063 4.0935 60.6347C4.0935 60.37 4.45614 59.6301 6.86037 54.9906C7.96601 52.8566 8.52362 52.0746 9.16173 51.7625C9.62461 51.5361 10.2688 51.037 10.5934 50.6536C11.1528 49.9924 11.1655 49.8208 10.8453 47.329C10.5199 44.7987 10.5306 44.673 11.1356 43.9321C12.7582 41.9458 17.3966 37.2738 20.0107 34.9928C22.6133 32.722 23.0515 32.4422 24.3245 32.2381C26.374 31.9093 27.3416 30.9057 27.3338 29.1171C27.3189 25.7384 26.9607 24.7849 24.4565 21.4588C22.3271 18.6308 22.1092 18.2255 22.1092 17.0953C22.1092 15.3254 22.747 14.8233 24.9955 14.8233V14.8233C26.1015 14.8233 27.1643 14.3943 27.9604 13.6265L28.9799 12.6433V12.6433C30.4307 11.2441 32.3649 10.4576 34.3805 10.4473L35.7552 10.4403C38.2385 10.4277 41.8393 10.3413 43.7571 10.2479C47.7098 10.0561 54.0531 10.4634 56.2518 11.0502C57.0509 11.2635 58.4079 11.6231 59.2672 11.8493C60.1264 12.0755 61.9361 12.3358 63.2887 12.4274C65.5116 12.5782 65.8586 12.6759 66.8991 13.4432C68.5874 14.6881 70.4168 14.8838 75.7724 14.3927L77.0454 14.276C78.7642 14.1184 80.4973 14.2674 82.1639 14.7161V14.7161V14.7161C83.8203 15.162 85.5585 15.2109 87.2372 14.8587L87.4074 14.823L87.7574 14.7496C89.255 14.4356 90.8137 14.8305 91.981 15.8199V15.8199C93.1895 16.8442 94.0712 17.3879 94.5236 17.3879C94.9045 17.3879 96.387 17.1689 97.8178 16.9014C102.313 16.0607 102.989 16.0625 104.519 16.9186C106.385 17.9637 107.222 18.066 108.222 17.3718C109.019 16.8186 109.037 16.7539 108.846 15.0826V15.0826C108.722 13.9855 109.058 12.8859 109.774 12.0461L110.928 10.6947L111.315 10.2413C112.523 8.82616 114.253 7.96242 116.11 7.84818V7.84818C117.709 7.74996 119.308 7.62198 119.664 7.56402C120.021 7.50632 121.655 7.72841 123.297 8.05797C127.796 8.9615 127.595 9.00895 129.517 6.58766L130.335 5.55772C130.854 4.9038 131.672 4.56127 132.502 4.65006V4.65006C133.236 4.72853 134.359 4.86729 134.998 4.95833C135.961 5.09554 136.535 4.96807 138.339 4.21689C140.511 3.3131 140.534 3.30951 144.681 3.29592L146.906 3.28866C148.157 3.28457 149.369 3.72465 150.326 4.53055V4.53055Z"/>
</mask>
<path fill-rule="evenodd" clip-rule="evenodd" d="M137.904 2.91994C136.42 3.5588 135.634 3.75653 134.998 3.65113C132.444 3.22796 131.234 3.10434 130.746 3.21667C130.448 3.28566 129.473 4.26254 128.58 5.38791C127.202 7.12367 126.861 7.40937 126.328 7.27268C125.071 6.95004 121.322 6.28477 120.614 6.25861C119.637 6.22245 113.663 6.60997 112.834 6.76333C112.158 6.88849 107.516 12.1347 107.129 13.2104C107.023 13.5071 107.09 14.2914 107.279 14.9538C107.681 16.3641 107.256 16.8804 106.233 16.2241C105.912 16.0187 105.162 15.6181 104.565 15.3342C103.3 14.7315 101.811 14.7946 97.4224 15.636L97.0906 15.6996C95.5888 15.9876 94.0374 15.5803 92.8708 14.5917V14.5917C90.7563 12.7995 90.5305 12.758 87.0692 13.5212C85.5802 13.8497 84.5725 13.9444 84.0541 13.8043C79.9899 12.7069 80.1718 12.7238 75.8611 13.0372C70.6133 13.4189 68.9038 13.2468 67.5535 12.2004C66.6696 11.5154 66.2096 11.3813 64.0099 11.1674C62.6198 11.0322 60.1406 10.587 58.5012 10.1782C53.8325 9.01433 52.0737 8.88302 41.5226 8.91149C33.8325 8.93226 31.527 9.01485 30.7713 9.29721C30.2264 9.50059 29.011 10.4985 27.9678 11.5987L27.1988 12.4097C26.514 13.1319 25.5624 13.5409 24.5672 13.5409V13.5409C21.6021 13.5409 20.6563 14.4335 20.6563 17.2312C20.6563 18.8816 20.6743 18.9185 22.883 21.7961C25.2265 24.8493 25.8733 26.3458 25.882 28.7365C25.8876 30.1976 25.1745 30.9806 23.8381 30.9806C23.3508 30.9806 22.5991 31.144 22.1673 31.3435C20.4134 32.1544 11.1597 41.1454 9.48223 43.6682C8.94961 44.4692 8.9374 44.6687 9.28696 46.8479C9.49182 48.1266 9.5848 49.3807 9.49356 49.6349C9.40203 49.8893 8.85052 50.324 8.26791 50.6007C7.47028 50.98 7.0103 51.4858 6.40678 52.6476C3.28338 58.6596 2.64062 60.0333 2.64062 60.6957C2.64062 61.6739 4.58952 63.5992 7.37962 65.3773C8.52885 66.1095 9.95994 67.0948 10.5597 67.5667C11.874 68.6005 13.5837 68.7336 14.9901 67.9116C16.1785 67.2169 16.454 67.2546 18.2721 68.3605V68.3605C19.3073 68.99 20.4927 69.3294 21.7042 69.3432L26.7116 69.3999L31.2105 69.4509C32.7352 69.4682 34.2061 70.017 35.3693 71.0028V71.0028L35.474 71.0915C36.5683 72.019 37.9562 72.528 39.3906 72.528V72.528H39.5489C40.8823 72.528 42.1733 72.0599 43.1969 71.2054V71.2054V71.2054C44.2302 70.3429 45.4943 69.8034 46.8319 69.6539L50.0806 69.2909C52.9954 68.9655 55.4821 68.6949 55.6068 68.69C55.7317 68.6851 57.2581 67.4692 58.999 65.9881C61.4325 63.9174 62.3461 63.2953 62.9519 63.2953C63.7609 63.2953 65.6825 63.0475 70.1164 62.3712C72.1344 62.0632 72.783 62.0481 73.3127 62.2966C74.8472 63.0167 78.7212 65.4729 79.9338 66.4944C81.8272 68.0894 82.2 68.2107 83.8565 67.7706C85.7232 67.2746 85.6509 67.2556 86.3241 68.4205C86.898 69.4132 87.2554 69.5966 88.9416 69.7633V69.7633C89.3512 69.8038 89.6601 70.1535 89.6498 70.5649L89.5879 73.0417L89.5706 73.729C89.5305 75.3249 90.2024 76.856 91.404 77.9071V77.9071C92.4468 78.8194 93.3003 79.6673 93.3003 79.7911C93.3003 80.0386 93.9334 81.3935 94.6976 82.7815C95.0245 83.3755 95.7722 83.9846 96.9325 84.6019C98.5887 85.4834 98.6806 85.5852 98.7677 86.6382C98.9203 88.4807 98.6899 88.8731 97.3375 89.0747C96.3202 89.2262 95.7978 89.1101 93.8265 88.2937L92.8688 87.8971C91.9994 87.537 91.0223 87.538 90.1536 87.9V87.9C89.4071 88.2109 88.4041 88.7451 87.9246 89.0867C87.0581 89.704 87.0535 89.7217 87.1345 92.0409L87.1538 92.5913C87.1933 93.7215 86.7314 94.8114 85.8917 95.5689V95.5689C85.1636 96.2262 83.8937 97.6296 83.0705 98.6875C82.247 99.7454 81.1716 100.964 80.6808 101.395C79.0525 102.825 78.1903 103.85 78.1903 104.355C78.1903 104.63 78.7142 105.356 79.3549 105.969C80.2662 106.842 81.0664 107.267 83.0365 107.923C85.9252 108.885 85.6979 108.914 90.2309 106.992C91.6794 106.378 93.0736 105.874 93.3296 105.872C94.4524 105.864 95.5763 106.432 95.7661 107.104C96.0569 108.132 96.7683 108.691 97.7766 108.681C99.6566 108.665 100.112 107.757 99.5996 105.051V105.051C99.4585 104.305 99.72 103.54 100.288 103.036L102.366 101.195C105.425 98.4839 110.926 93.1176 111.455 92.3292C111.617 92.0884 111.881 91.3146 112.041 90.6099C112.385 89.1011 112.608 89.0206 116.562 88.9721C119.043 88.9418 119.049 88.9436 120.042 89.8471C120.588 90.3449 121.431 90.8427 121.915 90.9533C122.69 91.1302 122.797 91.2687 122.825 92.1261C122.859 93.1694 123.184 93.4802 124.506 93.7328C124.969 93.8213 126.216 94.6164 127.277 95.4999V95.4999C128.525 96.5393 130.092 97.1185 131.717 97.1407L134.782 97.1826L139.302 97.2441C139.982 97.2534 140.644 97.0172 141.164 96.5788V96.5788C141.915 95.9469 142.048 95.9205 143.061 96.2021C144.802 96.6858 144.431 97.2003 141.539 98.3136C140.821 98.5898 139.348 99.58 138.265 100.514C136.797 101.78 135.865 102.351 134.6 102.758C133.667 103.058 132.774 103.304 132.616 103.304C132.145 103.304 131.366 104.203 131.366 104.747C131.366 105.024 131.872 105.688 132.492 106.222C133.455 107.052 133.948 107.249 135.906 107.587C137.937 107.938 138.341 108.107 139.504 109.098C140.62 110.05 141.027 110.231 142.264 110.324C143.062 110.384 143.812 110.445 143.929 110.459C144.381 110.514 143.762 114.485 143.091 115.838C142.715 116.596 142.408 117.408 142.408 117.642C142.408 117.875 143.163 118.727 144.087 119.533V119.533C145.169 120.479 146.558 121 147.996 121H148.619C151.372 121 151.555 120.964 153.841 119.958C155.956 119.028 156.335 118.747 157.372 117.341V117.341C158.122 116.326 159.213 115.616 160.446 115.344L161.004 115.22C162.363 114.92 163.736 114.58 164.055 114.465C164.375 114.35 165.42 113.981 166.377 113.646C167.374 113.296 168.634 112.588 169.326 111.989V111.989C170.076 111.339 171.112 111.132 172.053 111.443L172.173 111.483C174.481 112.245 178.204 112.238 180.113 111.468C182.31 110.583 182.507 110.35 182.507 108.638C182.507 107.234 182.568 107.096 183.364 106.693C184.434 106.151 184.842 105.409 184.47 104.68C184.205 104.159 180.685 102.534 179.821 102.534C179.605 102.534 177.866 102.999 175.955 103.566C174.045 104.134 172.221 104.613 171.901 104.631C171.025 104.68 167.148 102.637 165.558 101.288C163.85 99.8393 163.422 99.1576 163.287 97.6699V97.6699C163.225 96.9804 163.596 96.3244 164.22 96.023L165.112 95.5915C166.499 94.9203 168.074 93.7372 170.729 91.3721C174.251 88.234 174.472 88.0844 175.629 88.0647C176.794 88.0449 176.837 88.0721 176.744 88.7741C176.607 89.8002 177.677 90.7825 178.702 90.5719C179.771 90.3521 180.204 89.9169 180.753 88.5086C181.204 87.3494 181.329 87.2468 182.815 86.8134C183.961 86.4787 184.825 86.3966 185.957 86.5151C187.486 86.6752 187.543 86.6572 188.717 85.6437C189.92 84.6058 191.459 84.0892 193.39 84.0751C193.956 84.071 194.575 83.7884 195.211 83.2449C196.049 82.5284 196.448 82.3968 198.276 82.235C199.432 82.1327 201.118 82.0419 202.023 82.0331V82.0331C203.051 82.0232 204.004 81.4972 204.56 80.6334L204.784 80.2861C205.769 78.7565 205.915 78.3039 206.044 76.3963V76.3963C206.131 75.1018 207.022 74.0018 208.27 73.6481L208.55 73.5688C211.356 72.774 211.793 72.4942 211.911 71.4191C212 70.6107 212.012 70.6045 213.599 70.6166C214.478 70.6232 216.308 70.6715 217.667 70.7235C219.974 70.8123 221.684 70.583 223.513 69.9398C224.115 69.7282 224.496 69.1794 225.333 67.3172V67.3172C226.02 65.7898 226.185 64.079 225.802 62.4487L225.71 62.0573L225.537 61.3198C225.213 59.9386 225.484 58.4849 226.283 57.3127V57.3127C226.972 56.3009 227.539 55.2912 227.541 55.0689C227.547 54.6244 226.604 53.7801 225.585 53.3162C225.225 53.1526 224.931 52.9166 224.931 52.7917C224.931 52.6671 225.853 51.9731 226.979 51.2498C228.106 50.5266 229.107 49.7529 229.204 49.5305C229.3 49.3079 229.083 48.419 228.721 47.5549C228.359 46.6909 228.068 45.8684 228.074 45.7274C228.08 45.5863 228.116 45.0218 228.155 44.473C228.256 43.026 227.66 42.7257 225.085 42.9252L224.387 42.9793C223.53 43.0457 222.683 42.7524 222.05 42.1697V42.1697C221.316 41.4936 220.522 41.1169 218.999 40.7217C217.867 40.4278 216.025 39.9502 214.906 39.6602C213.252 39.2311 212.589 38.8897 211.357 37.8311C209.974 36.6439 209.655 36.499 207.724 36.184C206.56 35.9942 204.802 35.7693 203.816 35.6844C202.142 35.5403 201.973 35.576 201.236 36.2263V36.2263C200.785 36.6248 200.108 36.6268 199.654 36.2311L199.105 35.7521C198.2 34.963 197.492 33.9982 196.933 32.7902C196.476 31.8049 195.925 30.868 195.706 30.708C194.951 30.1545 189.696 31.0604 187.156 32.1821C184.384 33.4068 181.407 33.0336 179.124 31.1758C177.765 30.0702 177.223 30.016 174.516 30.7157C172.164 31.324 172.223 31.3327 170.928 30.1899C170.112 29.469 169.757 28.9648 169.877 28.695C170.74 26.7633 170.911 26.0124 170.635 25.3748C170.473 25.0021 170.127 24.0047 169.865 23.1584C169.468 21.8786 169.087 21.3498 167.602 20.0167C165.589 18.2107 165.567 18.2061 162.06 18.8431C159.957 19.225 159.505 19.2319 157.953 18.9072V18.9072C156.867 18.6798 155.973 17.9132 155.581 16.875V16.875C154.7 14.5376 154.721 14.3634 155.909 14.167C157.368 13.9251 157.619 13.5312 157.382 11.8547C157.163 10.3046 156.937 10.0422 154.874 8.93355C153.588 8.24288 153.53 8.15902 153.338 6.71076C153.151 5.29917 153.027 5.10631 151.341 3.60291V3.60291C150.184 2.57098 148.686 2.00394 147.135 2.01106L144.741 2.02206L142.152 2.03394C140.691 2.04065 139.246 2.34199 137.904 2.91994V2.91994ZM150.326 4.53055C151.748 5.72773 151.814 5.84467 151.94 7.38167V7.38167C152.022 8.38296 152.599 9.27685 153.478 9.76327L153.923 10.0092C154.941 10.5726 155.776 11.1651 155.778 11.3256C155.78 11.4861 155.856 11.8611 155.947 12.1589C156.089 12.6261 155.929 12.7408 154.785 12.9949C152.964 13.3996 152.867 13.921 154.036 17.0173C154.871 19.2296 155.067 19.5266 155.893 19.831C157.931 20.5827 160.317 20.574 164.233 19.8C164.857 19.6766 165.255 19.8705 166.476 20.8913C167.77 21.9728 168.044 22.3875 168.606 24.1127C169.233 26.0334 169.237 26.1342 168.76 27.4693C168.49 28.2264 168.269 29.0628 168.269 29.3279C168.269 29.5934 168.951 30.42 169.784 31.165C171.545 32.7387 171.903 32.7925 175.123 31.9667L175.694 31.8204C176.685 31.5662 177.738 31.8167 178.509 32.4902V32.4902C179.186 33.0821 180.068 33.6294 180.47 33.7068C180.871 33.784 181.975 34.0133 182.924 34.2159C184.428 34.5378 184.762 34.537 185.539 34.2113C188.425 33.0031 190.283 32.4745 193.758 31.8744C194.686 31.7138 194.7 31.7267 195.737 33.7189C197.716 37.5194 200.314 39.0867 201.998 37.4961C202.764 36.7721 202.872 36.7698 206.907 37.3894C208.584 37.6469 208.96 37.8234 210.394 39.0257C211.582 40.0225 212.378 40.4588 213.453 40.7024C214.252 40.8835 215.233 41.1297 215.633 41.2497C216.032 41.3695 217.206 41.6693 218.24 41.9163C219.42 42.1976 220.405 42.6211 220.883 43.0522C222.299 44.3314 222.891 44.5279 224.743 44.3337C226.593 44.1401 226.884 44.3142 226.568 45.4247C226.475 45.752 226.657 46.6163 226.973 47.3503C227.288 48.083 227.546 48.7919 227.546 48.9258C227.546 49.0599 226.566 49.8095 225.367 50.592C223.393 51.8805 223.188 52.0972 223.188 52.893C223.188 53.5034 223.343 53.8158 223.696 53.9166C223.976 53.9963 224.582 54.3287 225.043 54.6552V54.6552C225.505 54.9825 225.613 55.6232 225.283 56.0837L224.648 56.9716C223.728 58.2578 223.452 58.8715 223.563 59.3921C223.733 60.1938 224.234 62.4187 224.597 63.9834C224.81 64.9007 224.72 65.3093 223.98 66.8045C223.504 67.766 223.073 68.5946 223.022 68.6459C222.97 68.6972 222.067 68.9431 221.015 69.1924C219.492 69.5533 218.673 69.602 217.004 69.4312C214.238 69.1481 211.518 69.1465 211.015 69.4276C210.793 69.5517 210.53 70.0952 210.43 70.6353C210.251 71.6088 210.229 71.6235 207.698 72.3931C206.295 72.8199 205.024 73.3423 204.874 73.5539C204.723 73.7655 204.598 74.7895 204.595 75.8295C204.591 77.4683 204.468 77.9184 203.666 79.2046V79.2046C203.087 80.1344 202.09 80.7219 200.996 80.7776L199.187 80.8696C195.657 81.0493 195.625 81.0565 194.704 81.8954C193.889 82.6374 193.53 82.762 191.747 82.92C189.894 83.0844 189.596 83.196 188.302 84.2103C187 85.2308 186.81 85.3013 185.945 85.0825C185.267 84.9107 184.557 84.9584 183.393 85.2536C180.233 86.055 179.979 86.2166 179.42 87.7808C178.884 89.2811 178.23 89.5771 178.384 88.2491C178.535 86.9545 177.797 86.5472 175.584 86.7039V86.7039C174.37 86.7899 173.217 87.2697 172.3 88.0705L169.756 90.2918C166.585 93.0604 165.418 93.9075 163.881 94.5533C161.78 95.4355 161.255 96.0639 161.602 97.2767C161.724 97.7001 161.91 98.4982 162.017 99.0507C162.164 99.8095 162.65 100.46 164.005 101.711C164.992 102.623 166.257 103.624 166.816 103.937C168.763 105.025 171.146 106.125 171.558 106.125C171.786 106.125 173.395 105.709 175.133 105.201C176.871 104.693 178.641 104.185 179.067 104.071C179.634 103.921 180.233 104.027 181.319 104.471C182.738 105.051 183.259 105.612 182.378 105.612C181.609 105.612 181.054 106.691 181.054 108.188V108.188C181.054 109.055 180.526 109.835 179.72 110.156L179.654 110.183C177.829 110.91 175.079 110.929 172.773 110.228C170.301 109.478 169.792 109.548 168.279 110.846C166.791 112.121 164.091 113.224 160.714 113.933C157.493 114.61 157.336 114.693 156.152 116.365C155.224 117.676 154.77 118.036 153.064 118.81C151.277 119.621 150.824 119.718 148.794 119.718C146.547 119.718 146.51 119.707 145.337 118.712C143.999 117.577 143.927 117.268 144.693 115.925C145.042 115.312 145.305 114.104 145.432 112.536C145.677 109.5 145.483 109.187 143.255 109.012C141.911 108.906 141.508 108.741 140.492 107.878C139.449 106.991 138.994 106.812 136.777 106.416C135.037 106.105 134.051 105.787 133.607 105.395C132.831 104.709 133.032 104.546 135.417 103.927C136.67 103.602 137.425 103.154 139.049 101.773C140.357 100.66 141.861 99.6918 143.2 99.1007C144.355 98.5911 145.524 97.8722 145.798 97.5034C146.24 96.9089 146.248 96.7607 145.877 96.1913C145.436 95.5148 143.101 94.5846 141.842 94.5843C141.452 94.5841 140.779 94.8828 140.347 95.248C139.562 95.9115 139.559 95.9118 134.665 95.8797L131.885 95.8615C130.519 95.8526 129.201 95.3546 128.169 94.4579V94.4579C127.29 93.6933 126.084 92.8893 125.489 92.6711C124.515 92.3141 124.424 92.2002 124.575 91.5324C124.774 90.6527 123.897 89.7112 122.877 89.7112C122.514 89.7112 121.696 89.2447 120.994 88.6366V88.6366C120.195 87.9448 119.169 87.5741 118.112 87.5964L117.351 87.6125C111.764 87.7305 110.955 88.036 110.593 90.1636C110.353 91.5785 108.472 93.6323 102.008 99.5403L99.1815 102.124C98.3488 102.885 97.953 104.013 98.1276 105.127V105.127C98.4385 107.111 98.2668 107.703 97.5357 107.167C97.2838 106.983 97.0777 106.623 97.0777 106.369C97.0777 105.448 94.5823 104.371 92.903 104.566C92.6046 104.6 90.8801 105.245 89.0709 105.998L87.9535 106.463C86.5523 107.046 84.9881 107.106 83.5465 106.632V106.632C81.2228 105.866 79.9338 105.049 79.9338 104.339C79.9338 104.112 80.5913 103.354 81.3948 102.656C82.1982 101.957 83.4672 100.577 84.2145 99.5877C84.9616 98.599 86.2773 97.1338 87.138 96.3321L87.2355 96.2413C88.1683 95.3723 88.6824 94.1442 88.647 92.8698V92.8698C88.6162 91.7673 88.6046 90.7363 88.6211 90.5788C88.658 90.2267 90.8115 88.9418 91.3644 88.9418C91.585 88.9418 92.7662 89.3499 93.9889 89.8484L94.7786 90.1705C95.7093 90.5501 96.738 90.6175 97.7103 90.3626V90.3626C100.061 89.7466 100.274 89.4681 100.274 87.0183C100.274 84.6458 100.25 84.6119 97.7304 83.4237C96.2862 82.743 96.1604 82.6004 95.4058 80.7954C94.7697 79.2741 94.2353 78.5411 92.7708 77.1821L91.8894 76.3642C91.2942 75.8118 91.0225 74.9937 91.1689 74.195V74.195C91.2982 73.4898 91.4057 72.1456 91.4077 71.208C91.4124 69.0988 90.876 68.4246 89.193 68.4246C88.1899 68.4246 88.0243 68.3253 87.4911 67.4028C86.7815 66.1749 86.0129 65.9471 84.012 66.3708V66.3708C83.0913 66.5657 82.1316 66.342 81.3919 65.7601L80.8831 65.3598C79.1544 63.9995 75.1381 61.5187 73.7983 60.9835C73.2183 60.7516 72.5639 60.7493 71.0378 60.9737C69.9374 61.1353 67.5186 61.432 65.6627 61.6334C63.8065 61.8344 61.9105 62.1235 61.4494 62.2756C60.9879 62.4276 59.3535 63.6535 57.8172 64.9997L57.6355 65.159C55.9365 66.6478 53.8169 67.5719 51.5698 67.8037V67.8037C43.6005 68.6256 44.1337 68.4864 42.0752 70.2839C41.0876 71.1464 40.8188 71.2457 39.4682 71.2457C38.0406 71.2457 37.879 71.1744 36.3558 69.868C35.4722 69.1104 34.3047 68.3602 33.7616 68.2009C33.1505 68.0219 30.3804 67.9116 26.4963 67.9116H21.9075C20.804 67.9116 19.7229 67.6005 18.7882 67.014V67.014C17.12 65.9671 15.7479 65.8466 14.4089 66.6293C13.4646 67.1815 12.3735 67.2989 12.0803 66.8801C11.8969 66.6183 9.50257 65.0005 7.58041 63.84C6.40213 63.1283 4.0935 61.0063 4.0935 60.6347C4.0935 60.37 4.45614 59.6301 6.86037 54.9906C7.96601 52.8566 8.52362 52.0746 9.16173 51.7625C9.62461 51.5361 10.2688 51.037 10.5934 50.6536C11.1528 49.9924 11.1655 49.8208 10.8453 47.329C10.5199 44.7987 10.5306 44.673 11.1356 43.9321C12.7582 41.9458 17.3966 37.2738 20.0107 34.9928C22.6133 32.722 23.0515 32.4422 24.3245 32.2381C26.374 31.9093 27.3416 30.9057 27.3338 29.1171C27.3189 25.7384 26.9607 24.7849 24.4565 21.4588C22.3271 18.6308 22.1092 18.2255 22.1092 17.0953C22.1092 15.3254 22.747 14.8233 24.9955 14.8233V14.8233C26.1015 14.8233 27.1643 14.3943 27.9604 13.6265L28.9799 12.6433V12.6433C30.4307 11.2441 32.3649 10.4576 34.3805 10.4473L35.7552 10.4403C38.2385 10.4277 41.8393 10.3413 43.7571 10.2479C47.7098 10.0561 54.0531 10.4634 56.2518 11.0502C57.0509 11.2635 58.4079 11.6231 59.2672 11.8493C60.1264 12.0755 61.9361 12.3358 63.2887 12.4274C65.5116 12.5782 65.8586 12.6759 66.8991 13.4432C68.5874 14.6881 70.4168 14.8838 75.7724 14.3927L77.0454 14.276C78.7642 14.1184 80.4973 14.2674 82.1639 14.7161V14.7161V14.7161C83.8203 15.162 85.5585 15.2109 87.2372 14.8587L87.4074 14.823L87.7574 14.7496C89.255 14.4356 90.8137 14.8305 91.981 15.8199V15.8199C93.1895 16.8442 94.0712 17.3879 94.5236 17.3879C94.9045 17.3879 96.387 17.1689 97.8178 16.9014C102.313 16.0607 102.989 16.0625 104.519 16.9186C106.385 17.9637 107.222 18.066 108.222 17.3718C109.019 16.8186 109.037 16.7539 108.846 15.0826V15.0826C108.722 13.9855 109.058 12.8859 109.774 12.0461L110.928 10.6947L111.315 10.2413C112.523 8.82616 114.253 7.96242 116.11 7.84818V7.84818C117.709 7.74996 119.308 7.62198 119.664 7.56402C120.021 7.50632 121.655 7.72841 123.297 8.05797C127.796 8.9615 127.595 9.00895 129.517 6.58766L130.335 5.55772C130.854 4.9038 131.672 4.56127 132.502 4.65006V4.65006C133.236 4.72853 134.359 4.86729 134.998 4.95833C135.961 5.09554 136.535 4.96807 138.339 4.21689C140.511 3.3131 140.534 3.30951 144.681 3.29592L146.906 3.28866C148.157 3.28457 149.369 3.72465 150.326 4.53055V4.53055Z" fill="#009FE3"/>
<path fill-rule="evenodd" clip-rule="evenodd" d="M137.904 2.91994C136.42 3.5588 135.634 3.75653 134.998 3.65113C132.444 3.22796 131.234 3.10434 130.746 3.21667C130.448 3.28566 129.473 4.26254 128.58 5.38791C127.202 7.12367 126.861 7.40937 126.328 7.27268C125.071 6.95004 121.322 6.28477 120.614 6.25861C119.637 6.22245 113.663 6.60997 112.834 6.76333C112.158 6.88849 107.516 12.1347 107.129 13.2104C107.023 13.5071 107.09 14.2914 107.279 14.9538C107.681 16.3641 107.256 16.8804 106.233 16.2241C105.912 16.0187 105.162 15.6181 104.565 15.3342C103.3 14.7315 101.811 14.7946 97.4224 15.636L97.0906 15.6996C95.5888 15.9876 94.0374 15.5803 92.8708 14.5917V14.5917C90.7563 12.7995 90.5305 12.758 87.0692 13.5212C85.5802 13.8497 84.5725 13.9444 84.0541 13.8043C79.9899 12.7069 80.1718 12.7238 75.8611 13.0372C70.6133 13.4189 68.9038 13.2468 67.5535 12.2004C66.6696 11.5154 66.2096 11.3813 64.0099 11.1674C62.6198 11.0322 60.1406 10.587 58.5012 10.1782C53.8325 9.01433 52.0737 8.88302 41.5226 8.91149C33.8325 8.93226 31.527 9.01485 30.7713 9.29721C30.2264 9.50059 29.011 10.4985 27.9678 11.5987L27.1988 12.4097C26.514 13.1319 25.5624 13.5409 24.5672 13.5409V13.5409C21.6021 13.5409 20.6563 14.4335 20.6563 17.2312C20.6563 18.8816 20.6743 18.9185 22.883 21.7961C25.2265 24.8493 25.8733 26.3458 25.882 28.7365C25.8876 30.1976 25.1745 30.9806 23.8381 30.9806C23.3508 30.9806 22.5991 31.144 22.1673 31.3435C20.4134 32.1544 11.1597 41.1454 9.48223 43.6682C8.94961 44.4692 8.9374 44.6687 9.28696 46.8479C9.49182 48.1266 9.5848 49.3807 9.49356 49.6349C9.40203 49.8893 8.85052 50.324 8.26791 50.6007C7.47028 50.98 7.0103 51.4858 6.40678 52.6476C3.28338 58.6596 2.64062 60.0333 2.64062 60.6957C2.64062 61.6739 4.58952 63.5992 7.37962 65.3773C8.52885 66.1095 9.95994 67.0948 10.5597 67.5667C11.874 68.6005 13.5837 68.7336 14.9901 67.9116C16.1785 67.2169 16.454 67.2546 18.2721 68.3605V68.3605C19.3073 68.99 20.4927 69.3294 21.7042 69.3432L26.7116 69.3999L31.2105 69.4509C32.7352 69.4682 34.2061 70.017 35.3693 71.0028V71.0028L35.474 71.0915C36.5683 72.019 37.9562 72.528 39.3906 72.528V72.528H39.5489C40.8823 72.528 42.1733 72.0599 43.1969 71.2054V71.2054V71.2054C44.2302 70.3429 45.4943 69.8034 46.8319 69.6539L50.0806 69.2909C52.9954 68.9655 55.4821 68.6949 55.6068 68.69C55.7317 68.6851 57.2581 67.4692 58.999 65.9881C61.4325 63.9174 62.3461 63.2953 62.9519 63.2953C63.7609 63.2953 65.6825 63.0475 70.1164 62.3712C72.1344 62.0632 72.783 62.0481 73.3127 62.2966C74.8472 63.0167 78.7212 65.4729 79.9338 66.4944C81.8272 68.0894 82.2 68.2107 83.8565 67.7706C85.7232 67.2746 85.6509 67.2556 86.3241 68.4205C86.898 69.4132 87.2554 69.5966 88.9416 69.7633V69.7633C89.3512 69.8038 89.6601 70.1535 89.6498 70.5649L89.5879 73.0417L89.5706 73.729C89.5305 75.3249 90.2024 76.856 91.404 77.9071V77.9071C92.4468 78.8194 93.3003 79.6673 93.3003 79.7911C93.3003 80.0386 93.9334 81.3935 94.6976 82.7815C95.0245 83.3755 95.7722 83.9846 96.9325 84.6019C98.5887 85.4834 98.6806 85.5852 98.7677 86.6382C98.9203 88.4807 98.6899 88.8731 97.3375 89.0747C96.3202 89.2262 95.7978 89.1101 93.8265 88.2937L92.8688 87.8971C91.9994 87.537 91.0223 87.538 90.1536 87.9V87.9C89.4071 88.2109 88.4041 88.7451 87.9246 89.0867C87.0581 89.704 87.0535 89.7217 87.1345 92.0409L87.1538 92.5913C87.1933 93.7215 86.7314 94.8114 85.8917 95.5689V95.5689C85.1636 96.2262 83.8937 97.6296 83.0705 98.6875C82.247 99.7454 81.1716 100.964 80.6808 101.395C79.0525 102.825 78.1903 103.85 78.1903 104.355C78.1903 104.63 78.7142 105.356 79.3549 105.969C80.2662 106.842 81.0664 107.267 83.0365 107.923C85.9252 108.885 85.6979 108.914 90.2309 106.992C91.6794 106.378 93.0736 105.874 93.3296 105.872C94.4524 105.864 95.5763 106.432 95.7661 107.104C96.0569 108.132 96.7683 108.691 97.7766 108.681C99.6566 108.665 100.112 107.757 99.5996 105.051V105.051C99.4585 104.305 99.72 103.54 100.288 103.036L102.366 101.195C105.425 98.4839 110.926 93.1176 111.455 92.3292C111.617 92.0884 111.881 91.3146 112.041 90.6099C112.385 89.1011 112.608 89.0206 116.562 88.9721C119.043 88.9418 119.049 88.9436 120.042 89.8471C120.588 90.3449 121.431 90.8427 121.915 90.9533C122.69 91.1302 122.797 91.2687 122.825 92.1261C122.859 93.1694 123.184 93.4802 124.506 93.7328C124.969 93.8213 126.216 94.6164 127.277 95.4999V95.4999C128.525 96.5393 130.092 97.1185 131.717 97.1407L134.782 97.1826L139.302 97.2441C139.982 97.2534 140.644 97.0172 141.164 96.5788V96.5788C141.915 95.9469 142.048 95.9205 143.061 96.2021C144.802 96.6858 144.431 97.2003 141.539 98.3136C140.821 98.5898 139.348 99.58 138.265 100.514C136.797 101.78 135.865 102.351 134.6 102.758C133.667 103.058 132.774 103.304 132.616 103.304C132.145 103.304 131.366 104.203 131.366 104.747C131.366 105.024 131.872 105.688 132.492 106.222C133.455 107.052 133.948 107.249 135.906 107.587C137.937 107.938 138.341 108.107 139.504 109.098C140.62 110.05 141.027 110.231 142.264 110.324C143.062 110.384 143.812 110.445 143.929 110.459C144.381 110.514 143.762 114.485 143.091 115.838C142.715 116.596 142.408 117.408 142.408 117.642C142.408 117.875 143.163 118.727 144.087 119.533V119.533C145.169 120.479 146.558 121 147.996 121H148.619C151.372 121 151.555 120.964 153.841 119.958C155.956 119.028 156.335 118.747 157.372 117.341V117.341C158.122 116.326 159.213 115.616 160.446 115.344L161.004 115.22C162.363 114.92 163.736 114.58 164.055 114.465C164.375 114.35 165.42 113.981 166.377 113.646C167.374 113.296 168.634 112.588 169.326 111.989V111.989C170.076 111.339 171.112 111.132 172.053 111.443L172.173 111.483C174.481 112.245 178.204 112.238 180.113 111.468C182.31 110.583 182.507 110.35 182.507 108.638C182.507 107.234 182.568 107.096 183.364 106.693C184.434 106.151 184.842 105.409 184.47 104.68C184.205 104.159 180.685 102.534 179.821 102.534C179.605 102.534 177.866 102.999 175.955 103.566C174.045 104.134 172.221 104.613 171.901 104.631C171.025 104.68 167.148 102.637 165.558 101.288C163.85 99.8393 163.422 99.1576 163.287 97.6699V97.6699C163.225 96.9804 163.596 96.3244 164.22 96.023L165.112 95.5915C166.499 94.9203 168.074 93.7372 170.729 91.3721C174.251 88.234 174.472 88.0844 175.629 88.0647C176.794 88.0449 176.837 88.0721 176.744 88.7741C176.607 89.8002 177.677 90.7825 178.702 90.5719C179.771 90.3521 180.204 89.9169 180.753 88.5086C181.204 87.3494 181.329 87.2468 182.815 86.8134C183.961 86.4787 184.825 86.3966 185.957 86.5151C187.486 86.6752 187.543 86.6572 188.717 85.6437C189.92 84.6058 191.459 84.0892 193.39 84.0751C193.956 84.071 194.575 83.7884 195.211 83.2449C196.049 82.5284 196.448 82.3968 198.276 82.235C199.432 82.1327 201.118 82.0419 202.023 82.0331V82.0331C203.051 82.0232 204.004 81.4972 204.56 80.6334L204.784 80.2861C205.769 78.7565 205.915 78.3039 206.044 76.3963V76.3963C206.131 75.1018 207.022 74.0018 208.27 73.6481L208.55 73.5688C211.356 72.774 211.793 72.4942 211.911 71.4191C212 70.6107 212.012 70.6045 213.599 70.6166C214.478 70.6232 216.308 70.6715 217.667 70.7235C219.974 70.8123 221.684 70.583 223.513 69.9398C224.115 69.7282 224.496 69.1794 225.333 67.3172V67.3172C226.02 65.7898 226.185 64.079 225.802 62.4487L225.71 62.0573L225.537 61.3198C225.213 59.9386 225.484 58.4849 226.283 57.3127V57.3127C226.972 56.3009 227.539 55.2912 227.541 55.0689C227.547 54.6244 226.604 53.7801 225.585 53.3162C225.225 53.1526 224.931 52.9166 224.931 52.7917C224.931 52.6671 225.853 51.9731 226.979 51.2498C228.106 50.5266 229.107 49.7529 229.204 49.5305C229.3 49.3079 229.083 48.419 228.721 47.5549C228.359 46.6909 228.068 45.8684 228.074 45.7274C228.08 45.5863 228.116 45.0218 228.155 44.473C228.256 43.026 227.66 42.7257 225.085 42.9252L224.387 42.9793C223.53 43.0457 222.683 42.7524 222.05 42.1697V42.1697C221.316 41.4936 220.522 41.1169 218.999 40.7217C217.867 40.4278 216.025 39.9502 214.906 39.6602C213.252 39.2311 212.589 38.8897 211.357 37.8311C209.974 36.6439 209.655 36.499 207.724 36.184C206.56 35.9942 204.802 35.7693 203.816 35.6844C202.142 35.5403 201.973 35.576 201.236 36.2263V36.2263C200.785 36.6248 200.108 36.6268 199.654 36.2311L199.105 35.7521C198.2 34.963 197.492 33.9982 196.933 32.7902C196.476 31.8049 195.925 30.868 195.706 30.708C194.951 30.1545 189.696 31.0604 187.156 32.1821C184.384 33.4068 181.407 33.0336 179.124 31.1758C177.765 30.0702 177.223 30.016 174.516 30.7157C172.164 31.324 172.223 31.3327 170.928 30.1899C170.112 29.469 169.757 28.9648 169.877 28.695C170.74 26.7633 170.911 26.0124 170.635 25.3748C170.473 25.0021 170.127 24.0047 169.865 23.1584C169.468 21.8786 169.087 21.3498 167.602 20.0167C165.589 18.2107 165.567 18.2061 162.06 18.8431C159.957 19.225 159.505 19.2319 157.953 18.9072V18.9072C156.867 18.6798 155.973 17.9132 155.581 16.875V16.875C154.7 14.5376 154.721 14.3634 155.909 14.167C157.368 13.9251 157.619 13.5312 157.382 11.8547C157.163 10.3046 156.937 10.0422 154.874 8.93355C153.588 8.24288 153.53 8.15902 153.338 6.71076C153.151 5.29917 153.027 5.10631 151.341 3.60291V3.60291C150.184 2.57098 148.686 2.00394 147.135 2.01106L144.741 2.02206L142.152 2.03394C140.691 2.04065 139.246 2.34199 137.904 2.91994V2.91994ZM150.326 4.53055C151.748 5.72773 151.814 5.84467 151.94 7.38167V7.38167C152.022 8.38296 152.599 9.27685 153.478 9.76327L153.923 10.0092C154.941 10.5726 155.776 11.1651 155.778 11.3256C155.78 11.4861 155.856 11.8611 155.947 12.1589C156.089 12.6261 155.929 12.7408 154.785 12.9949C152.964 13.3996 152.867 13.921 154.036 17.0173C154.871 19.2296 155.067 19.5266 155.893 19.831C157.931 20.5827 160.317 20.574 164.233 19.8C164.857 19.6766 165.255 19.8705 166.476 20.8913C167.77 21.9728 168.044 22.3875 168.606 24.1127C169.233 26.0334 169.237 26.1342 168.76 27.4693C168.49 28.2264 168.269 29.0628 168.269 29.3279C168.269 29.5934 168.951 30.42 169.784 31.165C171.545 32.7387 171.903 32.7925 175.123 31.9667L175.694 31.8204C176.685 31.5662 177.738 31.8167 178.509 32.4902V32.4902C179.186 33.0821 180.068 33.6294 180.47 33.7068C180.871 33.784 181.975 34.0133 182.924 34.2159C184.428 34.5378 184.762 34.537 185.539 34.2113C188.425 33.0031 190.283 32.4745 193.758 31.8744C194.686 31.7138 194.7 31.7267 195.737 33.7189C197.716 37.5194 200.314 39.0867 201.998 37.4961C202.764 36.7721 202.872 36.7698 206.907 37.3894C208.584 37.6469 208.96 37.8234 210.394 39.0257C211.582 40.0225 212.378 40.4588 213.453 40.7024C214.252 40.8835 215.233 41.1297 215.633 41.2497C216.032 41.3695 217.206 41.6693 218.24 41.9163C219.42 42.1976 220.405 42.6211 220.883 43.0522C222.299 44.3314 222.891 44.5279 224.743 44.3337C226.593 44.1401 226.884 44.3142 226.568 45.4247C226.475 45.752 226.657 46.6163 226.973 47.3503C227.288 48.083 227.546 48.7919 227.546 48.9258C227.546 49.0599 226.566 49.8095 225.367 50.592C223.393 51.8805 223.188 52.0972 223.188 52.893C223.188 53.5034 223.343 53.8158 223.696 53.9166C223.976 53.9963 224.582 54.3287 225.043 54.6552V54.6552C225.505 54.9825 225.613 55.6232 225.283 56.0837L224.648 56.9716C223.728 58.2578 223.452 58.8715 223.563 59.3921C223.733 60.1938 224.234 62.4187 224.597 63.9834C224.81 64.9007 224.72 65.3093 223.98 66.8045C223.504 67.766 223.073 68.5946 223.022 68.6459C222.97 68.6972 222.067 68.9431 221.015 69.1924C219.492 69.5533 218.673 69.602 217.004 69.4312C214.238 69.1481 211.518 69.1465 211.015 69.4276C210.793 69.5517 210.53 70.0952 210.43 70.6353C210.251 71.6088 210.229 71.6235 207.698 72.3931C206.295 72.8199 205.024 73.3423 204.874 73.5539C204.723 73.7655 204.598 74.7895 204.595 75.8295C204.591 77.4683 204.468 77.9184 203.666 79.2046V79.2046C203.087 80.1344 202.09 80.7219 200.996 80.7776L199.187 80.8696C195.657 81.0493 195.625 81.0565 194.704 81.8954C193.889 82.6374 193.53 82.762 191.747 82.92C189.894 83.0844 189.596 83.196 188.302 84.2103C187 85.2308 186.81 85.3013 185.945 85.0825C185.267 84.9107 184.557 84.9584 183.393 85.2536C180.233 86.055 179.979 86.2166 179.42 87.7808C178.884 89.2811 178.23 89.5771 178.384 88.2491C178.535 86.9545 177.797 86.5472 175.584 86.7039V86.7039C174.37 86.7899 173.217 87.2697 172.3 88.0705L169.756 90.2918C166.585 93.0604 165.418 93.9075 163.881 94.5533C161.78 95.4355 161.255 96.0639 161.602 97.2767C161.724 97.7001 161.91 98.4982 162.017 99.0507C162.164 99.8095 162.65 100.46 164.005 101.711C164.992 102.623 166.257 103.624 166.816 103.937C168.763 105.025 171.146 106.125 171.558 106.125C171.786 106.125 173.395 105.709 175.133 105.201C176.871 104.693 178.641 104.185 179.067 104.071C179.634 103.921 180.233 104.027 181.319 104.471C182.738 105.051 183.259 105.612 182.378 105.612C181.609 105.612 181.054 106.691 181.054 108.188V108.188C181.054 109.055 180.526 109.835 179.72 110.156L179.654 110.183C177.829 110.91 175.079 110.929 172.773 110.228C170.301 109.478 169.792 109.548 168.279 110.846C166.791 112.121 164.091 113.224 160.714 113.933C157.493 114.61 157.336 114.693 156.152 116.365C155.224 117.676 154.77 118.036 153.064 118.81C151.277 119.621 150.824 119.718 148.794 119.718C146.547 119.718 146.51 119.707 145.337 118.712C143.999 117.577 143.927 117.268 144.693 115.925C145.042 115.312 145.305 114.104 145.432 112.536C145.677 109.5 145.483 109.187 143.255 109.012C141.911 108.906 141.508 108.741 140.492 107.878C139.449 106.991 138.994 106.812 136.777 106.416C135.037 106.105 134.051 105.787 133.607 105.395C132.831 104.709 133.032 104.546 135.417 103.927C136.67 103.602 137.425 103.154 139.049 101.773C140.357 100.66 141.861 99.6918 143.2 99.1007C144.355 98.5911 145.524 97.8722 145.798 97.5034C146.24 96.9089 146.248 96.7607 145.877 96.1913C145.436 95.5148 143.101 94.5846 141.842 94.5843C141.452 94.5841 140.779 94.8828 140.347 95.248C139.562 95.9115 139.559 95.9118 134.665 95.8797L131.885 95.8615C130.519 95.8526 129.201 95.3546 128.169 94.4579V94.4579C127.29 93.6933 126.084 92.8893 125.489 92.6711C124.515 92.3141 124.424 92.2002 124.575 91.5324C124.774 90.6527 123.897 89.7112 122.877 89.7112C122.514 89.7112 121.696 89.2447 120.994 88.6366V88.6366C120.195 87.9448 119.169 87.5741 118.112 87.5964L117.351 87.6125C111.764 87.7305 110.955 88.036 110.593 90.1636C110.353 91.5785 108.472 93.6323 102.008 99.5403L99.1815 102.124C98.3488 102.885 97.953 104.013 98.1276 105.127V105.127C98.4385 107.111 98.2668 107.703 97.5357 107.167C97.2838 106.983 97.0777 106.623 97.0777 106.369C97.0777 105.448 94.5823 104.371 92.903 104.566C92.6046 104.6 90.8801 105.245 89.0709 105.998L87.9535 106.463C86.5523 107.046 84.9881 107.106 83.5465 106.632V106.632C81.2228 105.866 79.9338 105.049 79.9338 104.339C79.9338 104.112 80.5913 103.354 81.3948 102.656C82.1982 101.957 83.4672 100.577 84.2145 99.5877C84.9616 98.599 86.2773 97.1338 87.138 96.3321L87.2355 96.2413C88.1683 95.3723 88.6824 94.1442 88.647 92.8698V92.8698C88.6162 91.7673 88.6046 90.7363 88.6211 90.5788C88.658 90.2267 90.8115 88.9418 91.3644 88.9418C91.585 88.9418 92.7662 89.3499 93.9889 89.8484L94.7786 90.1705C95.7093 90.5501 96.738 90.6175 97.7103 90.3626V90.3626C100.061 89.7466 100.274 89.4681 100.274 87.0183C100.274 84.6458 100.25 84.6119 97.7304 83.4237C96.2862 82.743 96.1604 82.6004 95.4058 80.7954C94.7697 79.2741 94.2353 78.5411 92.7708 77.1821L91.8894 76.3642C91.2942 75.8118 91.0225 74.9937 91.1689 74.195V74.195C91.2982 73.4898 91.4057 72.1456 91.4077 71.208C91.4124 69.0988 90.876 68.4246 89.193 68.4246C88.1899 68.4246 88.0243 68.3253 87.4911 67.4028C86.7815 66.1749 86.0129 65.9471 84.012 66.3708V66.3708C83.0913 66.5657 82.1316 66.342 81.3919 65.7601L80.8831 65.3598C79.1544 63.9995 75.1381 61.5187 73.7983 60.9835C73.2183 60.7516 72.5639 60.7493 71.0378 60.9737C69.9374 61.1353 67.5186 61.432 65.6627 61.6334C63.8065 61.8344 61.9105 62.1235 61.4494 62.2756C60.9879 62.4276 59.3535 63.6535 57.8172 64.9997L57.6355 65.159C55.9365 66.6478 53.8169 67.5719 51.5698 67.8037V67.8037C43.6005 68.6256 44.1337 68.4864 42.0752 70.2839C41.0876 71.1464 40.8188 71.2457 39.4682 71.2457C38.0406 71.2457 37.879 71.1744 36.3558 69.868C35.4722 69.1104 34.3047 68.3602 33.7616 68.2009C33.1505 68.0219 30.3804 67.9116 26.4963 67.9116H21.9075C20.804 67.9116 19.7229 67.6005 18.7882 67.014V67.014C17.12 65.9671 15.7479 65.8466 14.4089 66.6293C13.4646 67.1815 12.3735 67.2989 12.0803 66.8801C11.8969 66.6183 9.50257 65.0005 7.58041 63.84C6.40213 63.1283 4.0935 61.0063 4.0935 60.6347C4.0935 60.37 4.45614 59.6301 6.86037 54.9906C7.96601 52.8566 8.52362 52.0746 9.16173 51.7625C9.62461 51.5361 10.2688 51.037 10.5934 50.6536C11.1528 49.9924 11.1655 49.8208 10.8453 47.329C10.5199 44.7987 10.5306 44.673 11.1356 43.9321C12.7582 41.9458 17.3966 37.2738 20.0107 34.9928C22.6133 32.722 23.0515 32.4422 24.3245 32.2381C26.374 31.9093 27.3416 30.9057 27.3338 29.1171C27.3189 25.7384 26.9607 24.7849 24.4565 21.4588C22.3271 18.6308 22.1092 18.2255 22.1092 17.0953C22.1092 15.3254 22.747 14.8233 24.9955 14.8233V14.8233C26.1015 14.8233 27.1643 14.3943 27.9604 13.6265L28.9799 12.6433V12.6433C30.4307 11.2441 32.3649 10.4576 34.3805 10.4473L35.7552 10.4403C38.2385 10.4277 41.8393 10.3413 43.7571 10.2479C47.7098 10.0561 54.0531 10.4634 56.2518 11.0502C57.0509 11.2635 58.4079 11.6231 59.2672 11.8493C60.1264 12.0755 61.9361 12.3358 63.2887 12.4274C65.5116 12.5782 65.8586 12.6759 66.8991 13.4432C68.5874 14.6881 70.4168 14.8838 75.7724 14.3927L77.0454 14.276C78.7642 14.1184 80.4973 14.2674 82.1639 14.7161V14.7161V14.7161C83.8203 15.162 85.5585 15.2109 87.2372 14.8587L87.4074 14.823L87.7574 14.7496C89.255 14.4356 90.8137 14.8305 91.981 15.8199V15.8199C93.1895 16.8442 94.0712 17.3879 94.5236 17.3879C94.9045 17.3879 96.387 17.1689 97.8178 16.9014C102.313 16.0607 102.989 16.0625 104.519 16.9186C106.385 17.9637 107.222 18.066 108.222 17.3718C109.019 16.8186 109.037 16.7539 108.846 15.0826V15.0826C108.722 13.9855 109.058 12.8859 109.774 12.0461L110.928 10.6947L111.315 10.2413C112.523 8.82616 114.253 7.96242 116.11 7.84818V7.84818C117.709 7.74996 119.308 7.62198 119.664 7.56402C120.021 7.50632 121.655 7.72841 123.297 8.05797C127.796 8.9615 127.595 9.00895 129.517 6.58766L130.335 5.55772C130.854 4.9038 131.672 4.56127 132.502 4.65006V4.65006C133.236 4.72853 134.359 4.86729 134.998 4.95833C135.961 5.09554 136.535 4.96807 138.339 4.21689C140.511 3.3131 140.534 3.30951 144.681 3.29592L146.906 3.28866C148.157 3.28457 149.369 3.72465 150.326 4.53055V4.53055Z" stroke="#009FE3" stroke-width="3.36207" mask="url(#path-1-outside-1_113_4744)"/>
</svg>
