<svg width="396" height="238" viewBox="0 0 396 238" fill="none" xmlns="http://www.w3.org/2000/svg">
<mask id="path-1-outside-1_111_3418" maskUnits="userSpaceOnUse" x="0" y="0" width="396" height="238" fill="black">
<rect fill="white" width="396" height="238"/>
<path fill-rule="evenodd" clip-rule="evenodd" d="M235.75 4.7935C233.197 6.039 231.844 6.4245 230.75 6.219C226.356 5.394 224.274 5.153 223.435 5.372C222.922 5.5065 221.244 7.411 219.707 9.605C217.336 12.989 216.748 13.546 215.831 13.2795C213.668 12.6505 207.218 11.3535 206 11.3025C204.317 11.232 194.039 11.9875 192.613 12.2865C191.45 12.5305 183.462 22.7585 182.796 24.8555C182.613 25.434 182.728 26.963 183.053 28.2545C183.745 31.004 183.014 32.0105 181.253 30.731C180.702 30.3305 179.411 29.5495 178.384 28.996C176.207 27.821 173.644 27.944 166.093 29.5845L165.736 29.6621C163.048 30.2462 160.245 29.4537 158.261 27.5485V27.5485C154.623 24.0545 154.234 23.9735 148.278 25.4615C145.716 26.102 143.982 26.2865 143.09 26.0135C136.096 23.874 136.41 23.907 128.992 24.518C119.962 25.262 117.021 24.9265 114.697 22.8865C113.176 21.551 112.385 21.2895 108.6 20.8725C106.208 20.609 101.941 19.741 99.1205 18.944C91.087 16.675 88.0605 16.419 69.905 16.4745C56.6725 16.515 52.7055 16.676 51.405 17.2265C50.4675 17.623 48.376 19.5685 46.581 21.7135L45.1337 23.4429C44.0425 24.7467 42.4297 25.5 40.7295 25.5V25.5C35.6275 25.5 34 27.24 34 32.6945C34 35.912 34.031 35.984 37.8315 41.594C41.864 47.5465 42.977 50.464 42.992 55.125C43.0015 57.9735 41.7745 59.5 39.475 59.5C38.6365 59.5 37.343 59.8185 36.6 60.2075C33.582 61.7885 17.659 79.317 14.7725 84.2355C13.856 85.797 13.835 86.186 14.4365 90.4345C14.789 92.9275 14.949 95.3725 14.792 95.868C14.6345 96.364 13.6855 97.2115 12.683 97.751C11.3105 98.4905 10.519 99.4765 9.4805 101.742C4.106 113.463 3 116.141 3 117.432C3 119.339 6.3535 123.093 11.1545 126.559C13.132 127.987 15.5945 129.907 16.6265 130.827C18.888 132.843 21.83 133.102 24.25 131.5C26.295 130.145 26.769 130.219 29.8975 132.375V132.375C31.6714 133.597 33.7686 134.265 35.9227 134.292L44.4195 134.402L51.927 134.498C54.6853 134.533 57.3271 135.616 59.317 137.527V137.527L59.656 137.852C61.4254 139.551 63.7834 140.5 66.2365 140.5V140.5H66.3077C68.7173 140.5 71.0354 139.577 72.786 137.921V137.921V137.921C74.5573 136.246 76.8157 135.178 79.2342 134.872L84.631 134.189C89.6465 133.554 93.9255 133.027 94.14 133.018C94.355 133.008 96.9815 130.638 99.977 127.75C104.165 123.713 105.737 122.5 106.779 122.5C108.171 122.5 111.477 122.017 119.107 120.699C122.579 120.098 123.695 120.068 124.607 120.553C127.247 121.957 133.914 126.745 136 128.737C139.258 131.846 139.899 132.083 142.75 131.225C145.962 130.258 145.838 130.221 146.996 132.492C147.984 134.428 148.599 134.785 151.5 135.11V135.11C152.208 135.189 152.738 135.796 152.722 136.508L152.612 141.501L152.575 143.159C152.51 146.092 153.654 148.922 155.737 150.987V150.987C157.531 152.765 159 154.419 159 154.66C159 155.143 160.089 157.784 161.404 160.49C161.967 161.648 163.253 162.836 165.25 164.039C168.1 165.758 168.258 165.956 168.408 168.009C168.671 171.601 168.274 172.366 165.947 172.759C164.197 173.055 163.298 172.828 159.906 171.236L158.258 170.463C156.778 169.769 155.064 169.771 153.585 170.469V170.469C152.301 171.075 150.575 172.117 149.75 172.783C148.259 173.986 148.251 174.021 148.391 178.542L148.43 179.833C148.495 181.914 147.708 183.932 146.252 185.42V185.42C144.999 186.701 142.814 189.438 141.398 191.5C139.981 193.562 138.13 195.938 137.286 196.779C134.484 199.567 133 201.565 133 202.549C133 203.084 133.901 204.501 135.004 205.696C136.572 207.398 137.949 208.226 141.339 209.505C146.31 211.381 145.919 211.438 153.719 207.69C156.211 206.493 158.61 205.51 159.051 205.507C160.983 205.491 162.916 206.598 163.243 207.908C163.743 209.913 164.967 211.002 166.702 210.984C169.937 210.951 170.721 209.182 169.839 203.905V203.905C169.594 202.434 170.072 200.934 171.125 199.877L174.599 196.389C179.862 191.103 189.329 180.641 190.24 179.104C190.518 178.635 190.971 177.126 191.247 175.752C191.839 172.81 192.222 172.654 199.027 172.559C203.295 172.5 203.307 172.503 205.014 174.265C205.955 175.235 207.406 176.206 208.238 176.421C209.572 176.766 209.757 177.036 209.804 178.708C209.862 180.742 210.422 181.348 212.697 181.84C213.493 182.013 215.638 183.563 217.464 185.286V185.286C219.6 187.3 222.412 188.443 225.348 188.488L230.378 188.566L238.052 188.684C239.282 188.703 240.471 188.238 241.361 187.389V187.389C242.652 186.157 242.882 186.105 244.625 186.654C247.621 187.597 246.982 188.6 242.005 190.771C240.77 191.309 238.235 193.24 236.372 195.061C233.846 197.53 232.241 198.643 230.065 199.436C228.46 200.021 226.924 200.5 226.651 200.5C225.841 200.5 224.5 202.253 224.5 203.313C224.5 203.854 225.372 205.149 226.438 206.189C228.095 207.808 228.943 208.191 232.312 208.85C235.807 209.534 236.503 209.865 238.503 211.797C240.424 213.652 241.124 214.004 243.253 214.186C244.626 214.303 245.916 214.422 246.118 214.449C246.896 214.556 245.831 222.299 244.677 224.937C244.03 226.415 243.5 227.997 243.5 228.453C243.5 228.909 244.8 230.568 246.389 232.141V232.141C248.241 233.972 250.74 235 253.344 235H254.189C258.926 235 259.24 234.929 263.174 232.969C266.813 231.156 267.464 230.609 269.25 227.867V227.867C270.536 225.893 272.52 224.478 274.805 223.906L275.5 223.732C277.838 223.147 280.2 222.484 280.75 222.259C281.3 222.035 283.098 221.316 284.745 220.662C286.46 219.981 288.629 218.6 289.82 217.431V217.431C291.089 216.186 292.964 215.789 294.628 216.412L294.719 216.445C298.689 217.931 305.096 217.918 308.38 216.418C312.161 214.691 312.5 214.237 312.5 210.9C312.5 208.163 312.604 207.894 313.974 207.108C315.815 206.051 316.518 204.605 315.879 203.183C315.422 202.167 309.365 199 307.878 199C307.507 199 304.514 199.905 301.227 201.012C297.94 202.119 294.8 203.053 294.25 203.088C292.742 203.184 286.071 199.2 283.336 196.57C280.396 193.745 279.66 192.417 279.428 189.516V189.516C279.32 188.157 280.02 186.86 281.215 186.205L282.568 185.464C284.955 184.156 287.665 181.849 292.233 177.238C298.294 171.12 298.674 170.828 300.665 170.79C302.67 170.751 302.744 170.805 302.583 172.173C302.348 174.174 304.189 176.088 305.953 175.678C307.792 175.249 308.536 174.401 309.481 171.656C310.258 169.396 310.474 169.195 313.03 168.35C315.003 167.698 316.488 167.538 318.436 167.769C321.068 168.081 321.165 168.046 323.186 166.07C325.256 164.047 327.904 163.039 331.226 163.012C332.2 163.004 333.266 162.453 334.36 161.393C335.801 159.996 336.488 159.74 339.634 159.424C341.623 159.225 344.525 159.048 346.082 159.031V159.031C347.836 159.012 349.447 158.062 350.313 156.538L350.832 155.625C352.527 152.643 352.779 151.761 353 148.042V148.042C353.151 145.505 354.844 143.322 357.264 142.545L357.314 142.529C362.141 140.98 362.893 140.434 363.096 138.338C363.249 136.762 363.27 136.75 366 136.773C367.513 136.786 370.662 136.88 373 136.982C376.97 137.155 379.912 136.708 383.06 135.454C384.096 135.041 384.752 133.972 386.192 130.341V130.341C387.38 127.346 387.665 124.069 387.012 120.913L386.841 120.087L386.517 118.522C385.971 115.886 386.439 113.142 387.826 110.837V110.837C389.012 108.864 389.987 106.896 389.991 106.462C390.001 105.596 388.379 103.949 386.625 103.045C386.007 102.726 385.5 102.266 385.5 102.023C385.5 101.78 387.086 100.426 389.025 99.0165C390.964 97.6065 392.685 96.098 392.852 95.6645C393.018 95.2305 392.645 93.4975 392.022 91.813C391.399 90.1285 390.897 88.525 390.908 88.25C390.918 87.975 390.981 86.8745 391.047 85.8045C391.221 82.9835 390.195 82.398 385.764 82.787L384.708 82.8797C383.154 83.0161 381.622 82.4403 380.543 81.314V81.314C379.28 79.996 377.914 79.2615 375.293 78.491C373.344 77.918 370.175 76.987 368.25 76.4215C365.404 75.585 364.263 74.9195 362.142 72.8555C359.763 70.541 359.214 70.2585 355.892 69.6445C353.889 69.2745 350.863 68.836 349.168 68.6705C346.287 68.3895 345.996 68.459 344.728 69.727V69.727C343.976 70.4781 342.76 70.4818 342.004 69.7353L341.06 68.8025C339.502 67.264 338.285 65.383 337.323 63.028C336.538 61.107 335.588 59.2805 335.212 58.9685C333.912 57.8895 324.871 59.6555 320.5 61.8425C315.73 64.23 310.608 63.5025 306.678 59.8805C304.34 57.725 303.407 57.6195 298.75 58.9835C294.702 60.1695 294.804 60.1865 292.576 57.9585C291.171 56.553 290.561 55.57 290.768 55.044C292.252 51.278 292.547 49.814 292.071 48.571C291.794 47.8445 291.197 45.9 290.746 44.25C290.064 41.755 289.408 40.724 286.852 38.125C283.389 34.604 283.351 34.595 277.316 35.837C273.698 36.5815 272.92 36.595 270.25 35.962V35.962C268.385 35.5194 266.882 34.1432 266.276 32.3244L266.168 32C264.652 27.443 264.688 27.1035 266.732 26.7205C269.243 26.249 269.675 25.481 269.267 22.2125C268.889 19.1905 268.501 18.679 264.951 16.5175C262.738 15.171 262.639 15.0075 262.309 12.184C261.987 9.432 261.773 9.056 258.872 6.125V6.125C256.894 4.12632 254.194 3.00825 251.382 3.02288L247.514 3.043L243.144 3.06574C240.581 3.07907 238.054 3.66961 235.75 4.7935V4.7935ZM257.125 7.9335C259.572 10.2675 259.686 10.4955 259.902 13.492V13.492C260.045 15.4563 261.114 17.2352 262.783 18.2813L263.315 18.6145C265.067 19.713 266.503 20.868 266.507 21.181C266.51 21.494 266.641 22.225 266.797 22.8055C267.041 23.7165 266.767 23.94 264.798 24.4355C261.665 25.2245 261.498 26.241 263.509 32.2775C264.946 36.5905 265.283 37.1695 266.704 37.763C270.212 39.2285 274.318 39.2115 281.056 37.7025C282.129 37.462 282.814 37.84 284.915 39.83C287.141 41.9385 287.613 42.747 288.581 46.1105C289.658 49.855 289.667 50.0515 288.846 52.6545C288.381 54.1305 288 55.761 288 56.278C288 56.7955 289.174 58.407 290.608 59.8595C293.638 62.9275 294.254 63.0325 299.794 61.4225L300.639 61.1771C302.406 60.6638 304.312 61.1483 305.62 62.443V62.443C306.785 63.597 308.304 64.664 308.995 64.815C309.685 64.9655 311.585 65.4125 313.217 65.8075C315.806 66.435 316.38 66.4335 317.718 65.7985C322.682 63.443 325.881 62.4125 331.859 61.2425C333.458 60.9295 333.481 60.9545 335.266 64.8385C338.671 72.248 343.141 75.3035 346.038 72.2025C347.356 70.791 347.542 70.7865 354.485 71.9945C357.37 72.4965 358.018 72.8405 360.485 75.1845C362.53 77.128 363.901 77.9785 365.75 78.4535C367.125 78.8065 368.812 79.2865 369.5 79.5205C370.188 79.754 372.206 80.3385 373.987 80.82C376.017 81.3685 377.712 82.194 378.534 83.0345C380.971 85.5285 381.99 85.9115 385.177 85.533C388.359 85.1555 388.861 85.495 388.318 87.66C388.157 88.298 388.469 89.983 389.013 91.414C389.556 92.8425 390 94.2245 390 94.4855C390 94.747 388.312 96.2085 386.25 97.734C382.853 100.246 382.5 100.669 382.5 102.22C382.5 103.41 382.767 104.019 383.375 104.215C383.856 104.371 384.899 105.019 385.692 105.656V105.656C386.513 106.315 386.709 107.485 386.147 108.376L385.013 110.171C383.429 112.679 382.955 113.876 383.146 114.891C383.439 116.454 384.301 120.791 384.926 123.842C385.292 125.63 385.138 126.427 383.864 129.342C383.045 131.216 382.303 132.832 382.215 132.932C382.126 133.032 380.572 133.511 378.762 133.997C376.142 134.7 374.732 134.795 371.859 134.462C367.101 133.91 362.42 133.908 361.555 134.456C361.172 134.698 360.719 135.757 360.548 136.81C360.24 138.708 360.201 138.736 355.848 140.237C353.433 141.069 351.246 142.088 350.987 142.5C350.728 142.912 350.512 144.909 350.508 146.936C350.501 150.131 350.288 151.009 348.909 153.516V153.516C347.92 155.317 346.074 156.482 344.023 156.6L341.202 156.762C335.128 157.113 335.073 157.127 333.488 158.762C332.086 160.209 331.467 160.452 328.4 160.76C325.211 161.08 324.698 161.298 322.471 163.275C320.231 165.265 319.904 165.402 318.417 164.976C317.249 164.641 316.028 164.734 314.025 165.309C308.588 166.872 308.15 167.187 307.189 170.236C306.267 173.161 305.14 173.739 305.405 171.15C305.665 168.626 304.395 167.831 300.587 168.137V168.137C298.508 168.304 296.554 169.2 295.071 170.668L290.559 175.132C285.103 180.53 283.094 182.181 280.449 183.44C276.835 185.16 275.931 186.385 276.529 188.749C276.737 189.575 277.059 191.131 277.242 192.208C277.495 193.687 278.331 194.956 280.663 197.395C282.361 199.172 284.538 201.124 285.5 201.734C288.85 203.856 292.95 206 293.659 206C294.051 206 296.82 205.189 299.811 204.198C302.802 203.208 305.848 202.217 306.58 201.996C307.556 201.702 308.586 201.909 310.455 202.775C312.898 203.906 313.794 205 312.279 205C310.954 205 310 207.104 310 210.022V210.177C310 211.787 309.057 213.248 307.59 213.911V213.911C304.451 215.33 299.718 215.365 295.75 214C291.497 212.537 290.62 212.673 288.017 215.203C285.457 217.691 280.811 219.84 275 221.223C269.458 222.542 269.188 222.705 267.151 225.965C265.553 228.52 264.771 229.221 261.837 230.73C258.762 232.312 257.983 232.5 254.49 232.5C250.624 232.5 250.559 232.479 248.541 230.539C246.238 228.327 246.115 227.725 247.433 225.105C248.033 223.912 248.487 221.556 248.704 218.5C249.125 212.581 248.792 211.97 244.959 211.629C242.646 211.423 241.952 211.1 240.204 209.418C238.409 207.688 237.627 207.339 233.811 206.567C230.817 205.961 229.121 205.342 228.358 204.577C227.022 203.238 227.367 202.922 231.471 201.716C233.627 201.082 234.927 200.208 237.721 197.514C239.971 195.346 242.56 193.458 244.864 192.305C246.852 191.312 248.863 189.91 249.334 189.191C250.094 188.032 250.109 187.743 249.47 186.633C248.711 185.314 244.692 183.501 242.527 183.501C241.855 183.5 240.697 184.082 239.954 184.794C238.604 186.088 238.598 186.089 230.177 186.026L225.61 185.992C223.135 185.974 220.764 184.992 219 183.254V183.254C217.487 181.763 215.412 180.196 214.388 179.77C212.712 179.074 212.555 178.853 212.815 177.551C213.158 175.836 211.648 174 209.894 174C209.268 174 207.861 173.09 206.653 171.905V171.905C205.288 170.565 203.44 169.835 201.528 169.881L200.384 169.908C190.771 170.138 189.379 170.734 188.757 174.882C188.343 177.641 185.107 181.645 173.984 193.163L169.266 198.048C167.725 199.643 167.003 201.858 167.307 204.055V204.055C167.842 207.923 167.546 209.075 166.288 208.031C165.854 207.672 165.5 206.972 165.5 206.475C165.5 204.681 161.206 202.579 158.316 202.96C157.803 203.027 154.836 204.284 151.723 205.753L149.774 206.671C147.401 207.791 144.675 207.905 142.217 206.987V206.987C138.218 205.496 136 203.902 136 202.519C136 202.076 137.132 200.598 138.514 199.237C139.897 197.875 142.08 195.183 143.366 193.255C144.651 191.328 146.915 188.471 148.396 186.908V186.908C150.118 185.09 151.054 182.661 150.993 180.158V180.158C150.94 178.009 150.92 175.998 150.949 175.691C151.012 175.005 154.718 172.5 155.669 172.5C156.049 172.5 158.081 173.296 160.185 174.268L161.57 174.908C163.143 175.635 164.927 175.763 166.589 175.27V175.27C170.633 174.069 171 173.526 171 168.75C171 164.124 170.959 164.059 166.623 161.742C164.138 160.415 163.922 160.137 162.623 156.618C161.529 153.652 160.609 152.223 158.089 149.574L156.673 148.085C155.574 146.929 155.078 145.325 155.333 143.75V143.75C155.555 142.375 155.74 139.754 155.743 137.926C155.751 133.814 154.828 132.5 151.932 132.5C150.206 132.5 149.921 132.306 149.004 130.508C147.783 128.114 146.461 127.67 143.018 128.496V128.496C141.451 128.872 139.801 128.457 138.598 127.385L137.633 126.525C134.659 123.873 127.748 119.036 125.443 117.993C124.445 117.541 123.319 117.536 120.693 117.974C118.799 118.289 114.637 118.867 111.443 119.26C108.249 119.652 104.987 120.215 104.193 120.512C103.399 120.808 100.587 123.198 97.9435 125.823L97.3835 126.379C94.6323 129.11 91.0441 130.84 87.1935 131.29V131.29C73.4805 132.892 74.398 132.621 70.856 136.125C69.1565 137.806 68.694 138 66.37 138C63.9135 138 63.6355 137.861 61.0145 135.314C59.494 133.837 57.485 132.374 56.5505 132.064C55.499 131.715 50.7325 131.5 44.049 131.5H36.2672C34.3026 131.5 32.3867 130.888 30.7855 129.75V129.75C27.915 127.709 25.554 127.474 23.25 129C21.625 130.077 19.7475 130.305 19.243 129.489C18.9275 128.978 14.8075 125.824 11.5 123.562C9.4725 122.174 5.5 118.038 5.5 117.313C5.5 116.797 6.124 115.354 10.261 106.309C12.1635 102.149 13.123 100.625 14.221 100.016C15.0175 99.5745 16.126 98.6015 16.6845 97.854C17.647 96.565 17.669 96.2305 17.118 91.3725C16.558 86.4395 16.5765 86.1945 17.6175 84.75C20.4095 80.8775 28.391 71.769 32.889 67.322C37.3675 62.895 38.1215 62.3495 40.312 61.9515C43.8385 61.3105 45.5035 59.354 45.49 55.867C45.4645 49.28 44.848 47.421 40.539 40.9365C36.875 35.423 36.5 34.633 36.5 32.4295C36.5 28.979 37.5975 28 41.4665 28V28C43.3566 28 45.1597 27.2059 46.4358 25.8116L48.3225 23.75V23.75C50.8023 21.0403 54.3 19.4879 57.973 19.4666L59.981 19.455C64.254 19.4305 70.45 19.262 73.75 19.08C80.5515 18.706 91.4665 19.5 95.25 20.644C96.625 21.06 98.96 21.761 100.439 22.202C101.917 22.643 105.031 23.1505 107.359 23.329C111.184 23.623 111.78 23.8135 113.571 25.3095C116.476 27.7365 119.624 28.118 128.839 27.1605L130.993 26.9369C133.968 26.6278 136.976 26.9182 139.837 27.791V27.791V27.791C142.677 28.657 145.695 28.7517 148.583 28.0654L148.86 27.9995L149.252 27.9063C151.929 27.2703 154.746 28.0374 156.73 29.943V29.943C158.809 31.94 160.326 33 161.105 33C161.76 33 164.311 32.573 166.773 32.0515C174.508 30.4125 175.671 30.416 178.303 32.085C181.516 34.1225 182.956 34.322 184.676 32.9685C186.047 31.89 186.078 31.764 185.751 28.5055V28.5055C185.534 26.3497 186.138 24.1914 187.441 22.4608L189.332 19.951L190.234 18.7533C192.15 16.2104 195.074 14.6229 198.25 14.4015V14.4015C201 14.21 203.752 13.9605 204.365 13.8475C204.978 13.735 207.791 14.168 210.615 14.8105C218.357 16.572 218.011 16.6645 221.319 11.944L222.835 9.78127C223.652 8.6161 225.044 7.99536 226.456 8.1665V8.1665C227.717 8.3195 229.65 8.59 230.75 8.7675C232.406 9.035 233.395 8.7865 236.5 7.322C240.236 5.56 240.276 5.553 247.412 5.5265L251.049 5.51304C253.311 5.50467 255.489 6.37207 257.125 7.9335V7.9335Z"/>
</mask>
<path fill-rule="evenodd" clip-rule="evenodd" d="M235.75 4.7935C233.197 6.039 231.844 6.4245 230.75 6.219C226.356 5.394 224.274 5.153 223.435 5.372C222.922 5.5065 221.244 7.411 219.707 9.605C217.336 12.989 216.748 13.546 215.831 13.2795C213.668 12.6505 207.218 11.3535 206 11.3025C204.317 11.232 194.039 11.9875 192.613 12.2865C191.45 12.5305 183.462 22.7585 182.796 24.8555C182.613 25.434 182.728 26.963 183.053 28.2545C183.745 31.004 183.014 32.0105 181.253 30.731C180.702 30.3305 179.411 29.5495 178.384 28.996C176.207 27.821 173.644 27.944 166.093 29.5845L165.736 29.6621C163.048 30.2462 160.245 29.4537 158.261 27.5485V27.5485C154.623 24.0545 154.234 23.9735 148.278 25.4615C145.716 26.102 143.982 26.2865 143.09 26.0135C136.096 23.874 136.41 23.907 128.992 24.518C119.962 25.262 117.021 24.9265 114.697 22.8865C113.176 21.551 112.385 21.2895 108.6 20.8725C106.208 20.609 101.941 19.741 99.1205 18.944C91.087 16.675 88.0605 16.419 69.905 16.4745C56.6725 16.515 52.7055 16.676 51.405 17.2265C50.4675 17.623 48.376 19.5685 46.581 21.7135L45.1337 23.4429C44.0425 24.7467 42.4297 25.5 40.7295 25.5V25.5C35.6275 25.5 34 27.24 34 32.6945C34 35.912 34.031 35.984 37.8315 41.594C41.864 47.5465 42.977 50.464 42.992 55.125C43.0015 57.9735 41.7745 59.5 39.475 59.5C38.6365 59.5 37.343 59.8185 36.6 60.2075C33.582 61.7885 17.659 79.317 14.7725 84.2355C13.856 85.797 13.835 86.186 14.4365 90.4345C14.789 92.9275 14.949 95.3725 14.792 95.868C14.6345 96.364 13.6855 97.2115 12.683 97.751C11.3105 98.4905 10.519 99.4765 9.4805 101.742C4.106 113.463 3 116.141 3 117.432C3 119.339 6.3535 123.093 11.1545 126.559C13.132 127.987 15.5945 129.907 16.6265 130.827C18.888 132.843 21.83 133.102 24.25 131.5C26.295 130.145 26.769 130.219 29.8975 132.375V132.375C31.6714 133.597 33.7686 134.265 35.9227 134.292L44.4195 134.402L51.927 134.498C54.6853 134.533 57.3271 135.616 59.317 137.527V137.527L59.656 137.852C61.4254 139.551 63.7834 140.5 66.2365 140.5V140.5H66.3077C68.7173 140.5 71.0354 139.577 72.786 137.921V137.921V137.921C74.5573 136.246 76.8157 135.178 79.2342 134.872L84.631 134.189C89.6465 133.554 93.9255 133.027 94.14 133.018C94.355 133.008 96.9815 130.638 99.977 127.75C104.165 123.713 105.737 122.5 106.779 122.5C108.171 122.5 111.477 122.017 119.107 120.699C122.579 120.098 123.695 120.068 124.607 120.553C127.247 121.957 133.914 126.745 136 128.737C139.258 131.846 139.899 132.083 142.75 131.225C145.962 130.258 145.838 130.221 146.996 132.492C147.984 134.428 148.599 134.785 151.5 135.11V135.11C152.208 135.189 152.738 135.796 152.722 136.508L152.612 141.501L152.575 143.159C152.51 146.092 153.654 148.922 155.737 150.987V150.987C157.531 152.765 159 154.419 159 154.66C159 155.143 160.089 157.784 161.404 160.49C161.967 161.648 163.253 162.836 165.25 164.039C168.1 165.758 168.258 165.956 168.408 168.009C168.671 171.601 168.274 172.366 165.947 172.759C164.197 173.055 163.298 172.828 159.906 171.236L158.258 170.463C156.778 169.769 155.064 169.771 153.585 170.469V170.469C152.301 171.075 150.575 172.117 149.75 172.783C148.259 173.986 148.251 174.021 148.391 178.542L148.43 179.833C148.495 181.914 147.708 183.932 146.252 185.42V185.42C144.999 186.701 142.814 189.438 141.398 191.5C139.981 193.562 138.13 195.938 137.286 196.779C134.484 199.567 133 201.565 133 202.549C133 203.084 133.901 204.501 135.004 205.696C136.572 207.398 137.949 208.226 141.339 209.505C146.31 211.381 145.919 211.438 153.719 207.69C156.211 206.493 158.61 205.51 159.051 205.507C160.983 205.491 162.916 206.598 163.243 207.908C163.743 209.913 164.967 211.002 166.702 210.984C169.937 210.951 170.721 209.182 169.839 203.905V203.905C169.594 202.434 170.072 200.934 171.125 199.877L174.599 196.389C179.862 191.103 189.329 180.641 190.24 179.104C190.518 178.635 190.971 177.126 191.247 175.752C191.839 172.81 192.222 172.654 199.027 172.559C203.295 172.5 203.307 172.503 205.014 174.265C205.955 175.235 207.406 176.206 208.238 176.421C209.572 176.766 209.757 177.036 209.804 178.708C209.862 180.742 210.422 181.348 212.697 181.84C213.493 182.013 215.638 183.563 217.464 185.286V185.286C219.6 187.3 222.412 188.443 225.348 188.488L230.378 188.566L238.052 188.684C239.282 188.703 240.471 188.238 241.361 187.389V187.389C242.652 186.157 242.882 186.105 244.625 186.654C247.621 187.597 246.982 188.6 242.005 190.771C240.77 191.309 238.235 193.24 236.372 195.061C233.846 197.53 232.241 198.643 230.065 199.436C228.46 200.021 226.924 200.5 226.651 200.5C225.841 200.5 224.5 202.253 224.5 203.313C224.5 203.854 225.372 205.149 226.438 206.189C228.095 207.808 228.943 208.191 232.312 208.85C235.807 209.534 236.503 209.865 238.503 211.797C240.424 213.652 241.124 214.004 243.253 214.186C244.626 214.303 245.916 214.422 246.118 214.449C246.896 214.556 245.831 222.299 244.677 224.937C244.03 226.415 243.5 227.997 243.5 228.453C243.5 228.909 244.8 230.568 246.389 232.141V232.141C248.241 233.972 250.74 235 253.344 235H254.189C258.926 235 259.24 234.929 263.174 232.969C266.813 231.156 267.464 230.609 269.25 227.867V227.867C270.536 225.893 272.52 224.478 274.805 223.906L275.5 223.732C277.838 223.147 280.2 222.484 280.75 222.259C281.3 222.035 283.098 221.316 284.745 220.662C286.46 219.981 288.629 218.6 289.82 217.431V217.431C291.089 216.186 292.964 215.789 294.628 216.412L294.719 216.445C298.689 217.931 305.096 217.918 308.38 216.418C312.161 214.691 312.5 214.237 312.5 210.9C312.5 208.163 312.604 207.894 313.974 207.108C315.815 206.051 316.518 204.605 315.879 203.183C315.422 202.167 309.365 199 307.878 199C307.507 199 304.514 199.905 301.227 201.012C297.94 202.119 294.8 203.053 294.25 203.088C292.742 203.184 286.071 199.2 283.336 196.57C280.396 193.745 279.66 192.417 279.428 189.516V189.516C279.32 188.157 280.02 186.86 281.215 186.205L282.568 185.464C284.955 184.156 287.665 181.849 292.233 177.238C298.294 171.12 298.674 170.828 300.665 170.79C302.67 170.751 302.744 170.805 302.583 172.173C302.348 174.174 304.189 176.088 305.953 175.678C307.792 175.249 308.536 174.401 309.481 171.656C310.258 169.396 310.474 169.195 313.03 168.35C315.003 167.698 316.488 167.538 318.436 167.769C321.068 168.081 321.165 168.046 323.186 166.07C325.256 164.047 327.904 163.039 331.226 163.012C332.2 163.004 333.266 162.453 334.36 161.393C335.801 159.996 336.488 159.74 339.634 159.424C341.623 159.225 344.525 159.048 346.082 159.031V159.031C347.836 159.012 349.447 158.062 350.313 156.538L350.832 155.625C352.527 152.643 352.779 151.761 353 148.042V148.042C353.151 145.505 354.844 143.322 357.264 142.545L357.314 142.529C362.141 140.98 362.893 140.434 363.096 138.338C363.249 136.762 363.27 136.75 366 136.773C367.513 136.786 370.662 136.88 373 136.982C376.97 137.155 379.912 136.708 383.06 135.454C384.096 135.041 384.752 133.972 386.192 130.341V130.341C387.38 127.346 387.665 124.069 387.012 120.913L386.841 120.087L386.517 118.522C385.971 115.886 386.439 113.142 387.826 110.837V110.837C389.012 108.864 389.987 106.896 389.991 106.462C390.001 105.596 388.379 103.949 386.625 103.045C386.007 102.726 385.5 102.266 385.5 102.023C385.5 101.78 387.086 100.426 389.025 99.0165C390.964 97.6065 392.685 96.098 392.852 95.6645C393.018 95.2305 392.645 93.4975 392.022 91.813C391.399 90.1285 390.897 88.525 390.908 88.25C390.918 87.975 390.981 86.8745 391.047 85.8045C391.221 82.9835 390.195 82.398 385.764 82.787L384.708 82.8797C383.154 83.0161 381.622 82.4403 380.543 81.314V81.314C379.28 79.996 377.914 79.2615 375.293 78.491C373.344 77.918 370.175 76.987 368.25 76.4215C365.404 75.585 364.263 74.9195 362.142 72.8555C359.763 70.541 359.214 70.2585 355.892 69.6445C353.889 69.2745 350.863 68.836 349.168 68.6705C346.287 68.3895 345.996 68.459 344.728 69.727V69.727C343.976 70.4781 342.76 70.4818 342.004 69.7353L341.06 68.8025C339.502 67.264 338.285 65.383 337.323 63.028C336.538 61.107 335.588 59.2805 335.212 58.9685C333.912 57.8895 324.871 59.6555 320.5 61.8425C315.73 64.23 310.608 63.5025 306.678 59.8805C304.34 57.725 303.407 57.6195 298.75 58.9835C294.702 60.1695 294.804 60.1865 292.576 57.9585C291.171 56.553 290.561 55.57 290.768 55.044C292.252 51.278 292.547 49.814 292.071 48.571C291.794 47.8445 291.197 45.9 290.746 44.25C290.064 41.755 289.408 40.724 286.852 38.125C283.389 34.604 283.351 34.595 277.316 35.837C273.698 36.5815 272.92 36.595 270.25 35.962V35.962C268.385 35.5194 266.882 34.1432 266.276 32.3244L266.168 32C264.652 27.443 264.688 27.1035 266.732 26.7205C269.243 26.249 269.675 25.481 269.267 22.2125C268.889 19.1905 268.501 18.679 264.951 16.5175C262.738 15.171 262.639 15.0075 262.309 12.184C261.987 9.432 261.773 9.056 258.872 6.125V6.125C256.894 4.12632 254.194 3.00825 251.382 3.02288L247.514 3.043L243.144 3.06574C240.581 3.07907 238.054 3.66961 235.75 4.7935V4.7935ZM257.125 7.9335C259.572 10.2675 259.686 10.4955 259.902 13.492V13.492C260.045 15.4563 261.114 17.2352 262.783 18.2813L263.315 18.6145C265.067 19.713 266.503 20.868 266.507 21.181C266.51 21.494 266.641 22.225 266.797 22.8055C267.041 23.7165 266.767 23.94 264.798 24.4355C261.665 25.2245 261.498 26.241 263.509 32.2775C264.946 36.5905 265.283 37.1695 266.704 37.763C270.212 39.2285 274.318 39.2115 281.056 37.7025C282.129 37.462 282.814 37.84 284.915 39.83C287.141 41.9385 287.613 42.747 288.581 46.1105C289.658 49.855 289.667 50.0515 288.846 52.6545C288.381 54.1305 288 55.761 288 56.278C288 56.7955 289.174 58.407 290.608 59.8595C293.638 62.9275 294.254 63.0325 299.794 61.4225L300.639 61.1771C302.406 60.6638 304.312 61.1483 305.62 62.443V62.443C306.785 63.597 308.304 64.664 308.995 64.815C309.685 64.9655 311.585 65.4125 313.217 65.8075C315.806 66.435 316.38 66.4335 317.718 65.7985C322.682 63.443 325.881 62.4125 331.859 61.2425C333.458 60.9295 333.481 60.9545 335.266 64.8385C338.671 72.248 343.141 75.3035 346.038 72.2025C347.356 70.791 347.542 70.7865 354.485 71.9945C357.37 72.4965 358.018 72.8405 360.485 75.1845C362.53 77.128 363.901 77.9785 365.75 78.4535C367.125 78.8065 368.812 79.2865 369.5 79.5205C370.188 79.754 372.206 80.3385 373.987 80.82C376.017 81.3685 377.712 82.194 378.534 83.0345C380.971 85.5285 381.99 85.9115 385.177 85.533C388.359 85.1555 388.861 85.495 388.318 87.66C388.157 88.298 388.469 89.983 389.013 91.414C389.556 92.8425 390 94.2245 390 94.4855C390 94.747 388.312 96.2085 386.25 97.734C382.853 100.246 382.5 100.669 382.5 102.22C382.5 103.41 382.767 104.019 383.375 104.215C383.856 104.371 384.899 105.019 385.692 105.656V105.656C386.513 106.315 386.709 107.485 386.147 108.376L385.013 110.171C383.429 112.679 382.955 113.876 383.146 114.891C383.439 116.454 384.301 120.791 384.926 123.842C385.292 125.63 385.138 126.427 383.864 129.342C383.045 131.216 382.303 132.832 382.215 132.932C382.126 133.032 380.572 133.511 378.762 133.997C376.142 134.7 374.732 134.795 371.859 134.462C367.101 133.91 362.42 133.908 361.555 134.456C361.172 134.698 360.719 135.757 360.548 136.81C360.24 138.708 360.201 138.736 355.848 140.237C353.433 141.069 351.246 142.088 350.987 142.5C350.728 142.912 350.512 144.909 350.508 146.936C350.501 150.131 350.288 151.009 348.909 153.516V153.516C347.92 155.317 346.074 156.482 344.023 156.6L341.202 156.762C335.128 157.113 335.073 157.127 333.488 158.762C332.086 160.209 331.467 160.452 328.4 160.76C325.211 161.08 324.698 161.298 322.471 163.275C320.231 165.265 319.904 165.402 318.417 164.976C317.249 164.641 316.028 164.734 314.025 165.309C308.588 166.872 308.15 167.187 307.189 170.236C306.267 173.161 305.14 173.739 305.405 171.15C305.665 168.626 304.395 167.831 300.587 168.137V168.137C298.508 168.304 296.554 169.2 295.071 170.668L290.559 175.132C285.103 180.53 283.094 182.181 280.449 183.44C276.835 185.16 275.931 186.385 276.529 188.749C276.737 189.575 277.059 191.131 277.242 192.208C277.495 193.687 278.331 194.956 280.663 197.395C282.361 199.172 284.538 201.124 285.5 201.734C288.85 203.856 292.95 206 293.659 206C294.051 206 296.82 205.189 299.811 204.198C302.802 203.208 305.848 202.217 306.58 201.996C307.556 201.702 308.586 201.909 310.455 202.775C312.898 203.906 313.794 205 312.279 205C310.954 205 310 207.104 310 210.022V210.177C310 211.787 309.057 213.248 307.59 213.911V213.911C304.451 215.33 299.718 215.365 295.75 214C291.497 212.537 290.62 212.673 288.017 215.203C285.457 217.691 280.811 219.84 275 221.223C269.458 222.542 269.188 222.705 267.151 225.965C265.553 228.52 264.771 229.221 261.837 230.73C258.762 232.312 257.983 232.5 254.49 232.5C250.624 232.5 250.559 232.479 248.541 230.539C246.238 228.327 246.115 227.725 247.433 225.105C248.033 223.912 248.487 221.556 248.704 218.5C249.125 212.581 248.792 211.97 244.959 211.629C242.646 211.423 241.952 211.1 240.204 209.418C238.409 207.688 237.627 207.339 233.811 206.567C230.817 205.961 229.121 205.342 228.358 204.577C227.022 203.238 227.367 202.922 231.471 201.716C233.627 201.082 234.927 200.208 237.721 197.514C239.971 195.346 242.56 193.458 244.864 192.305C246.852 191.312 248.863 189.91 249.334 189.191C250.094 188.032 250.109 187.743 249.47 186.633C248.711 185.314 244.692 183.501 242.527 183.501C241.855 183.5 240.697 184.082 239.954 184.794C238.604 186.088 238.598 186.089 230.177 186.026L225.61 185.992C223.135 185.974 220.764 184.992 219 183.254V183.254C217.487 181.763 215.412 180.196 214.388 179.77C212.712 179.074 212.555 178.853 212.815 177.551C213.158 175.836 211.648 174 209.894 174C209.268 174 207.861 173.09 206.653 171.905V171.905C205.288 170.565 203.44 169.835 201.528 169.881L200.384 169.908C190.771 170.138 189.379 170.734 188.757 174.882C188.343 177.641 185.107 181.645 173.984 193.163L169.266 198.048C167.725 199.643 167.003 201.858 167.307 204.055V204.055C167.842 207.923 167.546 209.075 166.288 208.031C165.854 207.672 165.5 206.972 165.5 206.475C165.5 204.681 161.206 202.579 158.316 202.96C157.803 203.027 154.836 204.284 151.723 205.753L149.774 206.671C147.401 207.791 144.675 207.905 142.217 206.987V206.987C138.218 205.496 136 203.902 136 202.519C136 202.076 137.132 200.598 138.514 199.237C139.897 197.875 142.08 195.183 143.366 193.255C144.651 191.328 146.915 188.471 148.396 186.908V186.908C150.118 185.09 151.054 182.661 150.993 180.158V180.158C150.94 178.009 150.92 175.998 150.949 175.691C151.012 175.005 154.718 172.5 155.669 172.5C156.049 172.5 158.081 173.296 160.185 174.268L161.57 174.908C163.143 175.635 164.927 175.763 166.589 175.27V175.27C170.633 174.069 171 173.526 171 168.75C171 164.124 170.959 164.059 166.623 161.742C164.138 160.415 163.922 160.137 162.623 156.618C161.529 153.652 160.609 152.223 158.089 149.574L156.673 148.085C155.574 146.929 155.078 145.325 155.333 143.75V143.75C155.555 142.375 155.74 139.754 155.743 137.926C155.751 133.814 154.828 132.5 151.932 132.5C150.206 132.5 149.921 132.306 149.004 130.508C147.783 128.114 146.461 127.67 143.018 128.496V128.496C141.451 128.872 139.801 128.457 138.598 127.385L137.633 126.525C134.659 123.873 127.748 119.036 125.443 117.993C124.445 117.541 123.319 117.536 120.693 117.974C118.799 118.289 114.637 118.867 111.443 119.26C108.249 119.652 104.987 120.215 104.193 120.512C103.399 120.808 100.587 123.198 97.9435 125.823L97.3835 126.379C94.6323 129.11 91.0441 130.84 87.1935 131.29V131.29C73.4805 132.892 74.398 132.621 70.856 136.125C69.1565 137.806 68.694 138 66.37 138C63.9135 138 63.6355 137.861 61.0145 135.314C59.494 133.837 57.485 132.374 56.5505 132.064C55.499 131.715 50.7325 131.5 44.049 131.5H36.2672C34.3026 131.5 32.3867 130.888 30.7855 129.75V129.75C27.915 127.709 25.554 127.474 23.25 129C21.625 130.077 19.7475 130.305 19.243 129.489C18.9275 128.978 14.8075 125.824 11.5 123.562C9.4725 122.174 5.5 118.038 5.5 117.313C5.5 116.797 6.124 115.354 10.261 106.309C12.1635 102.149 13.123 100.625 14.221 100.016C15.0175 99.5745 16.126 98.6015 16.6845 97.854C17.647 96.565 17.669 96.2305 17.118 91.3725C16.558 86.4395 16.5765 86.1945 17.6175 84.75C20.4095 80.8775 28.391 71.769 32.889 67.322C37.3675 62.895 38.1215 62.3495 40.312 61.9515C43.8385 61.3105 45.5035 59.354 45.49 55.867C45.4645 49.28 44.848 47.421 40.539 40.9365C36.875 35.423 36.5 34.633 36.5 32.4295C36.5 28.979 37.5975 28 41.4665 28V28C43.3566 28 45.1597 27.2059 46.4358 25.8116L48.3225 23.75V23.75C50.8023 21.0403 54.3 19.4879 57.973 19.4666L59.981 19.455C64.254 19.4305 70.45 19.262 73.75 19.08C80.5515 18.706 91.4665 19.5 95.25 20.644C96.625 21.06 98.96 21.761 100.439 22.202C101.917 22.643 105.031 23.1505 107.359 23.329C111.184 23.623 111.78 23.8135 113.571 25.3095C116.476 27.7365 119.624 28.118 128.839 27.1605L130.993 26.9369C133.968 26.6278 136.976 26.9182 139.837 27.791V27.791V27.791C142.677 28.657 145.695 28.7517 148.583 28.0654L148.86 27.9995L149.252 27.9063C151.929 27.2703 154.746 28.0374 156.73 29.943V29.943C158.809 31.94 160.326 33 161.105 33C161.76 33 164.311 32.573 166.773 32.0515C174.508 30.4125 175.671 30.416 178.303 32.085C181.516 34.1225 182.956 34.322 184.676 32.9685C186.047 31.89 186.078 31.764 185.751 28.5055V28.5055C185.534 26.3497 186.138 24.1914 187.441 22.4608L189.332 19.951L190.234 18.7533C192.15 16.2104 195.074 14.6229 198.25 14.4015V14.4015C201 14.21 203.752 13.9605 204.365 13.8475C204.978 13.735 207.791 14.168 210.615 14.8105C218.357 16.572 218.011 16.6645 221.319 11.944L222.835 9.78127C223.652 8.6161 225.044 7.99536 226.456 8.1665V8.1665C227.717 8.3195 229.65 8.59 230.75 8.7675C232.406 9.035 233.395 8.7865 236.5 7.322C240.236 5.56 240.276 5.553 247.412 5.5265L251.049 5.51304C253.311 5.50467 255.489 6.37207 257.125 7.9335V7.9335Z" fill="#009FE3"/>
<path fill-rule="evenodd" clip-rule="evenodd" d="M235.75 4.7935C233.197 6.039 231.844 6.4245 230.75 6.219C226.356 5.394 224.274 5.153 223.435 5.372C222.922 5.5065 221.244 7.411 219.707 9.605C217.336 12.989 216.748 13.546 215.831 13.2795C213.668 12.6505 207.218 11.3535 206 11.3025C204.317 11.232 194.039 11.9875 192.613 12.2865C191.45 12.5305 183.462 22.7585 182.796 24.8555C182.613 25.434 182.728 26.963 183.053 28.2545C183.745 31.004 183.014 32.0105 181.253 30.731C180.702 30.3305 179.411 29.5495 178.384 28.996C176.207 27.821 173.644 27.944 166.093 29.5845L165.736 29.6621C163.048 30.2462 160.245 29.4537 158.261 27.5485V27.5485C154.623 24.0545 154.234 23.9735 148.278 25.4615C145.716 26.102 143.982 26.2865 143.09 26.0135C136.096 23.874 136.41 23.907 128.992 24.518C119.962 25.262 117.021 24.9265 114.697 22.8865C113.176 21.551 112.385 21.2895 108.6 20.8725C106.208 20.609 101.941 19.741 99.1205 18.944C91.087 16.675 88.0605 16.419 69.905 16.4745C56.6725 16.515 52.7055 16.676 51.405 17.2265C50.4675 17.623 48.376 19.5685 46.581 21.7135L45.1337 23.4429C44.0425 24.7467 42.4297 25.5 40.7295 25.5V25.5C35.6275 25.5 34 27.24 34 32.6945C34 35.912 34.031 35.984 37.8315 41.594C41.864 47.5465 42.977 50.464 42.992 55.125C43.0015 57.9735 41.7745 59.5 39.475 59.5C38.6365 59.5 37.343 59.8185 36.6 60.2075C33.582 61.7885 17.659 79.317 14.7725 84.2355C13.856 85.797 13.835 86.186 14.4365 90.4345C14.789 92.9275 14.949 95.3725 14.792 95.868C14.6345 96.364 13.6855 97.2115 12.683 97.751C11.3105 98.4905 10.519 99.4765 9.4805 101.742C4.106 113.463 3 116.141 3 117.432C3 119.339 6.3535 123.093 11.1545 126.559C13.132 127.987 15.5945 129.907 16.6265 130.827C18.888 132.843 21.83 133.102 24.25 131.5C26.295 130.145 26.769 130.219 29.8975 132.375V132.375C31.6714 133.597 33.7686 134.265 35.9227 134.292L44.4195 134.402L51.927 134.498C54.6853 134.533 57.3271 135.616 59.317 137.527V137.527L59.656 137.852C61.4254 139.551 63.7834 140.5 66.2365 140.5V140.5H66.3077C68.7173 140.5 71.0354 139.577 72.786 137.921V137.921V137.921C74.5573 136.246 76.8157 135.178 79.2342 134.872L84.631 134.189C89.6465 133.554 93.9255 133.027 94.14 133.018C94.355 133.008 96.9815 130.638 99.977 127.75C104.165 123.713 105.737 122.5 106.779 122.5C108.171 122.5 111.477 122.017 119.107 120.699C122.579 120.098 123.695 120.068 124.607 120.553C127.247 121.957 133.914 126.745 136 128.737C139.258 131.846 139.899 132.083 142.75 131.225C145.962 130.258 145.838 130.221 146.996 132.492C147.984 134.428 148.599 134.785 151.5 135.11V135.11C152.208 135.189 152.738 135.796 152.722 136.508L152.612 141.501L152.575 143.159C152.51 146.092 153.654 148.922 155.737 150.987V150.987C157.531 152.765 159 154.419 159 154.66C159 155.143 160.089 157.784 161.404 160.49C161.967 161.648 163.253 162.836 165.25 164.039C168.1 165.758 168.258 165.956 168.408 168.009C168.671 171.601 168.274 172.366 165.947 172.759C164.197 173.055 163.298 172.828 159.906 171.236L158.258 170.463C156.778 169.769 155.064 169.771 153.585 170.469V170.469C152.301 171.075 150.575 172.117 149.75 172.783C148.259 173.986 148.251 174.021 148.391 178.542L148.43 179.833C148.495 181.914 147.708 183.932 146.252 185.42V185.42C144.999 186.701 142.814 189.438 141.398 191.5C139.981 193.562 138.13 195.938 137.286 196.779C134.484 199.567 133 201.565 133 202.549C133 203.084 133.901 204.501 135.004 205.696C136.572 207.398 137.949 208.226 141.339 209.505C146.31 211.381 145.919 211.438 153.719 207.69C156.211 206.493 158.61 205.51 159.051 205.507C160.983 205.491 162.916 206.598 163.243 207.908C163.743 209.913 164.967 211.002 166.702 210.984C169.937 210.951 170.721 209.182 169.839 203.905V203.905C169.594 202.434 170.072 200.934 171.125 199.877L174.599 196.389C179.862 191.103 189.329 180.641 190.24 179.104C190.518 178.635 190.971 177.126 191.247 175.752C191.839 172.81 192.222 172.654 199.027 172.559C203.295 172.5 203.307 172.503 205.014 174.265C205.955 175.235 207.406 176.206 208.238 176.421C209.572 176.766 209.757 177.036 209.804 178.708C209.862 180.742 210.422 181.348 212.697 181.84C213.493 182.013 215.638 183.563 217.464 185.286V185.286C219.6 187.3 222.412 188.443 225.348 188.488L230.378 188.566L238.052 188.684C239.282 188.703 240.471 188.238 241.361 187.389V187.389C242.652 186.157 242.882 186.105 244.625 186.654C247.621 187.597 246.982 188.6 242.005 190.771C240.77 191.309 238.235 193.24 236.372 195.061C233.846 197.53 232.241 198.643 230.065 199.436C228.46 200.021 226.924 200.5 226.651 200.5C225.841 200.5 224.5 202.253 224.5 203.313C224.5 203.854 225.372 205.149 226.438 206.189C228.095 207.808 228.943 208.191 232.312 208.85C235.807 209.534 236.503 209.865 238.503 211.797C240.424 213.652 241.124 214.004 243.253 214.186C244.626 214.303 245.916 214.422 246.118 214.449C246.896 214.556 245.831 222.299 244.677 224.937C244.03 226.415 243.5 227.997 243.5 228.453C243.5 228.909 244.8 230.568 246.389 232.141V232.141C248.241 233.972 250.74 235 253.344 235H254.189C258.926 235 259.24 234.929 263.174 232.969C266.813 231.156 267.464 230.609 269.25 227.867V227.867C270.536 225.893 272.52 224.478 274.805 223.906L275.5 223.732C277.838 223.147 280.2 222.484 280.75 222.259C281.3 222.035 283.098 221.316 284.745 220.662C286.46 219.981 288.629 218.6 289.82 217.431V217.431C291.089 216.186 292.964 215.789 294.628 216.412L294.719 216.445C298.689 217.931 305.096 217.918 308.38 216.418C312.161 214.691 312.5 214.237 312.5 210.9C312.5 208.163 312.604 207.894 313.974 207.108C315.815 206.051 316.518 204.605 315.879 203.183C315.422 202.167 309.365 199 307.878 199C307.507 199 304.514 199.905 301.227 201.012C297.94 202.119 294.8 203.053 294.25 203.088C292.742 203.184 286.071 199.2 283.336 196.57C280.396 193.745 279.66 192.417 279.428 189.516V189.516C279.32 188.157 280.02 186.86 281.215 186.205L282.568 185.464C284.955 184.156 287.665 181.849 292.233 177.238C298.294 171.12 298.674 170.828 300.665 170.79C302.67 170.751 302.744 170.805 302.583 172.173C302.348 174.174 304.189 176.088 305.953 175.678C307.792 175.249 308.536 174.401 309.481 171.656C310.258 169.396 310.474 169.195 313.03 168.35C315.003 167.698 316.488 167.538 318.436 167.769C321.068 168.081 321.165 168.046 323.186 166.07C325.256 164.047 327.904 163.039 331.226 163.012C332.2 163.004 333.266 162.453 334.36 161.393C335.801 159.996 336.488 159.74 339.634 159.424C341.623 159.225 344.525 159.048 346.082 159.031V159.031C347.836 159.012 349.447 158.062 350.313 156.538L350.832 155.625C352.527 152.643 352.779 151.761 353 148.042V148.042C353.151 145.505 354.844 143.322 357.264 142.545L357.314 142.529C362.141 140.98 362.893 140.434 363.096 138.338C363.249 136.762 363.27 136.75 366 136.773C367.513 136.786 370.662 136.88 373 136.982C376.97 137.155 379.912 136.708 383.06 135.454C384.096 135.041 384.752 133.972 386.192 130.341V130.341C387.38 127.346 387.665 124.069 387.012 120.913L386.841 120.087L386.517 118.522C385.971 115.886 386.439 113.142 387.826 110.837V110.837C389.012 108.864 389.987 106.896 389.991 106.462C390.001 105.596 388.379 103.949 386.625 103.045C386.007 102.726 385.5 102.266 385.5 102.023C385.5 101.78 387.086 100.426 389.025 99.0165C390.964 97.6065 392.685 96.098 392.852 95.6645C393.018 95.2305 392.645 93.4975 392.022 91.813C391.399 90.1285 390.897 88.525 390.908 88.25C390.918 87.975 390.981 86.8745 391.047 85.8045C391.221 82.9835 390.195 82.398 385.764 82.787L384.708 82.8797C383.154 83.0161 381.622 82.4403 380.543 81.314V81.314C379.28 79.996 377.914 79.2615 375.293 78.491C373.344 77.918 370.175 76.987 368.25 76.4215C365.404 75.585 364.263 74.9195 362.142 72.8555C359.763 70.541 359.214 70.2585 355.892 69.6445C353.889 69.2745 350.863 68.836 349.168 68.6705C346.287 68.3895 345.996 68.459 344.728 69.727V69.727C343.976 70.4781 342.76 70.4818 342.004 69.7353L341.06 68.8025C339.502 67.264 338.285 65.383 337.323 63.028C336.538 61.107 335.588 59.2805 335.212 58.9685C333.912 57.8895 324.871 59.6555 320.5 61.8425C315.73 64.23 310.608 63.5025 306.678 59.8805C304.34 57.725 303.407 57.6195 298.75 58.9835C294.702 60.1695 294.804 60.1865 292.576 57.9585C291.171 56.553 290.561 55.57 290.768 55.044C292.252 51.278 292.547 49.814 292.071 48.571C291.794 47.8445 291.197 45.9 290.746 44.25C290.064 41.755 289.408 40.724 286.852 38.125C283.389 34.604 283.351 34.595 277.316 35.837C273.698 36.5815 272.92 36.595 270.25 35.962V35.962C268.385 35.5194 266.882 34.1432 266.276 32.3244L266.168 32C264.652 27.443 264.688 27.1035 266.732 26.7205C269.243 26.249 269.675 25.481 269.267 22.2125C268.889 19.1905 268.501 18.679 264.951 16.5175C262.738 15.171 262.639 15.0075 262.309 12.184C261.987 9.432 261.773 9.056 258.872 6.125V6.125C256.894 4.12632 254.194 3.00825 251.382 3.02288L247.514 3.043L243.144 3.06574C240.581 3.07907 238.054 3.66961 235.75 4.7935V4.7935ZM257.125 7.9335C259.572 10.2675 259.686 10.4955 259.902 13.492V13.492C260.045 15.4563 261.114 17.2352 262.783 18.2813L263.315 18.6145C265.067 19.713 266.503 20.868 266.507 21.181C266.51 21.494 266.641 22.225 266.797 22.8055C267.041 23.7165 266.767 23.94 264.798 24.4355C261.665 25.2245 261.498 26.241 263.509 32.2775C264.946 36.5905 265.283 37.1695 266.704 37.763C270.212 39.2285 274.318 39.2115 281.056 37.7025C282.129 37.462 282.814 37.84 284.915 39.83C287.141 41.9385 287.613 42.747 288.581 46.1105C289.658 49.855 289.667 50.0515 288.846 52.6545C288.381 54.1305 288 55.761 288 56.278C288 56.7955 289.174 58.407 290.608 59.8595C293.638 62.9275 294.254 63.0325 299.794 61.4225L300.639 61.1771C302.406 60.6638 304.312 61.1483 305.62 62.443V62.443C306.785 63.597 308.304 64.664 308.995 64.815C309.685 64.9655 311.585 65.4125 313.217 65.8075C315.806 66.435 316.38 66.4335 317.718 65.7985C322.682 63.443 325.881 62.4125 331.859 61.2425C333.458 60.9295 333.481 60.9545 335.266 64.8385C338.671 72.248 343.141 75.3035 346.038 72.2025C347.356 70.791 347.542 70.7865 354.485 71.9945C357.37 72.4965 358.018 72.8405 360.485 75.1845C362.53 77.128 363.901 77.9785 365.75 78.4535C367.125 78.8065 368.812 79.2865 369.5 79.5205C370.188 79.754 372.206 80.3385 373.987 80.82C376.017 81.3685 377.712 82.194 378.534 83.0345C380.971 85.5285 381.99 85.9115 385.177 85.533C388.359 85.1555 388.861 85.495 388.318 87.66C388.157 88.298 388.469 89.983 389.013 91.414C389.556 92.8425 390 94.2245 390 94.4855C390 94.747 388.312 96.2085 386.25 97.734C382.853 100.246 382.5 100.669 382.5 102.22C382.5 103.41 382.767 104.019 383.375 104.215C383.856 104.371 384.899 105.019 385.692 105.656V105.656C386.513 106.315 386.709 107.485 386.147 108.376L385.013 110.171C383.429 112.679 382.955 113.876 383.146 114.891C383.439 116.454 384.301 120.791 384.926 123.842C385.292 125.63 385.138 126.427 383.864 129.342C383.045 131.216 382.303 132.832 382.215 132.932C382.126 133.032 380.572 133.511 378.762 133.997C376.142 134.7 374.732 134.795 371.859 134.462C367.101 133.91 362.42 133.908 361.555 134.456C361.172 134.698 360.719 135.757 360.548 136.81C360.24 138.708 360.201 138.736 355.848 140.237C353.433 141.069 351.246 142.088 350.987 142.5C350.728 142.912 350.512 144.909 350.508 146.936C350.501 150.131 350.288 151.009 348.909 153.516V153.516C347.92 155.317 346.074 156.482 344.023 156.6L341.202 156.762C335.128 157.113 335.073 157.127 333.488 158.762C332.086 160.209 331.467 160.452 328.4 160.76C325.211 161.08 324.698 161.298 322.471 163.275C320.231 165.265 319.904 165.402 318.417 164.976C317.249 164.641 316.028 164.734 314.025 165.309C308.588 166.872 308.15 167.187 307.189 170.236C306.267 173.161 305.14 173.739 305.405 171.15C305.665 168.626 304.395 167.831 300.587 168.137V168.137C298.508 168.304 296.554 169.2 295.071 170.668L290.559 175.132C285.103 180.53 283.094 182.181 280.449 183.44C276.835 185.16 275.931 186.385 276.529 188.749C276.737 189.575 277.059 191.131 277.242 192.208C277.495 193.687 278.331 194.956 280.663 197.395C282.361 199.172 284.538 201.124 285.5 201.734C288.85 203.856 292.95 206 293.659 206C294.051 206 296.82 205.189 299.811 204.198C302.802 203.208 305.848 202.217 306.58 201.996C307.556 201.702 308.586 201.909 310.455 202.775C312.898 203.906 313.794 205 312.279 205C310.954 205 310 207.104 310 210.022V210.177C310 211.787 309.057 213.248 307.59 213.911V213.911C304.451 215.33 299.718 215.365 295.75 214C291.497 212.537 290.62 212.673 288.017 215.203C285.457 217.691 280.811 219.84 275 221.223C269.458 222.542 269.188 222.705 267.151 225.965C265.553 228.52 264.771 229.221 261.837 230.73C258.762 232.312 257.983 232.5 254.49 232.5C250.624 232.5 250.559 232.479 248.541 230.539C246.238 228.327 246.115 227.725 247.433 225.105C248.033 223.912 248.487 221.556 248.704 218.5C249.125 212.581 248.792 211.97 244.959 211.629C242.646 211.423 241.952 211.1 240.204 209.418C238.409 207.688 237.627 207.339 233.811 206.567C230.817 205.961 229.121 205.342 228.358 204.577C227.022 203.238 227.367 202.922 231.471 201.716C233.627 201.082 234.927 200.208 237.721 197.514C239.971 195.346 242.56 193.458 244.864 192.305C246.852 191.312 248.863 189.91 249.334 189.191C250.094 188.032 250.109 187.743 249.47 186.633C248.711 185.314 244.692 183.501 242.527 183.501C241.855 183.5 240.697 184.082 239.954 184.794C238.604 186.088 238.598 186.089 230.177 186.026L225.61 185.992C223.135 185.974 220.764 184.992 219 183.254V183.254C217.487 181.763 215.412 180.196 214.388 179.77C212.712 179.074 212.555 178.853 212.815 177.551C213.158 175.836 211.648 174 209.894 174C209.268 174 207.861 173.09 206.653 171.905V171.905C205.288 170.565 203.44 169.835 201.528 169.881L200.384 169.908C190.771 170.138 189.379 170.734 188.757 174.882C188.343 177.641 185.107 181.645 173.984 193.163L169.266 198.048C167.725 199.643 167.003 201.858 167.307 204.055V204.055C167.842 207.923 167.546 209.075 166.288 208.031C165.854 207.672 165.5 206.972 165.5 206.475C165.5 204.681 161.206 202.579 158.316 202.96C157.803 203.027 154.836 204.284 151.723 205.753L149.774 206.671C147.401 207.791 144.675 207.905 142.217 206.987V206.987C138.218 205.496 136 203.902 136 202.519C136 202.076 137.132 200.598 138.514 199.237C139.897 197.875 142.08 195.183 143.366 193.255C144.651 191.328 146.915 188.471 148.396 186.908V186.908C150.118 185.09 151.054 182.661 150.993 180.158V180.158C150.94 178.009 150.92 175.998 150.949 175.691C151.012 175.005 154.718 172.5 155.669 172.5C156.049 172.5 158.081 173.296 160.185 174.268L161.57 174.908C163.143 175.635 164.927 175.763 166.589 175.27V175.27C170.633 174.069 171 173.526 171 168.75C171 164.124 170.959 164.059 166.623 161.742C164.138 160.415 163.922 160.137 162.623 156.618C161.529 153.652 160.609 152.223 158.089 149.574L156.673 148.085C155.574 146.929 155.078 145.325 155.333 143.75V143.75C155.555 142.375 155.74 139.754 155.743 137.926C155.751 133.814 154.828 132.5 151.932 132.5C150.206 132.5 149.921 132.306 149.004 130.508C147.783 128.114 146.461 127.67 143.018 128.496V128.496C141.451 128.872 139.801 128.457 138.598 127.385L137.633 126.525C134.659 123.873 127.748 119.036 125.443 117.993C124.445 117.541 123.319 117.536 120.693 117.974C118.799 118.289 114.637 118.867 111.443 119.26C108.249 119.652 104.987 120.215 104.193 120.512C103.399 120.808 100.587 123.198 97.9435 125.823L97.3835 126.379C94.6323 129.11 91.0441 130.84 87.1935 131.29V131.29C73.4805 132.892 74.398 132.621 70.856 136.125C69.1565 137.806 68.694 138 66.37 138C63.9135 138 63.6355 137.861 61.0145 135.314C59.494 133.837 57.485 132.374 56.5505 132.064C55.499 131.715 50.7325 131.5 44.049 131.5H36.2672C34.3026 131.5 32.3867 130.888 30.7855 129.75V129.75C27.915 127.709 25.554 127.474 23.25 129C21.625 130.077 19.7475 130.305 19.243 129.489C18.9275 128.978 14.8075 125.824 11.5 123.562C9.4725 122.174 5.5 118.038 5.5 117.313C5.5 116.797 6.124 115.354 10.261 106.309C12.1635 102.149 13.123 100.625 14.221 100.016C15.0175 99.5745 16.126 98.6015 16.6845 97.854C17.647 96.565 17.669 96.2305 17.118 91.3725C16.558 86.4395 16.5765 86.1945 17.6175 84.75C20.4095 80.8775 28.391 71.769 32.889 67.322C37.3675 62.895 38.1215 62.3495 40.312 61.9515C43.8385 61.3105 45.5035 59.354 45.49 55.867C45.4645 49.28 44.848 47.421 40.539 40.9365C36.875 35.423 36.5 34.633 36.5 32.4295C36.5 28.979 37.5975 28 41.4665 28V28C43.3566 28 45.1597 27.2059 46.4358 25.8116L48.3225 23.75V23.75C50.8023 21.0403 54.3 19.4879 57.973 19.4666L59.981 19.455C64.254 19.4305 70.45 19.262 73.75 19.08C80.5515 18.706 91.4665 19.5 95.25 20.644C96.625 21.06 98.96 21.761 100.439 22.202C101.917 22.643 105.031 23.1505 107.359 23.329C111.184 23.623 111.78 23.8135 113.571 25.3095C116.476 27.7365 119.624 28.118 128.839 27.1605L130.993 26.9369C133.968 26.6278 136.976 26.9182 139.837 27.791V27.791V27.791C142.677 28.657 145.695 28.7517 148.583 28.0654L148.86 27.9995L149.252 27.9063C151.929 27.2703 154.746 28.0374 156.73 29.943V29.943C158.809 31.94 160.326 33 161.105 33C161.76 33 164.311 32.573 166.773 32.0515C174.508 30.4125 175.671 30.416 178.303 32.085C181.516 34.1225 182.956 34.322 184.676 32.9685C186.047 31.89 186.078 31.764 185.751 28.5055V28.5055C185.534 26.3497 186.138 24.1914 187.441 22.4608L189.332 19.951L190.234 18.7533C192.15 16.2104 195.074 14.6229 198.25 14.4015V14.4015C201 14.21 203.752 13.9605 204.365 13.8475C204.978 13.735 207.791 14.168 210.615 14.8105C218.357 16.572 218.011 16.6645 221.319 11.944L222.835 9.78127C223.652 8.6161 225.044 7.99536 226.456 8.1665V8.1665C227.717 8.3195 229.65 8.59 230.75 8.7675C232.406 9.035 233.395 8.7865 236.5 7.322C240.236 5.56 240.276 5.553 247.412 5.5265L251.049 5.51304C253.311 5.50467 255.489 6.37207 257.125 7.9335V7.9335Z" stroke="#009FE3" stroke-width="6" mask="url(#path-1-outside-1_111_3418)"/>
</svg>
