<svg width="46" height="44" viewBox="0 0 46 44" fill="none" xmlns="http://www.w3.org/2000/svg">
<path opacity="0.5" d="M40 20C40 31.0457 31.0457 40 20 40C8.95431 40 0 31.0457 0 20C0 8.95431 8.95431 0 20 0C31.0457 0 40 8.95431 40 20Z" fill="#FFDE00"/>
<path d="M16.3486 41.032C15.9756 40.853 15.6082 40.6625 15.2469 40.4608M23.4503 42.9399C23.0378 42.9078 22.6264 42.863 22.2167 42.8054M25.9189 42.9789C25.5056 42.9979 25.0918 43.0041 24.6781 42.9974M28.3526 42.717C27.9447 42.7864 27.5348 42.843 27.1233 42.887M30.751 42.1553C30.3547 42.2743 29.9548 42.3809 29.5519 42.4751M33.0621 41.3031C32.6835 41.4699 32.2997 41.6248 31.9115 41.7678M36.2671 39.5243C35.9252 39.7574 35.5762 39.9798 35.2206 40.1913M39.0245 37.2588C38.7295 37.549 38.4256 37.8299 38.1132 38.1012M41.9901 33.5516C41.7718 33.9031 41.5427 34.2477 41.303 34.585M43.3387 15.0192C43.5038 15.3986 43.6571 15.783 43.7983 16.1719M43.7632 16.076C43.9065 16.4642 44.0376 16.8567 44.1565 17.253M44.104 17.0808C44.2264 17.476 44.3366 17.8749 44.4343 18.277M44.3487 17.9378C44.4535 18.338 44.5457 18.7415 44.6254 19.1475M44.5281 18.6811C44.6175 19.0851 44.6943 19.4918 44.7584 19.9006M42.8794 14.0374C43.0648 14.4073 43.2387 14.7829 43.4008 15.1635M42.32 12.9992C42.5269 13.3575 42.7227 13.7221 42.9069 14.0926M41.7006 11.9959C41.9282 12.3414 42.1451 12.6939 42.3509 13.0528M41.0877 11.1178C41.3335 11.4506 41.5689 11.791 41.7936 12.1384M40.4567 10.3079C40.7193 10.6277 40.9719 10.9555 41.2141 11.291M39.7433 9.48574C40.0229 9.79074 40.2929 10.1044 40.5531 10.4261M38.9397 8.65833C39.2364 8.94672 39.5241 9.24424 39.8024 9.55047M35.9919 6.29138C36.3376 6.51878 36.6761 6.75685 37.007 7.00525M36.8539 6.89143C37.1871 7.13666 37.5127 7.39217 37.8301 7.6576M37.8174 7.64704C38.1351 7.91221 38.4444 8.18717 38.7449 8.47152M38.5126 8.2552C38.8177 8.53474 39.1139 8.82369 39.4011 9.12162M35.1666 5.77676C35.5229 5.98709 35.8726 6.20842 36.2152 6.44044M34.178 5.23026C34.5457 5.42014 34.9073 5.62137 35.2624 5.83368M33.2006 4.75855C33.578 4.9282 33.95 5.10952 34.3161 5.30226M32.2587 4.36372C32.6443 4.51388 33.0251 4.67598 33.4005 4.84977M31.1937 3.9832C31.5871 4.11134 31.9764 4.25165 32.3611 4.40394M30.1046 3.66239C30.5046 3.76799 30.9013 3.88598 31.294 4.01619M28.9975 3.40356C29.4029 3.48626 29.8056 3.58152 30.2051 3.6892M26.5935 3.06358C27.0059 3.09655 27.4172 3.1423 27.8268 3.20078M24.1284 3.019C24.5418 3.00097 24.9556 2.99577 25.3693 3.00341M21.6658 3.27989C22.0737 3.21091 22.4837 3.15461 22.8952 3.11106M19.3058 3.82774C19.7024 3.70994 20.1026 3.60447 20.5058 3.5115M18.1554 4.20768C18.5442 4.06608 18.9372 3.93658 19.334 3.81936M10.9008 8.8151C11.1942 8.52341 11.4967 8.24091 11.8076 7.96798M10.1606 9.59131C10.438 9.28432 10.7249 8.986 11.0208 8.6968M9.64991 10.1791C9.91515 9.86156 10.1902 9.55231 10.4746 9.25181M8.96047 11.0529C9.20764 10.7211 9.46503 10.397 9.7323 10.0811M8.27842 12.0278C8.50541 11.6819 8.74309 11.3431 8.9911 11.0119M6.61725 15.1213C6.78024 14.741 6.955 14.3658 7.14127 13.9964M5.55892 18.3048C5.65606 17.9026 5.76565 17.5036 5.88754 17.1082M5.34164 19.3191C5.41779 18.9124 5.50654 18.5082 5.60777 18.107M5.16296 20.4521C5.21567 20.0417 5.2811 19.6331 5.35916 19.2267M5.05088 21.5743C5.08038 21.1616 5.12267 20.7499 5.17771 20.3398M5.0019 22.7244C5.0076 22.3106 5.02614 21.8972 5.05749 21.4846M5.01518 23.7792C4.99906 23.3657 4.99578 22.9519 5.00533 22.5382M5.08542 24.8465C5.04722 24.4345 5.02182 24.0215 5.00924 23.6079M5.19696 25.7999C5.13904 25.3903 5.09384 24.9789 5.06143 24.5664M5.34608 26.7045C5.26944 26.2979 5.20544 25.889 5.15416 25.4785M5.59418 27.8388C5.49408 27.4374 5.40645 27.0329 5.33144 26.626M5.89172 28.9054C5.76955 28.5101 5.65968 28.1111 5.56226 27.709M6.25981 29.9861C6.11528 29.5984 5.98282 29.2063 5.86262 28.8104M6.72373 31.1227C6.55569 30.7446 6.39942 30.3614 6.25515 29.9736M7.53761 32.7501C7.3359 32.3889 7.14545 32.0214 6.96654 31.6484M7.00924 31.7369C6.82849 31.3647 6.65934 30.9869 6.50202 30.6043M8.01511 33.56C7.79665 33.2086 7.58914 32.8505 7.39289 32.4863M9.21182 35.2774C8.95783 34.9507 8.71403 34.6163 8.48078 34.2746M8.61098 34.463C8.37384 34.1239 8.14727 33.7776 7.93161 33.4245M9.93672 36.1567C9.66453 35.845 9.40209 35.525 9.14975 35.1971M10.7274 37.0105C10.4376 36.7152 10.157 36.411 9.88598 36.0983M11.5943 37.8421C11.2873 37.5648 10.9889 37.278 10.6996 36.9821M12.524 38.6317C12.2006 38.3736 11.8853 38.1055 11.5785 37.8278M13.3436 39.252C13.0074 39.0109 12.6787 38.7593 12.3581 38.4978M14.1796 39.8202C13.8316 39.5963 13.4907 39.3617 13.1572 39.1167M6.20754 16.1558C6.34913 15.767 6.50275 15.3827 6.66818 15.0035M5.82723 17.3075C5.94499 16.9108 6.07504 16.5179 6.21718 16.1294M7.11339 14.0519C7.2985 13.6818 7.49506 13.3176 7.70277 12.9598M7.65452 13.0434C7.86051 12.6845 8.07758 12.3322 8.30542 11.9868M17.2532 4.56125C17.6347 4.40099 18.021 4.2526 18.4117 4.1163M16.3672 4.9591C16.7404 4.7805 17.1191 4.61353 17.5027 4.45843M15.4938 5.40364C15.8578 5.20698 16.2279 5.02166 16.6034 4.84795M14.4928 5.98239C14.8449 5.76502 15.2036 5.55862 15.5685 5.3635M13.6012 6.56628C13.9412 6.33046 14.2884 6.10525 14.6423 5.89097M12.6526 7.26654C12.9781 7.01109 13.3114 6.76581 13.6521 6.53105M11.7269 8.03922C12.0364 7.76463 12.3544 7.49971 12.6803 7.24484M42.5797 32.5369C42.3824 32.9006 42.1739 33.2581 41.9544 33.6088M42.8804 31.9605C42.6951 32.3304 42.4983 32.6944 42.2903 33.0521M43.351 30.9524C43.1865 31.332 43.0102 31.7065 42.8225 32.0752M43.762 29.9274C43.6186 30.3156 43.4633 30.6992 43.2962 31.0777M44.0963 28.9442C43.9733 29.3392 43.8381 29.7304 43.6908 30.1171M44.3619 28.0118C44.2582 28.4123 44.1421 28.8096 44.0138 29.2029M44.591 27.0239C44.5078 27.4291 44.412 27.8318 44.3038 28.2311M44.7866 25.9138C44.7263 26.3231 44.6534 26.7305 44.5678 27.1353M44.8944 25.0521C44.852 25.4637 44.7968 25.8738 44.7289 26.282M44.9721 24.0552C44.9503 24.4684 44.9157 24.8808 44.8683 25.2918M44.9999 22.9501C45.001 23.3638 44.9892 23.7775 44.9645 24.1905M44.969 21.8869C44.992 22.3001 45.0022 22.7138 44.9996 23.1275M44.8782 20.7958C44.9238 21.207 44.9566 21.6196 44.9766 22.0328M44.7189 19.6583C44.788 20.0662 44.8444 20.4762 44.8881 20.8877M40.6495 35.4536C40.3919 35.7774 40.1242 36.0931 39.847 36.4002M41.3295 34.5477C41.0906 34.8855 40.8412 35.2158 40.5818 35.5382M39.8633 36.3821C39.5865 36.6896 39.3001 36.9885 39.0048 37.2782M37.263 38.7993C36.9362 39.053 36.6015 39.2965 36.2595 39.5294M38.1876 38.0362C37.8765 38.309 37.557 38.5721 37.2297 38.8252M35.2383 40.1807C34.8829 40.3925 34.521 40.5933 34.1531 40.7826M21.0032 42.5966C20.5978 42.5139 20.195 42.4186 19.7955 42.311M18.6407 41.962C18.2484 41.8305 17.8603 41.6868 17.4769 41.5311" stroke="#1D1D1B" stroke-width="1.12039"/>
<path fill-rule="evenodd" clip-rule="evenodd" d="M24.6004 10.346L24.4771 10.4692V12.1499C24.4771 13.0742 24.4918 13.8688 24.5098 13.9155C24.5955 14.1391 25.0651 14.1542 25.1813 13.9372C25.2106 13.8825 25.2305 13.1623 25.2305 12.1573V10.4692L25.1072 10.346C25.0394 10.2782 24.9254 10.2227 24.8538 10.2227C24.7822 10.2227 24.6682 10.2782 24.6004 10.346ZM19.2651 13.3142C19.0554 13.4611 19.1124 13.6706 19.5828 14.4805C19.8189 14.8872 20.0492 15.2481 20.0946 15.2826C20.3016 15.4401 20.6602 15.2525 20.6602 14.9867C20.6602 14.8232 19.9194 13.4785 19.7442 13.3239C19.6208 13.2151 19.4127 13.2109 19.2651 13.3142ZM29.9634 13.3239C29.7882 13.4785 29.0474 14.8232 29.0474 14.9867C29.0474 15.271 29.4429 15.4521 29.6379 15.2572C29.6864 15.2087 29.9124 14.8483 30.1401 14.4564C30.5949 13.6736 30.6513 13.4605 30.4425 13.3142C30.2949 13.2109 30.0868 13.2151 29.9634 13.3239ZM23.9548 15.9014C20.9486 16.317 18.558 18.5751 17.9646 21.5595C17.8421 22.1756 17.8414 23.5435 17.9634 24.148C18.1485 25.0663 18.5308 25.9984 19.0309 26.7506C19.4941 27.4474 19.7477 27.6 19.9985 27.333C20.1705 27.1498 20.1347 26.9998 19.812 26.5529C18.4724 24.698 18.2323 22.2942 19.1803 20.2302C19.7576 18.9734 20.982 17.7497 22.2281 17.1841C24.1286 16.3215 26.2969 16.4327 28.0375 17.482C28.2876 17.6327 28.5396 17.7561 28.5974 17.7561C28.8657 17.7561 29.0479 17.497 28.9481 17.2572C28.7985 16.8978 27.2595 16.1839 26.1789 15.9727C25.6752 15.8742 24.4383 15.8345 23.9548 15.9014ZM15.3365 17.2539C15.2102 17.3802 15.2033 17.6619 15.3239 17.7666C15.3723 17.8085 15.7309 18.0267 16.121 18.2515C16.9096 18.706 17.0701 18.7455 17.2413 18.5278C17.4737 18.2324 17.3667 18.0998 16.4838 17.589C15.6868 17.128 15.5131 17.0773 15.3365 17.2539ZM29.6501 18.3086C29.4811 18.4776 29.5218 18.6776 29.7987 19.039C31.4264 21.1626 31.542 24.0308 30.0895 26.2559C28.8718 28.1213 26.8341 29.1783 24.6278 29.0892C23.4187 29.0403 22.4556 28.7407 21.4339 28.0954C21.2648 27.9886 21.0706 27.9012 21.0025 27.9012C20.8463 27.9012 20.6602 28.0949 20.6602 28.2574C20.6602 28.4584 20.7879 28.5861 21.2866 28.8837C21.8735 29.2339 22.6123 29.5269 23.3405 29.6984C23.8407 29.8161 24 29.83 24.8538 29.83C25.7095 29.83 25.8662 29.8163 26.3718 29.6973C29.124 29.0497 31.1936 26.9115 31.743 24.148C31.8659 23.5302 31.8662 22.1643 31.7436 21.5561C31.5159 20.4264 30.9072 19.1369 30.2461 18.3839C30.0627 18.1752 29.8149 18.1438 29.6501 18.3086ZM22.418 19.6694C21.7594 19.7672 21.2366 20.2697 21.1213 20.9156C21.0447 21.3441 21.1686 21.5731 21.4768 21.5731C21.6439 21.5731 21.7983 21.3864 21.8393 21.1348C21.9987 20.1581 23.3043 20.1735 23.4513 21.1538C23.5038 21.5042 23.7556 21.6671 24.0232 21.5239C24.3599 21.3437 24.1704 20.5066 23.6931 20.0667C23.338 19.7394 22.889 19.5994 22.418 19.6694ZM26.8376 19.6694C26.5039 19.719 26.2684 19.8326 26.0145 20.0667C25.5372 20.5066 25.3476 21.3437 25.6844 21.5239C25.952 21.6671 26.2037 21.5042 26.2563 21.1538C26.4033 20.1735 27.7089 20.1581 27.8683 21.1348C27.9093 21.3864 28.0637 21.5731 28.2308 21.5731C28.539 21.5731 28.6629 21.3441 28.5863 20.9156C28.4415 20.105 27.6591 19.5474 26.8376 19.6694ZM12.346 22.6004C12.2782 22.6682 12.2227 22.7822 12.2227 22.8538C12.2227 22.9254 12.2782 23.0394 12.346 23.1072L12.4692 23.2305H14.1499C15.0742 23.2305 15.8688 23.2158 15.9155 23.1978C16.0455 23.148 16.1376 22.8866 16.0816 22.7261C15.999 22.4894 15.9029 22.4771 14.1265 22.4771H12.4692L12.346 22.6004ZM33.7836 22.5372C33.5539 22.6482 33.5597 23.1087 33.7921 23.1978C33.8388 23.2158 34.6334 23.2305 35.5577 23.2305H37.2384L37.3616 23.1072C37.4294 23.0394 37.4849 22.9254 37.4849 22.8538C37.4849 22.7822 37.4294 22.6682 37.3616 22.6004L37.2384 22.4771L35.5662 22.4805C34.4965 22.4827 33.8542 22.5031 33.7836 22.5372ZM21.3298 23.1851C21.2423 23.2105 21.1097 23.3037 21.035 23.3924C20.9105 23.5404 20.9013 23.5807 20.9235 23.8818C21.0125 25.0888 22.0497 26.4202 23.3136 26.9499C24.1496 27.3002 25.2002 27.3418 26.0696 27.0591C26.8872 26.7933 27.171 26.5543 27.0265 26.2536C26.9916 26.1812 26.9055 26.0896 26.8349 26.05C26.7166 25.9838 26.6756 25.9922 26.3052 26.1594C25.279 26.6228 24.2596 26.6054 23.3069 26.1082C22.8245 25.8564 22.254 25.2876 22.0074 24.8125C21.8645 24.5371 21.6646 24.0047 21.6646 23.8993C21.6646 23.8906 23.0997 23.8834 24.8538 23.8834C26.6078 23.8834 28.043 23.8906 28.043 23.8993C28.043 23.9889 27.8502 24.522 27.736 24.7483C27.5518 25.1132 27.5484 25.2991 27.7233 25.4366C27.8902 25.5679 27.9948 25.568 28.1615 25.4368C28.4294 25.2261 28.7963 24.2609 28.7963 23.767C28.7963 23.485 28.6237 23.257 28.3536 23.182C28.1188 23.1168 21.5558 23.1197 21.3298 23.1851ZM16.1037 27.4697C15.7109 27.6991 15.3549 27.9153 15.3127 27.9503C15.2042 28.0404 15.2137 28.3676 15.3279 28.471C15.5085 28.6345 15.7075 28.5745 16.4986 28.1183C17.2343 27.694 17.3454 27.5955 17.3454 27.3683C17.3454 27.2411 17.1097 27.0472 16.9585 27.05C16.877 27.0516 16.5184 27.2276 16.1037 27.4697ZM32.4855 27.1707C32.4177 27.2385 32.3622 27.3274 32.3622 27.3683C32.3622 27.5886 32.4769 27.6899 33.2069 28.1147C34.01 28.582 34.2233 28.6447 34.3884 28.4623C34.499 28.3401 34.4962 28.0381 34.3836 27.9428C34.1711 27.7627 32.8574 27.0474 32.7393 27.0474C32.6675 27.0474 32.5533 27.1029 32.4855 27.1707ZM29.1798 30.4663C28.9621 30.6375 29.0016 30.7979 29.4561 31.5866C29.6808 31.9766 29.8991 32.3353 29.941 32.3836C30.0443 32.5027 30.3619 32.5003 30.471 32.3797C30.6311 32.2028 30.5725 32.0095 30.1211 31.2254C29.6124 30.3416 29.477 30.2324 29.1798 30.4663ZM24.5795 31.7277C24.4806 31.8338 24.4771 31.8962 24.4771 33.538V35.2384L24.6004 35.3616C24.6682 35.4294 24.7822 35.4849 24.8538 35.4849C24.9254 35.4849 25.0394 35.4294 25.1072 35.3616L25.2305 35.2384V33.538C25.2305 31.8962 25.227 31.8338 25.1281 31.7277C24.9904 31.5799 24.7172 31.5799 24.5795 31.7277Z" fill="#1D1D1B"/>
<path d="M18.7696 31.8719C18.7939 31.8228 19.0311 31.4805 19.2967 31.1111C19.5771 30.7212 19.833 30.4146 19.9069 30.3801C20.0439 30.316 20.3381 30.3973 20.3898 30.5134C20.4822 30.721 20.4208 30.8562 19.9212 31.543C19.3841 32.2816 19.2267 32.4173 18.9952 32.3414C18.8489 32.2934 18.7071 31.9984 18.7696 31.8719Z" fill="#1D1D1B"/>
<path d="M32.7606 18.361C32.8348 18.2153 34.105 17.353 34.3312 17.2947C34.4906 17.2537 34.678 17.3444 34.7626 17.5034C34.8823 17.7285 34.7354 17.8928 33.975 18.3841C33.5942 18.6301 33.2293 18.8487 33.1641 18.87C32.902 18.9552 32.6317 18.6144 32.7606 18.361Z" fill="#1D1D1B"/>
</svg>
