<svg width="83" height="79" viewBox="0 0 83 79" fill="none" xmlns="http://www.w3.org/2000/svg">
<circle opacity="0.5" cx="36.5" cy="36" r="36" fill="#FFDE00"/>
<path d="M29.9275 74.4576C29.256 74.1355 28.5947 73.7925 27.9445 73.4293M42.7106 77.8918C41.9681 77.8341 41.2275 77.7533 40.49 77.6497M47.154 77.962C46.4101 77.9962 45.6652 78.0073 44.9205 77.9953M51.5347 77.4906C50.8005 77.6154 50.0626 77.7175 49.322 77.7965M55.8518 76.4796C55.1385 76.6937 54.4187 76.8857 53.6935 77.0552M60.0118 74.9455C59.3303 75.2457 58.6395 75.5247 57.9406 75.7821M65.7807 71.7438C65.1654 72.1633 64.5372 72.5637 63.897 72.9443M70.7441 67.6659C70.2131 68.1881 69.666 68.6938 69.1037 69.1821M76.0822 60.9929C75.6893 61.6256 75.2768 62.2459 74.8454 62.853M78.5096 27.6345C78.8068 28.3174 79.0827 29.0094 79.337 29.7094M79.2738 29.5368C79.5316 30.2355 79.7677 30.9421 79.9817 31.6554M79.8872 31.3454C80.1076 32.0567 80.3059 32.7748 80.4818 33.4985M80.3277 32.888C80.5162 33.6085 80.6823 34.3347 80.8258 35.0655M80.6506 34.226C80.8114 34.9532 80.9497 35.6852 81.0651 36.421M77.6829 25.8674C78.0166 26.5332 78.3296 27.2091 78.6215 27.8944M76.6761 23.9985C77.0485 24.6435 77.4008 25.2999 77.7325 25.9667M75.561 22.1926C75.9708 22.8145 76.3612 23.449 76.7316 24.0951M74.4578 20.612C74.9003 21.2111 75.324 21.8238 75.7285 22.4491M73.3221 19.1543C73.7948 19.7298 74.2494 20.3199 74.6855 20.9237M72.0379 17.6743C72.5412 18.2233 73.0273 18.7878 73.4955 19.367M70.5915 16.185C71.1256 16.7041 71.6434 17.2396 72.1443 17.7908M65.2854 11.9245C65.9076 12.3338 66.517 12.7623 67.1126 13.2095M66.8369 13.0046C67.4368 13.446 68.0228 13.9059 68.5941 14.3837M68.5714 14.3647C69.1431 14.842 69.6999 15.3369 70.2409 15.8487M69.8227 15.4594C70.3718 15.9625 70.9051 16.4826 71.4219 17.0189M63.7999 10.9982C64.4413 11.3768 65.0707 11.7752 65.6874 12.1928M62.0205 10.0145C62.6822 10.3562 63.3331 10.7185 63.9724 11.1006M60.261 9.16539C60.9403 9.47076 61.61 9.79714 62.269 10.1441M58.5657 8.45469C59.2597 8.72499 59.9451 9.01676 60.621 9.32958M56.6486 7.76977C57.3567 8.00041 58.0576 8.25297 58.7501 8.52709M54.6882 7.19229C55.4083 7.38238 56.1223 7.59476 56.8293 7.82914M52.6954 6.72641C53.4252 6.87527 54.1501 7.04674 54.8692 7.24057M48.3683 6.11444C49.1106 6.17378 49.851 6.25614 50.5883 6.36141M43.9312 6.0342C44.6753 6.00174 45.4201 5.99239 46.1648 6.00614M39.4984 6.50379C40.2327 6.37963 40.9707 6.27829 41.7114 6.19991M35.2504 7.48993C35.9643 7.27789 36.6847 7.08805 37.4104 6.92069M33.1797 8.17382C33.8795 7.91894 34.587 7.68584 35.3013 7.47485M20.1214 16.4672C20.6496 15.9421 21.194 15.4336 21.7537 14.9424M18.7891 17.8644C19.2884 17.3118 19.8048 16.7748 20.3374 16.2542M17.8698 18.9224C18.3473 18.3508 18.8423 17.7942 19.3543 17.2533M16.6289 20.4952C17.0737 19.8979 17.5371 19.3146 18.0181 18.746M15.4012 22.2501C15.8097 21.6274 16.2376 21.0175 16.684 20.4214M12.411 27.8183C12.7044 27.1337 13.019 26.4585 13.3543 25.7934M10.5061 33.5487C10.6809 32.8247 10.8782 32.1064 11.0976 31.3947M10.115 35.3744C10.252 34.6424 10.4118 33.9147 10.594 33.1926M9.79332 37.4138C9.8882 36.6751 10.006 35.9395 10.1465 35.2081M9.59159 39.4337C9.64468 38.6908 9.72081 37.9498 9.81987 37.2117M9.50342 41.5038C9.51368 40.7591 9.54706 40.0149 9.60349 39.2723M9.52733 43.4025C9.49832 42.6583 9.4924 41.9134 9.5096 41.1688M9.65376 45.3237C9.585 44.5822 9.53927 43.8386 9.51663 43.0942M9.85453 47.0399C9.75026 46.3025 9.66891 45.562 9.61058 44.8195M10.1229 48.6681C9.98499 47.9362 9.86979 47.2002 9.77749 46.4612M10.5695 50.7099C10.3893 49.9873 10.2316 49.2592 10.0966 48.5268M11.1051 52.6297C10.8852 51.9182 10.6874 51.1999 10.5121 50.4761M11.7677 54.5749C11.5075 53.8771 11.2691 53.1713 11.0527 52.4587M12.6027 56.6208C12.3002 55.9402 12.019 55.2504 11.7593 54.5524M14.0677 59.5502C13.7046 58.9 13.3618 58.2386 13.0398 57.567M13.1166 57.7263C12.7913 57.0564 12.4868 56.3765 12.2036 55.6877M14.9272 61.008C14.534 60.3755 14.1605 59.731 13.8072 59.0753M17.0813 64.0992C16.6241 63.5113 16.1853 62.9093 15.7654 62.2942M15.9998 62.6334C15.5729 62.0231 15.1651 61.3997 14.7769 60.7641M18.3861 65.682C17.8962 65.121 17.4238 64.545 16.9696 63.9548M19.8094 67.2189C19.2876 66.6874 18.7825 66.1398 18.2948 65.577M21.3698 68.7158C20.8171 68.2166 20.28 67.7003 19.7593 67.1678M23.0432 70.137C22.4611 69.6724 21.8935 69.1899 21.3414 68.6901M24.5184 71.2536C23.9132 70.8195 23.3217 70.3668 22.7445 69.896M26.0233 72.2763C25.3969 71.8734 24.7832 71.4511 24.183 71.0101M11.6736 29.6804C11.9284 28.9806 12.205 28.2889 12.5027 27.6062M10.989 31.7535C11.201 31.0395 11.4351 30.3323 11.6909 29.6329M13.3041 25.8934C13.6373 25.2273 13.9911 24.5717 14.365 23.9276M14.2781 24.0781C14.6489 23.4321 15.0396 22.7979 15.4497 22.1762M31.5558 8.81025C32.2424 8.52177 32.9379 8.25467 33.641 8.00934M29.9609 9.52637C30.6327 9.2049 31.3143 8.90435 32.0048 8.62517M28.3888 10.3266C29.0441 9.97256 29.7102 9.63898 30.3861 9.32631M26.5871 11.3683C27.2208 10.977 27.8665 10.6055 28.5232 10.2543M24.9821 12.4193C25.5941 11.9948 26.2191 11.5895 26.8562 11.2037M23.2747 13.6798C23.8606 13.22 24.4606 12.7785 25.0739 12.3559M21.6084 15.0706C22.1655 14.5763 22.7379 14.0995 23.3246 13.6407M77.1435 59.1665C76.7884 59.8211 76.413 60.4646 76.018 61.0959M77.6848 58.1288C77.3511 58.7947 76.9969 59.45 76.6225 60.0939M78.5318 56.3143C78.2357 56.9976 77.9184 57.6716 77.5805 58.3353M79.2715 54.4694C79.0135 55.168 78.734 55.8585 78.4332 56.5398M79.8733 52.6995C79.6519 53.4106 79.4085 54.1147 79.1435 54.8107M80.3514 51.0212C80.1647 51.7422 79.9558 52.4573 79.7248 53.1653M80.7639 49.2429C80.614 49.9725 80.4416 50.6972 80.2468 51.416M81.1159 47.2448C81.0074 47.9816 80.8761 48.7149 80.7221 49.4435M81.31 45.6937C81.2336 46.4346 81.1342 47.1729 81.012 47.9075M81.4499 43.8994C81.4106 44.6431 81.3482 45.3855 81.2629 46.1253M81.4999 41.9101C81.5017 42.6549 81.4805 43.3995 81.4362 44.143M81.4442 39.9965C81.4857 40.7401 81.504 41.4848 81.4993 42.2296M81.2807 38.0324C81.3628 38.7726 81.4219 39.5152 81.4579 40.2591M80.9939 35.9849C81.1184 36.7192 81.22 37.4572 81.2987 38.1978M73.6691 64.4165C73.2054 64.9993 72.7236 65.5675 72.2246 66.1204M74.893 62.7858C74.463 63.3939 74.0142 63.9885 73.5473 64.5687M72.254 66.0879C71.7556 66.6413 71.2403 67.1792 70.7086 67.7007M67.5734 70.4388C66.9851 70.8954 66.3827 71.3337 65.7672 71.753M69.2376 69.0652C68.6777 69.5563 68.1027 70.0299 67.5134 70.4853M63.929 72.9253C63.2892 73.3065 62.6377 73.6679 61.9755 74.0087M38.3057 77.2738C37.576 77.125 36.8511 76.9535 36.1319 76.7597M34.0532 76.1317C33.3471 75.8949 32.6485 75.6362 31.9584 75.356" stroke="#1D1D1B" stroke-width="2"/>
<path fill-rule="evenodd" clip-rule="evenodd" d="M40.067 23.0012C37.4091 27.1228 36.0712 29.6945 35.2342 32.2898C34.5349 34.4592 34.5296 34.6183 35.0971 36.5812C36.371 40.989 41.2256 43.4827 45.2514 41.7973C48.1524 40.5827 50.4154 37.4639 50.4154 34.6801C50.4154 32.5609 47.3718 26.0639 44.3376 21.7066C42.7228 19.3876 42.3184 19.5104 40.067 23.0012ZM43.9227 24.0601C44.4719 24.885 45.7612 27.2103 46.7877 29.2275C48.3345 32.2669 48.6541 33.2097 48.6541 34.7345C48.6541 38.1152 46.1684 40.5612 42.7323 40.5612C38.1647 40.5612 35.2676 36.6066 36.7852 32.443C37.8928 29.4044 41.8692 22.56 42.5266 22.56C42.7454 22.56 43.3735 23.2352 43.9227 24.0601ZM24.5433 42.4503C23.9927 43.002 23.6426 43.7492 23.6426 44.3732C23.6426 45.837 26.0504 49.3761 29.2163 52.5659C33.7923 57.1763 37.5067 59.568 41.22 60.2951C43.5073 60.7427 43.4876 60.7444 50.0843 59.6061C51.1615 59.4205 53.1286 59.2683 54.4557 59.2683C56.7394 59.2683 56.9737 59.3474 58.8379 60.7448C59.9212 61.5569 60.8868 62.3204 60.9837 62.4418C61.4701 63.051 62.9881 63.8569 63.6497 63.8569C64.6339 63.8569 65.1394 63.2244 67.1192 59.5147C69.4354 55.1739 69.3868 55.0112 65.0348 52.5429C63.0973 51.4438 60.5651 49.7033 59.4076 48.6748C56.1751 45.8027 54.9312 45.3774 50.444 45.6107C48.014 45.7367 45.9923 46.059 44.6364 46.5358C43.4922 46.9382 41.7287 47.2675 40.7173 47.2675C39.0528 47.2675 38.6326 47.0886 36.2804 45.3771C32.9166 42.9292 32.6252 42.7877 29.949 42.3041C25.4054 41.4832 25.5114 41.4803 24.5433 42.4503ZM27.7371 43.8261C28.3208 44.2627 29.6971 45.4145 30.7955 46.3851C32.4297 47.8291 32.7936 48.3536 32.7971 49.2699C32.8028 50.6451 34.1812 52.3859 35.528 52.7184C38.7664 53.5182 47.6043 54.4373 48.5515 54.073C49.2899 53.7893 49.0711 52.9418 48.2137 52.7639C47.7776 52.6735 45.7566 52.4999 43.7222 52.3781C38.337 52.0559 35.1866 51.2585 34.5437 50.0549C34.2626 49.529 34.3852 49.313 35.2067 48.8873C35.9729 48.4906 36.9681 48.4118 39.3519 48.5601C42.0366 48.727 43.0208 48.6162 46.1737 47.7927C49.007 47.0526 50.3911 46.8683 52.1652 46.9958C54.9281 47.1938 56.1378 47.7719 58.4635 50.0062C59.4294 50.9341 60.8276 52.023 61.5705 52.4261C65.7439 54.6911 66.9716 55.4828 66.9751 55.912C66.9765 56.1079 66.303 57.5776 65.478 59.1783C64.0587 61.9325 63.1737 62.7196 62.5798 61.7567C62.3086 61.3169 58.4779 58.4018 57.4398 57.8452C56.6007 57.3951 53.4792 57.5328 49.1825 58.2094C41.834 59.3664 40.1452 59.0957 35.6199 56.0359C31.3126 53.1232 25.4039 46.4744 25.4039 44.5402C25.4039 42.7919 26.0793 42.5851 27.7371 43.8261ZM33.2111 45.1865C34.933 46.2933 35.3349 47.0307 34.4105 47.3861C33.8325 47.6085 30.6916 45.1992 30.6895 44.5321C30.6874 43.83 31.382 44.0104 33.2111 45.1865Z" fill="#1D1D1B"/>
</svg>
