<svg width="139" height="27" viewBox="0 0 139 27" fill="none" xmlns="http://www.w3.org/2000/svg">
<path d="M8.96031 6.97781C8.75134 6.94728 8.53821 6.98922 8.3564 7.09667H8.34089C7.91879 7.3441 7.53854 7.65682 7.21428 8.02322C6.9448 8.33477 6.79862 8.65002 6.76023 8.95345C6.73735 9.13433 6.75285 9.31521 6.80674 9.48797L6.82594 9.49978C7.12937 10.3916 7.52583 11.2495 8.01014 12.0572C8.63401 13.1919 9.40177 14.2413 10.2944 15.1794L10.321 15.2178L10.363 15.2488L10.3896 15.2798L10.4206 15.3064C11.3621 16.2016 12.4141 16.9729 13.5509 17.6017C14.8503 18.309 15.6388 18.6434 16.112 18.7822V18.7896C16.2508 18.8317 16.3771 18.8509 16.5041 18.8509C16.9074 18.8213 17.2892 18.6576 17.5886 18.3857C17.9533 18.0614 18.2626 17.6796 18.5041 17.2554V17.248C18.7307 16.8213 18.6539 16.4175 18.3269 16.1443C17.6719 15.5718 16.9636 15.0632 16.2117 14.6257C15.7082 14.3525 15.1966 14.5179 14.9891 14.7947L14.5469 15.3521C14.3202 15.629 13.9083 15.5906 13.9083 15.5906L13.8965 15.598C10.8245 14.8132 10.005 11.7028 10.005 11.7028C10.005 11.7028 9.96659 11.2798 10.2508 11.0642L10.8045 10.6183C11.0696 10.4027 11.2542 9.89181 10.9699 9.38756C10.5354 8.63463 10.0279 7.92617 9.45496 7.27239C9.3297 7.11825 9.15396 7.01339 8.95884 6.97633L8.96031 6.97781Z" fill="#1D1D1B"/>
<path d="M14.1517 5.62577C13.841 5.62577 13.5892 5.87761 13.5892 6.18827C13.5892 6.49893 13.841 6.75077 14.1517 6.75077C15.5742 6.75077 16.7562 7.21576 17.69 8.10612C18.1708 8.59369 18.5449 9.17081 18.7906 9.80238C19.0372 10.4363 19.1494 11.1123 19.1206 11.7894C19.1074 12.0998 19.3483 12.3621 19.6587 12.3753C19.9691 12.3885 20.2314 12.1476 20.2446 11.8372C20.28 11.0042 20.1419 10.1731 19.8391 9.39452C19.5362 8.616 19.0753 7.90657 18.4846 7.30931L18.4733 7.2985C17.3146 6.19034 15.8458 5.62577 14.1517 5.62577Z" fill="#1D1D1B"/>
<path d="M14.1134 7.47564C13.8027 7.47564 13.5509 7.72748 13.5509 8.03814C13.5509 8.3488 13.8027 8.60064 14.1134 8.60064H14.1317C15.1582 8.67298 15.9052 9.01514 16.4288 9.57678C16.9648 10.1552 17.2426 10.8737 17.222 11.7626C17.2148 12.0732 17.4607 12.3308 17.7713 12.338C18.0819 12.3452 18.3395 12.0992 18.3467 11.7887C18.3737 10.6215 17.9984 9.61501 17.2533 8.81138L17.2523 8.81033C16.4911 7.99348 15.4468 7.56135 14.1887 7.47691L14.1699 7.47564H14.1134Z" fill="#1D1D1B"/>
<path d="M14.0921 9.35929C13.7819 9.34296 13.5171 9.58121 13.5008 9.89144C13.4845 10.2017 13.7227 10.4664 14.0329 10.4827C14.5039 10.5075 14.8041 10.6488 14.9929 10.8394C15.1825 11.0308 15.3244 11.3374 15.3502 11.818C15.3669 12.1282 15.6319 12.3662 15.9421 12.3495C16.2523 12.3328 16.4903 12.0678 16.4736 11.7576C16.4373 11.0826 16.226 10.4858 15.7923 10.0478C15.3577 9.60898 14.7643 9.39467 14.0921 9.35929Z" fill="#1D1D1B"/>
<path fill-rule="evenodd" clip-rule="evenodd" d="M7.95007 2.68219C11.5299 1.88198 15.2423 1.88198 18.8222 2.68219L19.2036 2.76744C21.3375 3.24443 23.0217 4.8811 23.5595 7.00046C24.4682 10.5812 24.4682 14.3321 23.5595 17.9128C23.0217 20.0322 21.3375 21.6688 19.2036 22.1458L18.8222 22.2311C16.5735 22.7337 14.2725 22.9206 11.985 22.7918L9.00011 25.4625C8.77091 25.6676 8.44829 25.7317 8.1581 25.6299C7.8679 25.528 7.65611 25.2763 7.60533 24.973L7.11166 22.024C5.19648 21.4289 3.71158 19.8784 3.21276 17.9128C2.30408 14.3321 2.30408 10.5812 3.21276 7.00046C3.7506 4.8811 5.43478 3.24443 7.56866 2.76744L7.95007 2.68219ZM18.4541 4.32904C15.1166 3.58303 11.6556 3.58303 8.31819 4.32904L7.93678 4.4143C6.42385 4.75249 5.22974 5.9129 4.84842 7.41555C4.00886 10.7238 4.00886 14.1894 4.84842 17.4977C5.22974 19.0004 6.42385 20.1608 7.93678 20.499L8.03754 20.5215C8.37266 20.5964 8.62895 20.8669 8.68565 21.2056L9.01671 23.1833L11.1231 21.2986C11.2932 21.1464 11.5177 21.0696 11.7453 21.0857C13.988 21.2445 16.248 21.0774 18.4541 20.5842L18.8355 20.499C20.3484 20.1608 21.5425 19.0004 21.9238 17.4977C22.7634 14.1894 22.7634 10.7238 21.9238 7.41555C21.5425 5.9129 20.3484 4.75249 18.8355 4.4143L18.4541 4.32904Z" fill="#1D1D1B"/>
<path fill-rule="evenodd" clip-rule="evenodd" d="M62.5102 15.7721C62.5594 15.7886 62.6091 15.8004 62.6588 15.8077C62.7129 15.9349 62.7829 16.0995 62.8645 16.292C63.0637 16.7619 63.3321 17.3973 63.6092 18.0602C64.1742 19.4121 64.7442 20.8057 64.87 21.2046C65.0259 21.6977 65.1906 22.0329 65.3704 22.2618C65.4634 22.3801 65.5709 22.4835 65.6967 22.5618C65.76 22.6011 65.827 22.6335 65.8968 22.6575C65.8999 22.6586 65.9029 22.6596 65.906 22.6607C66.266 22.7966 66.5943 22.7399 66.7998 22.6707C66.9097 22.6337 66.9987 22.5889 67.0618 22.5527C67.0939 22.5342 67.1211 22.517 67.1427 22.5024L67.1478 22.4989L70.3273 20.5162L73.9999 23.3318C74.0541 23.3734 74.1132 23.4082 74.1758 23.4355C74.617 23.6281 75.0443 23.6952 75.4462 23.6403C75.8474 23.5855 76.166 23.417 76.4031 23.2272C76.6353 23.0414 76.7927 22.8334 76.8908 22.6788C76.9408 22.5998 76.9784 22.53 77.0049 22.4765C77.0183 22.4496 77.029 22.4264 77.0372 22.4078L77.0478 22.3833L77.0518 22.3737L77.0535 22.3696L77.0543 22.3677L77.055 22.3659C77.0743 22.3177 77.0891 22.2677 77.0992 22.2168L80.4519 5.31308C80.4627 5.25902 80.4681 5.20404 80.4681 5.14893C80.4681 4.65391 80.2815 4.18321 79.843 3.89758C79.4681 3.65346 79.0506 3.64295 78.7867 3.66298C78.502 3.68459 78.2391 3.75486 78.0627 3.81102C77.9708 3.84024 77.8939 3.86844 77.8384 3.88995C77.8105 3.90076 77.7876 3.91004 77.7706 3.91711L77.7578 3.9225L58.9548 11.2986L58.9524 11.2995C58.9404 11.3038 58.925 11.3096 58.9068 11.3167C58.8703 11.3309 58.8216 11.3509 58.7646 11.3767C58.6534 11.427 58.4975 11.5058 58.3376 11.6153C58.082 11.7903 57.4942 12.2697 57.5931 13.0609C57.6721 13.6921 58.1045 14.0798 58.368 14.2662C58.5127 14.3686 58.6501 14.4418 58.7502 14.4894C58.7966 14.5115 58.893 14.5507 58.9349 14.5677L58.9454 14.572L62.5102 15.7721ZM78.4158 5.47635L78.4132 5.47749C78.4038 5.48156 78.3944 5.48546 78.3849 5.48919L59.5591 12.8743C59.5493 12.8781 59.5394 12.8818 59.5294 12.8853L59.5189 12.8892C59.5069 12.8939 59.4866 12.9022 59.4612 12.9137C59.4467 12.9202 59.4317 12.9274 59.4163 12.935C59.4374 12.9469 59.4576 12.9572 59.4756 12.9658C59.4928 12.974 59.5059 12.9796 59.5131 12.9825L63.0486 14.1728C63.1133 14.1946 63.1736 14.2234 63.229 14.2582L74.9028 7.42441L74.9138 7.41795C74.9223 7.41293 74.9334 7.40647 74.9468 7.3989C74.9734 7.38388 75.0099 7.36389 75.0533 7.34179C75.1343 7.30055 75.264 7.23934 75.41 7.19421C75.5117 7.16278 75.8115 7.07426 76.1356 7.17822C76.3356 7.24238 76.5427 7.38031 76.6774 7.61398C76.7443 7.73007 76.78 7.84668 76.7973 7.95343C76.8431 8.1216 76.8359 8.28766 76.8 8.43102C76.7226 8.73984 76.5057 8.98073 76.3082 9.16498C76.1391 9.32295 73.9505 11.4333 71.7915 13.5165C70.7148 14.5554 69.6491 15.584 68.8525 16.3529L68.3294 16.858L74.9353 21.9226C75.0868 21.9768 75.1763 21.974 75.2178 21.9684C75.2672 21.9616 75.3076 21.9426 75.3488 21.9096C75.395 21.8727 75.4354 21.8228 75.4655 21.7752L75.4668 21.7733L78.7186 5.37864C78.6703 5.39024 78.6215 5.40406 78.5745 5.41903C78.5212 5.43598 78.4773 5.45213 78.4482 5.46342C78.4337 5.46901 78.4234 5.47324 78.4177 5.47558L78.4158 5.47635ZM68.8969 19.4195L67.579 18.4091L67.2596 20.4405L68.8969 19.4195ZM66.3699 16.4041L67.6805 15.1388C68.4771 14.3699 69.5429 13.3411 70.6197 12.3021L71.7138 11.2466L64.3788 15.5405L64.4181 15.6333C64.618 16.1048 64.8877 16.7431 65.1662 17.4095C65.3745 17.9078 65.5922 18.4325 65.7906 18.9183L66.109 16.8928C66.1397 16.6975 66.2351 16.5285 66.3699 16.4041Z" fill="#1D1D1B"/>
<path d="M129.999 7.87414C129.999 7.25282 130.503 6.74914 131.124 6.74914C131.746 6.74914 132.249 7.25282 132.249 7.87414C132.249 8.49546 131.746 8.99914 131.124 8.99914C130.503 8.99914 129.999 8.49546 129.999 7.87414Z" fill="#1D1D1B"/>
<path fill-rule="evenodd" clip-rule="evenodd" d="M125.499 8.15539C122.548 8.15539 120.156 10.5479 120.156 13.4991C120.156 16.4504 122.548 18.8429 125.499 18.8429C128.451 18.8429 130.843 16.4504 130.843 13.4991C130.843 10.5479 128.451 8.15539 125.499 8.15539ZM121.843 13.4991C121.843 11.4798 123.48 9.84289 125.499 9.84289C127.519 9.84289 129.156 11.4798 129.156 13.4991C129.156 15.5184 127.519 17.1554 125.499 17.1554C123.48 17.1554 121.843 15.5184 121.843 13.4991Z" fill="#1D1D1B"/>
<path fill-rule="evenodd" clip-rule="evenodd" d="M131.415 3.18628C127.515 2.75041 123.484 2.75041 119.584 3.18628C117.32 3.43926 115.493 5.2224 115.227 7.49775C114.76 11.4851 114.76 15.5132 115.227 19.5005C115.493 21.7759 117.32 23.559 119.584 23.812C123.484 24.2479 127.515 24.2479 131.415 23.812C133.678 23.559 135.506 21.7759 135.772 19.5005C136.238 15.5132 136.238 11.4851 135.772 7.49775C135.506 5.2224 133.678 3.43926 131.415 3.18628ZM119.771 4.86334C123.547 4.44139 127.452 4.44139 131.227 4.86334C132.724 5.03058 133.922 6.21139 134.096 7.69378C134.547 11.5509 134.547 15.4474 134.096 19.3045C133.922 20.7869 132.724 21.9677 131.227 22.1349C127.452 22.5569 123.547 22.5569 119.771 22.1349C118.275 21.9677 117.076 20.7869 116.903 19.3045C116.452 15.4474 116.452 11.5509 116.903 7.69378C117.076 6.21139 118.275 5.03058 119.771 4.86334Z" fill="#1D1D1B"/>
</svg>
