<svg width="46" height="44" viewBox="0 0 46 44" fill="none" xmlns="http://www.w3.org/2000/svg">
<circle opacity="0.5" cx="20" cy="20" r="20" fill="#009FE3"/>
<path fill-rule="evenodd" clip-rule="evenodd" d="M31.2596 9.49719C30.5356 9.61402 29.8308 9.80363 29.3037 10.0233C28.3519 10.42 28.2164 10.5427 22.7383 15.9667L17.4927 21.1607L16.9644 24.1416L16.4361 27.1224L15.3606 28.1932L14.2852 29.2638L14.6303 29.6016L14.9754 29.9394L22.8196 22.1645L30.6638 14.3896L30.3207 14.0495L29.9775 13.7094L23.832 19.8002C20.452 23.1501 17.6865 25.8466 17.6865 25.7923C17.6865 25.738 17.8476 24.7912 18.0445 23.6882L18.4025 21.6828L19.5483 20.5472L20.6941 19.4115V20.0431V20.6747H21.1844H21.6748V19.5555V18.4363L25.2871 14.8691C29.1414 11.0629 29.0938 11.1036 30.0763 10.7738C30.8136 10.5264 31.4378 10.4307 32.5686 10.3916C33.1842 10.3703 33.7653 10.3722 33.8599 10.3957L34.0318 10.4385V11.4046C34.0318 12.9398 33.8463 13.9205 33.3697 14.9038C33.1094 15.4409 33.0387 15.5202 31.1007 17.4508L29.1003 19.4435H28.0028H26.9053V19.9295V20.4155H27.5092H28.1131L27.1816 21.3404L26.25 22.2654L26.6126 22.6202L26.9752 22.9751L30.2999 19.6703C33.8019 16.1891 34.0221 15.9382 34.4237 14.9731C34.8798 13.8769 35.0442 12.767 34.9893 11.1556C34.9364 9.60754 34.9256 9.55266 34.6628 9.50172C34.1728 9.40672 31.8394 9.40361 31.2596 9.49719ZM24.5456 24.1451C22.4493 24.5213 20.6257 25.9048 19.6815 27.8353C18.8709 29.4926 18.8339 31.5776 19.5842 33.325C19.8216 33.878 20.3685 34.7097 20.8195 35.2036C21.5914 36.049 22.8551 36.7925 24.0658 37.1137C24.6363 37.265 24.8379 37.2859 25.7284 37.2859C26.6196 37.2859 26.8207 37.265 27.3956 37.1129C30.1481 36.3848 32.1876 34.0011 32.3866 31.2799C32.5041 29.6723 32.1658 28.3381 31.3103 27.0361C29.8661 24.8383 27.1503 23.6777 24.5456 24.1451ZM26.8768 25.1393C29.0444 25.5827 30.7698 27.2385 31.2853 29.3699C31.4444 30.0276 31.4597 31.1871 31.318 31.85C30.8767 33.9149 29.3744 35.4996 27.2506 36.1405C26.7413 36.2942 26.5694 36.3138 25.7284 36.3138C24.8872 36.3138 24.7157 36.2942 24.2052 36.1402C22.1385 35.5166 20.6528 33.9928 20.1715 32.0032C19.9927 31.264 19.9927 30.1091 20.1715 29.3699C20.8885 26.4057 23.8705 24.5244 26.8768 25.1393ZM26.5126 30.2349L24.3227 32.4079L24.0647 32.1304C23.9227 31.9778 23.5599 31.5938 23.2585 31.2771L22.7104 30.7013L22.3607 31.0435L22.011 31.3857L23.1223 32.559C23.7335 33.2043 24.2645 33.7431 24.3024 33.7564C24.3403 33.7697 25.5148 32.6476 26.9123 31.2627L29.4534 28.7448L29.1133 28.4034C28.9261 28.2157 28.7572 28.0621 28.7378 28.0621C28.7184 28.0621 27.7171 29.0399 26.5126 30.2349Z" fill="#1D1D1B"/>
<path d="M16.3486 41.032C15.9756 40.853 15.6082 40.6625 15.2469 40.4608M23.4503 42.9399C23.0378 42.9078 22.6264 42.863 22.2167 42.8054M25.9189 42.9789C25.5056 42.9979 25.0918 43.0041 24.6781 42.9974M28.3526 42.717C27.9447 42.7864 27.5348 42.843 27.1233 42.887M30.751 42.1553C30.3547 42.2743 29.9548 42.3809 29.5519 42.4751M33.0621 41.3031C32.6835 41.4699 32.2997 41.6248 31.9115 41.7678M36.2671 39.5243C35.9252 39.7574 35.5762 39.9798 35.2206 40.1913M39.0245 37.2588C38.7295 37.549 38.4256 37.8299 38.1132 38.1012M41.9901 33.5516C41.7718 33.9031 41.5427 34.2477 41.303 34.585M43.3387 15.0192C43.5038 15.3986 43.6571 15.783 43.7983 16.1719M43.7632 16.076C43.9065 16.4642 44.0376 16.8567 44.1565 17.253M44.104 17.0808C44.2264 17.476 44.3366 17.8749 44.4343 18.277M44.3487 17.9378C44.4535 18.338 44.5457 18.7415 44.6254 19.1475M44.5281 18.6811C44.6175 19.0851 44.6943 19.4918 44.7584 19.9006M42.8794 14.0374C43.0648 14.4073 43.2387 14.7829 43.4008 15.1635M42.32 12.9992C42.5269 13.3575 42.7227 13.7221 42.9069 14.0926M41.7006 11.9959C41.9282 12.3414 42.1451 12.6939 42.3509 13.0528M41.0877 11.1178C41.3335 11.4506 41.5689 11.791 41.7936 12.1384M40.4567 10.3079C40.7193 10.6277 40.9719 10.9555 41.2141 11.291M39.7433 9.48574C40.0229 9.79074 40.2929 10.1044 40.5531 10.4261M38.9397 8.65833C39.2364 8.94672 39.5241 9.24424 39.8024 9.55047M35.9919 6.29138C36.3376 6.51878 36.6761 6.75685 37.007 7.00525M36.8539 6.89143C37.1871 7.13666 37.5127 7.39217 37.8301 7.6576M37.8174 7.64704C38.1351 7.91221 38.4444 8.18717 38.7449 8.47152M38.5126 8.2552C38.8177 8.53474 39.1139 8.82369 39.4011 9.12162M35.1666 5.77676C35.5229 5.98709 35.8726 6.20842 36.2152 6.44044M34.178 5.23026C34.5457 5.42014 34.9073 5.62137 35.2624 5.83368M33.2006 4.75855C33.578 4.9282 33.95 5.10952 34.3161 5.30226M32.2587 4.36372C32.6443 4.51388 33.0251 4.67598 33.4005 4.84977M31.1937 3.9832C31.5871 4.11134 31.9764 4.25165 32.3611 4.40394M30.1046 3.66239C30.5046 3.76799 30.9013 3.88598 31.294 4.01619M28.9975 3.40356C29.4029 3.48626 29.8056 3.58152 30.2051 3.6892M26.5935 3.06358C27.0059 3.09655 27.4172 3.1423 27.8268 3.20078M24.1284 3.019C24.5418 3.00097 24.9556 2.99577 25.3693 3.00341M21.6658 3.27989C22.0737 3.21091 22.4837 3.15461 22.8952 3.11106M19.3058 3.82774C19.7024 3.70994 20.1026 3.60447 20.5058 3.5115M18.1554 4.20768C18.5442 4.06608 18.9372 3.93658 19.334 3.81936M10.9008 8.8151C11.1942 8.52341 11.4967 8.24091 11.8076 7.96798M10.1606 9.59131C10.438 9.28432 10.7249 8.986 11.0208 8.6968M9.64991 10.1791C9.91515 9.86156 10.1902 9.55231 10.4746 9.25181M8.96047 11.0529C9.20764 10.7211 9.46503 10.397 9.7323 10.0811M8.27842 12.0278C8.50541 11.6819 8.74309 11.3431 8.9911 11.0119M6.61725 15.1213C6.78024 14.741 6.955 14.3658 7.14127 13.9964M5.55892 18.3048C5.65606 17.9026 5.76565 17.5036 5.88754 17.1082M5.34164 19.3191C5.41779 18.9124 5.50654 18.5082 5.60777 18.107M5.16296 20.4521C5.21567 20.0417 5.2811 19.6331 5.35916 19.2267M5.05088 21.5743C5.08038 21.1616 5.12267 20.7499 5.17771 20.3398M5.0019 22.7244C5.0076 22.3106 5.02614 21.8972 5.05749 21.4846M5.01518 23.7792C4.99906 23.3657 4.99578 22.9519 5.00533 22.5382M5.08542 24.8465C5.04722 24.4345 5.02182 24.0215 5.00924 23.6079M5.19696 25.7999C5.13904 25.3903 5.09384 24.9789 5.06143 24.5664M5.34608 26.7045C5.26944 26.2979 5.20544 25.889 5.15416 25.4785M5.59418 27.8388C5.49408 27.4374 5.40645 27.0329 5.33144 26.626M5.89172 28.9054C5.76955 28.5101 5.65968 28.1111 5.56226 27.709M6.25981 29.9861C6.11528 29.5984 5.98282 29.2063 5.86262 28.8104M6.72373 31.1227C6.55569 30.7446 6.39942 30.3614 6.25515 29.9736M7.53761 32.7501C7.3359 32.3889 7.14545 32.0214 6.96654 31.6484M7.00924 31.7369C6.82849 31.3647 6.65934 30.9869 6.50202 30.6043M8.01511 33.56C7.79665 33.2086 7.58914 32.8505 7.39289 32.4863M9.21182 35.2774C8.95783 34.9507 8.71403 34.6163 8.48078 34.2746M8.61098 34.463C8.37384 34.1239 8.14727 33.7776 7.93161 33.4245M9.93672 36.1567C9.66453 35.845 9.40209 35.525 9.14975 35.1971M10.7274 37.0105C10.4376 36.7152 10.157 36.411 9.88598 36.0983M11.5943 37.8421C11.2873 37.5648 10.9889 37.278 10.6996 36.9821M12.524 38.6317C12.2006 38.3736 11.8853 38.1055 11.5785 37.8278M13.3436 39.252C13.0074 39.0109 12.6787 38.7593 12.3581 38.4978M14.1796 39.8202C13.8316 39.5963 13.4907 39.3617 13.1572 39.1167M6.20754 16.1558C6.34913 15.767 6.50275 15.3827 6.66818 15.0035M5.82723 17.3075C5.94499 16.9108 6.07504 16.5179 6.21718 16.1294M7.11339 14.0519C7.2985 13.6818 7.49506 13.3176 7.70277 12.9598M7.65452 13.0434C7.86051 12.6845 8.07758 12.3322 8.30542 11.9868M17.2532 4.56125C17.6347 4.40099 18.021 4.2526 18.4117 4.1163M16.3672 4.9591C16.7404 4.7805 17.1191 4.61353 17.5027 4.45843M15.4938 5.40364C15.8578 5.20698 16.2279 5.02166 16.6034 4.84795M14.4928 5.98239C14.8449 5.76502 15.2036 5.55862 15.5685 5.3635M13.6012 6.56628C13.9412 6.33046 14.2884 6.10525 14.6423 5.89097M12.6526 7.26654C12.9781 7.01109 13.3114 6.76581 13.6521 6.53105M11.7269 8.03922C12.0364 7.76463 12.3544 7.49971 12.6803 7.24484M42.5797 32.5369C42.3824 32.9006 42.1739 33.2581 41.9544 33.6088M42.8804 31.9605C42.6951 32.3304 42.4983 32.6944 42.2903 33.0521M43.351 30.9524C43.1865 31.332 43.0102 31.7065 42.8225 32.0752M43.762 29.9274C43.6186 30.3156 43.4633 30.6992 43.2962 31.0777M44.0963 28.9442C43.9733 29.3392 43.8381 29.7304 43.6908 30.1171M44.3619 28.0118C44.2582 28.4123 44.1421 28.8096 44.0138 29.2029M44.591 27.0239C44.5078 27.4291 44.412 27.8318 44.3038 28.2311M44.7866 25.9138C44.7263 26.3231 44.6534 26.7305 44.5678 27.1353M44.8944 25.0521C44.852 25.4637 44.7968 25.8738 44.7289 26.282M44.9721 24.0552C44.9503 24.4684 44.9157 24.8808 44.8683 25.2918M44.9999 22.9501C45.001 23.3638 44.9892 23.7775 44.9645 24.1905M44.969 21.8869C44.992 22.3001 45.0022 22.7138 44.9996 23.1275M44.8782 20.7958C44.9238 21.207 44.9566 21.6196 44.9766 22.0328M44.7189 19.6583C44.788 20.0662 44.8444 20.4762 44.8881 20.8877M40.6495 35.4536C40.3919 35.7774 40.1242 36.0931 39.847 36.4002M41.3295 34.5477C41.0906 34.8855 40.8412 35.2158 40.5818 35.5382M39.8633 36.3821C39.5865 36.6896 39.3001 36.9885 39.0048 37.2782M37.263 38.7993C36.9362 39.053 36.6015 39.2965 36.2595 39.5294M38.1876 38.0362C37.8765 38.309 37.557 38.5721 37.2297 38.8252M35.2383 40.1807C34.8829 40.3925 34.521 40.5933 34.1531 40.7826M21.0032 42.5966C20.5978 42.5139 20.195 42.4186 19.7955 42.311M18.6407 41.962C18.2484 41.8305 17.8603 41.6868 17.4769 41.5311" stroke="#1D1D1B" stroke-width="1.11111"/>
</svg>
