<svg width="83" height="79" viewBox="0 0 83 79" fill="none" xmlns="http://www.w3.org/2000/svg">
<path opacity="0.5" d="M72.5 36C72.5 55.8823 56.3823 72 36.5 72C16.6177 72 0.5 55.8823 0.5 36C0.5 16.1177 16.6177 0 36.5 0C56.3823 0 72.5 16.1177 72.5 36Z" fill="#FFDE00"/>
<path d="M29.9275 74.4576C29.256 74.1355 28.5947 73.7925 27.9445 73.4293M42.7106 77.8918C41.9681 77.8341 41.2275 77.7533 40.49 77.6497M47.154 77.962C46.4101 77.9962 45.6652 78.0073 44.9205 77.9953M51.5347 77.4906C50.8005 77.6154 50.0626 77.7175 49.322 77.7965M55.8518 76.4796C55.1385 76.6937 54.4187 76.8857 53.6935 77.0552M60.0118 74.9455C59.3303 75.2457 58.6395 75.5247 57.9406 75.7821M65.7807 71.7438C65.1654 72.1633 64.5372 72.5637 63.897 72.9443M70.7441 67.6659C70.2131 68.1881 69.666 68.6938 69.1037 69.1821M76.0822 60.9929C75.6893 61.6256 75.2768 62.2459 74.8454 62.853M78.5096 27.6345C78.8068 28.3174 79.0827 29.0094 79.337 29.7094M79.2738 29.5368C79.5316 30.2355 79.7677 30.9421 79.9817 31.6554M79.8872 31.3454C80.1076 32.0567 80.3059 32.7748 80.4818 33.4985M80.3277 32.888C80.5162 33.6085 80.6823 34.3347 80.8258 35.0655M80.6506 34.226C80.8114 34.9532 80.9497 35.6852 81.0651 36.421M77.6829 25.8674C78.0166 26.5332 78.3296 27.2091 78.6215 27.8944M76.6761 23.9985C77.0485 24.6435 77.4008 25.2999 77.7325 25.9667M75.561 22.1926C75.9708 22.8145 76.3612 23.449 76.7316 24.0951M74.4578 20.612C74.9003 21.2111 75.324 21.8238 75.7285 22.4491M73.3221 19.1543C73.7948 19.7298 74.2494 20.3199 74.6855 20.9237M72.0379 17.6743C72.5412 18.2233 73.0273 18.7878 73.4955 19.367M70.5915 16.185C71.1256 16.7041 71.6434 17.2396 72.1443 17.7908M65.2854 11.9245C65.9076 12.3338 66.517 12.7623 67.1126 13.2095M66.8369 13.0046C67.4368 13.446 68.0228 13.9059 68.5941 14.3837M68.5714 14.3647C69.1431 14.842 69.6999 15.3369 70.2409 15.8487M69.8227 15.4594C70.3718 15.9625 70.9051 16.4826 71.4219 17.0189M63.7999 10.9982C64.4413 11.3768 65.0707 11.7752 65.6874 12.1928M62.0205 10.0145C62.6822 10.3562 63.3331 10.7185 63.9724 11.1006M60.261 9.16539C60.9403 9.47076 61.61 9.79714 62.269 10.1441M58.5657 8.45469C59.2597 8.72499 59.9451 9.01676 60.621 9.32958M56.6486 7.76977C57.3567 8.00041 58.0576 8.25297 58.7501 8.52709M54.6882 7.19229C55.4083 7.38238 56.1223 7.59476 56.8293 7.82914M52.6954 6.72641C53.4252 6.87527 54.1501 7.04674 54.8692 7.24057M48.3683 6.11444C49.1106 6.17378 49.851 6.25614 50.5883 6.36141M43.9312 6.0342C44.6753 6.00174 45.4201 5.99239 46.1648 6.00614M39.4984 6.50379C40.2327 6.37963 40.9707 6.27829 41.7114 6.19991M35.2504 7.48993C35.9643 7.27789 36.6847 7.08805 37.4104 6.92069M33.1797 8.17382C33.8795 7.91894 34.587 7.68584 35.3013 7.47485M20.1214 16.4672C20.6496 15.9421 21.194 15.4336 21.7537 14.9424M18.7891 17.8644C19.2884 17.3118 19.8048 16.7748 20.3374 16.2542M17.8698 18.9224C18.3473 18.3508 18.8423 17.7942 19.3543 17.2533M16.6289 20.4952C17.0737 19.8979 17.5371 19.3146 18.0181 18.746M15.4012 22.2501C15.8097 21.6274 16.2376 21.0175 16.684 20.4214M12.411 27.8183C12.7044 27.1337 13.019 26.4585 13.3543 25.7934M10.5061 33.5487C10.6809 32.8247 10.8782 32.1064 11.0976 31.3947M10.115 35.3744C10.252 34.6424 10.4118 33.9147 10.594 33.1926M9.79332 37.4138C9.8882 36.6751 10.006 35.9395 10.1465 35.2081M9.59159 39.4337C9.64468 38.6908 9.72081 37.9498 9.81987 37.2117M9.50342 41.5038C9.51368 40.7591 9.54706 40.0149 9.60349 39.2723M9.52733 43.4025C9.49832 42.6583 9.4924 41.9134 9.5096 41.1688M9.65376 45.3237C9.585 44.5822 9.53927 43.8386 9.51663 43.0942M9.85453 47.0399C9.75026 46.3025 9.66891 45.562 9.61058 44.8195M10.1229 48.6681C9.98499 47.9362 9.86979 47.2002 9.77749 46.4612M10.5695 50.7099C10.3893 49.9873 10.2316 49.2592 10.0966 48.5268M11.1051 52.6297C10.8852 51.9182 10.6874 51.1999 10.5121 50.4761M11.7677 54.5749C11.5075 53.8771 11.2691 53.1713 11.0527 52.4587M12.6027 56.6208C12.3002 55.9402 12.019 55.2504 11.7593 54.5524M14.0677 59.5502C13.7046 58.9 13.3618 58.2386 13.0398 57.567M13.1166 57.7263C12.7913 57.0564 12.4868 56.3765 12.2036 55.6877M14.9272 61.008C14.534 60.3755 14.1605 59.731 13.8072 59.0753M17.0813 64.0992C16.6241 63.5113 16.1853 62.9093 15.7654 62.2942M15.9998 62.6334C15.5729 62.0231 15.1651 61.3997 14.7769 60.7641M18.3861 65.682C17.8962 65.121 17.4238 64.545 16.9696 63.9548M19.8094 67.2189C19.2876 66.6874 18.7825 66.1398 18.2948 65.577M21.3698 68.7158C20.8171 68.2166 20.28 67.7003 19.7593 67.1678M23.0432 70.137C22.4611 69.6724 21.8935 69.1899 21.3414 68.6901M24.5184 71.2536C23.9132 70.8195 23.3217 70.3668 22.7445 69.896M26.0233 72.2763C25.3969 71.8734 24.7832 71.4511 24.183 71.0101M11.6736 29.6804C11.9284 28.9806 12.205 28.2889 12.5027 27.6062M10.989 31.7535C11.201 31.0395 11.4351 30.3323 11.6909 29.6329M13.3041 25.8934C13.6373 25.2273 13.9911 24.5717 14.365 23.9276M14.2781 24.0781C14.6489 23.4321 15.0396 22.7979 15.4497 22.1762M31.5558 8.81025C32.2424 8.52177 32.9379 8.25467 33.641 8.00934M29.9609 9.52637C30.6327 9.2049 31.3143 8.90435 32.0048 8.62517M28.3888 10.3266C29.0441 9.97256 29.7102 9.63898 30.3861 9.32631M26.5871 11.3683C27.2208 10.977 27.8665 10.6055 28.5232 10.2543M24.9821 12.4193C25.5941 11.9948 26.2191 11.5895 26.8562 11.2037M23.2747 13.6798C23.8606 13.22 24.4606 12.7785 25.0739 12.3559M21.6084 15.0706C22.1655 14.5763 22.7379 14.0995 23.3246 13.6407M77.1435 59.1665C76.7884 59.8211 76.413 60.4646 76.018 61.0959M77.6848 58.1288C77.3511 58.7947 76.9969 59.45 76.6225 60.0939M78.5318 56.3143C78.2357 56.9976 77.9184 57.6716 77.5805 58.3353M79.2715 54.4694C79.0135 55.168 78.734 55.8585 78.4332 56.5398M79.8733 52.6995C79.6519 53.4106 79.4085 54.1147 79.1435 54.8107M80.3514 51.0212C80.1647 51.7422 79.9558 52.4573 79.7248 53.1653M80.7639 49.2429C80.614 49.9725 80.4416 50.6972 80.2468 51.416M81.1159 47.2448C81.0074 47.9816 80.8761 48.7149 80.7221 49.4435M81.31 45.6937C81.2336 46.4346 81.1342 47.1729 81.012 47.9075M81.4499 43.8994C81.4106 44.6431 81.3482 45.3855 81.2629 46.1253M81.4999 41.9101C81.5017 42.6549 81.4805 43.3995 81.4362 44.143M81.4442 39.9965C81.4857 40.7401 81.504 41.4848 81.4993 42.2296M81.2807 38.0324C81.3628 38.7726 81.4219 39.5152 81.4579 40.2591M80.9939 35.9849C81.1184 36.7192 81.22 37.4572 81.2987 38.1978M73.6691 64.4165C73.2054 64.9993 72.7236 65.5675 72.2246 66.1204M74.893 62.7858C74.463 63.3939 74.0142 63.9885 73.5473 64.5687M72.254 66.0879C71.7556 66.6413 71.2403 67.1792 70.7086 67.7007M67.5734 70.4388C66.9851 70.8954 66.3827 71.3337 65.7672 71.753M69.2376 69.0652C68.6777 69.5563 68.1027 70.0299 67.5134 70.4853M63.929 72.9253C63.2892 73.3065 62.6377 73.6679 61.9755 74.0087M38.3057 77.2738C37.576 77.125 36.8511 76.9535 36.1319 76.7597M34.0532 76.1317C33.3471 75.8949 32.6485 75.6362 31.9584 75.356" stroke="#1D1D1B" stroke-width="2"/>
<path fill-rule="evenodd" clip-rule="evenodd" d="M44.78 19.2219L44.558 19.4438V22.469C44.558 24.1328 44.5844 25.563 44.6168 25.6472C44.7712 26.0496 45.6165 26.0768 45.8256 25.6862C45.8783 25.5878 45.9141 24.2914 45.9141 22.4823V19.4438L45.6921 19.2219C45.5701 19.0999 45.3649 19 45.2361 19C45.1072 19 44.902 19.0999 44.78 19.2219ZM35.1764 24.5649C34.7989 24.8292 34.9016 25.2063 35.7482 26.6642C36.1732 27.3962 36.5878 28.0459 36.6695 28.108C37.042 28.3914 37.6875 28.0537 37.6875 27.5753C37.6875 27.281 36.3542 24.8605 36.0388 24.5823C35.8166 24.3863 35.442 24.3788 35.1764 24.5649ZM54.4333 24.5823C54.1179 24.8605 52.7846 27.281 52.7846 27.5753C52.7846 28.087 53.4965 28.4131 53.8474 28.0622C53.9347 27.9749 54.3415 27.3262 54.7514 26.6207C55.5701 25.2117 55.6716 24.8281 55.2957 24.5649C55.0301 24.3788 54.6555 24.3863 54.4333 24.5823ZM43.6179 29.2217C38.2067 29.9698 33.9036 34.0344 32.8355 39.4064C32.615 40.5153 32.6138 42.9774 32.8333 44.0657C33.1665 45.7185 33.8547 47.3964 34.7549 48.7503C35.5886 50.0046 36.045 50.2792 36.4965 49.7986C36.8062 49.4689 36.7416 49.1989 36.1608 48.3945C33.7496 45.0556 33.3173 40.7287 35.0238 37.0135C36.0629 34.7514 38.2669 32.5486 40.5098 31.5306C43.9306 29.9778 47.8336 30.178 50.9667 32.0668C51.4169 32.3382 51.8705 32.5603 51.9745 32.5603C52.4575 32.5603 52.7854 32.0938 52.6058 31.6622C52.3365 31.0153 49.5663 29.7302 47.6212 29.35C46.7146 29.1727 44.4882 29.1014 43.6179 29.2217ZM28.1049 31.6562C27.8776 31.8836 27.8652 32.3907 28.0823 32.5791C28.1694 32.6546 28.8149 33.0474 29.517 33.4519C30.9366 34.2699 31.2254 34.3412 31.5336 33.9493C31.9519 33.4175 31.7593 33.1789 30.17 32.2595C28.7355 31.4296 28.4229 31.3383 28.1049 31.6562ZM53.8694 33.5547C53.5651 33.859 53.6384 34.219 54.1369 34.8694C57.0668 38.6919 57.2748 43.8546 54.6603 47.8598C52.4684 51.2175 48.8006 53.1202 44.8292 52.9598C42.6529 52.8718 40.9193 52.3324 39.0802 51.171C38.7758 50.9787 38.4264 50.8214 38.3037 50.8214C38.0226 50.8214 37.6875 51.1701 37.6875 51.4626C37.6875 51.8243 37.9175 52.0541 38.8152 52.5899C39.8716 53.2202 41.2013 53.7477 42.5122 54.0564C43.4126 54.2683 43.6991 54.2932 45.2361 54.2932C46.7764 54.2932 47.0585 54.2685 47.9684 54.0544C52.9224 52.8886 56.6477 49.0399 57.6366 44.0657C57.8578 42.9536 57.8583 40.4949 57.6376 39.4002C57.2279 37.3668 56.1322 35.0457 54.9421 33.6903C54.6122 33.3146 54.166 33.2581 53.8694 33.5547ZM40.8516 36.0041C39.6662 36.1802 38.7251 37.0846 38.5175 38.2474C38.3797 39.0187 38.6026 39.4308 39.1574 39.4308C39.4582 39.4308 39.7361 39.0948 39.81 38.6419C40.0968 36.8838 42.447 36.9115 42.7116 38.676C42.8061 39.3068 43.2592 39.6 43.7409 39.3423C44.3471 39.0178 44.0059 37.511 43.1469 36.7192C42.5076 36.1301 41.6994 35.8782 40.8516 36.0041ZM48.8069 36.0041C48.2062 36.0934 47.7823 36.2979 47.3252 36.7192C46.4662 37.511 46.125 39.0178 46.7312 39.3423C47.2129 39.6 47.666 39.3068 47.7605 38.676C48.0251 36.9115 50.3753 36.8838 50.6621 38.6419C50.736 39.0948 51.0139 39.4308 51.3147 39.4308C51.8695 39.4308 52.0924 39.0187 51.9546 38.2474C51.694 36.7882 50.2856 35.7845 48.8069 36.0041ZM22.7219 41.28C22.5999 41.402 22.5 41.6072 22.5 41.736C22.5 41.8649 22.5999 42.0701 22.7219 42.1921L22.9438 42.4141H25.969C27.6328 42.4141 29.063 42.3877 29.1472 42.3553C29.3812 42.2655 29.5468 41.7952 29.4461 41.5062C29.2975 41.0801 29.1245 41.058 25.9269 41.058H22.9438L22.7219 41.28ZM61.3098 41.1662C60.8962 41.366 60.9067 42.1948 61.3249 42.3553C61.4091 42.3877 62.8393 42.4141 64.5031 42.4141H67.5283L67.7502 42.1921C67.8722 42.0701 67.9721 41.8649 67.9721 41.736C67.9721 41.6072 67.8722 41.402 67.7502 41.28L67.5283 41.058L64.5183 41.0642C62.5929 41.0681 61.4368 41.1049 61.3098 41.1662ZM38.8928 42.3324C38.7353 42.3781 38.4966 42.546 38.3623 42.7056C38.1381 42.972 38.1216 43.0444 38.1616 43.5864C38.3218 45.7591 40.1886 48.1557 42.4637 49.109C43.9684 49.7395 45.8596 49.8144 47.4246 49.3056C48.8961 48.8271 49.4071 48.3969 49.1468 47.8557C49.0842 47.7253 48.9291 47.5605 48.8021 47.4893C48.5891 47.37 48.5154 47.3853 47.8487 47.6862C46.0014 48.5203 44.1664 48.4889 42.4517 47.5939C41.5833 47.1407 40.5565 46.1169 40.1126 45.2617C39.8553 44.766 39.4955 43.8077 39.4955 43.618C39.4955 43.6022 42.0788 43.5893 45.2361 43.5893C48.3933 43.5893 50.9766 43.6022 50.9766 43.618C50.9766 43.7792 50.6296 44.7387 50.424 45.1461C50.0925 45.803 50.0864 46.1375 50.4012 46.3851C50.7016 46.6215 50.8899 46.6215 51.19 46.3855C51.6722 46.0062 52.3326 44.2689 52.3326 43.3797C52.3326 42.8723 52.022 42.4619 51.5358 42.3268C51.113 42.2094 39.2997 42.2146 38.8928 42.3324ZM29.4859 50.0447C28.7788 50.4576 28.138 50.8468 28.0621 50.9098C27.8667 51.072 27.8839 51.661 28.0895 51.847C28.4145 52.1413 28.7727 52.0334 30.1966 51.2121C31.5209 50.4484 31.721 50.2712 31.721 49.8622C31.721 49.6333 31.2966 49.2842 31.0244 49.2893C30.8778 49.292 30.2324 49.6089 29.4859 50.0447ZM58.9731 49.5065C58.851 49.6286 58.7511 49.7886 58.7511 49.8622C58.7511 50.2587 58.9576 50.4411 60.2716 51.2056C61.7173 52.0468 62.1011 52.1597 62.3984 51.8313C62.5974 51.6114 62.5925 51.0679 62.3898 50.8963C62.0071 50.5721 59.6426 49.2846 59.4299 49.2846C59.3007 49.2846 59.0951 49.3845 58.9731 49.5065ZM53.0228 55.4385C52.6309 55.7467 52.7022 56.0355 53.5202 57.4551C53.9247 58.1572 54.3175 58.8028 54.393 58.8898C54.5789 59.104 55.1506 59.0998 55.347 58.8826C55.6351 58.5642 55.5297 58.2164 54.7172 56.8049C53.8015 55.2141 53.5578 55.0176 53.0228 55.4385ZM44.7424 57.709C44.5644 57.9001 44.558 58.0123 44.558 60.9676V64.0283L44.78 64.2502C44.902 64.3722 45.1072 64.4721 45.2361 64.4721C45.3649 64.4721 45.5701 64.3722 45.6921 64.2502L45.9141 64.0283V60.9676C45.9141 58.0123 45.9077 57.9001 45.7297 57.709C45.4819 57.4431 44.9902 57.4431 44.7424 57.709Z" fill="#1D1D1B"/>
<path d="M34.2844 57.9687C34.3282 57.8803 34.7552 57.264 35.2333 56.5993C35.738 55.8975 36.1987 55.3455 36.3316 55.2834C36.5782 55.168 37.1078 55.3143 37.2009 55.5234C37.3672 55.897 37.2566 56.1404 36.3574 57.3767C35.3906 58.7061 35.1073 58.9503 34.6906 58.8138C34.4272 58.7274 34.1719 58.1963 34.2844 57.9687Z" fill="#1D1D1B"/>
<path d="M59.4683 33.6491C59.6019 33.3868 61.8882 31.8345 62.2954 31.7297C62.5823 31.6558 62.9196 31.8191 63.0719 32.1054C63.2874 32.5105 63.023 32.8063 61.6542 33.6906C60.9688 34.1333 60.312 34.5269 60.1946 34.5651C59.7227 34.7186 59.2362 34.1051 59.4683 33.6491Z" fill="#1D1D1B"/>
</svg>
