<svg width="24" height="21" viewBox="0 0 24 21" fill="none" xmlns="http://www.w3.org/2000/svg">
<path fill-rule="evenodd" clip-rule="evenodd" d="M5.51015 12.7721C5.5594 12.7886 5.60911 12.8004 5.65876 12.8077C5.71291 12.9349 5.78289 13.0995 5.86451 13.292C6.06372 13.7619 6.33213 14.3973 6.6092 15.0602C7.17422 16.4121 7.74416 17.8057 7.87003 18.2046C8.02586 18.6977 8.19057 19.0329 8.37038 19.2618C8.46336 19.3801 8.57089 19.4835 8.69671 19.5618C8.76005 19.6011 8.82696 19.6335 8.8968 19.6575C8.89987 19.6586 8.90294 19.6596 8.90602 19.6607C9.26604 19.7966 9.59427 19.7399 9.79977 19.6707C9.90973 19.6337 9.9987 19.5889 10.0618 19.5527C10.0939 19.5342 10.1211 19.517 10.1427 19.5024L10.1478 19.4989L13.3273 17.5162L16.9999 20.3318C17.0541 20.3734 17.1132 20.4082 17.1758 20.4355C17.617 20.6281 18.0443 20.6952 18.4462 20.6403C18.8474 20.5855 19.166 20.417 19.4031 20.2272C19.6353 20.0414 19.7927 19.8334 19.8908 19.6788C19.9408 19.5998 19.9784 19.53 20.0049 19.4765C20.0183 19.4496 20.029 19.4264 20.0372 19.4078L20.0478 19.3833L20.0518 19.3737L20.0535 19.3696L20.0543 19.3677L20.055 19.3659C20.0743 19.3177 20.0891 19.2677 20.0992 19.2168L23.4519 2.31308C23.4627 2.25902 23.4681 2.20404 23.4681 2.14893C23.4681 1.65391 23.2815 1.18321 22.843 0.89758C22.4681 0.653458 22.0506 0.642949 21.7867 0.66298C21.502 0.684587 21.2391 0.754863 21.0627 0.811019C20.9708 0.840243 20.8939 0.86844 20.8384 0.889952C20.8105 0.900763 20.7876 0.910038 20.7706 0.917112L20.7578 0.922498L1.95484 8.29861L1.9524 8.29948C1.94042 8.30385 1.92503 8.30959 1.90675 8.3167C1.87034 8.33088 1.82156 8.35085 1.76457 8.37668C1.65344 8.42705 1.49754 8.50576 1.33756 8.61532C1.08197 8.79034 0.494167 9.26971 0.593145 10.0609C0.672108 10.6921 1.10454 11.0798 1.368 11.2662C1.51267 11.3686 1.6501 11.4418 1.75019 11.4894C1.79663 11.5115 1.89304 11.5507 1.93487 11.5677L1.94542 11.572L5.51015 12.7721ZM21.4158 2.47635L21.4132 2.47749C21.4038 2.48156 21.3944 2.48546 21.3849 2.48919L2.55913 9.87425C2.5493 9.87811 2.5394 9.88178 2.52943 9.88527L2.51895 9.88924C2.50691 9.89393 2.48663 9.90216 2.46118 9.91369C2.44675 9.92023 2.43169 9.92737 2.41633 9.93503C2.43743 9.94691 2.45762 9.95723 2.47556 9.96577C2.49278 9.97397 2.50592 9.97958 2.51311 9.98253L6.04857 11.1728C6.11328 11.1946 6.17361 11.2234 6.22898 11.2582L17.9028 4.42441L17.9138 4.41795C17.9223 4.41293 17.9334 4.40647 17.9468 4.3989C17.9734 4.38388 18.0099 4.36389 18.0533 4.34179C18.1343 4.30055 18.264 4.23934 18.41 4.19421C18.5117 4.16278 18.8115 4.07426 19.1356 4.17822C19.3356 4.24238 19.5427 4.38031 19.6774 4.61398C19.7443 4.73007 19.78 4.84668 19.7973 4.95343C19.8431 5.1216 19.8359 5.28766 19.8 5.43102C19.7226 5.73984 19.5057 5.98073 19.3082 6.16498C19.1391 6.32295 16.9505 8.43328 14.7915 10.5165C13.7148 11.5554 12.6491 12.584 11.8525 13.3529L11.3294 13.858L17.9353 18.9226C18.0868 18.9768 18.1763 18.974 18.2178 18.9684C18.2672 18.9616 18.3076 18.9426 18.3488 18.9096C18.395 18.8727 18.4354 18.8228 18.4655 18.7752L18.4668 18.7733L21.7186 2.37864C21.6703 2.39024 21.6215 2.40406 21.5745 2.41903C21.5212 2.43598 21.4773 2.45213 21.4482 2.46342C21.4337 2.46901 21.4234 2.47324 21.4177 2.47558L21.4158 2.47635ZM11.8969 16.4195L10.579 15.4091L10.2596 17.4405L11.8969 16.4195ZM9.36994 13.4041L10.6805 12.1388C11.4771 11.3699 12.5429 10.3411 13.6197 9.30215L14.7138 8.24663L7.37877 12.5405L7.41813 12.6333C7.61804 13.1048 7.88765 13.7431 8.16618 14.4095C8.37445 14.9078 8.59224 15.4325 8.79061 15.9183L9.10902 13.8928C9.13972 13.6975 9.23512 13.5285 9.36994 13.4041Z" fill="#1D1D1B"/>
</svg>
