<svg width="32" height="32" viewBox="0 0 32 32" fill="none" xmlns="http://www.w3.org/2000/svg">
<path d="M22.6671 7.66658C22.6671 6.74611 23.4133 5.99991 24.3338 5.99991C25.2543 5.99991 26.0005 6.74611 26.0005 7.66658C26.0005 8.58705 25.2543 9.33325 24.3338 9.33325C23.4133 9.33325 22.6671 8.58705 22.6671 7.66658Z" fill="#1D1D1B"/>
<path fill-rule="evenodd" clip-rule="evenodd" d="M16.0005 8.08325C11.6282 8.08325 8.0838 11.6277 8.0838 15.9999C8.0838 20.3722 11.6282 23.9166 16.0005 23.9166C20.3727 23.9166 23.9171 20.3722 23.9171 15.9999C23.9171 11.6277 20.3727 8.08325 16.0005 8.08325ZM10.5838 15.9999C10.5838 13.0084 13.0089 10.5832 16.0005 10.5832C18.992 10.5832 21.4171 13.0084 21.4171 15.9999C21.4171 18.9915 18.992 21.4166 16.0005 21.4166C13.0089 21.4166 10.5838 18.9915 10.5838 15.9999Z" fill="#1D1D1B"/>
<path fill-rule="evenodd" clip-rule="evenodd" d="M24.7642 0.721606C18.9866 0.075871 13.0144 0.075871 7.23675 0.721606C3.88332 1.0964 1.1761 3.73808 0.781844 7.10897C0.0909477 13.0161 0.0909477 18.9837 0.781844 24.8909C1.1761 28.2617 3.88332 30.9034 7.23675 31.2782C13.0144 31.924 18.9866 31.924 24.7642 31.2782C28.1177 30.9034 30.8249 28.2617 31.2191 24.8909C31.91 18.9837 31.91 13.0161 31.2191 7.10897C30.8249 3.73808 28.1177 1.0964 24.7642 0.721606ZM7.51443 3.20614C13.1075 2.58103 18.8935 2.58103 24.4865 3.20614C26.7034 3.4539 28.4792 5.20326 28.7361 7.39938C29.4044 13.1136 29.4044 18.8862 28.7361 24.6004C28.4792 26.7966 26.7034 28.5459 24.4865 28.7937C18.8935 29.4188 13.1075 29.4188 7.51443 28.7937C5.29759 28.5459 3.52178 26.7966 3.26492 24.6004C2.59659 18.8862 2.59659 13.1136 3.26492 7.39938C3.52178 5.20326 5.29759 3.4539 7.51443 3.20614Z" fill="#1D1D1B"/>
</svg>
