<svg width="33" height="36" viewBox="0 0 33 36" fill="none" xmlns="http://www.w3.org/2000/svg">
<path d="M10.2745 7.33601C9.96495 7.29078 9.6492 7.35292 9.37985 7.51211H9.35688C8.73154 7.87867 8.16821 8.34196 7.68782 8.88477C7.2886 9.34633 7.07203 9.81336 7.01516 10.2629C6.98125 10.5309 7.00422 10.7988 7.08407 11.0548L7.1125 11.0723C7.56204 12.3935 8.14938 13.6645 8.86688 14.861C9.79112 16.5421 10.9285 18.0967 12.2509 19.4865L12.2903 19.5434L12.3527 19.5893L12.392 19.6352L12.438 19.6746C13.8328 21.0009 15.3912 22.1436 17.0755 23.0751C19.0005 24.1229 20.1686 24.6184 20.8697 24.824V24.8349C21.0753 24.8973 21.2623 24.9257 21.4505 24.9257C22.048 24.8819 22.6136 24.6393 23.0572 24.2366C23.5975 23.7561 24.0557 23.1905 24.4134 22.5621V22.5512C24.7492 21.919 24.6355 21.3207 24.1509 20.916C23.1806 20.0678 22.1313 19.3144 21.0173 18.6662C20.2714 18.2615 19.5134 18.5065 19.2061 18.9166L18.5509 19.7424C18.2152 20.1526 17.6048 20.0957 17.6048 20.0957L17.5873 20.1066C13.0363 18.944 11.8222 14.336 11.8222 14.336C11.8222 14.336 11.7653 13.7093 12.1864 13.3899L13.0067 12.7293C13.3994 12.4099 13.6728 11.653 13.2517 10.906C12.6079 9.79056 11.8562 8.74099 11.0073 7.77242C10.8218 7.54408 10.5614 7.38872 10.2723 7.33383L10.2745 7.33601Z" fill="#1D1D1B"/>
<path d="M17.9654 5.333C17.5052 5.333 17.1321 5.70609 17.1321 6.16633C17.1321 6.62657 17.5052 6.99966 17.9654 6.99966C20.0729 6.99966 21.8241 7.68853 23.2074 9.00758C23.9196 9.7299 24.474 10.5849 24.8379 11.5206C25.2033 12.4597 25.3695 13.4612 25.3268 14.4643C25.3073 14.9241 25.6642 15.3127 26.124 15.3322C26.5838 15.3518 26.9724 14.9949 26.992 14.5351C27.0444 13.301 26.8399 12.0697 26.3912 10.9163C25.9426 9.76297 25.2597 8.71195 24.3845 7.82713L24.3678 7.8111C22.6512 6.1694 20.4752 5.333 17.9654 5.333Z" fill="#1D1D1B"/>
<path d="M17.9087 8.07354C17.4485 8.07354 17.0754 8.44664 17.0754 8.90688C17.0754 9.36711 17.4485 9.74021 17.9087 9.74021H17.9359C19.4566 9.84738 20.5632 10.3543 21.339 11.1863C22.1331 12.0433 22.5446 13.1077 22.5141 14.4246C22.5034 14.8847 22.8678 15.2664 23.3279 15.277C23.788 15.2877 24.1696 14.9233 24.1803 14.4632C24.2203 12.734 23.6642 11.243 22.5605 10.0524L22.559 10.0509C21.4313 8.8407 19.8842 8.20052 18.0203 8.07541L17.9925 8.07354H17.9087Z" fill="#1D1D1B"/>
<path d="M17.8772 10.8641C17.4176 10.8399 17.0254 11.1929 17.0012 11.6525C16.977 12.1121 17.3299 12.5043 17.7895 12.5285C18.4873 12.5652 18.9321 12.7745 19.2117 13.0569C19.4926 13.3405 19.7027 13.7946 19.741 14.5067C19.7658 14.9663 20.1583 15.3188 20.6179 15.2941C21.0775 15.2694 21.43 14.8768 21.4053 14.4172C21.3515 13.4171 21.0386 12.533 20.396 11.8841C19.7522 11.234 18.873 10.9166 17.8772 10.8641Z" fill="#1D1D1B"/>
<path fill-rule="evenodd" clip-rule="evenodd" d="M8.77788 0.972126C14.0814 -0.213365 19.5812 -0.213365 24.8847 0.972126L25.4498 1.09843C28.6111 1.80507 31.1062 4.22978 31.903 7.36957C33.2492 12.6743 33.2492 18.2313 31.903 23.536C31.1062 26.6758 28.6111 29.1005 25.4498 29.8072L24.8847 29.9335C21.5533 30.6781 18.1445 30.955 14.7555 30.7642L10.3335 34.7207C9.99395 35.0245 9.51599 35.1195 9.08607 34.9687C8.65615 34.8178 8.34238 34.4449 8.26715 33.9956L7.5358 29.6266C4.69849 28.745 2.49864 26.4481 1.75965 23.536C0.413451 18.2313 0.413451 12.6743 1.75965 7.36957C2.55644 4.22978 5.05153 1.80507 8.21283 1.09843L8.77788 0.972126ZM24.3394 3.41192C19.395 2.30671 14.2676 2.3067 9.32324 3.41192L8.7582 3.53822C6.51681 4.03924 4.74777 5.75837 4.18284 7.98451C2.93905 12.8857 2.93905 18.0199 4.18284 22.9211C4.74777 25.1472 6.51681 26.8664 8.7582 27.3674L8.90747 27.4007C9.40394 27.5117 9.78364 27.9125 9.86763 28.4143L10.3581 31.3441L13.4787 28.552C13.7307 28.3265 14.0632 28.2128 14.4005 28.2366C17.7229 28.4719 21.0711 28.2242 24.3394 27.4937L24.9044 27.3674C27.1458 26.8664 28.9148 25.1472 29.4798 22.9211C30.7236 18.0199 30.7236 12.8857 29.4798 7.98451C28.9148 5.75837 27.1458 4.03924 24.9044 3.53822L24.3394 3.41192Z" fill="#1D1D1B"/>
</svg>
