<svg width="23" height="23" viewBox="0 0 23 23" fill="none" xmlns="http://www.w3.org/2000/svg">
<path d="M15.9993 5.87511C15.9993 5.25379 16.503 4.75011 17.1243 4.75011C17.7456 4.75011 18.2493 5.25379 18.2493 5.87511C18.2493 6.49643 17.7456 7.00011 17.1243 7.00011C16.503 7.00011 15.9993 6.49643 15.9993 5.87511Z" fill="#1D1D1B"/>
<path fill-rule="evenodd" clip-rule="evenodd" d="M11.4993 6.15636C8.54802 6.15636 6.15554 8.54884 6.15554 11.5001C6.15554 14.4514 8.54802 16.8439 11.4993 16.8439C14.4506 16.8439 16.843 14.4514 16.843 11.5001C16.843 8.54884 14.4506 6.15636 11.4993 6.15636ZM7.84304 11.5001C7.84304 9.48082 9.48 7.84386 11.4993 7.84386C13.5186 7.84386 15.1555 9.48082 15.1555 11.5001C15.1555 13.5194 13.5186 15.1564 11.4993 15.1564C9.48 15.1564 7.84304 13.5194 7.84304 11.5001Z" fill="#1D1D1B"/>
<path fill-rule="evenodd" clip-rule="evenodd" d="M17.4148 1.18725C13.5149 0.751384 9.48368 0.751384 5.58378 1.18725C3.32022 1.44024 1.49284 3.22338 1.22672 5.49872C0.760364 9.48606 0.760364 13.5142 1.22672 17.5015C1.49284 19.7768 3.32022 21.56 5.58378 21.813C9.48368 22.2488 13.5149 22.2488 17.4148 21.813C19.6784 21.56 21.5058 19.7768 21.7719 17.5015C22.2382 13.5142 22.2382 9.48606 21.7719 5.49872C21.5058 3.22338 19.6784 1.44024 17.4148 1.18725ZM5.77122 2.86431C9.54654 2.44236 13.4521 2.44236 17.2274 2.86431C18.7238 3.03155 19.9224 4.21237 20.0958 5.69475C20.5469 9.55185 20.5469 13.4484 20.0958 17.3055C19.9224 18.7879 18.7238 19.9687 17.2274 20.1359C13.4521 20.5579 9.54655 20.5579 5.77122 20.1359C4.27485 19.9687 3.07617 18.7879 2.90279 17.3055C2.45167 13.4484 2.45167 9.55185 2.90279 5.69475C3.07617 4.21237 4.27485 3.03155 5.77122 2.86431Z" fill="#1D1D1B"/>
</svg>
