<svg width="23" height="24" viewBox="0 0 23 24" fill="none" xmlns="http://www.w3.org/2000/svg">
<path d="M6.96031 4.97781C6.75134 4.94728 6.53821 4.98922 6.3564 5.09667H6.34089C5.91879 5.3441 5.53854 5.65682 5.21428 6.02322C4.9448 6.33477 4.79862 6.65002 4.76023 6.95345C4.73735 7.13433 4.75285 7.31521 4.80674 7.48797L4.82594 7.49978C5.12937 8.39162 5.52583 9.24951 6.01014 10.0572C6.63401 11.1919 7.40177 12.2413 8.29439 13.1794L8.32096 13.2178L8.36305 13.2488L8.38962 13.2798L8.42063 13.3064C9.36211 14.2016 10.4141 14.9729 11.5509 15.6017C12.8503 16.309 13.6388 16.6434 14.112 16.7822V16.7896C14.2508 16.8317 14.3771 16.8509 14.5041 16.8509C14.9074 16.8213 15.2892 16.6576 15.5886 16.3857C15.9533 16.0614 16.2626 15.6796 16.5041 15.2554V15.248C16.7307 14.8213 16.6539 14.4175 16.3269 14.1443C15.6719 13.5718 14.9636 13.0632 14.2117 12.6257C13.7082 12.3525 13.1966 12.5179 12.9891 12.7947L12.5469 13.3521C12.3202 13.629 11.9083 13.5906 11.9083 13.5906L11.8965 13.598C8.82447 12.8132 8.00498 9.70281 8.00498 9.70281C8.00498 9.70281 7.96659 9.27978 8.25083 9.0642L8.80454 8.61828C9.06958 8.4027 9.25415 7.89181 8.96991 7.38756C8.53536 6.63463 8.02794 5.92617 7.45496 5.27239C7.3297 5.11825 7.15396 5.01339 6.95884 4.97633L6.96031 4.97781Z" fill="#1D1D1B"/>
<path d="M12.1517 3.62577C11.841 3.62577 11.5892 3.87761 11.5892 4.18827C11.5892 4.49893 11.841 4.75077 12.1517 4.75077C13.5742 4.75077 14.7562 5.21576 15.69 6.10612C16.1708 6.59369 16.5449 7.17081 16.7906 7.80238C17.0372 8.43632 17.1494 9.1123 17.1206 9.78938C17.1074 10.0998 17.3483 10.3621 17.6587 10.3753C17.9691 10.3885 18.2314 10.1476 18.2446 9.83717C18.28 9.00418 18.1419 8.17308 17.8391 7.39452C17.5362 6.616 17.0753 5.90657 16.4846 5.30931L16.4733 5.2985C15.3146 4.19034 13.8458 3.62577 12.1517 3.62577Z" fill="#1D1D1B"/>
<path d="M12.1134 5.47564C11.8027 5.47564 11.5509 5.72748 11.5509 6.03814C11.5509 6.3488 11.8027 6.60064 12.1134 6.60064H12.1317C13.1582 6.67298 13.9052 7.01514 14.4288 7.57678C14.9648 8.15521 15.2426 8.87368 15.222 9.76261C15.2148 10.0732 15.4607 10.3308 15.7713 10.338C16.0819 10.3452 16.3395 10.0992 16.3467 9.78865C16.3737 8.62147 15.9984 7.61501 15.2533 6.81138L15.2523 6.81033C14.4911 5.99348 13.4468 5.56135 12.1887 5.47691L12.1699 5.47564H12.1134Z" fill="#1D1D1B"/>
<path d="M12.0921 7.35929C11.7819 7.34296 11.5171 7.58121 11.5008 7.89144C11.4845 8.20167 11.7227 8.4664 12.0329 8.48273C12.5039 8.50753 12.8041 8.64879 12.9929 8.83941C13.1825 9.03085 13.3244 9.33738 13.3502 9.81802C13.3669 10.1282 13.6319 10.3662 13.9421 10.3495C14.2523 10.3328 14.4903 10.0678 14.4736 9.7576C14.4373 9.08258 14.226 8.48579 13.7923 8.04779C13.3577 7.60898 12.7643 7.39467 12.0921 7.35929Z" fill="#1D1D1B"/>
<path fill-rule="evenodd" clip-rule="evenodd" d="M5.95007 0.682186C9.52994 -0.11802 13.2423 -0.11802 16.8222 0.682186L17.2036 0.767442C19.3375 1.24443 21.0217 2.8811 21.5595 5.00046C22.4682 8.58116 22.4682 12.3321 21.5595 15.9128C21.0217 18.0322 19.3375 19.6688 17.2036 20.1458L16.8222 20.2311C14.5735 20.7337 12.2725 20.9206 9.98497 20.7918L7.00011 23.4625C6.77091 23.6676 6.44829 23.7317 6.1581 23.6299C5.8679 23.528 5.65611 23.2763 5.60533 22.973L5.11166 20.024C3.19648 19.4289 1.71158 17.8784 1.21276 15.9128C0.304079 12.3321 0.304079 8.58116 1.21276 5.00046C1.7506 2.8811 3.43478 1.24443 5.56866 0.767441L5.95007 0.682186ZM16.4541 2.32904C13.1166 1.58303 9.65564 1.58303 6.31819 2.32904L5.93678 2.4143C4.42385 2.75249 3.22974 3.9129 2.84842 5.41555C2.00886 8.72384 2.00886 12.1894 2.84842 15.4977C3.22974 17.0004 4.42385 18.1608 5.93678 18.499L6.03754 18.5215C6.37266 18.5964 6.62895 18.8669 6.68565 19.2056L7.01671 21.1833L9.12312 19.2986C9.2932 19.1464 9.51767 19.0696 9.74532 19.0857C11.988 19.2445 14.248 19.0774 16.4541 18.5842L16.8355 18.499C18.3484 18.1608 19.5425 17.0004 19.9238 15.4977C20.7634 12.1894 20.7634 8.72384 19.9238 5.41555C19.5425 3.9129 18.3484 2.75249 16.8355 2.4143L16.4541 2.32904Z" fill="#1D1D1B"/>
</svg>
