<svg width="46" height="44" viewBox="0 0 46 44" fill="none" xmlns="http://www.w3.org/2000/svg">
<circle opacity="0.5" cx="20" cy="20" r="20" fill="#009FE3"/>
<path d="M36.4303 13.9349C36.6362 13.505 36.8669 13.1173 36.943 13.0735C37.3182 12.857 37.8563 13.1476 37.8563 13.5666C37.8563 14.0526 36.7671 16.0076 35.9693 16.9537C35.6553 17.3261 35.6537 17.3314 35.6531 18.0429C35.6496 21.7253 34.167 24.1682 31.0546 25.6203C29.5728 26.3116 27.9855 26.6249 25.9401 26.6298C23.3024 26.6363 21.311 26.1956 18.9711 25.0878C17.8196 24.5426 16.7967 23.8993 16.5933 23.5923C16.4897 23.4359 16.4394 23.1639 16.416 22.6342L16.3832 21.8946L15.7549 22.013C15.4037 22.0792 15.021 22.1061 14.887 22.0739C14.21 21.9111 12.1515 19.1704 11.579 17.6696C11.3374 17.0364 11.3902 16.1052 11.7017 15.5032C11.9836 14.9585 12.5103 14.435 13.0699 14.1435C13.4671 13.9366 13.5806 13.9167 14.3619 13.9167H15.2185L16.2492 14.4625C17.4152 15.0799 17.5815 15.2693 17.349 15.7141C17.0988 16.1925 16.8104 16.1708 15.789 15.5966C15.0963 15.2071 14.8982 15.1331 14.4711 15.1035C14.0383 15.0736 13.9114 15.0996 13.5567 15.2904C13.3246 15.4155 13.0457 15.6538 12.9173 15.8371C12.7203 16.1182 12.6896 16.2394 12.6896 16.7345C12.6896 17.2781 12.7117 17.3454 13.1285 18.0727C13.6165 18.9243 14.3298 19.9277 14.8659 20.5172L15.2185 20.9048L15.8644 20.7707C16.6325 20.6113 16.9716 20.6777 17.3429 21.0608C17.5734 21.2985 17.5855 21.347 17.6116 22.1375L17.6391 22.9654L18.1827 23.2941C19.6132 24.1592 21.243 24.7999 22.871 25.1371C24.1171 25.3952 26.3177 25.4897 27.54 25.3375C31.173 24.8853 33.5765 23.0324 34.2114 20.1946C34.3506 19.5725 34.4669 18.6369 34.405 18.6369C34.3824 18.6369 34.2044 18.7698 34.0095 18.9323C32.9601 19.8067 31.2392 20.7381 29.8004 21.2102C28.2893 21.7061 27.5473 21.8157 25.7012 21.8157C23.8506 21.8157 23.089 21.7025 21.5408 21.1978C20.6237 20.8987 20.2674 20.6194 20.3559 20.2687C20.4929 19.7257 20.7871 19.6569 21.6693 19.9615C22.4937 20.2462 23.4384 20.4703 24.2736 20.5795C25.2477 20.7067 27.0637 20.6282 28.0832 20.4147C29.9703 20.0194 31.7213 19.1918 33.2676 17.9645C33.548 17.7419 33.7774 17.536 33.7774 17.5068C33.7774 17.4777 32.8779 17.1896 31.7783 16.8665L29.7792 16.2791L28.9027 16.3137C28.1961 16.3416 27.868 16.3995 27.2104 16.6126L26.3946 16.8769L25.9593 17.4772C25.4328 18.2033 25.2312 18.3452 24.7257 18.3452C24.3894 18.3452 24.2485 18.2835 23.6136 17.8581L22.8868 17.3709L21.9079 17.3203C20.3384 17.2392 18.8614 16.9342 18.6402 16.6457C18.3551 16.2737 18.6386 15.7313 19.117 15.7332C19.2611 15.7338 19.7277 15.8069 20.1539 15.8955C20.5802 15.9843 21.3511 16.0765 21.8671 16.1005C23.2117 16.163 23.2665 16.1775 24.0086 16.6688L24.6811 17.114L24.8444 16.9167C24.9343 16.8083 25.1617 16.518 25.3497 16.2717C25.6849 15.8328 25.709 15.8185 26.5734 15.5431C27.8239 15.1447 28.3324 15.0636 29.345 15.101C30.1716 15.1316 30.3752 15.1774 32.4906 15.8075C34.4041 16.3776 34.7723 16.465 34.8817 16.3751C35.1326 16.1692 36.0605 14.707 36.4303 13.9349Z" fill="#1D1D1B"/>
<path d="M23.417 15.006C22.8715 15.006 22.6299 14.2983 23.061 13.9629C23.3061 13.7722 23.4348 13.7569 23.6876 13.8885C23.9297 14.0145 23.9854 14.1136 23.9869 14.421C23.9884 14.7524 23.7414 15.006 23.417 15.006Z" fill="#1D1D1B"/>
<path d="M36.3879 22.6336C36.3879 22.4343 36.4462 22.3148 36.6029 22.193C36.849 22.0014 36.9519 21.9892 37.2366 22.1175C37.5226 22.2464 37.6423 22.6204 37.4905 22.9107C37.1969 23.4724 36.3879 23.269 36.3879 22.6336Z" fill="#1D1D1B"/>
<path d="M14.4342 26.0551C14.0553 25.8545 14.0774 25.2139 14.4697 25.0263C14.7389 24.8976 14.8899 24.914 15.1259 25.0977C15.7027 25.5464 15.086 26.4001 14.4342 26.0551Z" fill="#1D1D1B"/>
<path d="M34.8379 25.9057C34.8379 25.7157 35.0707 25.4137 35.2745 25.3392C35.4965 25.2579 35.878 25.3873 35.9817 25.579C36.2116 26.0039 35.9383 26.4634 35.4557 26.4634C35.1597 26.4634 34.8379 26.1729 34.8379 25.9057Z" fill="#1D1D1B"/>
<path d="M13.3014 29.2068C13.0585 28.9665 13.0838 28.5347 13.3532 28.3251L13.5682 28.1579H25.4565H37.3448L37.5598 28.3251C37.8291 28.5347 37.8545 28.9665 37.6116 29.2068C37.4499 29.3667 37.3397 29.3682 25.4565 29.3682C13.5733 29.3682 13.4631 29.3667 13.3014 29.2068Z" fill="#1D1D1B"/>
<path d="M13.31 33.5312C13.0679 33.3145 13.0733 32.8111 13.3196 32.6406C13.4808 32.5289 14.4205 32.5149 21.7977 32.5149H30.0946L30.2636 32.7275C30.4579 32.9718 30.4698 33.0725 30.3377 33.3591C30.2775 33.4899 30.1357 33.596 29.9502 33.6491C29.7542 33.7052 26.9893 33.725 21.5697 33.7088C13.7489 33.6857 13.476 33.6798 13.31 33.5312Z" fill="#1D1D1B"/>
<path d="M31.9755 33.4944C31.7733 33.2475 31.7766 32.8802 31.9827 32.6763C32.1391 32.5216 32.2546 32.5149 34.7789 32.5149C37.7635 32.5149 37.7747 32.517 37.7747 33.0718C37.7747 33.2801 37.72 33.4264 37.603 33.5312C37.4416 33.6757 37.2728 33.6849 34.7814 33.6849H32.1314L31.9755 33.4944Z" fill="#1D1D1B"/>
<path d="M16.3486 41.032C15.9756 40.853 15.6082 40.6625 15.2469 40.4608M23.4503 42.9399C23.0378 42.9078 22.6264 42.863 22.2167 42.8054M25.9189 42.9789C25.5056 42.9979 25.0918 43.0041 24.6781 42.9974M28.3526 42.717C27.9447 42.7864 27.5348 42.843 27.1233 42.887M30.751 42.1553C30.3547 42.2743 29.9548 42.3809 29.5519 42.4751M33.0621 41.3031C32.6835 41.4699 32.2997 41.6248 31.9115 41.7678M36.2671 39.5243C35.9252 39.7574 35.5762 39.9798 35.2206 40.1913M39.0245 37.2588C38.7295 37.549 38.4256 37.8299 38.1132 38.1012M41.9901 33.5516C41.7718 33.9031 41.5427 34.2477 41.303 34.585M43.3387 15.0192C43.5038 15.3986 43.6571 15.783 43.7983 16.1719M43.7632 16.076C43.9065 16.4642 44.0376 16.8567 44.1565 17.253M44.104 17.0808C44.2264 17.476 44.3366 17.8749 44.4343 18.277M44.3487 17.9378C44.4535 18.338 44.5457 18.7415 44.6254 19.1475M44.5281 18.6811C44.6175 19.0851 44.6943 19.4918 44.7584 19.9006M42.8794 14.0374C43.0648 14.4073 43.2387 14.7829 43.4008 15.1635M42.32 12.9992C42.5269 13.3575 42.7227 13.7221 42.9069 14.0926M41.7006 11.9959C41.9282 12.3414 42.1451 12.6939 42.3509 13.0528M41.0877 11.1178C41.3335 11.4506 41.5689 11.791 41.7936 12.1384M40.4567 10.3079C40.7193 10.6277 40.9719 10.9555 41.2141 11.291M39.7433 9.48574C40.0229 9.79074 40.2929 10.1044 40.5531 10.4261M38.9397 8.65833C39.2364 8.94672 39.5241 9.24424 39.8024 9.55047M35.9919 6.29138C36.3376 6.51878 36.6761 6.75685 37.007 7.00525M36.8539 6.89143C37.1871 7.13666 37.5127 7.39217 37.8301 7.6576M37.8174 7.64704C38.1351 7.91221 38.4444 8.18717 38.7449 8.47152M38.5126 8.2552C38.8177 8.53474 39.1139 8.82369 39.4011 9.12162M35.1666 5.77676C35.5229 5.98709 35.8726 6.20842 36.2152 6.44044M34.178 5.23026C34.5457 5.42014 34.9073 5.62137 35.2624 5.83368M33.2006 4.75855C33.578 4.9282 33.95 5.10952 34.3161 5.30226M32.2587 4.36372C32.6443 4.51388 33.0251 4.67598 33.4005 4.84977M31.1937 3.9832C31.5871 4.11134 31.9764 4.25165 32.3611 4.40394M30.1046 3.66239C30.5046 3.76799 30.9013 3.88598 31.294 4.01619M28.9975 3.40356C29.4029 3.48626 29.8056 3.58152 30.2051 3.6892M26.5935 3.06358C27.0059 3.09655 27.4172 3.1423 27.8268 3.20078M24.1284 3.019C24.5418 3.00097 24.9556 2.99577 25.3693 3.00341M21.6658 3.27989C22.0737 3.21091 22.4837 3.15461 22.8952 3.11106M19.3058 3.82774C19.7024 3.70994 20.1026 3.60447 20.5058 3.5115M18.1554 4.20768C18.5442 4.06608 18.9372 3.93658 19.334 3.81936M10.9008 8.8151C11.1942 8.52341 11.4967 8.24091 11.8076 7.96798M10.1606 9.59131C10.438 9.28432 10.7249 8.986 11.0208 8.6968M9.64991 10.1791C9.91515 9.86156 10.1902 9.55231 10.4746 9.25181M8.96047 11.0529C9.20764 10.7211 9.46503 10.397 9.7323 10.0811M8.27842 12.0278C8.50541 11.6819 8.74309 11.3431 8.9911 11.0119M6.61725 15.1213C6.78024 14.741 6.955 14.3658 7.14127 13.9964M5.55892 18.3048C5.65606 17.9026 5.76565 17.5036 5.88754 17.1082M5.34164 19.3191C5.41779 18.9124 5.50654 18.5082 5.60777 18.107M5.16296 20.4521C5.21567 20.0417 5.2811 19.6331 5.35916 19.2267M5.05088 21.5743C5.08038 21.1616 5.12267 20.7499 5.17771 20.3398M5.0019 22.7244C5.0076 22.3106 5.02614 21.8972 5.05749 21.4846M5.01518 23.7792C4.99906 23.3657 4.99578 22.9519 5.00533 22.5382M5.08542 24.8465C5.04722 24.4345 5.02182 24.0215 5.00924 23.6079M5.19696 25.7999C5.13904 25.3903 5.09384 24.9789 5.06143 24.5664M5.34608 26.7045C5.26944 26.2979 5.20544 25.889 5.15416 25.4785M5.59418 27.8388C5.49408 27.4374 5.40645 27.0329 5.33144 26.626M5.89172 28.9054C5.76955 28.5101 5.65968 28.1111 5.56226 27.709M6.25981 29.9861C6.11528 29.5984 5.98282 29.2063 5.86262 28.8104M6.72373 31.1227C6.55569 30.7446 6.39942 30.3614 6.25515 29.9736M7.53761 32.7501C7.3359 32.3889 7.14545 32.0214 6.96654 31.6484M7.00924 31.7369C6.82849 31.3647 6.65934 30.9869 6.50202 30.6043M8.01511 33.56C7.79665 33.2086 7.58914 32.8505 7.39289 32.4863M9.21182 35.2774C8.95783 34.9507 8.71403 34.6163 8.48078 34.2746M8.61098 34.463C8.37384 34.1239 8.14727 33.7776 7.93161 33.4245M9.93672 36.1567C9.66453 35.845 9.40209 35.525 9.14975 35.1971M10.7274 37.0105C10.4376 36.7152 10.157 36.411 9.88598 36.0983M11.5943 37.8421C11.2873 37.5648 10.9889 37.278 10.6996 36.9821M12.524 38.6317C12.2006 38.3736 11.8853 38.1055 11.5785 37.8278M13.3436 39.252C13.0074 39.0109 12.6787 38.7593 12.3581 38.4978M14.1796 39.8202C13.8316 39.5963 13.4907 39.3617 13.1572 39.1167M6.20754 16.1558C6.34913 15.767 6.50275 15.3827 6.66818 15.0035M5.82723 17.3075C5.94499 16.9108 6.07504 16.5179 6.21718 16.1294M7.11339 14.0519C7.2985 13.6818 7.49506 13.3176 7.70277 12.9598M7.65452 13.0434C7.86051 12.6845 8.07758 12.3322 8.30542 11.9868M17.2532 4.56125C17.6347 4.40099 18.021 4.2526 18.4117 4.1163M16.3672 4.9591C16.7404 4.7805 17.1191 4.61353 17.5027 4.45843M15.4938 5.40364C15.8578 5.20698 16.2279 5.02166 16.6034 4.84795M14.4928 5.98239C14.8449 5.76502 15.2036 5.55862 15.5685 5.3635M13.6012 6.56628C13.9412 6.33046 14.2884 6.10525 14.6423 5.89097M12.6526 7.26654C12.9781 7.01109 13.3114 6.76581 13.6521 6.53105M11.7269 8.03922C12.0364 7.76463 12.3544 7.49971 12.6803 7.24484M42.5797 32.5369C42.3824 32.9006 42.1739 33.2581 41.9544 33.6088M42.8804 31.9605C42.6951 32.3304 42.4983 32.6944 42.2903 33.0521M43.351 30.9524C43.1865 31.332 43.0102 31.7065 42.8225 32.0752M43.762 29.9274C43.6186 30.3156 43.4633 30.6992 43.2962 31.0777M44.0963 28.9442C43.9733 29.3392 43.8381 29.7304 43.6908 30.1171M44.3619 28.0118C44.2582 28.4123 44.1421 28.8096 44.0138 29.2029M44.591 27.0239C44.5078 27.4291 44.412 27.8318 44.3038 28.2311M44.7866 25.9138C44.7263 26.3231 44.6534 26.7305 44.5678 27.1353M44.8944 25.0521C44.852 25.4637 44.7968 25.8738 44.7289 26.282M44.9721 24.0552C44.9503 24.4684 44.9157 24.8808 44.8683 25.2918M44.9999 22.9501C45.001 23.3638 44.9892 23.7775 44.9645 24.1905M44.969 21.8869C44.992 22.3001 45.0022 22.7138 44.9996 23.1275M44.8782 20.7958C44.9238 21.207 44.9566 21.6196 44.9766 22.0328M44.7189 19.6583C44.788 20.0662 44.8444 20.4762 44.8881 20.8877M40.6495 35.4536C40.3919 35.7774 40.1242 36.0931 39.847 36.4002M41.3295 34.5477C41.0906 34.8855 40.8412 35.2158 40.5818 35.5382M39.8633 36.3821C39.5865 36.6896 39.3001 36.9885 39.0048 37.2782M37.263 38.7993C36.9362 39.053 36.6015 39.2965 36.2595 39.5294M38.1876 38.0362C37.8765 38.309 37.557 38.5721 37.2297 38.8252M35.2383 40.1807C34.8829 40.3925 34.521 40.5933 34.1531 40.7826M21.0032 42.5966C20.5978 42.5139 20.195 42.4186 19.7955 42.311M18.6407 41.962C18.2484 41.8305 17.8603 41.6868 17.4769 41.5311" stroke="#1D1D1B" stroke-width="1.11111"/>
</svg>
