<svg width="83" height="79" viewBox="0 0 83 79" fill="none" xmlns="http://www.w3.org/2000/svg">
<circle opacity="0.5" cx="36.5" cy="36" r="36" fill="#009FE3"/>
<path d="M66.0769 25.6829C66.4476 24.9091 66.8628 24.2112 66.9998 24.1324C67.6751 23.7427 68.6437 24.2657 68.6437 25.0199C68.6437 25.8946 66.6831 29.4137 65.2471 31.1166C64.6818 31.787 64.679 31.7966 64.6778 33.0773C64.6717 39.7055 62.003 44.1028 56.4006 46.7165C53.7334 47.9609 50.8762 48.5248 47.1945 48.5337C42.4467 48.5453 38.8622 47.752 34.6502 45.7581C32.5776 44.7767 30.7364 43.6188 30.3703 43.0661C30.1838 42.7847 30.0932 42.2951 30.0511 41.3416L29.9922 40.0102L28.8612 40.2234C28.2289 40.3425 27.5401 40.3909 27.299 40.333C26.0804 40.04 22.375 35.1068 21.3445 32.4053C20.9097 31.2655 21.0047 29.5894 21.5653 28.5057C22.0728 27.5254 23.021 26.5831 24.0281 26.0583C24.7431 25.6859 24.9474 25.6501 26.3538 25.6501H27.8956L29.7509 26.6324C31.8497 27.7438 32.1491 28.0847 31.7305 28.8853C31.2801 29.7466 30.761 29.7075 28.9225 28.6739C27.6756 27.9728 27.3191 27.8395 26.5504 27.7863C25.7713 27.7325 25.5429 27.7792 24.9045 28.1227C24.4866 28.3478 23.9847 28.7768 23.7535 29.1068C23.3989 29.6128 23.3436 29.831 23.3436 30.7221C23.3436 31.7006 23.3834 31.8217 24.1337 33.1309C25.0121 34.6637 26.2959 36.4698 27.261 37.5309L27.8956 38.2286L29.0583 37.9873C30.4409 37.7003 31.0512 37.8199 31.7196 38.5094C32.1344 38.9372 32.1562 39.0247 32.2033 40.4475L32.2526 41.9377L33.2312 42.5294C35.8062 44.0866 38.7397 45.2397 41.6701 45.8468C43.9132 46.3114 47.8742 46.4815 50.0743 46.2076C56.6138 45.3935 60.94 42.0584 62.0829 36.9503C62.3334 35.8305 62.5428 34.1464 62.4313 34.1464C62.3907 34.1464 62.0703 34.3856 61.7195 34.6781C59.8305 36.2521 56.7329 37.9286 54.1431 38.7784C51.423 39.671 50.0875 39.8682 46.7645 39.8682C43.4335 39.8682 42.0626 39.6646 39.2757 38.756C37.6249 38.2177 36.9837 37.7149 37.143 37.0837C37.3895 36.1063 37.9191 35.9824 39.5071 36.5307C40.9911 37.0431 42.6915 37.4465 44.1948 37.643C45.9483 37.8721 49.2171 37.7308 51.0521 37.3465C54.4488 36.635 57.6007 35.1453 60.3839 32.9361C60.8888 32.5354 61.3017 32.1648 61.3017 32.1123C61.3017 32.0599 59.6825 31.5413 57.7032 30.9597L54.1049 29.9024L52.5271 29.9646C51.2553 30.0148 50.6648 30.1191 49.4811 30.5027L48.0127 30.9785L47.2291 32.0589C46.2814 33.366 45.9185 33.6213 45.0086 33.6213C44.4032 33.6213 44.1496 33.5102 43.0069 32.7445L41.6986 31.8676L39.9365 31.7765C37.1114 31.6306 34.4529 31.0816 34.0547 30.5622C33.5416 29.8927 34.0519 28.9163 34.9129 28.9198C35.1723 28.9208 36.0122 29.0524 36.7794 29.212C37.5467 29.3717 38.9343 29.5377 39.8631 29.5809C42.2834 29.6934 42.3821 29.7196 43.7179 30.6039L44.9283 31.4052L45.2223 31.0501C45.3841 30.8549 45.7933 30.3325 46.1318 29.8891C46.7352 29.099 46.7785 29.0733 48.3344 28.5776C50.5853 27.8604 51.5007 27.7144 53.3233 27.7818C54.8112 27.8369 55.1777 27.9192 58.9854 29.0535C62.4297 30.0798 63.0924 30.237 63.2895 30.0753C63.741 29.7046 65.4113 27.0727 66.0769 25.6829Z" fill="#1D1D1B"/>
<path d="M42.653 27.6107C41.6711 27.6107 41.2362 26.3369 42.0121 25.7333C42.4533 25.39 42.685 25.3624 43.1399 25.5992C43.5758 25.8261 43.6761 26.0044 43.6787 26.5578C43.6815 27.1543 43.2369 27.6107 42.653 27.6107Z" fill="#1D1D1B"/>
<path d="M66.0006 41.3405C66.0006 40.9817 66.1056 40.7666 66.3875 40.5473C66.8305 40.2025 67.0157 40.1806 67.5282 40.4115C68.043 40.6435 68.2585 41.3166 67.9853 41.8393C67.4568 42.8503 66.0006 42.4842 66.0006 41.3405Z" fill="#1D1D1B"/>
<path d="M26.4839 47.4992C25.802 47.1381 25.8416 45.9851 26.5478 45.6474C27.0323 45.4156 27.3041 45.4452 27.7289 45.7758C28.7673 46.5836 27.6571 48.1202 26.4839 47.4992Z" fill="#1D1D1B"/>
<path d="M63.2106 47.2303C63.2106 46.8883 63.6295 46.3447 63.9965 46.2105C64.3961 46.0642 65.0827 46.2972 65.2695 46.6423C65.6833 47.4069 65.1912 48.2342 64.3226 48.2342C63.7898 48.2342 63.2106 47.7112 63.2106 47.2303Z" fill="#1D1D1B"/>
<path d="M24.4449 53.1722C24.0076 52.7397 24.0532 51.9624 24.5381 51.5852L24.925 51.2842H46.324H67.723L68.1099 51.5852C68.5948 51.9624 68.6405 52.7397 68.2032 53.1722C67.9121 53.4601 67.7138 53.4627 46.324 53.4627C24.9343 53.4627 24.7359 53.4601 24.4449 53.1722Z" fill="#1D1D1B"/>
<path d="M24.4603 60.9561C24.0246 60.5662 24.0343 59.66 24.4776 59.353C24.7678 59.152 26.4592 59.1269 39.7383 59.1269H54.6726L54.9769 59.5096C55.3266 59.9492 55.3479 60.1305 55.1102 60.6463C55.0018 60.8818 54.7466 61.0727 54.4127 61.1685C54.06 61.2694 49.083 61.305 39.3278 61.2759C25.2504 61.2342 24.7591 61.2236 24.4603 60.9561Z" fill="#1D1D1B"/>
<path d="M58.0583 60.8899C57.6943 60.4455 57.7001 59.7844 58.0712 59.4173C58.3527 59.1389 58.5606 59.1269 63.1045 59.1269C68.4766 59.1269 68.4969 59.1307 68.4969 60.1293C68.4969 60.5041 68.3983 60.7676 68.1878 60.9561C67.8972 61.2162 67.5933 61.2328 63.1089 61.2328H58.3389L58.0583 60.8899Z" fill="#1D1D1B"/>
<path d="M29.9275 74.4576C29.256 74.1355 28.5947 73.7925 27.9445 73.4293M42.7106 77.8918C41.9681 77.8341 41.2275 77.7533 40.49 77.6497M47.154 77.962C46.4101 77.9962 45.6652 78.0073 44.9205 77.9953M51.5347 77.4906C50.8005 77.6154 50.0626 77.7175 49.322 77.7965M55.8518 76.4796C55.1385 76.6937 54.4187 76.8857 53.6935 77.0552M60.0118 74.9455C59.3303 75.2457 58.6395 75.5247 57.9406 75.7821M65.7807 71.7438C65.1654 72.1633 64.5372 72.5637 63.897 72.9443M70.7441 67.6659C70.2131 68.1881 69.666 68.6938 69.1037 69.1821M76.0822 60.9929C75.6893 61.6256 75.2768 62.2459 74.8454 62.853M78.5096 27.6345C78.8068 28.3174 79.0827 29.0094 79.337 29.7094M79.2738 29.5368C79.5316 30.2355 79.7677 30.9421 79.9817 31.6554M79.8872 31.3454C80.1076 32.0567 80.3059 32.7748 80.4818 33.4985M80.3277 32.888C80.5162 33.6085 80.6823 34.3347 80.8258 35.0655M80.6506 34.226C80.8114 34.9532 80.9497 35.6852 81.0651 36.421M77.6829 25.8674C78.0166 26.5332 78.3296 27.2091 78.6215 27.8944M76.6761 23.9985C77.0485 24.6435 77.4008 25.2999 77.7325 25.9667M75.561 22.1926C75.9708 22.8145 76.3612 23.449 76.7316 24.0951M74.4578 20.612C74.9003 21.2111 75.324 21.8238 75.7285 22.4491M73.3221 19.1543C73.7948 19.7298 74.2494 20.3199 74.6855 20.9237M72.0379 17.6743C72.5412 18.2233 73.0273 18.7878 73.4955 19.367M70.5915 16.185C71.1256 16.7041 71.6434 17.2396 72.1443 17.7908M65.2854 11.9245C65.9076 12.3338 66.517 12.7623 67.1126 13.2095M66.8369 13.0046C67.4368 13.446 68.0228 13.9059 68.5941 14.3837M68.5714 14.3647C69.1431 14.842 69.6999 15.3369 70.2409 15.8487M69.8227 15.4594C70.3718 15.9625 70.9051 16.4826 71.4219 17.0189M63.7999 10.9982C64.4413 11.3768 65.0707 11.7752 65.6874 12.1928M62.0205 10.0145C62.6822 10.3562 63.3331 10.7185 63.9724 11.1006M60.261 9.16539C60.9403 9.47076 61.61 9.79714 62.269 10.1441M58.5657 8.45469C59.2597 8.72499 59.9451 9.01676 60.621 9.32958M56.6486 7.76977C57.3567 8.00041 58.0576 8.25297 58.7501 8.52709M54.6882 7.19229C55.4083 7.38238 56.1223 7.59476 56.8293 7.82914M52.6954 6.72641C53.4252 6.87527 54.1501 7.04674 54.8692 7.24057M48.3683 6.11444C49.1106 6.17378 49.851 6.25614 50.5883 6.36141M43.9312 6.0342C44.6753 6.00174 45.4201 5.99239 46.1648 6.00614M39.4984 6.50379C40.2327 6.37963 40.9707 6.27829 41.7114 6.19991M35.2504 7.48993C35.9643 7.27789 36.6847 7.08805 37.4104 6.92069M33.1797 8.17382C33.8795 7.91894 34.587 7.68584 35.3013 7.47485M20.1214 16.4672C20.6496 15.9421 21.194 15.4336 21.7537 14.9424M18.7891 17.8644C19.2884 17.3118 19.8048 16.7748 20.3374 16.2542M17.8698 18.9224C18.3473 18.3508 18.8423 17.7942 19.3543 17.2533M16.6289 20.4952C17.0737 19.8979 17.5371 19.3146 18.0181 18.746M15.4012 22.2501C15.8097 21.6274 16.2376 21.0175 16.684 20.4214M12.411 27.8183C12.7044 27.1337 13.019 26.4585 13.3543 25.7934M10.5061 33.5487C10.6809 32.8247 10.8782 32.1064 11.0976 31.3947M10.115 35.3744C10.252 34.6424 10.4118 33.9147 10.594 33.1926M9.79332 37.4138C9.8882 36.6751 10.006 35.9395 10.1465 35.2081M9.59159 39.4337C9.64468 38.6908 9.72081 37.9498 9.81987 37.2117M9.50342 41.5038C9.51368 40.7591 9.54706 40.0149 9.60349 39.2723M9.52733 43.4025C9.49832 42.6583 9.4924 41.9134 9.5096 41.1688M9.65376 45.3237C9.585 44.5822 9.53927 43.8386 9.51663 43.0942M9.85453 47.0399C9.75026 46.3025 9.66891 45.562 9.61058 44.8195M10.1229 48.6681C9.98499 47.9362 9.86979 47.2002 9.77749 46.4612M10.5695 50.7099C10.3893 49.9873 10.2316 49.2592 10.0966 48.5268M11.1051 52.6297C10.8852 51.9182 10.6874 51.1999 10.5121 50.4761M11.7677 54.5749C11.5075 53.8771 11.2691 53.1713 11.0527 52.4587M12.6027 56.6208C12.3002 55.9402 12.019 55.2504 11.7593 54.5524M14.0677 59.5502C13.7046 58.9 13.3618 58.2386 13.0398 57.567M13.1166 57.7263C12.7913 57.0564 12.4868 56.3765 12.2036 55.6877M14.9272 61.008C14.534 60.3755 14.1605 59.731 13.8072 59.0753M17.0813 64.0992C16.6241 63.5113 16.1853 62.9093 15.7654 62.2942M15.9998 62.6334C15.5729 62.0231 15.1651 61.3997 14.7769 60.7641M18.3861 65.682C17.8962 65.121 17.4238 64.545 16.9696 63.9548M19.8094 67.2189C19.2876 66.6874 18.7825 66.1398 18.2948 65.577M21.3698 68.7158C20.8171 68.2166 20.28 67.7003 19.7593 67.1678M23.0432 70.137C22.4611 69.6724 21.8935 69.1899 21.3414 68.6901M24.5184 71.2536C23.9132 70.8195 23.3217 70.3668 22.7445 69.896M26.0233 72.2763C25.3969 71.8734 24.7832 71.4511 24.183 71.0101M11.6736 29.6804C11.9284 28.9806 12.205 28.2889 12.5027 27.6062M10.989 31.7535C11.201 31.0395 11.4351 30.3323 11.6909 29.6329M13.3041 25.8934C13.6373 25.2273 13.9911 24.5717 14.365 23.9276M14.2781 24.0781C14.6489 23.4321 15.0396 22.7979 15.4497 22.1762M31.5558 8.81025C32.2424 8.52177 32.9379 8.25467 33.641 8.00934M29.9609 9.52637C30.6327 9.2049 31.3143 8.90435 32.0048 8.62517M28.3888 10.3266C29.0441 9.97256 29.7102 9.63898 30.3861 9.32631M26.5871 11.3683C27.2208 10.977 27.8665 10.6055 28.5232 10.2543M24.9821 12.4193C25.5941 11.9948 26.2191 11.5895 26.8562 11.2037M23.2747 13.6798C23.8606 13.22 24.4606 12.7785 25.0739 12.3559M21.6084 15.0706C22.1655 14.5763 22.7379 14.0995 23.3246 13.6407M77.1435 59.1665C76.7884 59.8211 76.413 60.4646 76.018 61.0959M77.6848 58.1288C77.3511 58.7947 76.9969 59.45 76.6225 60.0939M78.5318 56.3143C78.2357 56.9976 77.9184 57.6716 77.5805 58.3353M79.2715 54.4694C79.0135 55.168 78.734 55.8585 78.4332 56.5398M79.8733 52.6995C79.6519 53.4106 79.4085 54.1147 79.1435 54.8107M80.3514 51.0212C80.1647 51.7422 79.9558 52.4573 79.7248 53.1653M80.7639 49.2429C80.614 49.9725 80.4416 50.6972 80.2468 51.416M81.1159 47.2448C81.0074 47.9816 80.8761 48.7149 80.7221 49.4435M81.31 45.6937C81.2336 46.4346 81.1342 47.1729 81.012 47.9075M81.4499 43.8994C81.4106 44.6431 81.3482 45.3855 81.2629 46.1253M81.4999 41.9101C81.5017 42.6549 81.4805 43.3995 81.4362 44.143M81.4442 39.9965C81.4857 40.7401 81.504 41.4848 81.4993 42.2296M81.2807 38.0324C81.3628 38.7726 81.4219 39.5152 81.4579 40.2591M80.9939 35.9849C81.1184 36.7192 81.22 37.4572 81.2987 38.1978M73.6691 64.4165C73.2054 64.9993 72.7236 65.5675 72.2246 66.1204M74.893 62.7858C74.463 63.3939 74.0142 63.9885 73.5473 64.5687M72.254 66.0879C71.7556 66.6413 71.2403 67.1792 70.7086 67.7007M67.5734 70.4388C66.9851 70.8954 66.3827 71.3337 65.7672 71.753M69.2376 69.0652C68.6777 69.5563 68.1027 70.0299 67.5134 70.4853M63.929 72.9253C63.2892 73.3065 62.6377 73.6679 61.9755 74.0087M38.3057 77.2738C37.576 77.125 36.8511 76.9535 36.1319 76.7597M34.0532 76.1317C33.3471 75.8949 32.6485 75.6362 31.9584 75.356" stroke="#1D1D1B" stroke-width="2"/>
</svg>
