<svg width="35" height="31" viewBox="0 0 35 31" fill="none" xmlns="http://www.w3.org/2000/svg">
<path fill-rule="evenodd" clip-rule="evenodd" d="M7.64663 18.3664C7.71958 18.3909 7.79322 18.4084 7.86679 18.4191C7.94701 18.6076 8.05067 18.8515 8.1716 19.1367C8.46672 19.8327 8.86437 20.7741 9.27484 21.7562C10.1119 23.759 10.9563 25.8236 11.1427 26.4145C11.3736 27.145 11.6176 27.6417 11.884 27.9808C12.0217 28.1561 12.181 28.3092 12.3675 28.4252C12.4613 28.4835 12.5604 28.5314 12.6639 28.567C12.6684 28.5686 12.673 28.5702 12.6775 28.5717C13.2109 28.773 13.6972 28.6891 14.0016 28.5866C14.1645 28.5317 14.2963 28.4654 14.3897 28.4117C14.4374 28.3844 14.4776 28.3588 14.5097 28.3372L14.5173 28.3321L19.2276 25.3947L24.6685 29.566C24.7488 29.6276 24.8363 29.6792 24.9291 29.7196C25.5827 30.0049 26.2157 30.1044 26.8111 30.023C27.4055 29.9418 27.8775 29.6921 28.2287 29.4111C28.5728 29.1358 28.806 28.8276 28.9512 28.5985C29.0254 28.4815 29.0811 28.3781 29.1204 28.2988C29.1401 28.259 29.156 28.2247 29.1682 28.1971L29.1839 28.1608L29.1899 28.1465L29.1923 28.1404L29.1935 28.1376L29.1945 28.135C29.2231 28.0635 29.245 27.9896 29.26 27.9141L34.2271 2.87156C34.2429 2.79147 34.2509 2.71002 34.2509 2.62837C34.2509 1.89501 33.9746 1.19767 33.3249 0.774518C32.7696 0.412855 32.151 0.397288 31.76 0.426963C31.3383 0.458974 30.9487 0.563086 30.6874 0.64628C30.5513 0.689575 30.4373 0.731348 30.3551 0.763217C30.3137 0.779234 30.2799 0.792975 30.2546 0.803455L30.2357 0.811433L2.37949 11.739L2.37588 11.7403C2.35813 11.7468 2.33534 11.7553 2.30825 11.7658C2.25431 11.7868 2.18204 11.8164 2.09762 11.8547C1.93298 11.9293 1.70201 12.0459 1.465 12.2082C1.08635 12.4675 0.215534 13.1777 0.362169 14.3498C0.47915 15.285 1.11978 15.8593 1.5101 16.1354C1.72442 16.2871 1.92803 16.3955 2.07631 16.4661C2.1451 16.4989 2.28793 16.5569 2.3499 16.5821L2.36554 16.5884L7.64663 18.3664ZM31.2106 3.11343L31.2067 3.11512C31.1928 3.12115 31.1788 3.12693 31.1648 3.13245L3.27474 14.0733C3.26017 14.079 3.2455 14.0844 3.23073 14.0896L3.21521 14.0955C3.19737 14.1024 3.16733 14.1146 3.12962 14.1317C3.10825 14.1414 3.08594 14.152 3.06319 14.1633C3.09444 14.1809 3.12435 14.1962 3.15093 14.2089C3.17645 14.221 3.19591 14.2293 3.20656 14.2337L8.44428 15.997C8.54015 16.0293 8.62952 16.0721 8.71155 16.1236L26.0062 5.99945L26.0223 5.98988C26.035 5.98245 26.0515 5.97288 26.0713 5.96166C26.1107 5.93941 26.1648 5.90979 26.2291 5.87705C26.3491 5.81596 26.5412 5.72527 26.7575 5.65841C26.9081 5.61186 27.3523 5.48071 27.8324 5.63472C28.1288 5.72977 28.4356 5.93412 28.6352 6.2803C28.7343 6.45228 28.7871 6.62504 28.8127 6.78319C28.8807 7.03233 28.8699 7.27834 28.8167 7.49073C28.7021 7.94824 28.3807 8.30511 28.0882 8.57807C27.8376 8.8121 24.5953 11.9385 21.3967 15.0248C19.8016 16.5639 18.2228 18.0878 17.0428 19.2269L16.2677 19.9752L26.0542 27.4782C26.2787 27.5586 26.4114 27.5544 26.4728 27.546C26.5459 27.536 26.6057 27.5079 26.6669 27.459C26.7353 27.4043 26.7951 27.3304 26.8398 27.2599L26.8416 27.257L31.6591 2.96869C31.5876 2.98587 31.5153 3.00633 31.4456 3.02851C31.3667 3.05363 31.3016 3.07755 31.2585 3.09428C31.2371 3.10256 31.2217 3.10884 31.2134 3.1123L31.2106 3.11343ZM17.1084 23.7699L15.156 22.273L14.6829 25.2825L17.1084 23.7699ZM13.3648 19.3027L15.3065 17.4282C16.4866 16.289 18.0656 14.765 19.6608 13.2257L21.2817 11.662L10.4149 18.0233L10.4733 18.1608C10.7694 18.8593 11.1688 19.8048 11.5815 20.7922C11.89 21.5304 12.2127 22.3077 12.5066 23.0274L12.9783 20.0267C13.0238 19.7374 13.1651 19.487 13.3648 19.3027Z" fill="#1D1D1B"/>
</svg>
