<svg width="15" height="19" viewBox="0 0 15 19" fill="none" xmlns="http://www.w3.org/2000/svg">
<path d="M5.75 0.96875C5.38756 0.96875 5.09375 1.26256 5.09375 1.625V2.28125H1.375C1.01256 2.28125 0.71875 2.57506 0.71875 2.9375C0.71875 3.29994 1.01256 3.59375 1.375 3.59375H13.625C13.9874 3.59375 14.2813 3.29994 14.2813 2.9375C14.2813 2.57506 13.9874 2.28125 13.625 2.28125H9.90625V1.625C9.90625 1.26256 9.61244 0.96875 9.25 0.96875H5.75Z" fill="#1D1D1B"/>
<path d="M5.75 8.31875C6.11244 8.31875 6.40625 8.61256 6.40625 8.975L6.40625 15.1C6.40625 15.4624 6.11244 15.7562 5.75 15.7562C5.38756 15.7562 5.09375 15.4624 5.09375 15.1L5.09375 8.975C5.09375 8.61256 5.38756 8.31875 5.75 8.31875Z" fill="#1D1D1B"/>
<path d="M9.90625 8.975C9.90625 8.61256 9.61244 8.31875 9.25 8.31875C8.88756 8.31875 8.59375 8.61256 8.59375 8.975V15.1C8.59375 15.4624 8.88756 15.7562 9.25 15.7562C9.61244 15.7562 9.90625 15.4624 9.90625 15.1V8.975Z" fill="#1D1D1B"/>
<path fill-rule="evenodd" clip-rule="evenodd" d="M2.2425 5.92753C2.27942 5.59518 2.56034 5.34375 2.89473 5.34375H12.1053C12.4397 5.34375 12.7206 5.59518 12.7575 5.92753L12.9326 7.50371C13.2501 10.3609 13.2501 13.2444 12.9326 16.1016L12.9154 16.2567C12.7894 17.3909 11.9104 18.2952 10.7803 18.4534C8.60404 18.7581 6.39595 18.7581 4.21969 18.4534C3.0896 18.2952 2.21062 17.3909 2.08461 16.2567L2.06737 16.1016C1.7499 13.2444 1.7499 10.3609 2.06737 7.50371L2.2425 5.92753ZM3.4821 6.65625L3.37184 7.64865C3.06508 10.4095 3.06508 13.1958 3.37184 15.9566L3.38908 16.1118C3.44884 16.6497 3.86571 17.0786 4.40167 17.1536C6.4572 17.4414 8.5428 17.4414 10.5983 17.1536C11.1343 17.0786 11.5511 16.6497 11.6109 16.1118L11.6282 15.9566C11.9349 13.1958 11.9349 10.4095 11.6282 7.64865L11.5179 6.65625H3.4821Z" fill="#1D1D1B"/>
</svg>
