<svg width="33" height="36" viewBox="0 0 33 36" fill="none" xmlns="http://www.w3.org/2000/svg">
<path d="M10.2745 7.33699C9.96495 7.29176 9.6492 7.3539 9.37985 7.51308H9.35688C8.73154 7.87964 8.16821 8.34294 7.68782 8.88574C7.2886 9.3473 7.07203 9.81434 7.01516 10.2639C6.98125 10.5318 7.00422 10.7998 7.08407 11.0557L7.1125 11.0732C7.56204 12.3945 8.14938 13.6654 8.86688 14.862C9.79112 16.543 10.9285 18.0977 12.2509 19.4875L12.2903 19.5443L12.3527 19.5903L12.392 19.6362L12.438 19.6756C13.8328 21.0019 15.3912 22.1446 17.0755 23.0761C19.0005 24.1239 20.1686 24.6193 20.8697 24.825V24.8359C21.0753 24.8982 21.2623 24.9267 21.4505 24.9267C22.048 24.8829 22.6136 24.6403 23.0572 24.2376C23.5975 23.7571 24.0557 23.1915 24.4134 22.5631V22.5521C24.7492 21.92 24.6355 21.3217 24.1509 20.917C23.1806 20.0688 22.1313 19.3154 21.0173 18.6671C20.2714 18.2625 19.5134 18.5075 19.2061 18.9176L18.5509 19.7434C18.2152 20.1536 17.6048 20.0967 17.6048 20.0967L17.5873 20.1076C13.0363 18.945 11.8222 14.337 11.8222 14.337C11.8222 14.337 11.7653 13.7103 12.1864 13.3909L13.0067 12.7303C13.3994 12.4109 13.6728 11.654 13.2517 10.907C12.6079 9.79153 11.8562 8.74197 11.0073 7.7734C10.8218 7.54506 10.5614 7.3897 10.2723 7.3348L10.2745 7.33699Z" fill="#1D1D1B"/>
<path d="M17.9654 5.33397C17.5052 5.33397 17.1321 5.70707 17.1321 6.16731C17.1321 6.62754 17.5052 7.00064 17.9654 7.00064C20.0729 7.00064 21.8241 7.6895 23.2074 9.00856C23.9196 9.73088 24.474 10.5859 24.8379 11.5215C25.2033 12.4607 25.3695 13.4622 25.3268 14.4652C25.3073 14.9251 25.6642 15.3137 26.124 15.3332C26.5838 15.3528 26.9724 14.9959 26.992 14.536C27.0444 13.302 26.8399 12.0707 26.3912 10.9173C25.9426 9.76394 25.2597 8.71293 24.3845 7.8281L24.3678 7.81208C22.6512 6.17037 20.4752 5.33397 17.9654 5.33397Z" fill="#1D1D1B"/>
<path d="M17.9087 8.07452C17.4485 8.07452 17.0754 8.44762 17.0754 8.90785C17.0754 9.36809 17.4485 9.74119 17.9087 9.74119H17.9359C19.4566 9.84835 20.5632 10.3553 21.339 11.1873C22.1331 12.0443 22.5446 13.1086 22.5141 14.4256C22.5034 14.8857 22.8678 15.2673 23.3279 15.278C23.788 15.2886 24.1696 14.9243 24.1803 14.4642C24.2203 12.735 23.6642 11.2439 22.5605 10.0534L22.559 10.0518C21.4313 8.84168 19.8842 8.2015 18.0203 8.07639L17.9925 8.07452H17.9087Z" fill="#1D1D1B"/>
<path d="M17.8772 10.8651C17.4176 10.8409 17.0254 11.1939 17.0012 11.6535C16.977 12.1131 17.3299 12.5053 17.7895 12.5295C18.4873 12.5662 18.9321 12.7755 19.2117 13.0579C19.4926 13.3415 19.7027 13.7956 19.741 14.5077C19.7658 14.9672 20.1583 15.3198 20.6179 15.2951C21.0775 15.2703 21.43 14.8777 21.4053 14.4182C21.3515 13.4181 21.0386 12.534 20.396 11.8851C19.7522 11.235 18.873 10.9175 17.8772 10.8651Z" fill="#1D1D1B"/>
<path fill-rule="evenodd" clip-rule="evenodd" d="M8.77788 0.973102C14.0814 -0.212388 19.5812 -0.212388 24.8847 0.973103L25.4498 1.09941C28.6111 1.80605 31.1062 4.23076 31.903 7.37055C33.2492 12.6753 33.2492 18.2323 31.903 23.537C31.1062 26.6768 28.6111 29.1015 25.4498 29.8081L24.8847 29.9344C21.5533 30.6791 18.1445 30.956 14.7555 30.7652L10.3335 34.7217C9.99395 35.0255 9.51599 35.1205 9.08607 34.9696C8.65615 34.8188 8.34238 34.4459 8.26715 33.9965L7.5358 29.6276C4.69849 28.746 2.49864 26.449 1.75965 23.537C0.413451 18.2323 0.413451 12.6753 1.75965 7.37055C2.55644 4.23076 5.05153 1.80605 8.21283 1.09941L8.77788 0.973102ZM24.3394 3.41289C19.395 2.30768 14.2676 2.30768 9.32324 3.41289L8.7582 3.5392C6.51681 4.04021 4.74777 5.75935 4.18284 7.98549C2.93905 12.8867 2.93905 18.0209 4.18284 22.9221C4.74777 25.1482 6.51681 26.8673 8.7582 27.3683L8.90747 27.4017C9.40394 27.5127 9.78364 27.9135 9.86763 28.4152L10.3581 31.3451L13.4787 28.5529C13.7307 28.3275 14.0632 28.2137 14.4005 28.2376C17.7229 28.4728 21.0711 28.2252 24.3394 27.4947L24.9044 27.3683C27.1458 26.8673 28.9148 25.1482 29.4798 22.9221C30.7236 18.0209 30.7236 12.8867 29.4798 7.98549C28.9148 5.75935 27.1458 4.04021 24.9044 3.5392L24.3394 3.41289Z" fill="#1D1D1B"/>
</svg>
