<svg width="40" height="52" viewBox="0 0 40 52" fill="none" xmlns="http://www.w3.org/2000/svg">
<path d="M15 0.625C13.9645 0.625 13.125 1.46447 13.125 2.5V4.375H2.5C1.46447 4.375 0.625 5.21447 0.625 6.25C0.625 7.28553 1.46447 8.125 2.5 8.125H37.5C38.5355 8.125 39.375 7.28553 39.375 6.25C39.375 5.21447 38.5355 4.375 37.5 4.375H26.875V2.5C26.875 1.46447 26.0355 0.625 25 0.625H15Z" fill="#1D1D1B"/>
<path d="M15 21.625C16.0355 21.625 16.875 22.4645 16.875 23.5L16.875 41C16.875 42.0355 16.0355 42.875 15 42.875C13.9645 42.875 13.125 42.0355 13.125 41L13.125 23.5C13.125 22.4645 13.9645 21.625 15 21.625Z" fill="#1D1D1B"/>
<path d="M26.875 23.5C26.875 22.4645 26.0355 21.625 25 21.625C23.9645 21.625 23.125 22.4645 23.125 23.5V41C23.125 42.0355 23.9645 42.875 25 42.875C26.0355 42.875 26.875 42.0355 26.875 41V23.5Z" fill="#1D1D1B"/>
<path fill-rule="evenodd" clip-rule="evenodd" d="M4.97856 14.7929C5.08407 13.8434 5.88669 13.125 6.84209 13.125H33.1579C34.1133 13.125 34.9159 13.8434 35.0214 14.7929L35.5218 19.2963C36.4288 27.4596 36.4288 35.6983 35.5218 43.8616L35.4725 44.3049C35.1125 47.5453 32.6011 50.1291 29.3723 50.5812C23.1544 51.4517 16.8456 51.4517 10.6277 50.5812C7.39885 50.1291 4.88749 47.5453 4.52745 44.3049L4.47819 43.8616C3.57115 35.6983 3.57115 27.4596 4.47819 19.2963L4.97856 14.7929ZM8.5203 16.875L8.20525 19.7104C7.3288 27.5985 7.3288 35.5594 8.20525 43.4475L8.25451 43.8908C8.42527 45.4276 9.61631 46.653 11.1476 46.8674C17.0206 47.6896 22.9794 47.6896 28.8524 46.8674C30.3837 46.653 31.5747 45.4276 31.7455 43.8908L31.7947 43.4475C32.6712 35.5594 32.6712 27.5985 31.7947 19.7104L31.4797 16.875H8.5203Z" fill="#1D1D1B"/>
</svg>
