<svg width="32" height="32" viewBox="0 0 32 32" fill="none" xmlns="http://www.w3.org/2000/svg">
<path d="M22.6671 7.66756C22.6671 6.74708 23.4133 6.00089 24.3338 6.00089C25.2543 6.00089 26.0005 6.74708 26.0005 7.66756C26.0005 8.58803 25.2543 9.33422 24.3338 9.33422C23.4133 9.33422 22.6671 8.58803 22.6671 7.66756Z" fill="#1D1D1B"/>
<path fill-rule="evenodd" clip-rule="evenodd" d="M16.0005 8.08422C11.6282 8.08422 8.0838 11.6286 8.0838 16.0009C8.0838 20.3731 11.6282 23.9176 16.0005 23.9176C20.3727 23.9176 23.9171 20.3731 23.9171 16.0009C23.9171 11.6286 20.3727 8.08422 16.0005 8.08422ZM10.5838 16.0009C10.5838 13.0093 13.0089 10.5842 16.0005 10.5842C18.992 10.5842 21.4171 13.0093 21.4171 16.0009C21.4171 18.9924 18.992 21.4176 16.0005 21.4176C13.0089 21.4176 10.5838 18.9924 10.5838 16.0009Z" fill="#1D1D1B"/>
<path fill-rule="evenodd" clip-rule="evenodd" d="M24.7642 0.722582C18.9866 0.0768476 13.0144 0.0768476 7.23675 0.722582C3.88332 1.09738 1.1761 3.73906 0.781844 7.10994C0.0909477 13.0171 0.0909477 18.9847 0.781844 24.8918C1.1761 28.2627 3.88332 30.9044 7.23675 31.2792C13.0144 31.9249 18.9866 31.9249 24.7642 31.2792C28.1177 30.9044 30.8249 28.2627 31.2191 24.8918C31.91 18.9847 31.91 13.0171 31.2191 7.10994C30.8249 3.73906 28.1177 1.09738 24.7642 0.722582ZM7.51443 3.20711C13.1075 2.582 18.8935 2.582 24.4865 3.20711C26.7034 3.45488 28.4792 5.20423 28.7361 7.40036C29.4044 13.1146 29.4044 18.8872 28.7361 24.6014C28.4792 26.7975 26.7034 28.5469 24.4865 28.7947C18.8935 29.4198 13.1075 29.4198 7.51443 28.7947C5.29759 28.5469 3.52178 26.7975 3.26492 24.6014C2.59659 18.8872 2.59659 13.1146 3.26492 7.40036C3.52178 5.20423 5.29759 3.45488 7.51443 3.20711Z" fill="#1D1D1B"/>
</svg>
