<svg width="23" height="24" viewBox="0 0 23 24" fill="none" xmlns="http://www.w3.org/2000/svg">
<path d="M6.96031 4.97683C6.75134 4.9463 6.53821 4.98825 6.3564 5.0957H6.34089C5.91879 5.34312 5.53854 5.65585 5.21428 6.02224C4.9448 6.3338 4.79862 6.64904 4.76023 6.95248C4.73735 7.13335 4.75285 7.31423 4.80674 7.48699L4.82594 7.4988C5.12937 8.39065 5.52583 9.24853 6.01014 10.0562C6.63401 11.1909 7.40177 12.2403 8.29439 13.1784L8.32096 13.2168L8.36305 13.2478L8.38962 13.2788L8.42063 13.3054C9.36211 14.2006 10.4141 14.972 11.5509 15.6007C12.8503 16.308 13.6388 16.6424 14.112 16.7812V16.7886C14.2508 16.8307 14.3771 16.8499 14.5041 16.8499C14.9074 16.8203 15.2892 16.6566 15.5886 16.3848C15.9533 16.0604 16.2626 15.6786 16.5041 15.2544V15.2471C16.7307 14.8203 16.6539 14.4165 16.3269 14.1433C15.6719 13.5708 14.9636 13.0623 14.2117 12.6247C13.7082 12.3515 13.1966 12.5169 12.9891 12.7938L12.5469 13.3512C12.3202 13.628 11.9083 13.5896 11.9083 13.5896L11.8965 13.597C8.82447 12.8122 8.00498 9.70183 8.00498 9.70183C8.00498 9.70183 7.96659 9.2788 8.25083 9.06322L8.80454 8.6173C9.06958 8.40172 9.25415 7.89083 8.96991 7.38658C8.53536 6.63365 8.02794 5.92519 7.45496 5.27141C7.3297 5.11728 7.15396 5.01241 6.95884 4.97536L6.96031 4.97683Z" fill="#1D1D1B"/>
<path d="M12.1517 3.6248C11.841 3.6248 11.5892 3.87664 11.5892 4.1873C11.5892 4.49796 11.841 4.7498 12.1517 4.7498C13.5742 4.7498 14.7562 5.21478 15.69 6.10514C16.1708 6.59271 16.5449 7.16984 16.7906 7.8014C17.0372 8.43534 17.1494 9.11132 17.1206 9.7884C17.1074 10.0988 17.3483 10.3611 17.6587 10.3743C17.9691 10.3875 18.2314 10.1466 18.2446 9.83619C18.28 9.0032 18.1419 8.1721 17.8391 7.39355C17.5362 6.61503 17.0753 5.90559 16.4846 5.30833L16.4733 5.29752C15.3146 4.18937 13.8458 3.6248 12.1517 3.6248Z" fill="#1D1D1B"/>
<path d="M12.1134 5.47467C11.8027 5.47467 11.5509 5.72651 11.5509 6.03717C11.5509 6.34783 11.8027 6.59967 12.1134 6.59967H12.1317C13.1582 6.672 13.9052 7.01416 14.4288 7.5758C14.9648 8.15424 15.2426 8.8727 15.222 9.76164C15.2148 10.0722 15.4607 10.3298 15.7713 10.337C16.0819 10.3442 16.3395 10.0983 16.3467 9.78767C16.3737 8.62049 15.9984 7.61403 15.2533 6.81041L15.2523 6.80935C14.4911 5.9925 13.4468 5.56038 12.1887 5.47593L12.1699 5.47467H12.1134Z" fill="#1D1D1B"/>
<path d="M12.0921 7.35831C11.7819 7.34198 11.5171 7.58024 11.5008 7.89047C11.4845 8.2007 11.7227 8.46543 12.0329 8.48176C12.5039 8.50655 12.8041 8.64781 12.9929 8.83843C13.1825 9.02987 13.3244 9.3364 13.3502 9.81704C13.3669 10.1273 13.6319 10.3652 13.9421 10.3485C14.2523 10.3318 14.4903 10.0668 14.4736 9.75663C14.4373 9.0816 14.226 8.48482 13.7923 8.04682C13.3577 7.608 12.7643 7.3937 12.0921 7.35831Z" fill="#1D1D1B"/>
<path fill-rule="evenodd" clip-rule="evenodd" d="M5.95007 0.681209C9.52994 -0.118997 13.2423 -0.118997 16.8222 0.681209L17.2036 0.766465C19.3375 1.24345 21.0217 2.88013 21.5595 4.99949C22.4682 8.58019 22.4682 12.3311 21.5595 15.9118C21.0217 18.0312 19.3375 19.6679 17.2036 20.1449L16.8222 20.2301C14.5735 20.7328 12.2725 20.9197 9.98497 20.7908L7.00011 23.4615C6.77091 23.6666 6.44829 23.7307 6.1581 23.6289C5.8679 23.527 5.65611 23.2754 5.60533 22.972L5.11166 20.023C3.19648 19.4279 1.71158 17.8775 1.21276 15.9118C0.304079 12.3311 0.304079 8.58019 1.21276 4.99949C1.7506 2.88013 3.43478 1.24345 5.56866 0.766465L5.95007 0.681209ZM16.4541 2.32807C13.1166 1.58205 9.65564 1.58205 6.31819 2.32807L5.93678 2.41332C4.42385 2.75151 3.22974 3.91193 2.84842 5.41457C2.00886 8.72286 2.00886 12.1885 2.84842 15.4968C3.22974 16.9994 4.42385 18.1598 5.93678 18.498L6.03754 18.5205C6.37266 18.5954 6.62895 18.866 6.68565 19.2046L7.01671 21.1823L9.12312 19.2976C9.2932 19.1454 9.51767 19.0686 9.74532 19.0848C11.988 19.2435 14.248 19.0764 16.4541 18.5833L16.8355 18.498C18.3484 18.1598 19.5425 16.9994 19.9238 15.4968C20.7634 12.1885 20.7634 8.72286 19.9238 5.41457C19.5425 3.91193 18.3484 2.75151 16.8355 2.41332L16.4541 2.32807Z" fill="#1D1D1B"/>
</svg>
