<svg width="23" height="23" viewBox="0 0 23 23" fill="none" xmlns="http://www.w3.org/2000/svg">
<path d="M15.9993 5.87414C15.9993 5.25282 16.503 4.74914 17.1243 4.74914C17.7456 4.74914 18.2493 5.25282 18.2493 5.87414C18.2493 6.49546 17.7456 6.99914 17.1243 6.99914C16.503 6.99914 15.9993 6.49546 15.9993 5.87414Z" fill="#1D1D1B"/>
<path fill-rule="evenodd" clip-rule="evenodd" d="M11.4993 6.15539C8.54802 6.15539 6.15554 8.54786 6.15554 11.4991C6.15554 14.4504 8.54802 16.8429 11.4993 16.8429C14.4506 16.8429 16.843 14.4504 16.843 11.4991C16.843 8.54786 14.4506 6.15539 11.4993 6.15539ZM7.84304 11.4991C7.84304 9.47984 9.48 7.84289 11.4993 7.84289C13.5186 7.84289 15.1555 9.47984 15.1555 11.4991C15.1555 13.5184 13.5186 15.1554 11.4993 15.1554C9.48 15.1554 7.84304 13.5184 7.84304 11.4991Z" fill="#1D1D1B"/>
<path fill-rule="evenodd" clip-rule="evenodd" d="M17.4148 1.18628C13.5149 0.750407 9.48368 0.750407 5.58378 1.18628C3.32022 1.43926 1.49284 3.2224 1.22672 5.49775C0.760364 9.48508 0.760364 13.5132 1.22672 17.5005C1.49284 19.7759 3.32022 21.559 5.58378 21.812C9.48368 22.2479 13.5149 22.2479 17.4148 21.812C19.6784 21.559 21.5058 19.7759 21.7719 17.5005C22.2382 13.5132 22.2382 9.48508 21.7719 5.49775C21.5058 3.2224 19.6784 1.43926 17.4148 1.18628ZM5.77122 2.86334C9.54654 2.44139 13.4521 2.44139 17.2274 2.86334C18.7238 3.03058 19.9224 4.21139 20.0958 5.69378C20.5469 9.55087 20.5469 13.4474 20.0958 17.3045C19.9224 18.7869 18.7238 19.9677 17.2274 20.1349C13.4521 20.5569 9.54655 20.5569 5.77122 20.1349C4.27485 19.9677 3.07617 18.7869 2.90279 17.3045C2.45167 13.4474 2.45167 9.55087 2.90279 5.69378C3.07617 4.21139 4.27485 3.03058 5.77122 2.86334Z" fill="#1D1D1B"/>
</svg>
