<svg xmlns="http://www.w3.org/2000/svg" width="231" height="123" fill="none" xmlns:v="https://vecta.io/nano"><mask id="A" maskUnits="userSpaceOnUse" x=".641" y="0" width="231" height="123" fill="#000"><path fill="#fff" d="M.641 0h231v123h-231z"/><path fill-rule="evenodd" d="M137.904 2.92c-1.484.639-2.27.837-2.906.731-2.554-.423-3.764-.547-4.252-.434-.298.069-1.273 1.046-2.166 2.171-1.378 1.736-1.719 2.021-2.252 1.885-1.257-.323-5.006-.988-5.714-1.014-.977-.036-6.951.351-7.78.505-.676.125-5.318 5.371-5.705 6.447-.106.297-.039 1.081.15 1.743.402 1.41-.023 1.927-1.046 1.27-.321-.205-1.071-.606-1.668-.89-1.265-.603-2.754-.54-7.143.302l-.332.064c-1.502.288-3.053-.119-4.22-1.108h0c-2.115-1.792-2.34-1.834-5.802-1.07-1.489.329-2.497.423-3.015.283-4.064-1.097-3.882-1.08-8.193-.767-5.248.382-6.957.21-8.308-.837-.884-.685-1.344-.819-3.544-1.033-1.39-.135-3.869-.58-5.509-.989-4.669-1.164-6.427-1.295-16.979-1.267-7.69.021-9.996.103-10.751.386-.545.203-1.76 1.201-2.803 2.301l-.769.811c-.685.722-1.636 1.131-2.632 1.131h0c-2.965 0-3.911.893-3.911 3.69 0 1.65.018 1.687 2.227 4.565 2.344 3.053 2.99 4.55 2.999 6.94.006 1.461-.708 2.244-2.044 2.244-.487 0-1.239.163-1.671.363-1.754.811-11.008 9.802-12.685 12.325-.533.801-.545 1.001-.195 3.18.205 1.279.298 2.533.207 2.787s-.643.689-1.226.966c-.798.379-1.258.885-1.861 2.047-3.123 6.012-3.766 7.386-3.766 8.048 0 .978 1.949 2.904 4.739 4.682 1.149.732 2.58 1.718 3.18 2.189 1.314 1.034 3.024 1.167 4.43.345 1.188-.695 1.464-.657 3.282.449h0c1.035.629 2.221.969 3.432.983l5.007.057 4.499.051c1.525.017 2.996.566 4.159 1.552h0l.105.089c1.094.928 2.482 1.437 3.917 1.437h0 .158a5.69 5.69 0 0 0 3.648-1.323h0 0a6.86 6.86 0 0 1 3.635-1.552l3.249-.363 5.526-.601c.125-.005 1.651-1.221 3.392-2.702 2.433-2.071 3.347-2.693 3.953-2.693.809 0 2.731-.248 7.164-.924 2.018-.308 2.667-.323 3.196-.075 1.534.72 5.408 3.176 6.621 4.198 1.893 1.595 2.266 1.716 3.923 1.276 1.867-.496 1.794-.515 2.468.65.574.993.931 1.176 2.617 1.343h0c.41.04.719.39.708.802l-.062 2.477-.017.687a5.37 5.37 0 0 0 1.833 4.178h0c1.043.912 1.896 1.76 1.896 1.884 0 .248.633 1.602 1.397 2.99.327.594 1.075 1.203 2.235 1.82 1.656.882 1.748.983 1.835 2.036.153 1.843-.078 2.235-1.43 2.437-1.017.151-1.54.035-3.511-.781l-.958-.397a3.54 3.54 0 0 0-2.715.003h0c-.746.311-1.749.845-2.229 1.187-.867.617-.871.635-.79 2.954l.019.55a3.83 3.83 0 0 1-1.262 2.978h0c-.728.657-1.998 2.061-2.821 3.119s-1.899 2.276-2.39 2.707c-1.628 1.43-2.491 2.455-2.491 2.96 0 .275.524 1.001 1.165 1.614.911.873 1.712 1.298 3.682 1.954 2.889.962 2.661.991 7.194-.931 1.448-.614 2.843-1.118 3.099-1.12 1.123-.008 2.247.56 2.436 1.232.291 1.028 1.002 1.587 2.011 1.577 1.88-.016 2.335-.924 1.823-3.63h0a2.16 2.16 0 0 1 .688-2.015l2.078-1.841c3.059-2.711 8.56-8.077 9.089-8.866.162-.241.426-1.015.586-1.719.344-1.509.567-1.589 4.521-1.638 2.481-.03 2.487-.028 3.48.875.546.498 1.389.996 1.873 1.106.775.177.882.315.91 1.173.034 1.043.359 1.354 1.681 1.607.463.088 1.71.884 2.771 1.767h0a7.09 7.09 0 0 0 4.44 1.641l3.065.042 4.52.062a2.83 2.83 0 0 0 1.862-.665h0c.751-.632.884-.658 1.897-.377 1.741.484 1.37.998-1.522 2.111-.718.276-2.191 1.266-3.274 2.2-1.468 1.266-2.4 1.837-3.665 2.244-.933.3-1.826.546-1.984.546-.471 0-1.25.899-1.25 1.443 0 .277.506.941 1.126 1.475.963.83 1.456 1.027 3.414 1.365 2.031.351 2.435.52 3.598 1.511 1.116.952 1.523 1.133 2.76 1.226l1.665.135c.452.055-.167 4.026-.838 5.379-.376.758-.683 1.57-.683 1.804s.755 1.085 1.679 1.891h0a5.94 5.94 0 0 0 3.909 1.467h.623c2.753 0 2.936-.036 5.222-1.042 2.115-.93 2.494-1.211 3.531-2.617h0a5.22 5.22 0 0 1 3.074-1.997l.558-.124c1.359-.3 2.732-.64 3.051-.755l2.322-.819c.997-.35 2.257-1.058 2.949-1.657h0c.75-.65 1.786-.857 2.727-.546l.12.04c2.308.762 6.031.755 7.94-.015 2.197-.885 2.394-1.118 2.394-2.83 0-1.404.061-1.542.857-1.945 1.07-.542 1.478-1.284 1.106-2.013-.265-.521-3.785-2.146-4.649-2.146-.216 0-1.955.465-3.866 1.032s-3.734 1.047-4.054 1.065c-.876.049-4.753-1.994-6.343-3.343-1.708-1.449-2.136-2.13-2.271-3.618h0c-.062-.689.309-1.346.933-1.647l.892-.431c1.387-.671 2.962-1.854 5.617-4.219 3.522-3.138 3.743-3.288 4.9-3.307 1.165-.02 1.208.007 1.115.709-.137 1.026.933 2.008 1.958 1.798 1.069-.22 1.502-.655 2.051-2.063.451-1.159.576-1.262 2.062-1.695 1.146-.335 2.01-.417 3.142-.298 1.529.16 1.586.142 2.76-.871 1.203-1.038 2.742-1.554 4.673-1.569.566-.004 1.185-.287 1.821-.83.838-.716 1.237-.848 3.065-1.01 1.156-.102 2.842-.193 3.747-.202h0a3.05 3.05 0 0 0 2.537-1.4l.224-.347c.985-1.53 1.131-1.982 1.26-3.89h0a3.07 3.07 0 0 1 2.226-2.748l.28-.079c2.806-.795 3.243-1.075 3.361-2.15.089-.808.101-.815 1.688-.802.879.007 2.709.055 4.068.107 2.307.089 4.017-.141 5.846-.784.602-.212.983-.76 1.82-2.623h0a7.62 7.62 0 0 0 .469-4.868l-.092-.391-.173-.737a5.06 5.06 0 0 1 .746-4.007h0c.689-1.012 1.256-2.021 1.258-2.244.006-.444-.937-1.289-1.956-1.753-.36-.164-.654-.4-.654-.525s.922-.819 2.048-1.542 2.128-1.497 2.225-1.719-.121-1.112-.483-1.976-.653-1.687-.647-1.828.042-.706.081-1.254c.101-1.447-.495-1.747-3.07-1.548l-.698.054a3.1 3.1 0 0 1-2.337-.81h0c-.734-.676-1.528-1.053-3.051-1.448l-4.093-1.061c-1.654-.429-2.317-.771-3.549-1.829-1.383-1.187-1.702-1.332-3.633-1.647-1.164-.19-2.922-.415-3.908-.5-1.674-.144-1.843-.108-2.58.542h0a1.2 1.2 0 0 1-1.582.005l-.549-.479c-.905-.789-1.613-1.754-2.172-2.962-.457-.985-1.008-1.922-1.227-2.082-.755-.553-6.01.352-8.55 1.474-2.772 1.225-5.749.852-8.032-1.006-1.359-1.106-1.901-1.16-4.608-.46-2.352.608-2.293.617-3.588-.526-.816-.721-1.171-1.225-1.051-1.495.863-1.932 1.034-2.683.758-3.32-.162-.373-.508-1.37-.77-2.216-.397-1.28-.778-1.809-2.263-3.142-2.013-1.806-2.035-1.811-5.542-1.174-2.103.382-2.555.389-4.107.064h0c-1.086-.227-1.98-.994-2.372-2.032h0c-.881-2.337-.86-2.512.328-2.708 1.459-.242 1.71-.636 1.473-2.312-.219-1.55-.445-1.812-2.508-2.921-1.286-.691-1.344-.775-1.536-2.223-.187-1.412-.311-1.604-1.997-3.108h0c-1.157-1.032-2.655-1.599-4.206-1.592l-2.394.011-2.589.012c-1.461.007-2.906.308-4.248.886h0zm12.422 1.611c1.422 1.197 1.488 1.314 1.614 2.851h0a3 3 0 0 0 1.538 2.382l.445.246c1.018.563 1.853 1.156 1.855 1.316s.078.536.169.833c.142.467-.018.582-1.162.836-1.821.405-1.918.926-.749 4.022.835 2.212 1.031 2.509 1.857 2.814 2.038.752 4.424.743 8.34-.031.624-.123 1.022.07 2.243 1.091 1.294 1.081 1.568 1.496 2.13 3.221.627 1.921.631 2.021.154 3.357-.27.757-.491 1.593-.491 1.859s.682 1.092 1.515 1.837c1.761 1.574 2.119 1.627 5.339.802l.571-.146c.991-.254 2.044-.004 2.815.67h0c.677.592 1.559 1.139 1.961 1.217l2.454.509c1.504.322 1.838.321 2.615-.005 2.886-1.208 4.744-1.737 8.219-2.337.928-.161.942-.148 1.979 1.844 1.979 3.8 4.577 5.368 6.261 3.777.766-.724.874-.726 4.909-.107 1.677.258 2.053.434 3.487 1.636 1.188.997 1.984 1.433 3.059 1.677.799.181 1.78.427 2.18.547s1.573.42 2.607.667c1.18.281 2.165.705 2.643 1.136 1.416 1.279 2.008 1.476 3.86 1.282s2.141-.02 1.825 1.091c-.093.327.089 1.192.405 1.926s.573 1.442.573 1.576-.98.884-2.179 1.666c-1.974 1.288-2.179 1.505-2.179 2.301 0 .61.155.923.508 1.024.28.08.886.412 1.347.739h0a1.02 1.02 0 0 1 .24 1.428l-.635.888c-.92 1.286-1.196 1.9-1.085 2.42l1.034 4.591c.213.917.123 1.326-.617 2.821-.476.962-.907 1.79-.958 1.841s-.955.297-2.007.547c-1.523.361-2.342.41-4.011.239-2.766-.283-5.486-.285-5.989-.004-.222.124-.485.668-.585 1.208-.179.974-.201.988-2.732 1.758-1.403.427-2.674.949-2.824 1.161s-.276 1.236-.279 2.276c-.004 1.639-.127 2.089-.929 3.375h0c-.579.93-1.576 1.517-2.67 1.573l-1.809.092c-3.53.18-3.562.187-4.483 1.026-.815.742-1.174.867-2.957 1.025-1.853.164-2.151.276-3.445 1.29-1.302 1.02-1.492 1.091-2.357.872-.678-.172-1.388-.124-2.552.171-3.16.801-3.414.963-3.973 2.527-.536 1.5-1.19 1.796-1.036.468.151-1.295-.587-1.702-2.8-1.545h0c-1.214.086-2.367.566-3.284 1.367l-2.544 2.221c-3.171 2.769-4.338 3.616-5.875 4.261-2.101.882-2.626 1.511-2.279 2.723.122.423.308 1.221.415 1.774.147.759.633 1.409 1.988 2.66.987.912 2.252 1.913 2.811 2.226 1.947 1.088 4.33 2.188 4.742 2.188.228 0 1.837-.416 3.575-.924l3.934-1.13c.567-.15 1.166-.044 2.252.4 1.419.58 1.94 1.141 1.059 1.141-.769 0-1.324 1.079-1.324 2.576h0a2.12 2.12 0 0 1-1.334 1.968l-.066.027c-1.825.727-4.575.746-6.881.045-2.472-.75-2.981-.68-4.494.618-1.488 1.275-4.188 2.378-7.565 3.087-3.221.677-3.378.76-4.562 2.432-.928 1.311-1.382 1.671-3.088 2.445-1.787.811-2.24.908-4.27.908-2.247 0-2.284-.011-3.457-1.006-1.338-1.135-1.41-1.444-.644-2.787.349-.613.612-1.821.739-3.389.245-3.036.051-3.349-2.177-3.524-1.344-.106-1.747-.271-2.763-1.134-1.043-.887-1.498-1.066-3.715-1.462-1.74-.311-2.726-.629-3.17-1.021-.776-.686-.575-.849 1.81-1.468 1.253-.325 2.008-.773 3.632-2.154 1.308-1.113 2.812-2.081 4.151-2.672 1.155-.51 2.324-1.228 2.598-1.597.442-.594.45-.743.079-1.312-.441-.677-2.776-1.607-4.035-1.607-.39 0-1.063.299-1.495.664-.785.663-.788.664-5.682.632l-2.78-.018c-1.366-.009-2.684-.507-3.716-1.404h0c-.879-.765-2.085-1.569-2.68-1.787-.974-.357-1.065-.471-.914-1.139.199-.88-.678-1.821-1.698-1.821-.363 0-1.181-.467-1.883-1.075h0c-.799-.692-1.825-1.062-2.882-1.04l-.761.016c-5.587.118-6.396.424-6.758 2.551-.24 1.415-2.121 3.469-8.585 9.377l-2.826 2.584c-.833.761-1.228 1.889-1.054 3.003h0c.311 1.984.139 2.576-.592 2.04-.252-.184-.458-.544-.458-.798 0-.921-2.495-1.998-4.175-1.803-.298.034-2.023.679-3.832 1.432l-1.117.465a6.33 6.33 0 0 1-4.407.169h0c-2.324-.766-3.613-1.583-3.613-2.293 0-.227.657-.985 1.461-1.683s2.072-2.079 2.82-3.068 2.063-2.454 2.924-3.256l.097-.091a4.44 4.44 0 0 0 1.412-3.371h0c-.031-1.102-.042-2.133-.026-2.291.037-.352 2.19-1.637 2.743-1.637.221 0 1.402.408 2.624.907l.79.322c.931.38 1.959.447 2.932.192h0c2.351-.616 2.564-.894 2.564-3.344 0-2.373-.024-2.406-2.544-3.595-1.444-.681-1.57-.823-2.325-2.628-.636-1.521-1.171-2.254-2.635-3.613l-.881-.818c-.595-.552-.867-1.37-.721-2.169h0c.129-.705.237-2.049.239-2.987.005-2.109-.532-2.783-2.215-2.783-1.003 0-1.169-.099-1.702-1.022-.71-1.228-1.478-1.456-3.479-1.032h0c-.921.195-1.88-.029-2.62-.611l-.509-.4c-1.729-1.36-5.745-3.841-7.085-4.376-.58-.232-1.234-.234-2.76-.01-1.1.162-3.519.458-5.375.66s-3.752.49-4.213.642-2.096 1.378-3.632 2.724l-.182.159a10.9 10.9 0 0 1-6.066 2.645h0c-7.969.822-7.436.683-9.495 2.48-.988.862-1.256.962-2.607.962-1.428 0-1.589-.071-3.112-1.378-.884-.758-2.051-1.508-2.594-1.667-.611-.179-3.381-.289-7.265-.289h-4.589a5.87 5.87 0 0 1-3.119-.898h0c-1.668-1.047-3.04-1.167-4.379-.385-.944.552-2.035.67-2.329.251-.183-.262-2.578-1.88-4.5-3.04-1.178-.712-3.487-2.834-3.487-3.205 0-.265.363-1.005 2.767-5.644 1.106-2.134 1.663-2.916 2.301-3.228.463-.226 1.107-.726 1.432-1.109.559-.661.572-.833.252-3.325-.325-2.53-.315-2.656.29-3.397 1.623-1.986 6.261-6.658 8.875-8.939 2.603-2.271 3.041-2.551 4.314-2.755 2.049-.329 3.017-1.332 3.009-3.121-.015-3.379-.373-4.332-2.877-7.658-2.129-2.828-2.347-3.233-2.347-4.363 0-1.77.638-2.272 2.886-2.272h0a4.27 4.27 0 0 0 2.965-1.197l1.02-.983h0a7.84 7.84 0 0 1 5.401-2.196l1.375-.007c2.483-.013 6.084-.099 8.002-.192 3.953-.192 10.296.216 12.495.802l3.015.799c.859.226 2.669.487 4.021.578 2.223.151 2.57.248 3.61 1.016 1.688 1.245 3.518 1.441 8.873.95l1.273-.117a14.57 14.57 0 0 1 5.118.44h0 0c1.656.446 3.395.495 5.073.143l.17-.036.35-.073a4.96 4.96 0 0 1 4.224 1.07h0c1.209 1.024 2.09 1.568 2.543 1.568.381 0 1.863-.219 3.294-.486 4.495-.841 5.171-.839 6.701.017 1.866 1.045 2.703 1.147 3.703.453.797-.553.815-.618.624-2.289h0a3.99 3.99 0 0 1 .928-3.036l1.154-1.351.387-.453c1.208-1.415 2.938-2.279 4.795-2.393h0c1.599-.098 3.198-.226 3.554-.284s1.991.164 3.633.494c4.499.904 4.298.951 6.22-1.47l.818-1.03c.519-.654 1.337-.996 2.167-.908h0a87.35 87.35 0 0 1 2.496.308c.963.137 1.537.01 3.341-.741 2.172-.904 2.195-.907 6.342-.921l2.225-.007c1.251-.004 2.463.436 3.42 1.242h0z"/></mask><path fill-rule="evenodd" d="M137.904 2.92c-1.484.639-2.27.837-2.906.731-2.554-.423-3.764-.547-4.252-.434-.298.069-1.273 1.046-2.166 2.171-1.378 1.736-1.719 2.021-2.252 1.885-1.257-.323-5.006-.988-5.714-1.014-.977-.036-6.951.351-7.78.505-.676.125-5.318 5.371-5.705 6.447-.106.297-.039 1.081.15 1.743.402 1.41-.023 1.927-1.046 1.27-.321-.205-1.071-.606-1.668-.89-1.265-.603-2.754-.54-7.143.302l-.332.064c-1.502.288-3.053-.119-4.22-1.108h0c-2.115-1.792-2.34-1.834-5.802-1.07-1.489.329-2.497.423-3.015.283-4.064-1.097-3.882-1.08-8.193-.767-5.248.382-6.957.21-8.308-.837-.884-.685-1.344-.819-3.544-1.033-1.39-.135-3.869-.58-5.509-.989-4.669-1.164-6.427-1.295-16.979-1.267-7.69.021-9.996.103-10.751.386-.545.203-1.76 1.201-2.803 2.301l-.769.811c-.685.722-1.636 1.131-2.632 1.131h0c-2.965 0-3.911.893-3.911 3.69 0 1.65.018 1.687 2.227 4.565 2.344 3.053 2.99 4.55 2.999 6.94.006 1.461-.708 2.244-2.044 2.244-.487 0-1.239.163-1.671.363-1.754.811-11.008 9.802-12.685 12.325-.533.801-.545 1.001-.195 3.18.205 1.279.298 2.533.207 2.787s-.643.689-1.226.966c-.798.379-1.258.885-1.861 2.047-3.123 6.012-3.766 7.386-3.766 8.048 0 .978 1.949 2.904 4.739 4.682 1.149.732 2.58 1.718 3.18 2.189 1.314 1.034 3.024 1.167 4.43.345 1.188-.695 1.464-.657 3.282.449h0c1.035.629 2.221.969 3.432.983l5.007.057 4.499.051c1.525.017 2.996.566 4.159 1.552h0l.105.089c1.094.928 2.482 1.437 3.917 1.437h0 .158a5.69 5.69 0 0 0 3.648-1.323h0 0a6.86 6.86 0 0 1 3.635-1.552l3.249-.363 5.526-.601c.125-.005 1.651-1.221 3.392-2.702 2.433-2.071 3.347-2.693 3.953-2.693.809 0 2.731-.248 7.164-.924 2.018-.308 2.667-.323 3.196-.075 1.534.72 5.408 3.176 6.621 4.198 1.893 1.595 2.266 1.716 3.923 1.276 1.867-.496 1.794-.515 2.468.65.574.993.931 1.176 2.617 1.343h0c.41.04.719.39.708.802l-.062 2.477-.017.687a5.37 5.37 0 0 0 1.833 4.178h0c1.043.912 1.896 1.76 1.896 1.884 0 .248.633 1.602 1.397 2.99.327.594 1.075 1.203 2.235 1.82 1.656.882 1.748.983 1.835 2.036.153 1.843-.078 2.235-1.43 2.437-1.017.151-1.54.035-3.511-.781l-.958-.397a3.54 3.54 0 0 0-2.715.003h0c-.746.311-1.749.845-2.229 1.187-.867.617-.871.635-.79 2.954l.019.55a3.83 3.83 0 0 1-1.262 2.978h0c-.728.657-1.998 2.061-2.821 3.119s-1.899 2.276-2.39 2.707c-1.628 1.43-2.491 2.455-2.491 2.96 0 .275.524 1.001 1.165 1.614.911.873 1.712 1.298 3.682 1.954 2.889.962 2.661.991 7.194-.931 1.448-.614 2.843-1.118 3.099-1.12 1.123-.008 2.247.56 2.436 1.232.291 1.028 1.002 1.587 2.011 1.577 1.88-.016 2.335-.924 1.823-3.63h0a2.16 2.16 0 0 1 .688-2.015l2.078-1.841c3.059-2.711 8.56-8.077 9.089-8.866.162-.241.426-1.015.586-1.719.344-1.509.567-1.589 4.521-1.638 2.481-.03 2.487-.028 3.48.875.546.498 1.389.996 1.873 1.106.775.177.882.315.91 1.173.034 1.043.359 1.354 1.681 1.607.463.088 1.71.884 2.771 1.767h0a7.09 7.09 0 0 0 4.44 1.641l3.065.042 4.52.062a2.83 2.83 0 0 0 1.862-.665h0c.751-.632.884-.658 1.897-.377 1.741.484 1.37.998-1.522 2.111-.718.276-2.191 1.266-3.274 2.2-1.468 1.266-2.4 1.837-3.665 2.244-.933.3-1.826.546-1.984.546-.471 0-1.25.899-1.25 1.443 0 .277.506.941 1.126 1.475.963.83 1.456 1.027 3.414 1.365 2.031.351 2.435.52 3.598 1.511 1.116.952 1.523 1.133 2.76 1.226l1.665.135c.452.055-.167 4.026-.838 5.379-.376.758-.683 1.57-.683 1.804s.755 1.085 1.679 1.891h0a5.94 5.94 0 0 0 3.909 1.467h.623c2.753 0 2.936-.036 5.222-1.042 2.115-.93 2.494-1.211 3.531-2.617h0a5.22 5.22 0 0 1 3.074-1.997l.558-.124c1.359-.3 2.732-.64 3.051-.755l2.322-.819c.997-.35 2.257-1.058 2.949-1.657h0c.75-.65 1.786-.857 2.727-.546l.12.04c2.308.762 6.031.755 7.94-.015 2.197-.885 2.394-1.118 2.394-2.83 0-1.404.061-1.542.857-1.945 1.07-.542 1.478-1.284 1.106-2.013-.265-.521-3.785-2.146-4.649-2.146-.216 0-1.955.465-3.866 1.032s-3.734 1.047-4.054 1.065c-.876.049-4.753-1.994-6.343-3.343-1.708-1.449-2.136-2.13-2.271-3.618h0c-.062-.689.309-1.346.933-1.647l.892-.431c1.387-.671 2.962-1.854 5.617-4.219 3.522-3.138 3.743-3.288 4.9-3.307 1.165-.02 1.208.007 1.115.709-.137 1.026.933 2.008 1.958 1.798 1.069-.22 1.502-.655 2.051-2.063.451-1.159.576-1.262 2.062-1.695 1.146-.335 2.01-.417 3.142-.298 1.529.16 1.586.142 2.76-.871 1.203-1.038 2.742-1.554 4.673-1.569.566-.004 1.185-.287 1.821-.83.838-.716 1.237-.848 3.065-1.01 1.156-.102 2.842-.193 3.747-.202h0a3.05 3.05 0 0 0 2.537-1.4l.224-.347c.985-1.53 1.131-1.982 1.26-3.89h0a3.07 3.07 0 0 1 2.226-2.748l.28-.079c2.806-.795 3.243-1.075 3.361-2.15.089-.808.101-.815 1.688-.802.879.007 2.709.055 4.068.107 2.307.089 4.017-.141 5.846-.784.602-.212.983-.76 1.82-2.623h0a7.62 7.62 0 0 0 .469-4.868l-.092-.391-.173-.737a5.06 5.06 0 0 1 .746-4.007h0c.689-1.012 1.256-2.021 1.258-2.244.006-.444-.937-1.289-1.956-1.753-.36-.164-.654-.4-.654-.525s.922-.819 2.048-1.542 2.128-1.497 2.225-1.719-.121-1.112-.483-1.976-.653-1.687-.647-1.828.042-.706.081-1.254c.101-1.447-.495-1.747-3.07-1.548l-.698.054a3.1 3.1 0 0 1-2.337-.81h0c-.734-.676-1.528-1.053-3.051-1.448l-4.093-1.061c-1.654-.429-2.317-.771-3.549-1.829-1.383-1.187-1.702-1.332-3.633-1.647-1.164-.19-2.922-.415-3.908-.5-1.674-.144-1.843-.108-2.58.542h0a1.2 1.2 0 0 1-1.582.005l-.549-.479c-.905-.789-1.613-1.754-2.172-2.962-.457-.985-1.008-1.922-1.227-2.082-.755-.553-6.01.352-8.55 1.474-2.772 1.225-5.749.852-8.032-1.006-1.359-1.106-1.901-1.16-4.608-.46-2.352.608-2.293.617-3.588-.526-.816-.721-1.171-1.225-1.051-1.495.863-1.932 1.034-2.683.758-3.32-.162-.373-.508-1.37-.77-2.216-.397-1.28-.778-1.809-2.263-3.142-2.013-1.806-2.035-1.811-5.542-1.174-2.103.382-2.555.389-4.107.064h0c-1.086-.227-1.98-.994-2.372-2.032h0c-.881-2.337-.86-2.512.328-2.708 1.459-.242 1.71-.636 1.473-2.312-.219-1.55-.445-1.812-2.508-2.921-1.286-.691-1.344-.775-1.536-2.223-.187-1.412-.311-1.604-1.997-3.108h0c-1.157-1.032-2.655-1.599-4.206-1.592l-2.394.011-2.589.012c-1.461.007-2.906.308-4.248.886h0zm12.422 1.611c1.422 1.197 1.488 1.314 1.614 2.851h0a3 3 0 0 0 1.538 2.382l.445.246c1.018.563 1.853 1.156 1.855 1.316s.078.536.169.833c.142.467-.018.582-1.162.836-1.821.405-1.918.926-.749 4.022.835 2.212 1.031 2.509 1.857 2.814 2.038.752 4.424.743 8.34-.031.624-.123 1.022.07 2.243 1.091 1.294 1.081 1.568 1.496 2.13 3.221.627 1.921.631 2.021.154 3.357-.27.757-.491 1.593-.491 1.859s.682 1.092 1.515 1.837c1.761 1.574 2.119 1.627 5.339.802l.571-.146c.991-.254 2.044-.004 2.815.67h0c.677.592 1.559 1.139 1.961 1.217l2.454.509c1.504.322 1.838.321 2.615-.005 2.886-1.208 4.744-1.737 8.219-2.337.928-.161.942-.148 1.979 1.844 1.979 3.8 4.577 5.368 6.261 3.777.766-.724.874-.726 4.909-.107 1.677.258 2.053.434 3.487 1.636 1.188.997 1.984 1.433 3.059 1.677.799.181 1.78.427 2.18.547s1.573.42 2.607.667c1.18.281 2.165.705 2.643 1.136 1.416 1.279 2.008 1.476 3.86 1.282s2.141-.02 1.825 1.091c-.093.327.089 1.192.405 1.926s.573 1.442.573 1.576-.98.884-2.179 1.666c-1.974 1.288-2.179 1.505-2.179 2.301 0 .61.155.923.508 1.024.28.08.886.412 1.347.739h0a1.02 1.02 0 0 1 .24 1.428l-.635.888c-.92 1.286-1.196 1.9-1.085 2.42l1.034 4.591c.213.917.123 1.326-.617 2.821-.476.962-.907 1.79-.958 1.841s-.955.297-2.007.547c-1.523.361-2.342.41-4.011.239-2.766-.283-5.486-.285-5.989-.004-.222.124-.485.668-.585 1.208-.179.974-.201.988-2.732 1.758-1.403.427-2.674.949-2.824 1.161s-.276 1.236-.279 2.276c-.004 1.639-.127 2.089-.929 3.375h0c-.579.93-1.576 1.517-2.67 1.573l-1.809.092c-3.53.18-3.562.187-4.483 1.026-.815.742-1.174.867-2.957 1.025-1.853.164-2.151.276-3.445 1.29-1.302 1.02-1.492 1.091-2.357.872-.678-.172-1.388-.124-2.552.171-3.16.801-3.414.963-3.973 2.527-.536 1.5-1.19 1.796-1.036.468.151-1.295-.587-1.702-2.8-1.545h0c-1.214.086-2.367.566-3.284 1.367l-2.544 2.221c-3.171 2.769-4.338 3.616-5.875 4.261-2.101.882-2.626 1.511-2.279 2.723.122.423.308 1.221.415 1.774.147.759.633 1.409 1.988 2.66.987.912 2.252 1.913 2.811 2.226 1.947 1.088 4.33 2.188 4.742 2.188.228 0 1.837-.416 3.575-.924l3.934-1.13c.567-.15 1.166-.044 2.252.4 1.419.58 1.94 1.141 1.059 1.141-.769 0-1.324 1.079-1.324 2.576h0a2.12 2.12 0 0 1-1.334 1.968l-.066.027c-1.825.727-4.575.746-6.881.045-2.472-.75-2.981-.68-4.494.618-1.488 1.275-4.188 2.378-7.565 3.087-3.221.677-3.378.76-4.562 2.432-.928 1.311-1.382 1.671-3.088 2.445-1.787.811-2.24.908-4.27.908-2.247 0-2.284-.011-3.457-1.006-1.338-1.135-1.41-1.444-.644-2.787.349-.613.612-1.821.739-3.389.245-3.036.051-3.349-2.177-3.524-1.344-.106-1.747-.271-2.763-1.134-1.043-.887-1.498-1.066-3.715-1.462-1.74-.311-2.726-.629-3.17-1.021-.776-.686-.575-.849 1.81-1.468 1.253-.325 2.008-.773 3.632-2.154 1.308-1.113 2.812-2.081 4.151-2.672 1.155-.51 2.324-1.228 2.598-1.597.442-.594.45-.743.079-1.312-.441-.677-2.776-1.607-4.035-1.607-.39 0-1.063.299-1.495.664-.785.663-.788.664-5.682.632l-2.78-.018c-1.366-.009-2.684-.507-3.716-1.404h0c-.879-.765-2.085-1.569-2.68-1.787-.974-.357-1.065-.471-.914-1.139.199-.88-.678-1.821-1.698-1.821-.363 0-1.181-.467-1.883-1.075h0c-.799-.692-1.825-1.062-2.882-1.04l-.761.016c-5.587.118-6.396.424-6.758 2.551-.24 1.415-2.121 3.469-8.585 9.377l-2.826 2.584c-.833.761-1.228 1.889-1.054 3.003h0c.311 1.984.139 2.576-.592 2.04-.252-.184-.458-.544-.458-.798 0-.921-2.495-1.998-4.175-1.803-.298.034-2.023.679-3.832 1.432l-1.117.465a6.33 6.33 0 0 1-4.407.169h0c-2.324-.766-3.613-1.583-3.613-2.293 0-.227.657-.985 1.461-1.683s2.072-2.079 2.82-3.068 2.063-2.454 2.924-3.256l.097-.091a4.44 4.44 0 0 0 1.412-3.371h0c-.031-1.102-.042-2.133-.026-2.291.037-.352 2.19-1.637 2.743-1.637.221 0 1.402.408 2.624.907l.79.322c.931.38 1.959.447 2.932.192h0c2.351-.616 2.564-.894 2.564-3.344 0-2.373-.024-2.406-2.544-3.595-1.444-.681-1.57-.823-2.325-2.628-.636-1.521-1.171-2.254-2.635-3.613l-.881-.818c-.595-.552-.867-1.37-.721-2.169h0c.129-.705.237-2.049.239-2.987.005-2.109-.532-2.783-2.215-2.783-1.003 0-1.169-.099-1.702-1.022-.71-1.228-1.478-1.456-3.479-1.032h0c-.921.195-1.88-.029-2.62-.611l-.509-.4c-1.729-1.36-5.745-3.841-7.085-4.376-.58-.232-1.234-.234-2.76-.01-1.1.162-3.519.458-5.375.66s-3.752.49-4.213.642-2.096 1.378-3.632 2.724l-.182.159a10.9 10.9 0 0 1-6.066 2.645h0c-7.969.822-7.436.683-9.495 2.48-.988.862-1.256.962-2.607.962-1.428 0-1.589-.071-3.112-1.378-.884-.758-2.051-1.508-2.594-1.667-.611-.179-3.381-.289-7.265-.289h-4.589a5.87 5.87 0 0 1-3.119-.898h0c-1.668-1.047-3.04-1.167-4.379-.385-.944.552-2.035.67-2.329.251-.183-.262-2.578-1.88-4.5-3.04-1.178-.712-3.487-2.834-3.487-3.205 0-.265.363-1.005 2.767-5.644 1.106-2.134 1.663-2.916 2.301-3.228.463-.226 1.107-.726 1.432-1.109.559-.661.572-.833.252-3.325-.325-2.53-.315-2.656.29-3.397 1.623-1.986 6.261-6.658 8.875-8.939 2.603-2.271 3.041-2.551 4.314-2.755 2.049-.329 3.017-1.332 3.009-3.121-.015-3.379-.373-4.332-2.877-7.658-2.129-2.828-2.347-3.233-2.347-4.363 0-1.77.638-2.272 2.886-2.272h0a4.27 4.27 0 0 0 2.965-1.197l1.02-.983h0a7.84 7.84 0 0 1 5.401-2.196l1.375-.007c2.483-.013 6.084-.099 8.002-.192 3.953-.192 10.296.216 12.495.802l3.015.799c.859.226 2.669.487 4.021.578 2.223.151 2.57.248 3.61 1.016 1.688 1.245 3.518 1.441 8.873.95l1.273-.117a14.57 14.57 0 0 1 5.118.44h0 0c1.656.446 3.395.495 5.073.143l.17-.036.35-.073a4.96 4.96 0 0 1 4.224 1.07h0c1.209 1.024 2.09 1.568 2.543 1.568.381 0 1.863-.219 3.294-.486 4.495-.841 5.171-.839 6.701.017 1.866 1.045 2.703 1.147 3.703.453.797-.553.815-.618.624-2.289h0a3.99 3.99 0 0 1 .928-3.036l1.154-1.351.387-.453c1.208-1.415 2.938-2.279 4.795-2.393h0c1.599-.098 3.198-.226 3.554-.284s1.991.164 3.633.494c4.499.904 4.298.951 6.22-1.47l.818-1.03c.519-.654 1.337-.996 2.167-.908h0a87.35 87.35 0 0 1 2.496.308c.963.137 1.537.01 3.341-.741 2.172-.904 2.195-.907 6.342-.921l2.225-.007c1.251-.004 2.463.436 3.42 1.242h0z" fill="#009fe3"/><path d="M137.904 2.92c-1.484.639-2.27.837-2.906.731-2.554-.423-3.764-.547-4.252-.434-.298.069-1.273 1.046-2.166 2.171-1.378 1.736-1.719 2.021-2.252 1.885-1.257-.323-5.006-.988-5.714-1.014-.977-.036-6.951.351-7.78.505-.676.125-5.318 5.371-5.705 6.447-.106.297-.039 1.081.15 1.743.402 1.41-.023 1.927-1.046 1.27-.321-.205-1.071-.606-1.668-.89-1.265-.603-2.754-.54-7.143.302l-.332.064c-1.502.288-3.053-.119-4.22-1.108h0c-2.115-1.792-2.34-1.834-5.802-1.07-1.489.329-2.497.423-3.015.283-4.064-1.097-3.882-1.08-8.193-.767-5.248.382-6.957.21-8.308-.837-.884-.685-1.344-.819-3.544-1.033-1.39-.135-3.869-.58-5.509-.989-4.669-1.164-6.427-1.295-16.979-1.267-7.69.021-9.996.103-10.751.386-.545.203-1.76 1.201-2.803 2.301l-.769.811c-.685.722-1.636 1.131-2.632 1.131h0c-2.965 0-3.911.893-3.911 3.69 0 1.65.018 1.687 2.227 4.565 2.344 3.053 2.99 4.55 2.999 6.94.006 1.461-.708 2.244-2.044 2.244-.487 0-1.239.163-1.671.363-1.754.811-11.008 9.802-12.685 12.325-.533.801-.545 1.001-.195 3.18.205 1.279.298 2.533.207 2.787s-.643.689-1.226.966c-.798.379-1.258.885-1.861 2.047-3.123 6.012-3.766 7.386-3.766 8.048 0 .978 1.949 2.904 4.739 4.682 1.149.732 2.58 1.718 3.18 2.189 1.314 1.034 3.024 1.167 4.43.345 1.188-.695 1.464-.657 3.282.449h0c1.035.629 2.221.969 3.432.983l5.007.057 4.499.051c1.525.017 2.996.566 4.159 1.552h0l.105.089c1.094.928 2.482 1.437 3.917 1.437h0 .158a5.69 5.69 0 0 0 3.648-1.323h0 0a6.86 6.86 0 0 1 3.635-1.552l3.249-.363 5.526-.601c.125-.005 1.651-1.221 3.392-2.702 2.433-2.071 3.347-2.693 3.953-2.693.809 0 2.731-.248 7.164-.924 2.018-.308 2.667-.323 3.196-.075 1.534.72 5.408 3.176 6.621 4.198 1.893 1.595 2.266 1.716 3.923 1.276 1.867-.496 1.794-.515 2.468.65.574.993.931 1.176 2.617 1.343h0c.41.04.719.39.708.802l-.062 2.477-.017.687a5.37 5.37 0 0 0 1.833 4.178h0c1.043.912 1.896 1.76 1.896 1.884 0 .248.633 1.602 1.397 2.99.327.594 1.075 1.203 2.235 1.82 1.656.882 1.748.983 1.835 2.036.153 1.843-.078 2.235-1.43 2.437-1.017.151-1.54.035-3.511-.781l-.958-.397a3.54 3.54 0 0 0-2.715.003h0c-.746.311-1.749.845-2.229 1.187-.867.617-.871.635-.79 2.954l.019.55a3.83 3.83 0 0 1-1.262 2.978h0c-.728.657-1.998 2.061-2.821 3.119s-1.899 2.276-2.39 2.707c-1.628 1.43-2.491 2.455-2.491 2.96 0 .275.524 1.001 1.165 1.614.911.873 1.712 1.298 3.682 1.954 2.889.962 2.661.991 7.194-.931 1.448-.614 2.843-1.118 3.099-1.12 1.123-.008 2.247.56 2.436 1.232.291 1.028 1.002 1.587 2.011 1.577 1.88-.016 2.335-.924 1.823-3.63h0a2.16 2.16 0 0 1 .688-2.015l2.078-1.841c3.059-2.711 8.56-8.077 9.089-8.866.162-.241.426-1.015.586-1.719.344-1.509.567-1.589 4.521-1.638 2.481-.03 2.487-.028 3.48.875.546.498 1.389.996 1.873 1.106.775.177.882.315.91 1.173.034 1.043.359 1.354 1.681 1.607.463.088 1.71.884 2.771 1.767h0a7.09 7.09 0 0 0 4.44 1.641l3.065.042 4.52.062a2.83 2.83 0 0 0 1.862-.665h0c.751-.632.884-.658 1.897-.377 1.741.484 1.37.998-1.522 2.111-.718.276-2.191 1.266-3.274 2.2-1.468 1.266-2.4 1.837-3.665 2.244-.933.3-1.826.546-1.984.546-.471 0-1.25.899-1.25 1.443 0 .277.506.941 1.126 1.475.963.83 1.456 1.027 3.414 1.365 2.031.351 2.435.52 3.598 1.511 1.116.952 1.523 1.133 2.76 1.226l1.665.135c.452.055-.167 4.026-.838 5.379-.376.758-.683 1.57-.683 1.804s.755 1.085 1.679 1.891h0a5.94 5.94 0 0 0 3.909 1.467h.623c2.753 0 2.936-.036 5.222-1.042 2.115-.93 2.494-1.211 3.531-2.617h0a5.22 5.22 0 0 1 3.074-1.997l.558-.124c1.359-.3 2.732-.64 3.051-.755l2.322-.819c.997-.35 2.257-1.058 2.949-1.657h0c.75-.65 1.786-.857 2.727-.546l.12.04c2.308.762 6.031.755 7.94-.015 2.197-.885 2.394-1.118 2.394-2.83 0-1.404.061-1.542.857-1.945 1.07-.542 1.478-1.284 1.106-2.013-.265-.521-3.785-2.146-4.649-2.146-.216 0-1.955.465-3.866 1.032s-3.734 1.047-4.054 1.065c-.876.049-4.753-1.994-6.343-3.343-1.708-1.449-2.136-2.13-2.271-3.618h0c-.062-.689.309-1.346.933-1.647l.892-.431c1.387-.671 2.962-1.854 5.617-4.219 3.522-3.138 3.743-3.288 4.9-3.307 1.165-.02 1.208.007 1.115.709-.137 1.026.933 2.008 1.958 1.798 1.069-.22 1.502-.655 2.051-2.063.451-1.159.576-1.262 2.062-1.695 1.146-.335 2.01-.417 3.142-.298 1.529.16 1.586.142 2.76-.871 1.203-1.038 2.742-1.554 4.673-1.569.566-.004 1.185-.287 1.821-.83.838-.716 1.237-.848 3.065-1.01 1.156-.102 2.842-.193 3.747-.202h0a3.05 3.05 0 0 0 2.537-1.4l.224-.347c.985-1.53 1.131-1.982 1.26-3.89h0a3.07 3.07 0 0 1 2.226-2.748l.28-.079c2.806-.795 3.243-1.075 3.361-2.15.089-.808.101-.815 1.688-.802.879.007 2.709.055 4.068.107 2.307.089 4.017-.141 5.846-.784.602-.212.983-.76 1.82-2.623h0a7.62 7.62 0 0 0 .469-4.868l-.092-.391-.173-.737a5.06 5.06 0 0 1 .746-4.007h0c.689-1.012 1.256-2.021 1.258-2.244.006-.444-.937-1.289-1.956-1.753-.36-.164-.654-.4-.654-.525s.922-.819 2.048-1.542 2.128-1.497 2.225-1.719-.121-1.112-.483-1.976-.653-1.687-.647-1.828.042-.706.081-1.254c.101-1.447-.495-1.747-3.07-1.548l-.698.054a3.1 3.1 0 0 1-2.337-.81h0c-.734-.676-1.528-1.053-3.051-1.448l-4.093-1.061c-1.654-.429-2.317-.771-3.549-1.829-1.383-1.187-1.702-1.332-3.633-1.647-1.164-.19-2.922-.415-3.908-.5-1.674-.144-1.843-.108-2.58.542h0a1.2 1.2 0 0 1-1.582.005l-.549-.479c-.905-.789-1.613-1.754-2.172-2.962-.457-.985-1.008-1.922-1.227-2.082-.755-.553-6.01.352-8.55 1.474-2.772 1.225-5.749.852-8.032-1.006-1.359-1.106-1.901-1.16-4.608-.46-2.352.608-2.293.617-3.588-.526-.816-.721-1.171-1.225-1.051-1.495.863-1.932 1.034-2.683.758-3.32-.162-.373-.508-1.37-.77-2.216-.397-1.28-.778-1.809-2.263-3.142-2.013-1.806-2.035-1.811-5.542-1.174-2.103.382-2.555.389-4.107.064h0c-1.086-.227-1.98-.994-2.372-2.032h0c-.881-2.337-.86-2.512.328-2.708 1.459-.242 1.71-.636 1.473-2.312-.219-1.55-.445-1.812-2.508-2.921-1.286-.691-1.344-.775-1.536-2.223-.187-1.412-.311-1.604-1.997-3.108h0c-1.157-1.032-2.655-1.599-4.206-1.592l-2.394.011-2.589.012c-1.461.007-2.906.308-4.248.886h0zm12.422 1.611c1.422 1.197 1.488 1.314 1.614 2.851h0a3 3 0 0 0 1.538 2.382l.445.246c1.018.563 1.853 1.156 1.855 1.316s.078.536.169.833c.142.467-.018.582-1.162.836-1.821.405-1.918.926-.749 4.022.835 2.212 1.031 2.509 1.857 2.814 2.038.752 4.424.743 8.34-.031.624-.123 1.022.07 2.243 1.091 1.294 1.081 1.568 1.496 2.13 3.221.627 1.921.631 2.021.154 3.357-.27.757-.491 1.593-.491 1.859s.682 1.092 1.515 1.837c1.761 1.574 2.119 1.627 5.339.802l.571-.146c.991-.254 2.044-.004 2.815.67h0c.677.592 1.559 1.139 1.961 1.217l2.454.509c1.504.322 1.838.321 2.615-.005 2.886-1.208 4.744-1.737 8.219-2.337.928-.161.942-.148 1.979 1.844 1.979 3.8 4.577 5.368 6.261 3.777.766-.724.874-.726 4.909-.107 1.677.258 2.053.434 3.487 1.636 1.188.997 1.984 1.433 3.059 1.677.799.181 1.78.427 2.18.547s1.573.42 2.607.667c1.18.281 2.165.705 2.643 1.136 1.416 1.279 2.008 1.476 3.86 1.282s2.141-.02 1.825 1.091c-.093.327.089 1.192.405 1.926s.573 1.442.573 1.576-.98.884-2.179 1.666c-1.974 1.288-2.179 1.505-2.179 2.301 0 .61.155.923.508 1.024.28.08.886.412 1.347.739h0a1.02 1.02 0 0 1 .24 1.428l-.635.888c-.92 1.286-1.196 1.9-1.085 2.42l1.034 4.591c.213.917.123 1.326-.617 2.821-.476.962-.907 1.79-.958 1.841s-.955.297-2.007.547c-1.523.361-2.342.41-4.011.239-2.766-.283-5.486-.285-5.989-.004-.222.124-.485.668-.585 1.208-.179.974-.201.988-2.732 1.758-1.403.427-2.674.949-2.824 1.161s-.276 1.236-.279 2.276c-.004 1.639-.127 2.089-.929 3.375h0c-.579.93-1.576 1.517-2.67 1.573l-1.809.092c-3.53.18-3.562.187-4.483 1.026-.815.742-1.174.867-2.957 1.025-1.853.164-2.151.276-3.445 1.29-1.302 1.02-1.492 1.091-2.357.872-.678-.172-1.388-.124-2.552.171-3.16.801-3.414.963-3.973 2.527-.536 1.5-1.19 1.796-1.036.468.151-1.295-.587-1.702-2.8-1.545h0c-1.214.086-2.367.566-3.284 1.367l-2.544 2.221c-3.171 2.769-4.338 3.616-5.875 4.261-2.101.882-2.626 1.511-2.279 2.723.122.423.308 1.221.415 1.774.147.759.633 1.409 1.988 2.66.987.912 2.252 1.913 2.811 2.226 1.947 1.088 4.33 2.188 4.742 2.188.228 0 1.837-.416 3.575-.924l3.934-1.13c.567-.15 1.166-.044 2.252.4 1.419.58 1.94 1.141 1.059 1.141-.769 0-1.324 1.079-1.324 2.576h0a2.12 2.12 0 0 1-1.334 1.968l-.066.027c-1.825.727-4.575.746-6.881.045-2.472-.75-2.981-.68-4.494.618-1.488 1.275-4.188 2.378-7.565 3.087-3.221.677-3.378.76-4.562 2.432-.928 1.311-1.382 1.671-3.088 2.445-1.787.811-2.24.908-4.27.908-2.247 0-2.284-.011-3.457-1.006-1.338-1.135-1.41-1.444-.644-2.787.349-.613.612-1.821.739-3.389.245-3.036.051-3.349-2.177-3.524-1.344-.106-1.747-.271-2.763-1.134-1.043-.887-1.498-1.066-3.715-1.462-1.74-.311-2.726-.629-3.17-1.021-.776-.686-.575-.849 1.81-1.468 1.253-.325 2.008-.773 3.632-2.154 1.308-1.113 2.812-2.081 4.151-2.672 1.155-.51 2.324-1.228 2.598-1.597.442-.594.45-.743.079-1.312-.441-.677-2.776-1.607-4.035-1.607-.39 0-1.063.299-1.495.664-.785.663-.788.664-5.682.632l-2.78-.018c-1.366-.009-2.684-.507-3.716-1.404h0c-.879-.765-2.085-1.569-2.68-1.787-.974-.357-1.065-.471-.914-1.139.199-.88-.678-1.821-1.698-1.821-.363 0-1.181-.467-1.883-1.075h0c-.799-.692-1.825-1.062-2.882-1.04l-.761.016c-5.587.118-6.396.424-6.758 2.551-.24 1.415-2.121 3.469-8.585 9.377l-2.826 2.584c-.833.761-1.228 1.889-1.054 3.003h0c.311 1.984.139 2.576-.592 2.04-.252-.184-.458-.544-.458-.798 0-.921-2.495-1.998-4.175-1.803-.298.034-2.023.679-3.832 1.432l-1.117.465a6.33 6.33 0 0 1-4.407.169h0c-2.324-.766-3.613-1.583-3.613-2.293 0-.227.657-.985 1.461-1.683s2.072-2.079 2.82-3.068 2.063-2.454 2.924-3.256l.097-.091a4.44 4.44 0 0 0 1.412-3.371h0c-.031-1.102-.042-2.133-.026-2.291.037-.352 2.19-1.637 2.743-1.637.221 0 1.402.408 2.624.907l.79.322c.931.38 1.959.447 2.932.192h0c2.351-.616 2.564-.894 2.564-3.344 0-2.373-.024-2.406-2.544-3.595-1.444-.681-1.57-.823-2.325-2.628-.636-1.521-1.171-2.254-2.635-3.613l-.881-.818c-.595-.552-.867-1.37-.721-2.169h0c.129-.705.237-2.049.239-2.987.005-2.109-.532-2.783-2.215-2.783-1.003 0-1.169-.099-1.702-1.022-.71-1.228-1.478-1.456-3.479-1.032h0c-.921.195-1.88-.029-2.62-.611l-.509-.4c-1.729-1.36-5.745-3.841-7.085-4.376-.58-.232-1.234-.234-2.76-.01-1.1.162-3.519.458-5.375.66s-3.752.49-4.213.642-2.096 1.378-3.632 2.724l-.182.159a10.9 10.9 0 0 1-6.066 2.645h0c-7.969.822-7.436.683-9.495 2.48-.988.862-1.256.962-2.607.962-1.428 0-1.589-.071-3.112-1.378-.884-.758-2.051-1.508-2.594-1.667-.611-.179-3.381-.289-7.265-.289h-4.589a5.87 5.87 0 0 1-3.119-.898h0c-1.668-1.047-3.04-1.167-4.379-.385-.944.552-2.035.67-2.329.251-.183-.262-2.578-1.88-4.5-3.04-1.178-.712-3.487-2.834-3.487-3.205 0-.265.363-1.005 2.767-5.644 1.106-2.134 1.663-2.916 2.301-3.228.463-.226 1.107-.726 1.432-1.109.559-.661.572-.833.252-3.325-.325-2.53-.315-2.656.29-3.397 1.623-1.986 6.261-6.658 8.875-8.939 2.603-2.271 3.041-2.551 4.314-2.755 2.049-.329 3.017-1.332 3.009-3.121-.015-3.379-.373-4.332-2.877-7.658-2.129-2.828-2.347-3.233-2.347-4.363 0-1.77.638-2.272 2.886-2.272h0a4.27 4.27 0 0 0 2.965-1.197l1.02-.983h0a7.84 7.84 0 0 1 5.401-2.196l1.375-.007c2.483-.013 6.084-.099 8.002-.192 3.953-.192 10.296.216 12.495.802l3.015.799c.859.226 2.669.487 4.021.578 2.223.151 2.57.248 3.61 1.016 1.688 1.245 3.518 1.441 8.873.95l1.273-.117a14.57 14.57 0 0 1 5.118.44h0 0c1.656.446 3.395.495 5.073.143l.17-.036.35-.073a4.96 4.96 0 0 1 4.224 1.07h0c1.209 1.024 2.09 1.568 2.543 1.568.381 0 1.863-.219 3.294-.486 4.495-.841 5.171-.839 6.701.017 1.866 1.045 2.703 1.147 3.703.453.797-.553.815-.618.624-2.289h0a3.99 3.99 0 0 1 .928-3.036l1.154-1.351.387-.453c1.208-1.415 2.938-2.279 4.795-2.393h0c1.599-.098 3.198-.226 3.554-.284s1.991.164 3.633.494c4.499.904 4.298.951 6.22-1.47l.818-1.03c.519-.654 1.337-.996 2.167-.908h0a87.35 87.35 0 0 1 2.496.308c.963.137 1.537.01 3.341-.741 2.172-.904 2.195-.907 6.342-.921l2.225-.007c1.251-.004 2.463.436 3.42 1.242h0z" stroke="#009fe3" stroke-width="3.362" mask="url(#A)"/></svg>