<svg width="128" height="34" viewBox="0 0 128 34" fill="none" xmlns="http://www.w3.org/2000/svg">
<path d="M111.166 10.2783L117.303 33.9993H127.001C126.255 33.6474 125.611 33.1668 125.102 32.6225C124.627 32.0463 124.254 31.4057 124.085 30.702L123.983 30.414L118.015 7.52539H107.945C109.063 8.00534 109.742 9.03027 109.742 10.1501C109.742 10.4064 109.674 10.6945 109.606 10.9826L104.452 26.7968L103.774 28.8453C103.638 29.2297 103.57 29.6134 103.57 29.9977C103.57 32.1107 105.605 33.9993 108.25 33.9993H115.642L114.048 27.6286H108.792C107.368 27.6286 106.317 26.6362 106.317 25.4838C106.317 25.2919 106.351 25.0675 106.419 24.8757L111.166 10.2783Z" fill="white"/>
<path d="M23.8377 14.6944C23.8377 14.6625 23.8038 7.26758 16.1065 7.26758C12.5461 7.26758 10.5794 8.73994 9.73174 9.95672V7.52381H0C0.881621 7.84378 1.62761 8.38811 2.17014 9.12429C2.67877 9.8286 2.98395 10.6929 2.98395 11.5891V29.8999C2.98395 31.7247 1.79715 33.3571 0 33.9977H12.7157C11.8341 33.6777 11.0881 33.1015 10.5455 32.3972C10.0369 31.661 9.73174 30.7967 9.73174 29.8999V20.2008C9.73174 20.2008 10.6134 21.8975 12.1731 22.9855C12.8513 23.4655 14.2077 24.1061 15.937 24.1061C16.8525 24.1061 17.9037 23.9461 19.0227 23.4661C23.4986 21.545 23.8377 16.5836 23.8377 15.1106V14.6944V14.6944ZM13.6064 21.3213C13.5947 21.3213 13.583 21.3207 13.5712 21.3207C13.2015 21.3168 12.8428 21.2524 12.4998 21.134C10.5534 20.4616 9.11356 18.056 9.11356 15.1913C9.11356 11.8056 11.1252 9.0612 13.6064 9.0612C13.6234 9.0612 13.6397 9.06185 13.6566 9.06185C13.9462 9.06641 14.2285 9.10738 14.5024 9.18282C16.5545 9.74926 18.0993 12.2238 18.0993 15.1913C18.0987 18.5763 16.0876 21.3213 13.6064 21.3213Z" fill="white"/>
<path d="M52.5682 7.26758C49.0417 7.26758 47.075 8.73994 46.2273 9.95672V7.52381H39.8264H36.4617H23.8164C25.6136 8.16439 26.8004 9.79673 26.8004 11.5897V29.9006C26.8004 31.7254 25.6136 33.3577 23.8164 33.9983H36.4617H39.8264H49.2113C48.2957 33.6784 47.5497 33.1022 47.0411 32.3978C46.4986 31.6617 46.2273 30.7974 46.2273 29.9006V12.774C46.2273 11.2697 47.821 9.66862 48.8383 9.31679C49.313 9.12494 49.7538 9.06055 50.1607 9.06055C53.0768 9.06055 53.6533 13.3502 53.6533 15.3987V15.5587C53.5176 20.937 52.0596 22.0575 50.805 22.0575C50.059 22.0575 49.4147 21.6732 49.0756 21.5132C48.6009 21.2569 48.0245 20.7126 47.5836 20.2008C47.1767 19.7209 46.8716 19.2721 46.8716 19.2721C46.9055 19.7846 47.0411 20.7445 47.075 21.2251C48.0245 28.6838 54.501 33.9983 60.2993 33.9983V27.6276C56.7389 27.6276 54.1958 27.0514 52.3986 26.2509C49.0417 24.746 48.3974 22.2812 48.3974 22.2812C48.4992 22.4731 50.3641 23.978 52.9412 23.978C53.755 23.978 54.6027 23.818 55.5182 23.4655C59.9263 21.705 60.2993 16.8067 60.2993 15.2062V14.6938C60.2993 14.6625 60.2993 7.26758 52.5682 7.26758ZM39.4587 30.984C39.4587 32.4674 38.3253 33.6862 36.8757 33.8273C36.7831 33.8364 36.6886 33.8409 36.594 33.8409H36.4095C34.8269 33.8409 33.5442 32.5617 33.5442 30.9834V10.6233C33.5442 9.04494 34.8269 7.76574 36.4095 7.76574H36.594C36.7812 7.76574 36.9631 7.78394 37.1405 7.81841C38.4616 8.07269 39.4593 9.23159 39.4593 10.6233V11.1904V30.3057V30.984H39.4587Z" fill="white"/>
<path d="M102.795 7.52539H95.6403C96.6236 7.84536 97.1323 8.42155 97.7087 9.19025C98.3191 9.9583 98.6242 10.887 98.6242 11.8794V28.6541L86.9258 7.52604H78.1148H74.0015H65.3652C67.1624 8.16662 68.3492 9.79896 68.3492 11.5919V29.9028C68.3492 31.7276 67.1624 33.36 65.3652 34.0005H74.0328H78.1148H85.2304C83.2298 33.36 82.2464 31.5995 82.2464 29.6147V12.7755L93.9788 33.9999H102.795C101.778 33.6799 100.828 32.4632 100.76 32.3994C100.557 32.1432 100.218 31.6314 100.116 31.3433C99.8788 30.7989 99.7771 30.2227 99.7771 29.6147V11.88C99.7765 9.89456 100.794 8.16532 102.795 7.52539ZM81.072 30.9856C81.072 32.564 79.7894 33.8432 78.2068 33.8432H78.0222C77.9055 33.8432 77.7907 33.8354 77.6779 33.8217C76.2577 33.652 75.157 32.4475 75.157 30.9856V30.6071V10.8967V10.6249C75.157 9.25203 76.1273 8.10614 77.4217 7.83105C77.6153 7.79008 77.8162 7.76797 78.0222 7.76797H78.2068C79.7894 7.76797 81.072 9.04718 81.072 10.6255V30.9856Z" fill="white"/>
<path d="M31.8817 5.86545C32.9645 4.78557 32.9645 3.03474 31.8817 1.95486C30.7989 0.874985 29.0433 0.874986 27.9606 1.95486C26.8778 3.03474 26.8778 4.78557 27.9606 5.86545C29.0433 6.94533 30.7989 6.94532 31.8817 5.86545Z" fill="white"/>
<path d="M62.4395 1.14453C61.1281 1.14453 60.06 2.17141 60.0163 3.64767C60.0163 3.64832 60.017 3.64832 60.017 3.64897C60.015 3.67889 60.015 3.7088 60.0183 3.74002C60.1689 5.11028 62.4414 9.18398 62.4414 9.18398C62.4414 9.18398 64.7472 5.254 64.8646 3.80505C64.8672 3.77254 64.8665 3.74132 64.8639 3.7101C64.8483 2.20068 63.7697 1.14453 62.4395 1.14453Z" fill="white"/>
</svg>
