<svg width="268" height="72" viewBox="0 0 268 72" fill="none" xmlns="http://www.w3.org/2000/svg">
<path d="M234.583 21.7467L247.534 71.9384H267.999C266.425 71.1939 265.065 70.177 263.992 69.0252C262.99 67.8061 262.203 66.4506 261.845 64.9618L261.631 64.3522L249.037 15.9219H227.785C230.147 16.9374 231.578 19.1061 231.578 21.4756C231.578 22.0178 231.435 22.6274 231.291 23.237L220.415 56.6985L218.984 61.0331C218.698 61.8464 218.555 62.6582 218.555 63.4715C218.555 67.9423 222.848 71.9384 228.429 71.9384H244.028L240.665 58.4585H229.574C226.569 58.4585 224.351 56.3587 224.351 53.9203C224.351 53.5143 224.422 53.0396 224.565 52.6337L234.583 21.7467Z" fill="white"/>
<path d="M50.3031 31.0935C50.3031 31.026 50.2315 15.3789 33.9886 15.3789C26.4753 15.3789 22.3251 18.4943 20.5363 21.0689V15.9211H0C1.86043 16.5981 3.43464 17.7499 4.57951 19.3075C5.65284 20.7978 6.29683 22.6266 6.29683 24.5228V63.267C6.29683 67.1282 3.79241 70.5821 0 71.9376H26.8331C24.9727 71.2605 23.3985 70.0413 22.2536 68.5511C21.1803 66.9934 20.5363 65.1646 20.5363 63.267V42.7445C20.5363 42.7445 22.3967 46.3347 25.6882 48.6368C27.1193 49.6523 29.9815 51.0077 33.6308 51.0077C35.5628 51.0077 37.781 50.6692 40.1423 49.6537C49.5875 45.5888 50.3031 35.0909 50.3031 31.9741V31.0935V31.0935ZM28.7128 45.1155C28.688 45.1155 28.6632 45.1141 28.6385 45.1141C27.8583 45.1058 27.1014 44.9696 26.3776 44.7192C22.2701 43.2963 19.2318 38.2063 19.2318 32.1448C19.2318 24.981 23.4769 19.1741 28.7128 19.1741C28.7486 19.1741 28.783 19.1754 28.8187 19.1754C29.4297 19.1851 30.0255 19.2718 30.6035 19.4314C34.9339 20.6299 38.1938 25.8658 38.1938 32.1448C38.1924 39.3071 33.9487 45.1155 28.7128 45.1155Z" fill="white"/>
<path d="M110.933 15.3789C103.491 15.3789 99.3409 18.4943 97.5521 21.0689V15.9211H84.0447H76.9442H50.2598C54.0522 17.2765 56.5566 20.7304 56.5566 24.5242V63.2684C56.5566 67.1296 54.0522 70.5835 50.2598 71.9389H76.9442H84.0447H103.849C101.917 71.2619 100.343 70.0427 99.2694 68.5525C98.1245 66.9948 97.5521 65.166 97.5521 63.2684V27.03C97.5521 23.8472 100.915 20.4593 103.062 19.7149C104.064 19.3089 104.994 19.1727 105.852 19.1727C112.006 19.1727 113.223 28.2492 113.223 32.5837V32.9222C112.936 44.3022 109.86 46.6732 107.212 46.6732C105.638 46.6732 104.278 45.8599 103.563 45.5214C102.561 44.9792 101.344 43.8275 100.414 42.7445C99.5556 41.729 98.9116 40.7795 98.9116 40.7795C98.9832 41.8639 99.2694 43.8949 99.3409 44.9118C101.344 60.6938 115.011 71.9389 127.247 71.9389V58.4591C119.734 58.4591 114.367 57.2399 110.575 55.546C103.491 52.3618 102.132 47.1465 102.132 47.1465C102.346 47.5525 106.282 50.7367 111.72 50.7367C113.437 50.7367 115.226 50.3982 117.158 49.6523C126.46 45.9273 127.247 35.5629 127.247 32.1764V31.0921C127.247 31.026 127.247 15.3789 110.933 15.3789ZM83.2686 65.5609C83.2686 68.6997 80.877 71.2784 77.818 71.577C77.6226 71.5963 77.4231 71.6059 77.2236 71.6059H76.8342C73.4945 71.6059 70.7878 68.8992 70.7878 65.5595V22.4794C70.7878 19.1397 73.4945 16.433 76.8342 16.433H77.2236C77.6185 16.433 78.0024 16.4715 78.3767 16.5444C81.1646 17.0825 83.27 19.5346 83.27 22.4794V23.6793V64.1257V65.5609H83.2686Z" fill="white"/>
<path d="M216.921 15.9219H201.823C203.898 16.5989 204.971 17.8181 206.188 19.4446C207.476 21.0697 208.12 23.0347 208.12 25.1346V60.6286L183.433 15.9233H164.84H156.16H137.936C141.728 17.2787 144.232 20.7326 144.232 24.5264V63.2706C144.232 67.1318 141.728 70.5857 137.936 71.9411H156.226H164.84H179.856C175.634 70.5857 173.559 66.8607 173.559 62.661V27.0308L198.317 71.9397H216.921C214.775 71.2627 212.771 68.6881 212.628 68.5533C212.199 68.0111 211.483 66.9281 211.268 66.3185C210.767 65.1668 210.553 63.9476 210.553 62.661V25.1359C210.551 20.9348 212.698 17.2759 216.921 15.9219ZM171.081 65.5617C171.081 68.9014 168.374 71.6081 165.034 71.6081H164.645C164.398 71.6081 164.156 71.5916 163.918 71.5627C160.921 71.2035 158.598 68.6551 158.598 65.5617V64.7608V23.0554V22.4802C158.598 19.5753 160.646 17.1507 163.377 16.5686C163.786 16.4819 164.21 16.4351 164.645 16.4351H165.034C168.374 16.4351 171.081 19.1418 171.081 22.4815V65.5617Z" fill="white"/>
<path d="M67.2769 12.4107C69.5619 10.1257 69.5619 6.42113 67.2769 4.1362C64.992 1.85127 61.2874 1.85127 59.0025 4.1362C56.7175 6.42113 56.7175 10.1257 59.0025 12.4107C61.2874 14.6956 64.992 14.6956 67.2769 12.4107Z" fill="white"/>
<path d="M131.761 2.42188C128.994 2.42188 126.74 4.59467 126.648 7.71831L126.649 7.72107C126.645 7.78437 126.645 7.84766 126.652 7.91371C126.97 10.8131 131.765 19.4327 131.765 19.4327C131.765 19.4327 136.631 11.1172 136.879 8.05132C136.884 7.98252 136.883 7.91647 136.878 7.85042C136.844 4.65659 134.569 2.42188 131.761 2.42188Z" fill="white"/>
</svg>
