<svg width="268" height="72" viewBox="0 0 268 72" fill="none" xmlns="http://www.w3.org/2000/svg">
<path d="M234.583 21.7467L247.534 71.9384H267.999C266.425 71.1939 265.065 70.177 263.992 69.0252C262.99 67.8061 262.203 66.4506 261.845 64.9618L261.631 64.3522L249.037 15.9219H227.785C230.147 16.9374 231.578 19.1061 231.578 21.4756C231.578 22.0178 231.435 22.6274 231.291 23.237L220.415 56.6985L218.984 61.0331C218.698 61.8464 218.555 62.6582 218.555 63.4715C218.555 67.9423 222.848 71.9384 228.429 71.9384H244.028L240.665 58.4585H229.574C226.569 58.4585 224.351 56.3587 224.351 53.9203C224.351 53.5143 224.422 53.0396 224.565 52.6337L234.583 21.7467Z" fill="white"/>
<path d="M50.3031 31.0944C50.3031 31.027 50.2315 15.3799 33.9886 15.3799C26.4753 15.3799 22.3251 18.4953 20.5363 21.0699V15.922H0C1.86043 16.5991 3.43464 17.7508 4.57951 19.3085C5.65284 20.7988 6.29683 22.6276 6.29683 24.5238V63.268C6.29683 67.1292 3.79241 70.5831 0 71.9385H26.8331C24.9727 71.2615 23.3985 70.0423 22.2536 68.5521C21.1803 66.9944 20.5363 65.1656 20.5363 63.268V42.7455C20.5363 42.7455 22.3967 46.3356 25.6882 48.6378C27.1193 49.6533 29.9815 51.0087 33.6308 51.0087C35.5628 51.0087 37.781 50.6702 40.1423 49.6547C49.5875 45.5898 50.3031 35.0919 50.3031 31.9751V31.0944V31.0944ZM28.7128 45.1165C28.688 45.1165 28.6632 45.1151 28.6385 45.1151C27.8583 45.1068 27.1014 44.9706 26.3776 44.7201C22.2701 43.2973 19.2318 38.2073 19.2318 32.1457C19.2318 24.982 23.4769 19.175 28.7128 19.175C28.7486 19.175 28.783 19.1764 28.8187 19.1764C29.4297 19.1861 30.0255 19.2727 30.6035 19.4324C34.9339 20.6309 38.1938 25.8668 38.1938 32.1457C38.1924 39.3081 33.9487 45.1165 28.7128 45.1165Z" fill="white"/>
<path d="M110.933 15.3799C103.491 15.3799 99.3409 18.4953 97.5521 21.0699V15.922H84.0447H76.9442H50.2598C54.0522 17.2775 56.5566 20.7314 56.5566 24.5252V63.2694C56.5566 67.1306 54.0522 70.5845 50.2598 71.9399H76.9442H84.0447H103.849C101.917 71.2629 100.343 70.0437 99.2694 68.5534C98.1245 66.9957 97.5521 65.167 97.5521 63.2694V27.0309C97.5521 23.8481 100.915 20.4603 103.062 19.7158C104.064 19.3099 104.994 19.1737 105.852 19.1737C112.006 19.1737 113.223 28.2501 113.223 32.5847V32.9232C112.936 44.3032 109.86 46.6741 107.212 46.6741C105.638 46.6741 104.278 45.8609 103.563 45.5224C102.561 44.9802 101.344 43.8285 100.414 42.7455C99.5556 41.73 98.9116 40.7805 98.9116 40.7805C98.9832 41.8648 99.2694 43.8959 99.3409 44.9128C101.344 60.6948 115.011 71.9399 127.247 71.9399V58.4601C119.734 58.4601 114.367 57.2409 110.575 55.547C103.491 52.3628 102.132 47.1475 102.132 47.1475C102.346 47.5534 106.282 50.7376 111.72 50.7376C113.437 50.7376 115.226 50.3991 117.158 49.6533C126.46 45.9283 127.247 35.5639 127.247 32.1774V31.0931C127.247 31.027 127.247 15.3799 110.933 15.3799ZM83.2686 65.5619C83.2686 68.7007 80.877 71.2794 77.818 71.578C77.6226 71.5973 77.4231 71.6069 77.2236 71.6069H76.8342C73.4945 71.6069 70.7878 68.9002 70.7878 65.5605V22.4803C70.7878 19.1406 73.4945 16.4339 76.8342 16.4339H77.2236C77.6185 16.4339 78.0024 16.4725 78.3767 16.5454C81.1646 17.0834 83.27 19.5356 83.27 22.4803V23.6803V64.1267V65.5619H83.2686Z" fill="white"/>
<path d="M216.921 15.9219H201.823C203.898 16.5989 204.971 17.8181 206.188 19.4446C207.476 21.0697 208.12 23.0347 208.12 25.1346V60.6286L183.433 15.9233H164.84H156.16H137.936C141.728 17.2787 144.232 20.7326 144.232 24.5264V63.2706C144.232 67.1318 141.728 70.5857 137.936 71.9411H156.226H164.84H179.856C175.634 70.5857 173.559 66.8607 173.559 62.661V27.0308L198.317 71.9397H216.921C214.775 71.2627 212.771 68.6881 212.628 68.5533C212.199 68.0111 211.483 66.9281 211.268 66.3185C210.767 65.1668 210.553 63.9476 210.553 62.661V25.1359C210.551 20.9348 212.698 17.2759 216.921 15.9219ZM171.081 65.5617C171.081 68.9014 168.374 71.6081 165.034 71.6081H164.645C164.398 71.6081 164.156 71.5916 163.918 71.5627C160.921 71.2035 158.598 68.6551 158.598 65.5617V64.7608V23.0554V22.4802C158.598 19.5753 160.646 17.1507 163.377 16.5686C163.786 16.4819 164.21 16.4351 164.645 16.4351H165.034C168.374 16.4351 171.081 19.1418 171.081 22.4815V65.5617Z" fill="white"/>
<path d="M67.2769 12.4116C69.5619 10.1267 69.5619 6.42211 67.2769 4.13717C64.992 1.85224 61.2874 1.85225 59.0025 4.13718C56.7175 6.42211 56.7175 10.1267 59.0025 12.4116C61.2874 14.6966 64.992 14.6966 67.2769 12.4116Z" fill="white"/>
<path d="M131.761 2.42285C128.994 2.42285 126.74 4.59564 126.648 7.71929L126.649 7.72204C126.645 7.78534 126.645 7.84864 126.652 7.91469C126.97 10.814 131.765 19.4337 131.765 19.4337C131.765 19.4337 136.631 11.1181 136.879 8.0523C136.884 7.98349 136.883 7.91744 136.878 7.85139C136.844 4.65757 134.569 2.42285 131.761 2.42285Z" fill="white"/>
</svg>
