<svg width="127" height="34" viewBox="0 0 127 34" fill="none" xmlns="http://www.w3.org/2000/svg">
<path d="M111.164 10.2783L117.301 33.9993H126.999C126.253 33.6474 125.609 33.1668 125.1 32.6225C124.626 32.0463 124.253 31.4057 124.083 30.702L123.981 30.414L118.013 7.52539H107.943C109.062 8.00534 109.74 9.03027 109.74 10.1501C109.74 10.4064 109.672 10.6945 109.604 10.9826L104.45 26.7968L103.772 28.8453C103.636 29.2297 103.568 29.6134 103.568 29.9977C103.568 32.1107 105.603 33.9993 108.248 33.9993H115.64L114.046 27.6286H108.79C107.366 27.6286 106.315 26.6362 106.315 25.4838C106.315 25.2919 106.349 25.0675 106.417 24.8757L111.164 10.2783Z" fill="white"/>
<path d="M23.8377 14.6964C23.8377 14.6645 23.8038 7.26953 16.1065 7.26953C12.5461 7.26953 10.5794 8.74189 9.73174 9.95867V7.52576H0C0.881621 7.84573 1.62761 8.39006 2.17014 9.12624C2.67877 9.83055 2.98395 10.6948 2.98395 11.591V29.9019C2.98395 31.7267 1.79715 33.359 0 33.9996H12.7157C11.8341 33.6797 11.0881 33.1035 10.5455 32.3991C10.0369 31.663 9.73174 30.7987 9.73174 29.9019V20.2028C9.73174 20.2028 10.6134 21.8995 12.1731 22.9875C12.8513 23.4674 14.2077 24.108 15.937 24.108C16.8525 24.108 17.9037 23.948 19.0227 23.4681C23.4986 21.547 23.8377 16.5856 23.8377 15.1126V14.6964V14.6964ZM13.6064 21.3233C13.5947 21.3233 13.583 21.3226 13.5712 21.3226C13.2015 21.3187 12.8428 21.2543 12.4998 21.136C10.5534 20.4635 9.11356 18.0579 9.11356 15.1932C9.11356 11.8076 11.1252 9.06316 13.6064 9.06316C13.6234 9.06316 13.6397 9.06381 13.6566 9.06381C13.9462 9.06836 14.2285 9.10933 14.5024 9.18477C16.5545 9.75121 18.0993 12.2257 18.0993 15.1932C18.0987 18.5782 16.0876 21.3233 13.6064 21.3233Z" fill="white"/>
<path d="M52.5682 7.26953C49.0417 7.26953 47.075 8.74189 46.2273 9.95867V7.52576H39.8264H36.4617H23.8164C25.6136 8.16634 26.8004 9.79869 26.8004 11.5917V29.9025C26.8004 31.7274 25.6136 33.3597 23.8164 34.0003H36.4617H39.8264H49.2112C48.2957 33.6803 47.5497 33.1041 47.0411 32.3998C46.4986 31.6636 46.2273 30.7993 46.2273 29.9025V12.7759C46.2273 11.2717 47.821 9.67057 48.8383 9.31874C49.313 9.12689 49.7538 9.06251 50.1607 9.06251C53.0768 9.06251 53.6533 13.3521 53.6533 15.4007V15.5607C53.5176 20.9389 52.0596 22.0595 50.8049 22.0595C50.059 22.0595 49.4147 21.6751 49.0756 21.5151C48.6009 21.2589 48.0245 20.7146 47.5836 20.2028C47.1767 19.7228 46.8716 19.2741 46.8716 19.2741C46.9055 19.7865 47.0411 20.7464 47.075 21.227C48.0245 28.6857 54.501 34.0003 60.2993 34.0003V27.6296C56.7389 27.6296 54.1958 27.0534 52.3986 26.2528C49.0417 24.748 48.3974 22.2832 48.3974 22.2832C48.4992 22.475 50.3641 23.9799 52.9412 23.9799C53.755 23.9799 54.6027 23.8199 55.5182 23.4674C59.9263 21.707 60.2993 16.8087 60.2993 15.2082V14.6957C60.2993 14.6645 60.2993 7.26953 52.5682 7.26953ZM39.4586 30.986C39.4586 32.4694 38.3253 33.6881 36.8757 33.8292C36.7831 33.8383 36.6886 33.8429 36.594 33.8429H36.4095C34.8269 33.8429 33.5442 32.5637 33.5442 30.9853V10.6253C33.5442 9.0469 34.8269 7.76769 36.4095 7.76769H36.594C36.7812 7.76769 36.9631 7.7859 37.1405 7.82037C38.4616 8.07465 39.4593 9.23354 39.4593 10.6253V11.1924V30.3077V30.986H39.4586Z" fill="white"/>
<path d="M102.795 7.52539H95.6403C96.6236 7.84536 97.1323 8.42155 97.7087 9.19025C98.3191 9.9583 98.6242 10.887 98.6242 11.8794V28.6541L86.9258 7.52604H78.1148H74.0015H65.3652C67.1624 8.16662 68.3492 9.79896 68.3492 11.5919V29.9028C68.3492 31.7276 67.1624 33.36 65.3652 34.0005H74.0328H78.1148H85.2304C83.2298 33.36 82.2464 31.5995 82.2464 29.6147V12.7755L93.9788 33.9999H102.795C101.778 33.6799 100.828 32.4632 100.76 32.3994C100.557 32.1432 100.218 31.6314 100.116 31.3433C99.8788 30.7989 99.7771 30.2227 99.7771 29.6147V11.88C99.7765 9.89456 100.794 8.16532 102.795 7.52539ZM81.072 30.9856C81.072 32.564 79.7894 33.8432 78.2068 33.8432H78.0222C77.9055 33.8432 77.7907 33.8354 77.6779 33.8217C76.2577 33.652 75.157 32.4475 75.157 30.9856V30.6071V10.8967V10.6249C75.157 9.25203 76.1273 8.10614 77.4217 7.83105C77.6153 7.79008 77.8162 7.76797 78.0222 7.76797H78.2068C79.7894 7.76797 81.072 9.04718 81.072 10.6255V30.9856Z" fill="white"/>
<path d="M31.8817 5.86545C32.9645 4.78557 32.9645 3.03474 31.8817 1.95486C30.7989 0.874986 29.0433 0.874987 27.9606 1.95486C26.8778 3.03474 26.8778 4.78557 27.9606 5.86545C29.0433 6.94533 30.7989 6.94532 31.8817 5.86545Z" fill="white"/>
<path d="M62.4395 1.14648C61.1281 1.14648 60.06 2.17336 60.0163 3.64963C60.0163 3.65028 60.017 3.65028 60.017 3.65093C60.015 3.68084 60.015 3.71076 60.0183 3.74197C60.1689 5.11223 62.4414 9.18593 62.4414 9.18593C62.4414 9.18593 64.7472 5.25595 64.8646 3.80701C64.8672 3.77449 64.8665 3.74327 64.8639 3.71206C64.8483 2.20263 63.7697 1.14648 62.4395 1.14648Z" fill="white"/>
</svg>
