<svg width="128" height="34" viewBox="0 0 128 34" fill="none" xmlns="http://www.w3.org/2000/svg">
<path d="M111.166 10.2783L117.303 33.9993H127.001C126.255 33.6474 125.611 33.1668 125.102 32.6225C124.627 32.0463 124.254 31.4057 124.085 30.702L123.983 30.414L118.015 7.52539H107.945C109.063 8.00534 109.742 9.03027 109.742 10.1501C109.742 10.4064 109.674 10.6945 109.606 10.9826L104.452 26.7968L103.774 28.8453C103.638 29.2297 103.57 29.6134 103.57 29.9977C103.57 32.1107 105.605 33.9993 108.25 33.9993H115.642L114.048 27.6286H108.792C107.368 27.6286 106.317 26.6362 106.317 25.4838C106.317 25.2919 106.351 25.0675 106.419 24.8757L111.166 10.2783Z" fill="white"/>
<path d="M23.8377 14.6954C23.8377 14.6635 23.8038 7.26855 16.1065 7.26855C12.5461 7.26855 10.5794 8.74091 9.73174 9.95769V7.52479H0C0.881621 7.84475 1.62761 8.38908 2.17014 9.12526C2.67877 9.82958 2.98395 10.6939 2.98395 11.59V29.9009C2.98395 31.7257 1.79715 33.3581 0 33.9986H12.7157C11.8341 33.6787 11.0881 33.1025 10.5455 32.3982C10.0369 31.662 9.73174 30.7977 9.73174 29.9009V20.2018C9.73174 20.2018 10.6134 21.8985 12.1731 22.9865C12.8513 23.4665 14.2077 24.107 15.937 24.107C16.8525 24.107 17.9037 23.9471 19.0227 23.4671C23.4986 21.546 23.8377 16.5846 23.8377 15.1116V14.6954V14.6954ZM13.6064 21.3223C13.5947 21.3223 13.583 21.3217 13.5712 21.3217C13.2015 21.3178 12.8428 21.2534 12.4998 21.135C10.5534 20.4626 9.11356 18.057 9.11356 15.1922C9.11356 11.8066 11.1252 9.06218 13.6064 9.06218C13.6234 9.06218 13.6397 9.06283 13.6566 9.06283C13.9462 9.06738 14.2285 9.10835 14.5024 9.18379C16.5545 9.75024 18.0993 12.2248 18.0993 15.1922C18.0987 18.5772 16.0876 21.3223 13.6064 21.3223Z" fill="white"/>
<path d="M52.5682 7.26855C49.0417 7.26855 47.075 8.74091 46.2273 9.95769V7.52479H39.8264H36.4617H23.8164C25.6136 8.16537 26.8004 9.79771 26.8004 11.5907V29.9015C26.8004 31.7264 25.6136 33.3587 23.8164 33.9993H36.4617H39.8264H49.2113C48.2957 33.6793 47.5497 33.1031 47.0411 32.3988C46.4986 31.6626 46.2273 30.7983 46.2273 29.9015V12.7749C46.2273 11.2707 47.821 9.66959 48.8383 9.31776C49.313 9.12591 49.7538 9.06153 50.1607 9.06153C53.0768 9.06153 53.6533 13.3511 53.6533 15.3997V15.5597C53.5176 20.938 52.0596 22.0585 50.805 22.0585C50.059 22.0585 49.4147 21.6741 49.0756 21.5142C48.6009 21.2579 48.0245 20.7136 47.5836 20.2018C47.1767 19.7218 46.8716 19.2731 46.8716 19.2731C46.9055 19.7856 47.0411 20.7455 47.075 21.2261C48.0245 28.6848 54.501 33.9993 60.2993 33.9993V27.6286C56.7389 27.6286 54.1958 27.0524 52.3986 26.2519C49.0417 24.747 48.3974 22.2822 48.3974 22.2822C48.4992 22.4741 50.3641 23.9789 52.9412 23.9789C53.755 23.9789 54.6027 23.8189 55.5182 23.4665C59.9263 21.706 60.2993 16.8077 60.2993 15.2072V14.6947C60.2993 14.6635 60.2993 7.26855 52.5682 7.26855ZM39.4587 30.985C39.4587 32.4684 38.3253 33.6871 36.8757 33.8283C36.7831 33.8374 36.6886 33.8419 36.594 33.8419H36.4095C34.8269 33.8419 33.5442 32.5627 33.5442 30.9843V10.6243C33.5442 9.04592 34.8269 7.76671 36.4095 7.76671H36.594C36.7812 7.76671 36.9631 7.78492 37.1405 7.81939C38.4616 8.07367 39.4593 9.23257 39.4593 10.6243V11.1914V30.3067V30.985H39.4587Z" fill="white"/>
<path d="M102.797 7.52539H95.6422C96.6256 7.84536 97.1342 8.42155 97.7107 9.19025C98.321 9.9583 98.6262 10.887 98.6262 11.8794V28.6541L86.9278 7.52604H78.1168H74.0034H65.3672C67.1643 8.16662 68.3511 9.79896 68.3511 11.5919V29.9028C68.3511 31.7276 67.1643 33.36 65.3672 34.0005H74.0347H78.1168H85.2323C83.2317 33.36 82.2484 31.5995 82.2484 29.6147V12.7755L93.9807 33.9999H102.797C101.78 33.6799 100.83 32.4632 100.762 32.3994C100.559 32.1432 100.22 31.6314 100.118 31.3433C99.8808 30.7989 99.7791 30.2227 99.7791 29.6147V11.88C99.7784 9.89456 100.796 8.16532 102.797 7.52539ZM81.074 30.9856C81.074 32.564 79.7913 33.8432 78.2087 33.8432H78.0242C77.9075 33.8432 77.7927 33.8354 77.6799 33.8217C76.2596 33.652 75.1589 32.4475 75.1589 30.9856V30.6071V10.8967V10.6249C75.1589 9.25203 76.1292 8.10614 77.4236 7.83105C77.6173 7.79008 77.8181 7.76797 78.0242 7.76797H78.2087C79.7913 7.76797 81.074 9.04718 81.074 10.6255V30.9856Z" fill="white"/>
<path d="M31.8817 5.86545C32.9645 4.78557 32.9645 3.03474 31.8817 1.95486C30.7989 0.874985 29.0433 0.874986 27.9606 1.95486C26.8778 3.03474 26.8778 4.78557 27.9606 5.86545C29.0433 6.94533 30.7989 6.94532 31.8817 5.86545Z" fill="white"/>
<path d="M62.4395 1.14551C61.1281 1.14551 60.06 2.17239 60.0163 3.64865C60.0163 3.6493 60.017 3.6493 60.017 3.64995C60.015 3.67987 60.015 3.70978 60.0183 3.741C60.1689 5.11125 62.4414 9.18496 62.4414 9.18496C62.4414 9.18496 64.7472 5.25498 64.8646 3.80603C64.8672 3.77351 64.8665 3.7423 64.8639 3.71108C64.8483 2.20165 63.7697 1.14551 62.4395 1.14551Z" fill="white"/>
</svg>
