<svg width="21" height="21" viewBox="0 0 21 21" fill="none" xmlns="http://www.w3.org/2000/svg">
<path d="M8.75 1.96875C8.38756 1.96875 8.09375 2.26256 8.09375 2.625V3.28125H4.375C4.01256 3.28125 3.71875 3.57506 3.71875 3.9375C3.71875 4.29994 4.01256 4.59375 4.375 4.59375H16.625C16.9874 4.59375 17.2813 4.29994 17.2813 3.9375C17.2813 3.57506 16.9874 3.28125 16.625 3.28125H12.9063V2.625C12.9063 2.26256 12.6124 1.96875 12.25 1.96875H8.75Z" fill="#1D1D1B"/>
<path d="M8.75 9.31875C9.11244 9.31875 9.40625 9.61256 9.40625 9.975L9.40625 16.1C9.40625 16.4624 9.11244 16.7562 8.75 16.7562C8.38756 16.7562 8.09375 16.4624 8.09375 16.1L8.09375 9.975C8.09375 9.61256 8.38756 9.31875 8.75 9.31875Z" fill="#1D1D1B"/>
<path d="M12.9063 9.975C12.9063 9.61256 12.6124 9.31875 12.25 9.31875C11.8876 9.31875 11.5938 9.61256 11.5938 9.975V16.1C11.5938 16.4624 11.8876 16.7562 12.25 16.7562C12.6124 16.7562 12.9063 16.4624 12.9063 16.1V9.975Z" fill="#1D1D1B"/>
<path fill-rule="evenodd" clip-rule="evenodd" d="M5.2425 6.92753C5.27942 6.59518 5.56034 6.34375 5.89473 6.34375H15.1053C15.4397 6.34375 15.7206 6.59518 15.7575 6.92753L15.9326 8.50371C16.2501 11.3609 16.2501 14.2444 15.9326 17.1016L15.9154 17.2567C15.7894 18.3909 14.9104 19.2952 13.7803 19.4534C11.604 19.7581 9.39595 19.7581 7.21969 19.4534C6.0896 19.2952 5.21062 18.3909 5.08461 17.2567L5.06737 17.1016C4.7499 14.2444 4.7499 11.3609 5.06737 8.50371L5.2425 6.92753ZM6.4821 7.65625L6.37184 8.64865C6.06508 11.4095 6.06508 14.1958 6.37184 16.9566L6.38908 17.1118C6.44884 17.6497 6.86571 18.0786 7.40167 18.1536C9.4572 18.4414 11.5428 18.4414 13.5983 18.1536C14.1343 18.0786 14.5511 17.6497 14.6109 17.1118L14.6282 16.9566C14.9349 14.1958 14.9349 11.4095 14.6282 8.64865L14.5179 7.65625H6.4821Z" fill="#1D1D1B"/>
</svg>
