<svg width="40" height="40" viewBox="0 0 40 40" fill="none" xmlns="http://www.w3.org/2000/svg">
<path fill-rule="evenodd" clip-rule="evenodd" d="M9.64663 23.3664C9.71958 23.3909 9.79322 23.4084 9.86679 23.4191C9.94701 23.6076 10.0507 23.8515 10.1716 24.1367C10.4667 24.8327 10.8644 25.7741 11.2748 26.7562C12.1119 28.759 12.9563 30.8236 13.1427 31.4145C13.3736 32.145 13.6176 32.6417 13.884 32.9808C14.0217 33.1561 14.181 33.3092 14.3675 33.4252C14.4613 33.4835 14.5604 33.5314 14.6639 33.567C14.6684 33.5686 14.673 33.5702 14.6775 33.5717C15.2109 33.773 15.6972 33.6891 16.0016 33.5866C16.1645 33.5317 16.2963 33.4654 16.3897 33.4117C16.4374 33.3844 16.4776 33.3588 16.5097 33.3372L16.5173 33.3321L21.2276 30.3947L26.6685 34.566C26.7488 34.6276 26.8363 34.6792 26.9291 34.7196C27.5827 35.0049 28.2157 35.1044 28.8111 35.023C29.4055 34.9418 29.8775 34.6921 30.2287 34.4111C30.5728 34.1358 30.806 33.8276 30.9512 33.5985C31.0254 33.4815 31.0811 33.3781 31.1204 33.2988C31.1401 33.259 31.156 33.2247 31.1682 33.1971L31.1839 33.1608L31.1899 33.1465L31.1923 33.1404L31.1935 33.1376L31.1945 33.135C31.2231 33.0635 31.245 32.9896 31.26 32.9141L36.2271 7.87156C36.2429 7.79147 36.2509 7.71002 36.2509 7.62837C36.2509 6.89501 35.9746 6.19767 35.3249 5.77452C34.7696 5.41286 34.151 5.39729 33.76 5.42696C33.3383 5.45897 32.9487 5.56309 32.6874 5.64628C32.5513 5.68957 32.4373 5.73135 32.3551 5.76322C32.3137 5.77923 32.2799 5.79297 32.2546 5.80346L32.2357 5.81143L4.37949 16.739L4.37588 16.7403C4.35813 16.7468 4.33534 16.7553 4.30825 16.7658C4.25431 16.7868 4.18204 16.8164 4.09762 16.8547C3.93298 16.9293 3.70201 17.0459 3.465 17.2082C3.08635 17.4675 2.21553 18.1777 2.36217 19.3498C2.47915 20.285 3.11978 20.8593 3.5101 21.1354C3.72442 21.2871 3.92803 21.3955 4.07631 21.4661C4.1451 21.4989 4.28793 21.5569 4.3499 21.5821L4.36554 21.5884L9.64663 23.3664ZM33.2106 8.11343L33.2067 8.11512C33.1928 8.12115 33.1788 8.12693 33.1648 8.13245L5.27474 19.0733C5.26017 19.079 5.2455 19.0844 5.23073 19.0896L5.21521 19.0955C5.19737 19.1024 5.16733 19.1146 5.12962 19.1317C5.10825 19.1414 5.08594 19.152 5.06319 19.1633C5.09444 19.1809 5.12435 19.1962 5.15093 19.2089C5.17645 19.221 5.19591 19.2293 5.20656 19.2337L10.4443 20.997C10.5401 21.0293 10.6295 21.0721 10.7116 21.1236L28.0062 10.9995L28.0223 10.9899C28.035 10.9824 28.0515 10.9729 28.0713 10.9617C28.1107 10.9394 28.1648 10.9098 28.2291 10.877C28.3491 10.816 28.5412 10.7253 28.7575 10.6584C28.9081 10.6119 29.3523 10.4807 29.8324 10.6347C30.1288 10.7298 30.4356 10.9341 30.6352 11.2803C30.7343 11.4523 30.7871 11.625 30.8127 11.7832C30.8807 12.0323 30.8699 12.2783 30.8167 12.4907C30.7021 12.9482 30.3807 13.3051 30.0882 13.5781C29.8376 13.8121 26.5953 16.9385 23.3967 20.0248C21.8016 21.5639 20.2228 23.0878 19.0428 24.2269L18.2677 24.9752L28.0542 32.4782C28.2787 32.5586 28.4114 32.5544 28.4728 32.546C28.5459 32.536 28.6057 32.5079 28.6669 32.459C28.7353 32.4043 28.7951 32.3304 28.8398 32.2599L28.8416 32.257L33.6591 7.96869C33.5876 7.98587 33.5153 8.00633 33.4456 8.02851C33.3667 8.05363 33.3016 8.07755 33.2585 8.09428C33.2371 8.10256 33.2217 8.10884 33.2134 8.1123L33.2106 8.11343ZM19.1084 28.7699L17.156 27.273L16.6829 30.2825L19.1084 28.7699ZM15.3648 24.3027L17.3065 22.4282C18.4866 21.289 20.0656 19.765 21.6608 18.2257L23.2817 16.662L12.4149 23.0233L12.4733 23.1608C12.7694 23.8593 13.1688 24.8048 13.5815 25.7922C13.89 26.5304 14.2127 27.3077 14.5066 28.0274L14.9783 25.0267C15.0238 24.7374 15.1651 24.487 15.3648 24.3027Z" fill="white"/>
</svg>
