<svg width="56" height="56" viewBox="0 0 56 56" fill="none" xmlns="http://www.w3.org/2000/svg">
<path fill-rule="evenodd" clip-rule="evenodd" d="M13.5045 32.7131C13.6066 32.7475 13.7097 32.7719 13.8127 32.7869C13.925 33.0508 14.0702 33.3923 14.2395 33.7916C14.6526 34.766 15.2093 36.0839 15.784 37.4589C16.9559 40.2628 18.138 43.1532 18.3991 43.9805C18.7223 45.0033 19.0639 45.6986 19.4368 46.1733C19.6297 46.4187 19.8527 46.6331 20.1137 46.7954C20.245 46.8771 20.3838 46.9441 20.5286 46.9941C20.535 46.9963 20.5414 46.9984 20.5478 47.0005C21.2945 47.2825 21.9752 47.165 22.4015 47.0214C22.6295 46.9446 22.8141 46.8518 22.9448 46.7766C23.0115 46.7383 23.0679 46.7025 23.1128 46.6723L23.1234 46.6651L29.7179 42.5527L37.3351 48.3926C37.4476 48.4788 37.5701 48.551 37.7 48.6077C38.615 49.007 39.5012 49.1463 40.3348 49.0324C41.1669 48.9188 41.8277 48.5691 42.3195 48.1757C42.8011 47.7903 43.1276 47.3588 43.331 47.0381C43.4348 46.8743 43.5128 46.7295 43.5677 46.6185C43.5954 46.5628 43.6176 46.5147 43.6347 46.4762L43.6567 46.4253L43.665 46.4053L43.6685 46.3968L43.6701 46.3929L43.6715 46.3892C43.7116 46.2891 43.7423 46.1856 43.7632 46.0799L50.7171 11.0204C50.7393 10.9083 50.7505 10.7942 50.7505 10.6799C50.7505 9.65321 50.3637 8.67694 49.4541 8.08452C48.6766 7.57819 47.8106 7.5564 47.2632 7.59794C46.6728 7.64276 46.1275 7.78852 45.7615 7.90499C45.5711 7.9656 45.4114 8.02408 45.2963 8.0687C45.2385 8.09112 45.191 8.11036 45.1557 8.12503L45.1292 8.1362L6.1305 23.4348L6.12545 23.4366C6.10059 23.4457 6.06869 23.4576 6.03077 23.4723C5.95525 23.5017 5.85407 23.5432 5.73589 23.5967C5.50539 23.7012 5.18203 23.8645 4.85022 24.0917C4.32011 24.4547 3.10097 25.4489 3.30625 27.09C3.47003 28.3991 4.36692 29.2032 4.91336 29.5898C5.21341 29.8021 5.49846 29.954 5.70606 30.0528C5.80237 30.0986 6.00232 30.1799 6.08908 30.2151L6.11098 30.224L13.5045 32.7131ZM46.494 11.359L46.4886 11.3614C46.4692 11.3698 46.4496 11.3779 46.4299 11.3856L7.38385 26.7028C7.36346 26.7108 7.34292 26.7184 7.32225 26.7256L7.30051 26.7339C7.27554 26.7436 7.23348 26.7607 7.18069 26.7846C7.15076 26.7982 7.11953 26.813 7.08768 26.8289C7.13143 26.8535 7.17331 26.8749 7.21052 26.8926C7.24624 26.9096 7.27349 26.9213 7.28841 26.9274L14.6212 29.396C14.7554 29.4412 14.8805 29.5011 14.9954 29.5732L39.2079 15.3994L39.2305 15.386C39.2482 15.3756 39.2713 15.3622 39.2991 15.3465C39.3542 15.3154 39.4299 15.2739 39.52 15.2281C39.688 15.1425 39.9569 15.0156 40.2597 14.922C40.4706 14.8568 41.0924 14.6732 41.7646 14.8888C42.1795 15.0219 42.6091 15.308 42.8884 15.7926C43.0272 16.0334 43.1012 16.2753 43.137 16.4967C43.2322 16.8455 43.2171 17.1899 43.1426 17.4872C42.9822 18.1277 42.5322 18.6274 42.1227 19.0095C41.7719 19.3371 37.2327 23.7141 32.7546 28.0349C30.5215 30.1896 28.3112 32.3231 26.6591 33.9179L25.574 34.9654L39.2751 45.4697C39.5894 45.5822 39.7751 45.5764 39.8611 45.5647C39.9635 45.5507 40.0473 45.5113 40.1329 45.4428C40.2286 45.3662 40.3124 45.2628 40.3749 45.1641L40.3775 45.16L47.1219 11.1564C47.0218 11.1804 46.9207 11.2091 46.8231 11.2401C46.7126 11.2753 46.6215 11.3088 46.5611 11.3322C46.5312 11.3438 46.5097 11.3526 46.498 11.3574L46.494 11.359ZM26.751 40.2781L24.0176 38.1824L23.3552 42.3958L26.751 40.2781ZM21.51 34.0239L24.2283 31.3997C25.8805 29.8048 28.091 27.6712 30.3244 25.5162L32.5935 23.327L17.3801 32.2328L17.4618 32.4253C17.8764 33.4032 18.4356 34.727 19.0133 36.1092C19.4453 37.1428 19.897 38.231 20.3084 39.2386L20.9688 35.0376C21.0325 34.6326 21.2303 34.2819 21.51 34.0239Z" fill="white"/>
</svg>
