<svg width="56" height="56" viewBox="0 0 56 56" fill="none" xmlns="http://www.w3.org/2000/svg">
<path fill-rule="evenodd" clip-rule="evenodd" d="M13.5045 32.7121C13.6066 32.7465 13.7097 32.7709 13.8127 32.7859C13.925 33.0498 14.0702 33.3913 14.2395 33.7906C14.6526 34.765 15.2093 36.083 15.784 37.4579C16.9559 40.2619 18.138 43.1522 18.3991 43.9795C18.7223 45.0023 19.0639 45.6976 19.4368 46.1723C19.6297 46.4178 19.8527 46.6322 20.1137 46.7944C20.245 46.8761 20.3838 46.9432 20.5286 46.9931C20.535 46.9953 20.5414 46.9974 20.5478 46.9996C21.2945 47.2815 21.9752 47.164 22.4015 47.0204C22.6295 46.9436 22.8141 46.8508 22.9448 46.7757C23.0115 46.7373 23.0679 46.7015 23.1128 46.6713L23.1234 46.6642L29.7179 42.5517L37.3351 48.3916C37.4476 48.4778 37.5701 48.5501 37.7 48.6067C38.615 49.0061 39.5012 49.1453 40.3348 49.0315C41.1669 48.9178 41.8277 48.5682 42.3195 48.1747C42.8011 47.7893 43.1276 47.3578 43.331 47.0371C43.4348 46.8733 43.5128 46.7285 43.5677 46.6176C43.5954 46.5618 43.6176 46.5138 43.6347 46.4752L43.6567 46.4243L43.665 46.4043L43.6685 46.3958L43.6701 46.3919L43.6715 46.3882C43.7116 46.2882 43.7423 46.1846 43.7632 46.0789L50.7171 11.0194C50.7393 10.9073 50.7505 10.7932 50.7505 10.6789C50.7505 9.65223 50.3637 8.67596 49.4541 8.08354C48.6766 7.57722 47.8106 7.55542 47.2632 7.59697C46.6728 7.64178 46.1275 7.78754 45.7615 7.90401C45.5711 7.96462 45.4114 8.02311 45.2963 8.06772C45.2385 8.09015 45.191 8.10938 45.1557 8.12406L45.1292 8.13523L6.1305 23.4338L6.12545 23.4356C6.10059 23.4447 6.06869 23.4566 6.03077 23.4714C5.95525 23.5008 5.85407 23.5422 5.73589 23.5958C5.50539 23.7002 5.18203 23.8635 4.85022 24.0907C4.32011 24.4537 3.10097 25.448 3.30625 27.089C3.47003 28.3982 4.36692 29.2022 4.91336 29.5888C5.21341 29.8011 5.49846 29.953 5.70606 30.0518C5.80237 30.0977 6.00232 30.1789 6.08908 30.2141L6.11098 30.223L13.5045 32.7121ZM46.494 11.358L46.4886 11.3604C46.4692 11.3688 46.4496 11.3769 46.4299 11.3847L7.38385 26.7018C7.36346 26.7098 7.34292 26.7174 7.32225 26.7247L7.30051 26.7329C7.27554 26.7426 7.23348 26.7597 7.18069 26.7836C7.15076 26.7972 7.11953 26.812 7.08768 26.8279C7.13143 26.8525 7.17331 26.8739 7.21052 26.8916C7.24624 26.9087 7.27349 26.9203 7.28841 26.9264L14.6212 29.395C14.7554 29.4402 14.8805 29.5001 14.9954 29.5723L39.2079 15.3985L39.2305 15.3851C39.2482 15.3746 39.2713 15.3612 39.2991 15.3455C39.3542 15.3144 39.4299 15.2729 39.52 15.2271C39.688 15.1416 39.9569 15.0146 40.2597 14.921C40.4706 14.8558 41.0924 14.6722 41.7646 14.8878C42.1795 15.0209 42.6091 15.307 42.8884 15.7916C43.0272 16.0324 43.1012 16.2743 43.137 16.4957C43.2322 16.8445 43.2171 17.1889 43.1426 17.4862C42.9822 18.1268 42.5322 18.6264 42.1227 19.0085C41.7719 19.3362 37.2327 23.7131 32.7546 28.0339C30.5215 30.1886 28.3112 32.3221 26.6591 33.9169L25.574 34.9644L39.2751 45.4687C39.5894 45.5812 39.7751 45.5754 39.8611 45.5637C39.9635 45.5497 40.0473 45.5103 40.1329 45.4418C40.2286 45.3652 40.3124 45.2618 40.3749 45.1631L40.3775 45.159L47.1219 11.1554C47.0218 11.1794 46.9207 11.2081 46.8231 11.2391C46.7126 11.2743 46.6215 11.3078 46.5611 11.3312C46.5312 11.3428 46.5097 11.3516 46.498 11.3564L46.494 11.358ZM26.751 40.2771L24.0176 38.1815L23.3552 42.3948L26.751 40.2771ZM21.51 34.023L24.2283 31.3987C25.8805 29.8038 28.091 27.6702 30.3244 25.5152L32.5935 23.326L17.3801 32.2318L17.4618 32.4243C17.8764 33.4022 18.4356 34.726 19.0133 36.1082C19.4453 37.1418 19.897 38.23 20.3084 39.2376L20.9688 35.0366C21.0325 34.6316 21.2303 34.281 21.51 34.023Z" fill="white"/>
</svg>
