<svg width="40" height="40" viewBox="0 0 40 40" fill="none" xmlns="http://www.w3.org/2000/svg">
<path fill-rule="evenodd" clip-rule="evenodd" d="M9.64663 23.3654C9.71958 23.3899 9.79322 23.4074 9.86679 23.4181C9.94701 23.6066 10.0507 23.8505 10.1716 24.1357C10.4667 24.8318 10.8644 25.7731 11.2748 26.7552C12.1119 28.7581 12.9563 30.8226 13.1427 31.4135C13.3736 32.1441 13.6176 32.6407 13.884 32.9798C14.0217 33.1551 14.181 33.3083 14.3675 33.4242C14.4613 33.4825 14.5604 33.5304 14.6639 33.5661C14.6684 33.5676 14.673 33.5692 14.6775 33.5707C15.2109 33.7721 15.6972 33.6881 16.0016 33.5856C16.1645 33.5307 16.2963 33.4644 16.3897 33.4108C16.4374 33.3834 16.4776 33.3578 16.5097 33.3362L16.5173 33.3311L21.2276 30.3937L26.6685 34.565C26.7488 34.6266 26.8363 34.6782 26.9291 34.7187C27.5827 35.0039 28.2157 35.1034 28.8111 35.0221C29.4055 34.9409 29.8775 34.6911 30.2287 34.4101C30.5728 34.1348 30.806 33.8266 30.9512 33.5975C31.0254 33.4805 31.0811 33.3771 31.1204 33.2978C31.1401 33.258 31.156 33.2237 31.1682 33.1961L31.1839 33.1598L31.1899 33.1455L31.1923 33.1394L31.1935 33.1367L31.1945 33.134C31.2231 33.0626 31.245 32.9886 31.26 32.9131L36.2271 7.87058C36.2429 7.79049 36.2509 7.70904 36.2509 7.62739C36.2509 6.89403 35.9746 6.1967 35.3249 5.77354C34.7696 5.41188 34.151 5.39631 33.76 5.42599C33.3383 5.458 32.9487 5.56211 32.6874 5.6453C32.5513 5.6886 32.4373 5.73037 32.3551 5.76224C32.3137 5.77826 32.2799 5.792 32.2546 5.80248L32.2357 5.81046L4.37949 16.738L4.37588 16.7393C4.35813 16.7458 4.33534 16.7543 4.30825 16.7648C4.25431 16.7858 4.18204 16.8154 4.09762 16.8537C3.93298 16.9283 3.70201 17.0449 3.465 17.2072C3.08635 17.4665 2.21553 18.1767 2.36217 19.3489C2.47915 20.284 3.11978 20.8583 3.5101 21.1345C3.72442 21.2861 3.92803 21.3946 4.07631 21.4652C4.1451 21.4979 4.28793 21.5559 4.3499 21.5811L4.36554 21.5875L9.64663 23.3654ZM33.2106 8.11246L33.2067 8.11414C33.1928 8.12017 33.1788 8.12595 33.1648 8.13148L5.27474 19.0723C5.26017 19.078 5.2455 19.0835 5.23073 19.0886L5.21521 19.0945C5.19737 19.1015 5.16733 19.1137 5.12962 19.1307C5.10825 19.1404 5.08594 19.151 5.06319 19.1624C5.09444 19.18 5.12435 19.1952 5.15093 19.2079C5.17645 19.22 5.19591 19.2284 5.20656 19.2327L10.4443 20.996C10.5401 21.0283 10.6295 21.0711 10.7116 21.1226L28.0062 10.9985L28.0223 10.9889C28.035 10.9815 28.0515 10.9719 28.0713 10.9607C28.1107 10.9384 28.1648 10.9088 28.2291 10.8761C28.3491 10.815 28.5412 10.7243 28.7575 10.6574C28.9081 10.6109 29.3523 10.4797 29.8324 10.6337C30.1288 10.7288 30.4356 10.9331 30.6352 11.2793C30.7343 11.4513 30.7871 11.6241 30.8127 11.7822C30.8807 12.0314 30.8699 12.2774 30.8167 12.4898C30.7021 12.9473 30.3807 13.3041 30.0882 13.5771C29.8376 13.8111 26.5953 16.9375 23.3967 20.0238C21.8016 21.5629 20.2228 23.0868 19.0428 24.2259L18.2677 24.9742L28.0542 32.4772C28.2787 32.5576 28.4114 32.5535 28.4728 32.5451C28.5459 32.5351 28.6057 32.5069 28.6669 32.458C28.7353 32.4033 28.7951 32.3294 28.8398 32.2589L28.8416 32.256L33.6591 7.96771C33.5876 7.9849 33.5153 8.00536 33.4456 8.02754C33.3667 8.05266 33.3016 8.07658 33.2585 8.0933C33.2371 8.10158 33.2217 8.10786 33.2134 8.11132L33.2106 8.11246ZM19.1084 28.7689L17.156 27.272L16.6829 30.2816L19.1084 28.7689ZM15.3648 24.3017L17.3065 22.4272C18.4866 21.288 20.0656 19.764 21.6608 18.2248L23.2817 16.661L12.4149 23.0223L12.4733 23.1598C12.7694 23.8583 13.1688 24.8039 13.5815 25.7912C13.89 26.5294 14.2127 27.3068 14.5066 28.0264L14.9783 25.0257C15.0238 24.7364 15.1651 24.486 15.3648 24.3017Z" fill="white"/>
</svg>
